<svg xmlns="http://www.w3.org/2000/svg" version="1.1" xmlns:xlink="http://www.w3.org/1999/xlink"  width="500"  height="500" viewBox="0 0 500 500">
  <defs>
    <pattern class="normal" id="pattern-cloud-development" height="60" width="60" patternunits="userSpaceOnUse" patterntransform="scale(1.25) ">
      <path id="pattern-cloud-development-path" stroke-width="1" fill="none" d="M 30.5,0 C 30.5,4.1 27.1,7.5 23,7.5 18.9,7.5 15.5,4.1 15.5,0 m 0,60 c 0,-4.1 3.4,-7.5 7.5,-7.5 4.1,0 7.5,3.4 7.5,7.5 m -15,-50 c 0,4.14 -3.36,7.5 -7.5,7.5 C 3.858,17.5 0.5,14.14 0.5,10 0.5,5.858 3.858,2.5 8,2.5 c 4.14,0 7.5,3.358 7.5,7.5 z m 29.33,0 c 0,4.14 -3.36,7.5 -7.5,7.5 -4.14,0 -7.5,-3.36 -7.5,-7.5 0,-4.142 3.36,-7.5 7.5,-7.5 4.14,0 7.5,3.358 7.5,7.5 z M 30.5,20 c 0,4.14 -3.36,7.5 -7.5,7.5 -4.14,0 -7.5,-3.36 -7.5,-7.5 0,-4.14 3.36,-7.5 7.5,-7.5 4.14,0 7.5,3.36 7.5,7.5 z m 0,20 c 0,4.14 -3.36,7.5 -7.5,7.5 -4.14,0 -7.5,-3.36 -7.5,-7.5 0,-4.14 3.36,-7.5 7.5,-7.5 4.14,0 7.5,3.36 7.5,7.5 z m 14,20 c 0,-4.1 3.4,-7.5 7.5,-7.5 4.1,0 7.5,3.4 7.5,7.5 m 0,-60 C 59.5,4.1 56.1,7.5 52,7.5 47.9,7.5 44.5,4.1 44.5,0 m 15,20.5 c 0,4.14 -3.36,7.5 -7.5,7.5 -4.14,0 -7.5,-3.36 -7.5,-7.5 0,-4.14 3.36,-7.5 7.5,-7.5 4.14,0 7.5,3.36 7.5,7.5 z m 0,20 c 0,4.14 -3.36,7.5 -7.5,7.5 -4.14,0 -7.5,-3.36 -7.5,-7.5 0,-4.14 3.36,-7.5 7.5,-7.5 4.14,0 7.5,3.36 7.5,7.5 z M 15.5,30 c 0,4.14 -3.36,7.5 -7.5,7.5 -4.142,0 -7.5,-3.36 -7.5,-7.5 0,-4.14 3.358,-7.5 7.5,-7.5 4.14,0 7.5,3.36 7.5,7.5 z m 29.33,0 c 0,4.14 -3.36,7.5 -7.5,7.5 -4.14,0 -7.5,-3.36 -7.5,-7.5 0,-4.14 3.36,-7.5 7.5,-7.5 4.14,0 7.5,3.36 7.5,7.5 z m 0,20 c 0,4.14 -3.36,7.5 -7.5,7.5 -4.14,0 -7.5,-3.36 -7.5,-7.5 0,-4.14 3.36,-7.5 7.5,-7.5 4.14,0 7.5,3.36 7.5,7.5 z M 15.5,50 c 0,4.14 -3.36,7.5 -7.5,7.5 -4.142,0 -7.5,-3.36 -7.5,-7.5 0,-4.14 3.358,-7.5 7.5,-7.5 4.14,0 7.5,3.36 7.5,7.5 z M 8,0 8,2.5 m 0,15 0,5 m 0,15 0,5 m 0,15 0,2.5 m 29.33,-60 0,2.5 m 0,15 0,5 m 0,15 0,5 m 0,15 0,2.5 M 23,7.5 l 0,5 m 0,15 0,5 m 0,15 0,5 m 29,-45 0,5.5 m 0,15 0,5 m 0,15 0,4.5" style="stroke-linecap:square;"></path>
    </pattern>
  </defs>

  <rect fill="url(#pattern-cloud-development)" x="0" y="0" width="1000" height="60" transform="translate(-250, 250) rotate(315 500 0)"></rect>
</svg>
