<svg xmlns="http://www.w3.org/2000/svg" xmlns:xlink="http://www.w3.org/1999/xlink" x="0px" y="0px" viewBox="0 0 60 82" xml:space="preserve">
<g>
	<g>
		<g>
			<defs>
				<path id="SVGID_1_" d="M5.589,1.965c-2.108,0-3.82,1.691-3.82,3.82v70.429c0,2.108,1.712,3.82,3.82,3.82h48.803
					c2.119,0,3.841-1.712,3.841-3.82V5.786c0-2.129-1.722-3.82-3.841-3.82H5.589z"/>
			</defs>
			<clipPath id="SVGID_2_">
				<use xlink:href="#SVGID_1_"  overflow="visible"/>
			</clipPath>
			
				<linearGradient id="SVGID_3_" gradientUnits="userSpaceOnUse" x1="-1041.1108" y1="565.9756" x2="-1038.2954" y2="565.9756" gradientTransform="matrix(0 27.7261 27.7261 0 -15662.2852 28867.9219)">
				<stop  offset="0" style="stop-color:#212020"/>
				<stop  offset="0.05" style="stop-color:#313130"/>
				<stop  offset="0.95" style="stop-color:#212020"/>
				<stop  offset="1" style="stop-color:#9D9E9D"/>
			</linearGradient>
			<rect x="1.769" y="1.965" clip-path="url(#SVGID_2_)" fill="url(#SVGID_3_)" width="56.464" height="78.069"/>
		</g>
		<g>
			<defs>
				<path id="SVGID_4_" d="M5.589,3.927c-1.034,0-1.858,0.846-1.858,1.858v26.552c0,0.354,0.282,0.626,0.626,0.626h1.055
					c0.156,0,0.292,0.146,0.292,0.313v6.795c0,0.156,0.073,0.303,0.188,0.438c0.136,0.114,0.282,0.178,0.438,0.178h47.332
					c0.157,0,0.313-0.063,0.428-0.178c0.126-0.136,0.188-0.282,0.188-0.438v-6.795c0-0.166,0.136-0.313,0.303-0.313h1.054
					c0.345,0,0.626-0.271,0.626-0.626V5.786c0-1.013-0.824-1.858-1.868-1.858H5.589z"/>
			</defs>
			<clipPath id="SVGID_5_">
				<use xlink:href="#SVGID_4_"  overflow="visible"/>
			</clipPath>
			
				<linearGradient id="SVGID_6_" gradientUnits="userSpaceOnUse" x1="-1049.8994" y1="452.958" x2="-1047.083" y2="452.958" gradientTransform="matrix(0 -13.0518 -13.0518 0 5941.9058 -13662.3867)">
				<stop  offset="0" style="stop-color:#212020"/>
				<stop  offset="0.0109" style="stop-color:#1A1919"/>
				<stop  offset="0.018" style="stop-color:#121212"/>
				<stop  offset="0.1688" style="stop-color:#121212"/>
				<stop  offset="0.198" style="stop-color:#414141"/>
				<stop  offset="0.214" style="stop-color:#616161"/>
				<stop  offset="0.2176" style="stop-color:#5D5D5D"/>
				<stop  offset="0.2215" style="stop-color:#505050"/>
				<stop  offset="0.2254" style="stop-color:#3C3C3B"/>
				<stop  offset="0.227" style="stop-color:#313130"/>
				<stop  offset="0.95" style="stop-color:#212020"/>
				<stop  offset="1" style="stop-color:#BFBEBE"/>
			</linearGradient>
			<rect x="3.73" y="3.927" clip-path="url(#SVGID_5_)" fill="url(#SVGID_6_)" width="52.529" height="36.76"/>
		</g>
		<g>
			<defs>
				<path id="SVGID_7_" d="M5.589,4.23c-0.856,0-1.535,0.699-1.535,1.556v26.552c0,0.177,0.146,0.313,0.303,0.313h1.055
					c0.334,0,0.615,0.282,0.615,0.626v6.795c0,0.073,0.031,0.156,0.084,0.219c0.063,0.063,0.146,0.084,0.219,0.084h47.332
					c0.073,0,0.157-0.021,0.209-0.084c0.063-0.063,0.083-0.146,0.083-0.219v-6.795c0-0.344,0.293-0.626,0.627-0.626h1.054
					c0.178,0,0.313-0.136,0.313-0.313V5.786c0-0.856-0.699-1.556-1.556-1.556H5.589z"/>
			</defs>
			<clipPath id="SVGID_8_">
				<use xlink:href="#SVGID_7_"  overflow="visible"/>
			</clipPath>
			
				<linearGradient id="SVGID_9_" gradientUnits="userSpaceOnUse" x1="-1049.9517" y1="451.6885" x2="-1047.1348" y2="451.6885" gradientTransform="matrix(0 -12.832 -12.832 0 5826.0669 -13432.6025)">
				<stop  offset="0" style="stop-color:#393939"/>
				<stop  offset="1" style="stop-color:#313130"/>
			</linearGradient>
			<rect x="4.054" y="4.23" clip-path="url(#SVGID_8_)" fill="url(#SVGID_9_)" width="51.894" height="36.144"/>
		</g>
		<g>
			<defs>
				<path id="SVGID_10_" d="M6.329,41.302c-0.156,0-0.303,0.063-0.438,0.188c-0.114,0.114-0.188,0.271-0.188,0.438v6.785
					c0,0.188-0.136,0.303-0.292,0.303H4.356c-0.344,0-0.626,0.292-0.626,0.626v26.572c0,1.013,0.824,1.848,1.858,1.848h48.803
					c1.044,0,1.868-0.835,1.868-1.848V49.642c0-0.334-0.281-0.626-0.626-0.626H54.58c-0.167,0-0.303-0.115-0.303-0.303v-6.785
					c0-0.166-0.063-0.323-0.188-0.438c-0.114-0.125-0.271-0.188-0.428-0.188H6.329z"/>
			</defs>
			<clipPath id="SVGID_11_">
				<use xlink:href="#SVGID_10_"  overflow="visible"/>
			</clipPath>
			
				<linearGradient id="SVGID_12_" gradientUnits="userSpaceOnUse" x1="-1036.7197" y1="606.6182" x2="-1033.9028" y2="606.6182" gradientTransform="matrix(0 13.0518 13.0518 0 -7887.4722 13572.3613)">
				<stop  offset="0" style="stop-color:#717171"/>
				<stop  offset="0.0032" style="stop-color:#6B6B6B"/>
				<stop  offset="0.0073" style="stop-color:#5B5B5B"/>
				<stop  offset="0.012" style="stop-color:#404040"/>
				<stop  offset="0.017" style="stop-color:#1A1A1A"/>
				<stop  offset="0.018" style="stop-color:#121212"/>
				<stop  offset="0.198" style="stop-color:#121212"/>
				<stop  offset="0.214" style="stop-color:#8E8E8E"/>
				<stop  offset="0.2164" style="stop-color:#8A8A8A"/>
				<stop  offset="0.2189" style="stop-color:#7E7D7D"/>
				<stop  offset="0.2215" style="stop-color:#696969"/>
				<stop  offset="0.224" style="stop-color:#4C4C4C"/>
				<stop  offset="0.2266" style="stop-color:#282727"/>
				<stop  offset="0.227" style="stop-color:#212020"/>
				<stop  offset="0.95" style="stop-color:#313130"/>
				<stop  offset="1" style="stop-color:#121212"/>
			</linearGradient>
			<rect x="3.73" y="41.302" clip-path="url(#SVGID_11_)" fill="url(#SVGID_12_)" width="52.529" height="36.76"/>
		</g>
		<g>
			<defs>
				<path id="SVGID_13_" d="M6.329,41.616c-0.072,0-0.156,0.042-0.219,0.084c-0.053,0.063-0.084,0.135-0.084,0.229v6.785
					c0,0.344-0.281,0.626-0.615,0.626H4.356c-0.156,0-0.303,0.146-0.303,0.303v26.572c0,0.846,0.679,1.545,1.535,1.545h48.803
					c0.856,0,1.556-0.699,1.556-1.545V49.642c0-0.157-0.136-0.303-0.313-0.303H54.58c-0.334,0-0.627-0.282-0.627-0.626v-6.785
					c0-0.094-0.021-0.166-0.083-0.229c-0.052-0.042-0.136-0.084-0.209-0.084H6.329z"/>
			</defs>
			<clipPath id="SVGID_14_">
				<use xlink:href="#SVGID_13_"  overflow="visible"/>
			</clipPath>
			
				<linearGradient id="SVGID_15_" gradientUnits="userSpaceOnUse" x1="-1036.5923" y1="607.9385" x2="-1033.7754" y2="607.9385" gradientTransform="matrix(0 12.8311 12.8311 0 -7770.5156 13342.2295)">
				<stop  offset="0" style="stop-color:#414141"/>
				<stop  offset="1" style="stop-color:#393939"/>
			</linearGradient>
			<rect x="4.054" y="41.616" clip-path="url(#SVGID_14_)" fill="url(#SVGID_15_)" width="51.894" height="36.144"/>
		</g>
		<g>
			<defs>
				<rect id="SVGID_16_" x="3.73" y="33.287" width="1.681" height="15.427"/>
			</defs>
			<clipPath id="SVGID_17_">
				<use xlink:href="#SVGID_16_"  overflow="visible"/>
			</clipPath>
			
				<linearGradient id="SVGID_18_" gradientUnits="userSpaceOnUse" x1="-1059.8325" y1="349.9346" x2="-1057.0181" y2="349.9346" gradientTransform="matrix(0 -5.4814 -5.4814 0 1922.7017 -5760.6484)">
				<stop  offset="0" style="stop-color:#010101"/>
				<stop  offset="0.0875" style="stop-color:#212020"/>
				<stop  offset="0.1625" style="stop-color:#393939"/>
				<stop  offset="0.2164" style="stop-color:#2D2D2D"/>
				<stop  offset="0.2907" style="stop-color:#242323"/>
				<stop  offset="0.39" style="stop-color:#212020"/>
				<stop  offset="0.625" style="stop-color:#414141"/>
				<stop  offset="0.875" style="stop-color:#DFDFDE"/>
				<stop  offset="0.883" style="stop-color:#DDDDDC"/>
				<stop  offset="0.8859" style="stop-color:#D6D6D5"/>
				<stop  offset="0.888" style="stop-color:#CACAC9"/>
				<stop  offset="0.8897" style="stop-color:#BABAB9"/>
				<stop  offset="0.8911" style="stop-color:#A3A3A2"/>
				<stop  offset="0.8924" style="stop-color:#888887"/>
				<stop  offset="0.8935" style="stop-color:#686867"/>
				<stop  offset="0.8946" style="stop-color:#434342"/>
				<stop  offset="0.895" style="stop-color:#313130"/>
				<stop  offset="1" style="stop-color:#010101"/>
			</linearGradient>
			<rect x="3.73" y="33.287" clip-path="url(#SVGID_17_)" fill="url(#SVGID_18_)" width="1.681" height="15.427"/>
		</g>
		<g>
			<defs>
				<rect id="SVGID_19_" x="54.58" y="33.287" width="1.68" height="15.427"/>
			</defs>
			<clipPath id="SVGID_20_">
				<use xlink:href="#SVGID_19_"  overflow="visible"/>
			</clipPath>
			
				<linearGradient id="SVGID_21_" gradientUnits="userSpaceOnUse" x1="-1059.8325" y1="343.9512" x2="-1057.0181" y2="343.9512" gradientTransform="matrix(0 -5.4814 -5.4814 0 1940.7524 -5760.6484)">
				<stop  offset="0" style="stop-color:#010101"/>
				<stop  offset="0.0875" style="stop-color:#212020"/>
				<stop  offset="0.1625" style="stop-color:#393939"/>
				<stop  offset="0.2164" style="stop-color:#2D2D2D"/>
				<stop  offset="0.2907" style="stop-color:#242323"/>
				<stop  offset="0.39" style="stop-color:#212020"/>
				<stop  offset="0.625" style="stop-color:#414141"/>
				<stop  offset="0.875" style="stop-color:#DFDFDE"/>
				<stop  offset="0.883" style="stop-color:#DDDDDC"/>
				<stop  offset="0.8859" style="stop-color:#D6D6D5"/>
				<stop  offset="0.888" style="stop-color:#CACAC9"/>
				<stop  offset="0.8897" style="stop-color:#BABAB9"/>
				<stop  offset="0.8911" style="stop-color:#A3A3A2"/>
				<stop  offset="0.8924" style="stop-color:#888887"/>
				<stop  offset="0.8935" style="stop-color:#686867"/>
				<stop  offset="0.8946" style="stop-color:#434342"/>
				<stop  offset="0.895" style="stop-color:#313130"/>
				<stop  offset="1" style="stop-color:#010101"/>
			</linearGradient>
			<rect x="54.58" y="33.287" clip-path="url(#SVGID_20_)" fill="url(#SVGID_21_)" width="1.68" height="15.427"/>
		</g>
	</g>
</g>
</svg>
