<svg class="redhat-logo inverted" width="494" height="180" viewBox="0 0 494 180"><path class="logotext" style="fill:white" d="M488.326 115.346c-1.816 0-3.281 1.469-3.281 3.284 0 1.809 1.465 3.271 3.281 3.271 1.81 0 3.277-1.461 3.277-3.271 0-1.815-1.468-3.284-3.277-3.284zm3.989 3.281c0 2.197-1.788 3.983-3.989 3.983-2.196 0-3.986-1.786-3.986-3.983 0-2.201 1.79-3.987 3.986-3.987 2.201 0 3.989 1.786 3.989 3.987m-4.716-.255v-1.262h.838c.424 0 .887.095.887.596 0 .626-.464.666-.989.666h-.736zm0 .525h.711l1.071 1.76h.693l-1.16-1.796c.604-.073 1.059-.388 1.059-1.113 0-.809-.481-1.158-1.439-1.158h-1.552v4.067h.618v-1.76m-22.172-63.12v11.917h15.415v4.338h-15.415v35.149c0 6.877 2.135 11.185 7.944 11.185 2.788 0 4.759-.366 6.145-.847l.647 4.142c-1.746.732-4.199 1.3-7.464 1.3-3.946 0-7.219-1.243-9.331-3.835-2.449-2.841-3.286-7.38-3.286-12.897v-34.197h-9.126v-4.338h9.126v-9.944l5.345-1.973m-26.645 37.095c-11.776-.339-27.325 1.445-27.325 14.429 0 7.771 5.13 11.265 10.764 11.265 9.011 0 14.135-5.58 16.001-10.843.389-1.154.56-2.313.56-3.24v-11.61zm5.346 16.059c0 4.276.172 8.704.789 12.845h-4.928l-.785-7.749h-.255c-2.619 4.167-8.645 8.979-17.241 8.979-10.881 0-15.944-7.652-15.944-14.863 0-12.483 11.018-20.002 33.017-19.77v-1.445c0-5.35-1.04-16.02-13.832-15.936-4.732 0-9.662 1.266-13.575 4.029l-1.702-3.89c4.94-3.349 10.974-4.673 15.865-4.673 15.605 0 18.591 11.715 18.591 21.378v21.095m-66.784-42.473c-4.115 0-7.801 1.187-10.899 3.098-3.215 1.883-5.831 4.79-7.388 7.8h-.216v-25.289l-5.35-1.58v71.289h5.35v-33.071c0-2.197.168-3.721.728-5.327 2.311-6.727 8.65-12.247 16.311-12.247 11.071 0 14.904 8.878 14.904 18.616v32.03h5.346v-32.62c0-20.142-13.66-22.699-18.786-22.699m-36.127-19.525l-13.656-3.852v30.478h-.225c-2.416-3.992-7.745-7.039-15.141-7.039-12.994 0-24.308 10.752-24.226 28.857 0 16.609 10.22 27.613 23.124 27.613 7.799 0 14.316-3.716 17.545-9.769h.244l.613 8.556h12.174c-.251-3.673-.45-9.624-.45-15.155v-59.689zm-13.656 51.413c0 1.432-.101 2.766-.414 3.986-1.376 5.913-6.211 9.724-11.799 9.724-8.602 0-13.526-7.252-13.526-17.18 0-10.026 4.88-17.785 13.681-17.785 6.144 0 10.541 4.331 11.75 9.594.233 1.107.307 2.472.307 3.564v8.097m-58.078-9.429c.063-5.007-2.116-13.166-11.268-13.166-8.412 0-11.909 7.631-12.521 13.166h23.789zm-23.762 9.518c.361 9.791 7.94 14.075 16.69 14.075 6.282 0 10.78-.984 14.911-2.502l2.021 9.399c-4.621 1.963-11.04 3.427-18.883 3.427-17.546 0-27.824-10.835-27.824-27.392 0-14.913 9.046-29.026 26.426-29.026 17.57 0 23.289 14.451 23.289 26.279 0 2.539-.226 4.578-.486 5.837l-36.145-.099m-46.773-13.329c0-7.234-.15-12.554-.443-17.366h11.831l.506 10.264h.388c2.659-7.607 8.96-11.484 14.793-11.484 1.334 0 2.111.05 3.204.295v12.87c-1.278-.251-2.473-.388-4.116-.388-6.51 0-11.027 4.142-12.248 10.335-.23 1.204-.354 2.65-.354 4.122v28.022h-13.671l.11-36.67m-40.274 30.239c-1.816 0-3.281 1.469-3.281 3.284 0 1.809 1.465 3.271 3.281 3.271 1.81 0 3.277-1.461 3.277-3.271 0-1.815-1.468-3.284-3.277-3.284zm3.989 3.281c0 2.197-1.788 3.983-3.989 3.983-2.196 0-3.986-1.786-3.986-3.983 0-2.201 1.79-3.987 3.986-3.987 2.201 0 3.989 1.786 3.989 3.987m-4.716-.255v-1.262h.838c.424 0 .887.095.887.596 0 .626-.464.666-.989.666h-.736zm0 .525h.711l1.071 1.76h.693l-1.16-1.796c.604-.073 1.059-.388 1.059-1.113 0-.809-.481-1.158-1.439-1.158h-1.552v4.067h.618v-1.76"></path><path class="face" style="fill:white" d="m 124.4,59.15 c -0.8,2.62 -1.9,5.97 -6.8,8.5 -0.8,0.37 -1,-0.24 -0.7,-0.8 1.9,-3.17 2.2,-3.97 2.7,-5.22 0.8,-1.83 1.2,-4.43 -0.3,-9.85 -3,-10.67 -9.2,-24.94 -13.7,-29.57 -4.3,-4.47 -12.18,-5.73 -19.28,-3.9 -2.62,0.67 -7.74,3.33 -17.24,1.19 -16.44,-3.7 -18.88,4.53 -19.82,8.12 -0.95,3.59 -3.21,13.78 -3.21,13.78 -0.76,4.15 -1.74,11.37 23.78,16.23 11.9,2.26 12.5,5.34 13.02,7.55 0.95,3.96 2.46,6.23 4.16,7.36 1.69,1.14 0,2.07 -1.89,2.27 C 80.06,75.33 61.34,69.96 50.27,63.67 41.2,58.13 41.05,53.15 43.13,48.92 29.44,47.44 19.17,50.2 17.31,56.68 14.11,67.8 41.75,86.79 73.23,96.32 106.3,106.3 140.2,99.34 144,78.58 145.7,69.15 137.8,62.17 124.4,59.15 Z M 83.26,23.76 c -0.38,0.1 -0.4,-0.31 -0.11,-0.45 1.8,-0.88 4.4,-1.68 7.42,-1.98 1.11,-0.11 2.1,-0.17 3.09,-0.15 5.06,0.1 9.14,2.13 9.04,4.49 -0.1,2.36 -4.2,4.19 -9.26,4.07 -1.63,-0 -3.17,-0.27 -4.49,-0.65 -0.16,-0 -0.27,-0.18 -0.27,-0.33 0,-0.16 0.11,-0.3 0.27,-0.34 3.15,-0.73 5.28,-1.92 5.13,-3.05 -0.2,-1.49 -4.32,-2.3 -9.21,-1.81 -0.54,0.1 -1.33,0.17 -1.61,0.2 z m -9.53,15.06 c -9.11,0.66 -10.05,1.64 -11.76,3.46 -2.4,2.56 -5.57,-3.33 -5.57,-3.33 -1.91,-0.4 -4.21,-3.47 -2.97,-6.33 1.23,-2.83 3.49,-1.98 4.2,-1.1 0.86,1.07 2.71,2.83 5.1,2.77 2.39,-0.1 5.15,-0.57 8.99,-0.57 3.9,0 6.53,1.46 6.67,2.71 0.13,1.07 -0.31,2.07 -4.66,2.39 m 23.51,76.98 c 0.41,0.4 1.11,1.7 0.25,3.4 -0.48,0.9 -0.99,1.5 -1.91,2.2 -1.11,0.9 -3.28,2 -6.26,0.1 -1.59,-1 -1.69,-1.4 -3.9,-1.1 -1.58,0.2 -2.21,-1.4 -1.64,-2.7 0.57,-1.3 2.9,-2.4 5.8,-0.7 1.3,0.8 3.33,2.4 5.11,1 0.74,-0.6 1.18,-1 2.2,-2.2 0.1,-0.1 0.27,-0.1 0.35,0 z m 48.86,7.2 c -3.1,-0.7 -6.3,-1.1 -9.5,-1.1 -5.6,0 -10.7,0.9 -14.4,2.5 -0.5,0.2 -0.7,0.6 -0.7,1.1 0,0.2 0,0.4 0.1,0.5 0.4,1.3 -0.3,2.7 -3.9,3.5 -5.4,1.2 -8.8,6.7 -10.7,8.6 -2.3,2.1 -8.76,3.5 -7.79,2.2 0.75,-1 3.69,-4.2 5.39,-7.6 1.6,-3 3,-3.9 4.9,-6.8 0.6,-0.8 2.8,-3.8 3.4,-6.2 0.8,-2.3 0.5,-5.2 0.8,-6.4 0.4,-1.7 2,-5.4 2.1,-7.5 0.1,-1.2 -4.9,1.7 -7.3,1.7 -2.4,0 -4.8,-1.5 -6.9,-1.6 -2.65,-0.1 -4.35,2.1 -6.74,1.7 -1.37,-0.2 -2.52,-1.4 -4.91,-1.5 -3.4,-0.2 -7.56,1.9 -15.37,1.6 -7.68,-0.2 -14.77,-9.69 -15.74,-11.2 -1.13,-1.76 -2.52,-1.76 -4.03,-0.37 -1.51,1.38 -3.37,0.29 -3.9,-0.64 -1.01,-1.76 -3.71,-6.91 -7.88,-7.99 -5.77,-1.5 -8.69,3.19 -8.31,6.92 0.39,3.79 2.84,4.85 3.97,6.88 1.13,2 1.71,3.3 3.85,4.2 1.51,0.6 2.07,1.6 1.62,2.8 -0.39,1.1 -1.97,1.3 -3,1.4 -2.2,0.1 -3.74,-0.5 -4.86,-1.2 -1.31,-0.9 -2.37,-2 -3.51,-4 -1.32,-2.2 -3.4,-3.1 -5.82,-3.1 -1.16,0 -2.24,0.3 -3.2,0.8 -3.79,2 -8.31,3.1 -13.17,3.1 l -5.485,0 C 15.63,136.5 45.13,159 79.87,159 107.6,159 132,144.7 146.1,123"></path></svg>
