<svg xmlns="http://www.w3.org/2000/svg" version="1.1" xmlns:xlink="http://www.w3.org/1999/xlink"  width="500"  height="500" viewBox="0 0 500 500">
  <defs>
    <pattern class="normal" id="pattern-development" height="60" width="60" patternunits="userSpaceOnUse" patterntransform="scale(1.25) translate(-2,-2)">
      <path id="pattern-development-path" stroke-width="1" fill="none" d="M 18,50.5 A 7.5,7.5 0 0 1 10.5,58 7.5,7.5 0 0 1 3,50.5 7.5,7.5 0 0 1 10.5,43 7.5,7.5 0 0 1 18,50.5 Z m 20,0 A 7.5,7.5 0 0 1 30.5,58 7.5,7.5 0 0 1 23,50.5 7.5,7.5 0 0 1 30.5,43 7.5,7.5 0 0 1 38,50.5 Z m 20,0 A 7.5,7.5 0 0 1 50.5,58 7.5,7.5 0 0 1 43,50.5 7.5,7.5 0 0 1 50.5,43 7.5,7.5 0 0 1 58,50.5 Z m 0,-40 A 7.5,7.5 0 0 1 50.5,18 7.5,7.5 0 0 1 43,10.5 7.5,7.5 0 0 1 50.5,3 7.5,7.5 0 0 1 58,10.5 Z m -20,0 A 7.5,7.5 0 0 1 30.5,18 7.5,7.5 0 0 1 23,10.5 7.5,7.5 0 0 1 30.5,3 7.5,7.5 0 0 1 38,10.5 Z m -20,0 A 7.5,7.5 0 0 1 10.5,18 7.5,7.5 0 0 1 3,10.5 7.5,7.5 0 0 1 10.5,3 7.5,7.5 0 0 1 18,10.5 Z m 0,20 A 7.5,7.5 0 0 1 10.5,38 7.5,7.5 0 0 1 3,30.5 7.5,7.5 0 0 1 10.5,23 7.5,7.5 0 0 1 18,30.5 Z m 40,0 A 7.5,7.5 0 0 1 50.5,38 7.5,7.5 0 0 1 43,30.5 7.5,7.5 0 0 1 50.5,23 7.5,7.5 0 0 1 58,30.5 Z m -20,0 A 7.5,7.5 0 0 1 30.5,38 7.5,7.5 0 0 1 23,30.5 7.5,7.5 0 0 1 30.5,23 7.5,7.5 0 0 1 38,30.5 Z m 2.5,-30 0,59.5 m -20,-59.5 0,59.5 m -20,-19.5 59.5,0 m -59.5,-20 59.5,0 m 0,-20 -59.5,0 0,59.5" style="stroke-linecap:square;stroke-miterlimit:2"></path>
    </pattern>
  </defs>

  <rect fill="url(#pattern-development)" x="0" y="0" width="1000" height="60" transform="translate(-250, 250) rotate(315 500 0)"></rect>
</svg>
