<svg xmlns="http://www.w3.org/2000/svg" xmlns:xlink="http://www.w3.org/1999/xlink" viewBox="0 0 51 50.458" xml:space="preserve">
<path fill="#4F4B4B" d="M17.863,2.838l-9.7,21.343l28.244-7.401L17.863,2.838z M7.046,25.992l-0.858-1.014l10.717-23.58l1.11-0.283
	l20.489,15.402l-0.258,1.296L7.046,25.992z"/>
<path fill="#4F4B4B" d="M8.295,25.665l21.521,21.121l7.23-28.655L8.295,25.665z M29.698,48.73L6.343,25.806l0.328-1.234
	l31.203-8.177l0.897,0.888l-7.846,31.102L29.698,48.73z"/>
<path fill="#4F4B4B" d="M21.387,3.649l16.41,12.339l3.143-6.292L21.387,3.649z M37.619,17.69L17.132,2.287L17.79,1l24.408,7.549
	l0.441,1.029l-3.922,7.854L37.619,17.69z"/>
<path fill="#4F4B4B" d="M2.623,19.667l4.021,4.311l8.245-18.143L2.623,19.667z M6.322,25.783l-5.228-5.602l-0.012-0.989
	L17.023,1.215l1.217,0.792L7.527,25.587L6.322,25.783z"/>
<path fill="#4F4B4B" d="M7.59,44.748l20.57,2.471L7.59,27.032V44.748z M30.125,48.934L6.77,46.126l-0.645-0.729V25.282l1.248-0.524
	L30.73,47.682L30.125,48.934z"/>
<path fill="#4F4B4B" d="M38.367,18.894l-6.943,27.52l16.969-12.407L38.367,18.894z M30.647,48.797l-1.146-0.771l7.848-31.102
	l1.322-0.226l11.331,17.082l-0.181,0.996L30.647,48.797z"/>
<path fill="#4F4B4B" d="M38.906,17.052L47.29,29.69l-5.481-18.448L38.906,17.052z M48.781,34.591L37.448,17.51l-0.044-0.734
	l3.921-7.854l1.36,0.119l7.412,24.934L48.781,34.591z"/>
<path fill="#4F4B4B" d="M2.868,22.082l3.256,16.021v-12.53L2.868,22.082z M6.14,45.545L0.909,19.827l1.258-0.648l5.226,5.604
	l0.198,0.499v20.116L6.14,45.545z"/>
</svg>
