<svg width="180" height="60" viewbox="0 0 180 60" class="product">

<path
  d="
m 187.275,126.132 0,-6.567 0,-1.039 c -0.03,0.09 -0.06,0.205 -0.105,0.339 -0.04,0.135 -0.09,0.273 -0.148,0.416 -0.06,0.143 -0.113,0.289 -0.17,0.437 -0.06,0.148 -0.111,0.286 -0.168,0.416 l -2.643,6.248 -2.598,-6.248 c -0.06,-0.121 -0.113,-0.257 -0.17,-0.409 -0.06,-0.152 -0.111,-0.301 -0.162,-0.444 -0.05,-0.143 -0.1,-0.281 -0.141,-0.416 -0.04,-0.134 -0.08,-0.246 -0.107,-0.339 l 0,1.039 0,6.567 -1.074,0 0,-9.698 1.232,0 2.34,5.806 c 0.06,0.148 0.121,0.309 0.191,0.484 0.07,0.177 0.139,0.352 0.205,0.527 0.07,0.176 0.127,0.34 0.186,0.492 0.06,0.152 0.1,0.279 0.127,0.381 0.03,-0.102 0.07,-0.23 0.127,-0.388 0.06,-0.156 0.119,-0.323 0.186,-0.498 0.06,-0.176 0.135,-0.351 0.205,-0.526 0.07,-0.176 0.135,-0.333 0.191,-0.471 l 2.367,-5.806 1.205,0 0,9.698 -1.076,0 z m -10.318,-5.126 c -0.426,0.462 -0.99,0.766 -1.699,0.914 l 2.18,4.213 -1.273,0 -2.123,-4.129 -2.35,0 0,4.129 -1.104,0 0,-9.698 3.92,0 c 0.434,0 0.84,0.06 1.217,0.166 0.379,0.111 0.703,0.28 0.977,0.507 0.275,0.226 0.492,0.51 0.652,0.852 0.16,0.342 0.24,0.748 0.24,1.219 0,0.755 -0.213,1.365 -0.637,1.827 z m -0.984,-3.139 c -0.344,-0.299 -0.848,-0.448 -1.508,-0.448 l -2.773,0 0,3.601 2.633,0 c 0.736,0 1.281,-0.148 1.635,-0.448 0.354,-0.299 0.531,-0.752 0.531,-1.359 0,-0.599 -0.173,-1.047 -0.518,-1.346 z m -7.862,5.418 c -0.199,0.615 -0.48,1.143 -0.844,1.587 -0.364,0.443 -0.799,0.79 -1.309,1.039 -0.51,0.25 -1.07,0.374 -1.684,0.374 -0.615,0 -1.174,-0.122 -1.678,-0.367 -0.506,-0.245 -0.938,-0.589 -1.295,-1.032 -0.359,-0.443 -0.635,-0.969 -0.828,-1.579 -0.193,-0.61 -0.291,-1.279 -0.291,-2.01 0,-0.729 0.1,-1.401 0.297,-2.016 0.199,-0.613 0.477,-1.143 0.836,-1.585 0.357,-0.444 0.793,-0.791 1.303,-1.04 0.51,-0.248 1.07,-0.374 1.684,-0.374 0.614,0 1.172,0.123 1.678,0.367 0.504,0.245 0.936,0.59 1.295,1.033 0.359,0.443 0.637,0.97 0.836,1.579 0.197,0.609 0.297,1.28 0.297,2.009 0,0.729 -0.1,1.402 -0.297,2.015 z m -1.041,-3.644 c -0.156,-0.494 -0.371,-0.918 -0.645,-1.274 -0.274,-0.356 -0.594,-0.628 -0.963,-0.818 -0.367,-0.189 -0.768,-0.284 -1.203,-0.284 -0.424,0 -0.818,0.1 -1.182,0.284 -0.363,0.19 -0.678,0.458 -0.941,0.803 -0.263,0.346 -0.471,0.767 -0.623,1.261 -0.15,0.494 -0.227,1.045 -0.227,1.655 0,0.61 0.08,1.163 0.234,1.655 0.156,0.494 0.367,0.919 0.637,1.275 0.27,0.357 0.588,0.629 0.955,0.818 0.369,0.189 0.77,0.284 1.203,0.284 0.426,0 0.822,-0.1 1.189,-0.284 0.369,-0.189 0.684,-0.457 0.949,-0.804 0.264,-0.346 0.471,-0.766 0.623,-1.26 0.15,-0.494 0.227,-1.046 0.227,-1.656 0,-0.609 -0.08,-1.16 -0.233,-1.655 z m -12.718,-2.222 0,3.213 2.717,0 0,0.985 -2.717,0 0,4.515 -1.104,0 0,-9.698 5.816,0 0,0.985 -4.712,0 z m -6.016,0 0,8.713 -1.105,0 0,-8.713 -2.916,0 0,-0.985 6.938,0 0,0.985 -2.917,0 z m -5.549,8.713 -0.85,-2.466 -4.092,0 -0.863,2.466 -1.133,0 3.441,-9.698 1.217,0 3.439,9.698 -1.159,0 z m -2.279,-6.635 c -0.06,-0.157 -0.115,-0.328 -0.178,-0.512 -0.06,-0.185 -0.119,-0.363 -0.176,-0.534 -0.06,-0.171 -0.107,-0.332 -0.148,-0.485 -0.04,-0.152 -0.08,-0.279 -0.107,-0.381 -0.03,0.102 -0.06,0.225 -0.105,0.374 -0.04,0.149 -0.09,0.309 -0.148,0.484 -0.06,0.177 -0.119,0.359 -0.186,0.549 -0.06,0.188 -0.127,0.367 -0.184,0.533 l -1.09,3.159 3.412,0 -1.09,-3.187 z m -12.244,6.635 0,-9.698 1.104,0 0,8.715 4.898,0 0,0.983 -6.002,0 z m -2.131,-5.521 c -0.164,0.374 -0.395,0.688 -0.686,0.942 -0.293,0.254 -0.646,0.446 -1.062,0.575 -0.416,0.13 -0.867,0.194 -1.359,0.194 l -2.406,0 0,3.81 -1.104,0 0,-9.698 3.709,0 c 0.453,0 0.871,0.06 1.252,0.174 0.383,0.116 0.715,0.294 0.998,0.534 0.283,0.24 0.506,0.543 0.666,0.907 0.16,0.365 0.24,0.793 0.24,1.282 0,0.48 -0.08,0.906 -0.248,1.28 z m -1.395,-2.687 c -0.357,-0.338 -0.877,-0.506 -1.557,-0.506 l -2.562,0 0,3.921 2.422,0 c 1.49,0 2.236,-0.656 2.236,-1.969 0,-0.627 -0.179,-1.109 -0.539,-1.446 z m -12.541,8.208 -4.319,-6.635 c -0.06,-0.08 -0.118,-0.183 -0.184,-0.299 -0.07,-0.114 -0.132,-0.23 -0.197,-0.346 -0.07,-0.116 -0.13,-0.225 -0.191,-0.326 -0.06,-0.102 -0.105,-0.184 -0.134,-0.25 l 0,0.666 0,7.19 -1.075,0 0,-9.698 1.075,0 4.289,6.761 c 0.06,0.08 0.119,0.183 0.186,0.299 0.06,0.115 0.131,0.23 0.197,0.346 0.07,0.117 0.129,0.224 0.191,0.326 0.06,0.102 0.105,0.184 0.135,0.25 l 0,-0.666 0,-7.316 1.076,0 0,9.698 -1.049,0 z m -8.577,-2.847 c -0.198,0.615 -0.479,1.143 -0.843,1.587 -0.364,0.443 -0.8,0.79 -1.309,1.039 -0.51,0.25 -1.071,0.374 -1.685,0.374 -0.614,0 -1.173,-0.122 -1.678,-0.367 -0.505,-0.245 -0.937,-0.589 -1.295,-1.032 -0.359,-0.443 -0.635,-0.969 -0.828,-1.579 -0.193,-0.61 -0.29,-1.279 -0.29,-2.01 0,-0.729 0.099,-1.401 0.297,-2.016 0.198,-0.613 0.477,-1.143 0.835,-1.585 0.358,-0.444 0.793,-0.791 1.303,-1.04 0.51,-0.248 1.07,-0.374 1.685,-0.374 0.613,0 1.172,0.123 1.677,0.367 0.505,0.245 0.937,0.59 1.296,1.033 0.358,0.443 0.637,0.97 0.835,1.579 0.198,0.609 0.297,1.28 0.297,2.009 0,0.729 -0.1,1.402 -0.297,2.015 z m -1.04,-3.644 c -0.156,-0.494 -0.371,-0.918 -0.645,-1.274 -0.274,-0.356 -0.595,-0.628 -0.963,-0.818 -0.368,-0.189 -0.769,-0.284 -1.203,-0.284 -0.425,0 -0.818,0.1 -1.182,0.284 -0.363,0.19 -0.678,0.458 -0.941,0.803 -0.265,0.347 -0.472,0.767 -0.623,1.261 -0.15,0.494 -0.227,1.045 -0.227,1.655 0,0.61 0.078,1.163 0.233,1.655 0.156,0.494 0.368,0.919 0.638,1.275 0.269,0.356 0.587,0.629 0.955,0.818 0.368,0.189 0.77,0.284 1.203,0.284 0.425,0 0.821,-0.1 1.189,-0.284 0.368,-0.189 0.684,-0.457 0.948,-0.804 0.264,-0.346 0.472,-0.766 0.623,-1.26 0.15,-0.494 0.227,-1.046 0.227,-1.656 0,-0.609 -0.08,-1.16 -0.232,-1.655 z m -10.242,6.491 0,-9.698 1.104,0 0,9.698 -1.104,0 z m -4.983,-8.713 0,8.713 -1.104,0 0,-8.713 -2.916,0 0,-0.985 6.937,0 0,0.985 -2.917,0 z m -5.548,8.713 -0.85,-2.466 -4.091,0 -0.863,2.466 -1.133,0 3.44,-9.698 1.217,0 3.44,9.698 -1.16,0 z m -2.28,-6.635 c -0.057,-0.157 -0.116,-0.328 -0.177,-0.512 -0.062,-0.185 -0.121,-0.363 -0.177,-0.534 -0.057,-0.171 -0.106,-0.332 -0.148,-0.485 -0.042,-0.152 -0.078,-0.279 -0.106,-0.381 -0.028,0.102 -0.064,0.225 -0.106,0.374 -0.042,0.149 -0.092,0.309 -0.148,0.484 -0.057,0.177 -0.118,0.359 -0.184,0.549 -0.066,0.188 -0.127,0.367 -0.184,0.533 l -1.09,3.159 3.411,0 -1.091,-3.187 z m -7.304,6.345 c -0.538,0.295 -1.17,0.442 -1.896,0.442 -0.604,0 -1.154,-0.127 -1.649,-0.381 -0.495,-0.254 -0.918,-0.603 -1.267,-1.046 -0.35,-0.442 -0.618,-0.969 -0.807,-1.579 -0.189,-0.609 -0.283,-1.27 -0.283,-1.981 0,-0.719 0.099,-1.387 0.297,-2.001 0.198,-0.615 0.474,-1.143 0.828,-1.587 0.354,-0.443 0.781,-0.791 1.281,-1.045 0.5,-0.254 1.047,-0.382 1.642,-0.382 1.34,0 2.392,0.517 3.156,1.552 l -0.877,0.652 c -0.321,-0.426 -0.651,-0.734 -0.991,-0.928 -0.34,-0.194 -0.779,-0.292 -1.316,-0.292 -0.425,0 -0.816,0.1 -1.175,0.299 -0.358,0.198 -0.665,0.472 -0.92,0.824 -0.255,0.351 -0.456,0.771 -0.602,1.26 -0.146,0.491 -0.219,1.031 -0.219,1.621 0,0.591 0.073,1.134 0.219,1.628 0.146,0.494 0.352,0.919 0.616,1.275 0.264,0.356 0.576,0.632 0.934,0.832 0.359,0.199 0.746,0.297 1.161,0.297 0.538,0 1,-0.11 1.387,-0.332 0.387,-0.222 0.741,-0.536 1.062,-0.942 l 0.764,0.651 c -0.359,0.48 -0.807,0.866 -1.345,1.163 z m -9.257,0.29 0,-9.698 1.104,0 0,9.698 -1.104,0 z m -8.21,0 0,-9.698 1.104,0 0,8.715 4.898,0 0,0.983 -6.002,0 z m -2.13,-5.521 c -0.165,0.374 -0.394,0.688 -0.687,0.942 -0.292,0.254 -0.646,0.446 -1.062,0.575 -0.416,0.13 -0.869,0.194 -1.359,0.194 l -2.407,0 0,3.81 -1.104,0 0,-9.698 3.708,0 c 0.453,0 0.871,0.06 1.253,0.174 0.382,0.116 0.715,0.294 0.998,0.534 0.283,0.24 0.505,0.543 0.665,0.907 0.161,0.365 0.241,0.793 0.241,1.282 0,0.48 -0.081,0.906 -0.246,1.28 z m -1.395,-2.687 c -0.358,-0.338 -0.877,-0.506 -1.557,-0.506 l -2.562,0 0,3.921 2.421,0 c 1.491,0 2.236,-0.656 2.236,-1.969 0,-0.627 -0.179,-1.109 -0.538,-1.446 z m -7.353,2.687 c -0.165,0.374 -0.394,0.688 -0.687,0.942 -0.292,0.254 -0.646,0.446 -1.062,0.575 -0.416,0.13 -0.869,0.194 -1.359,0.194 l -2.407,0 0,3.81 -1.103,0 0,-9.698 3.708,0 c 0.453,0 0.871,0.06 1.253,0.174 0.382,0.116 0.715,0.294 0.998,0.534 0.283,0.24 0.505,0.543 0.665,0.907 0.161,0.365 0.241,0.793 0.241,1.282 0,0.48 -0.082,0.906 -0.247,1.28 z m -1.395,-2.687 c -0.358,-0.338 -0.877,-0.506 -1.557,-0.506 l -2.562,0 0,3.921 2.421,0 c 1.491,0 2.236,-0.656 2.236,-1.969 0,-0.627 -0.179,-1.109 -0.538,-1.446 z m -8.436,8.208 -0.85,-2.466 -4.091,0 -0.863,2.466 -1.133,0 3.44,-9.698 1.217,0 3.44,9.698 -1.16,0 z m -2.279,-6.635 c -0.057,-0.157 -0.116,-0.328 -0.177,-0.512 -0.062,-0.185 -0.121,-0.363 -0.177,-0.534 -0.057,-0.171 -0.106,-0.332 -0.148,-0.485 -0.042,-0.152 -0.078,-0.279 -0.106,-0.381 -0.028,0.102 -0.064,0.225 -0.106,0.374 -0.042,0.149 -0.092,0.309 -0.148,0.484 -0.057,0.177 -0.118,0.359 -0.184,0.549 -0.066,0.188 -0.127,0.367 -0.184,0.533 l -1.09,3.159 3.411,0 -1.091,-3.187 z m 69.955,-6.065 0,-9.698 5.987,0 0,0.984 -4.884,0 0,3.047 2.831,0 0,0.984 -2.831,0 0,3.699 5.096,0 0,0.983 -6.199,0 z m -2.513,-1.481 c -0.146,0.332 -0.361,0.619 -0.645,0.859 -0.284,0.24 -0.628,0.429 -1.033,0.568 -0.406,0.139 -0.868,0.207 -1.387,0.207 -0.68,0 -1.305,-0.127 -1.876,-0.381 -0.571,-0.254 -1.055,-0.575 -1.451,-0.963 l 0.736,-0.802 c 0.377,0.35 0.783,0.632 1.218,0.844 0.434,0.213 0.905,0.318 1.415,0.318 0.66,0 1.182,-0.146 1.564,-0.443 0.382,-0.296 0.573,-0.702 0.573,-1.218 0,-0.223 -0.038,-0.425 -0.113,-0.61 -0.076,-0.184 -0.205,-0.356 -0.39,-0.512 -0.184,-0.157 -0.427,-0.311 -0.729,-0.465 -0.303,-0.152 -0.68,-0.306 -1.133,-0.464 -0.538,-0.185 -0.988,-0.372 -1.352,-0.562 -0.363,-0.189 -0.656,-0.391 -0.878,-0.609 -0.222,-0.217 -0.382,-0.46 -0.481,-0.727 -0.099,-0.268 -0.148,-0.577 -0.148,-0.929 0,-0.387 0.075,-0.734 0.227,-1.039 0.152,-0.305 0.361,-0.566 0.63,-0.783 0.269,-0.217 0.595,-0.381 0.977,-0.491 0.383,-0.111 0.805,-0.167 1.268,-0.167 0.66,0 1.224,0.09 1.691,0.277 0.467,0.185 0.908,0.439 1.323,0.762 l -0.708,0.845 c -0.358,-0.295 -0.72,-0.519 -1.083,-0.672 -0.363,-0.153 -0.795,-0.229 -1.295,-0.229 -0.34,0 -0.632,0.04 -0.878,0.118 -0.245,0.08 -0.445,0.183 -0.602,0.312 -0.155,0.129 -0.269,0.28 -0.34,0.45 -0.07,0.171 -0.105,0.353 -0.105,0.547 0,0.204 0.028,0.387 0.085,0.547 0.057,0.163 0.17,0.319 0.34,0.471 0.17,0.152 0.407,0.302 0.715,0.45 0.306,0.148 0.71,0.309 1.21,0.486 0.547,0.193 1.005,0.387 1.373,0.582 0.368,0.195 0.663,0.406 0.885,0.637 0.222,0.23 0.38,0.485 0.474,0.762 0.095,0.277 0.142,0.595 0.142,0.956 0,0.379 -0.073,0.735 -0.219,1.068 z m -9.647,1.481 0,-9.698 1.105,0 0,9.698 -1.105,0 z m -2.901,-5.126 c -0.425,0.462 -0.991,0.766 -1.699,0.914 l 2.18,4.213 -1.274,0 -2.123,-4.129 -2.35,0 0,4.129 -1.104,0 0,-9.698 3.921,0 c 0.434,0 0.84,0.06 1.217,0.166 0.377,0.111 0.703,0.28 0.977,0.506 0.273,0.227 0.49,0.51 0.651,0.852 0.161,0.342 0.241,0.748 0.241,1.219 0,0.756 -0.213,1.366 -0.637,1.828 z m -0.984,-3.139 c -0.345,-0.3 -0.847,-0.448 -1.508,-0.448 l -2.774,0 0,3.602 2.633,0 c 0.736,0 1.281,-0.149 1.635,-0.449 0.354,-0.298 0.531,-0.752 0.531,-1.359 0,-0.598 -0.173,-1.047 -0.517,-1.346 z m -7.516,2.744 c -0.165,0.374 -0.394,0.689 -0.687,0.942 -0.292,0.254 -0.646,0.446 -1.062,0.575 -0.416,0.13 -0.869,0.194 -1.359,0.194 l -2.407,0 0,3.81 -1.104,0 0,-9.698 3.708,0 c 0.453,0 0.871,0.06 1.253,0.173 0.382,0.116 0.715,0.294 0.998,0.534 0.283,0.24 0.505,0.543 0.665,0.907 0.161,0.365 0.241,0.793 0.241,1.282 0,0.481 -0.081,0.907 -0.246,1.281 z m -1.395,-2.687 c -0.358,-0.337 -0.877,-0.506 -1.557,-0.506 l -2.562,0 0,3.921 2.421,0 c 1.491,0 2.236,-0.656 2.236,-1.968 0,-0.627 -0.179,-1.11 -0.538,-1.447 z m -8.054,3.082 c -0.425,0.462 -0.991,0.766 -1.699,0.914 l 2.18,4.213 -1.274,0 -2.123,-4.129 -2.35,0 0,4.129 -1.104,0 0,-9.698 3.921,0 c 0.434,0 0.84,0.06 1.217,0.166 0.377,0.111 0.703,0.28 0.977,0.506 0.273,0.227 0.49,0.51 0.651,0.852 0.161,0.342 0.241,0.748 0.241,1.219 0,0.756 -0.213,1.366 -0.637,1.828 z m -0.984,-3.139 c -0.345,-0.3 -0.847,-0.448 -1.508,-0.448 l -2.774,0 0,3.602 2.633,0 c 0.736,0 1.281,-0.149 1.635,-0.449 0.354,-0.298 0.531,-0.752 0.531,-1.359 0,-0.598 -0.173,-1.047 -0.517,-1.346 z m -13.695,8.265 0,-9.698 5.988,0 0,0.984 -4.884,0 0,3.047 2.831,0 0,0.984 -2.831,0 0,3.699 5.096,0 0,0.983 -6.2,0 z m -4.911,-8.713 0,8.714 -1.104,0 0,-8.714 -2.916,0 0,-0.984 6.936,0 0,0.984 -2.916,0 z m -7.05,8.713 -4.319,-6.635 c -0.057,-0.08 -0.118,-0.183 -0.184,-0.299 -0.066,-0.115 -0.132,-0.23 -0.198,-0.346 -0.066,-0.117 -0.129,-0.225 -0.19,-0.326 -0.062,-0.102 -0.106,-0.184 -0.134,-0.249 l 0,0.665 0,7.19 -1.076,0 0,-9.698 1.076,0 4.289,6.761 c 0.057,0.08 0.118,0.183 0.184,0.299 0.066,0.115 0.132,0.23 0.198,0.346 0.066,0.117 0.129,0.224 0.191,0.326 0.062,0.102 0.106,0.184 0.135,0.25 l 0,-0.666 0,-7.315 1.076,0 0,9.698 -1.048,0 z m -14.41,0 0,-9.698 5.988,0 0,0.984 -4.884,0 0,3.047 2.831,0 0,0.984 -2.831,0 0,3.699 5.096,0 0,0.983 -6.2,0 z m 81.583,-18.0642 c -0.04,0.097 -0.1,0.1821 -0.172,0.2535 -0.07,0.072 -0.159,0.1273 -0.258,0.1684 -0.1,0.04 -0.207,0.061 -0.323,0.061 -0.116,0 -0.224,-0.021 -0.323,-0.061 -0.1,-0.041 -0.187,-0.097 -0.259,-0.1684 -0.07,-0.071 -0.131,-0.1566 -0.172,-0.2535 -0.04,-0.098 -0.06,-0.2035 -0.06,-0.3171 0,-0.1135 0.02,-0.2192 0.06,-0.3161 0.04,-0.097 0.1,-0.182 0.172,-0.2535 0.07,-0.071 0.159,-0.1272 0.259,-0.1683 0.1,-0.041 0.207,-0.061 0.323,-0.061 0.116,0 0.224,0.02 0.323,0.061 0.1,0.04 0.186,0.097 0.258,0.1683 0.07,0.072 0.131,0.1566 0.172,0.2535 0.04,0.098 0.06,0.2036 0.06,0.3161 0,0.1145 -0.02,0.2202 -0.06,0.3171 z m -0.121,-0.5803 c -0.03,-0.081 -0.08,-0.1527 -0.144,-0.2134 -0.06,-0.061 -0.135,-0.1077 -0.219,-0.1419 -0.08,-0.034 -0.174,-0.051 -0.27,-0.051 -0.1,0 -0.188,0.018 -0.271,0.051 -0.08,0.033 -0.155,0.081 -0.217,0.1419 -0.06,0.061 -0.11,0.1321 -0.146,0.2134 -0.03,0.081 -0.05,0.1703 -0.05,0.2642 0,0.096 0.02,0.184 0.05,0.2652 0.03,0.081 0.08,0.1518 0.146,0.2124 0.06,0.061 0.134,0.1077 0.217,0.1419 0.08,0.034 0.173,0.051 0.271,0.051 0.1,0 0.187,-0.017 0.27,-0.051 0.08,-0.034 0.157,-0.081 0.219,-0.1419 0.06,-0.061 0.109,-0.1311 0.144,-0.2124 0.03,-0.081 0.05,-0.1693 0.05,-0.2652 0,-0.095 -0.02,-0.183 -0.05,-0.2642 z m -0.314,0.2446 c -0.03,0.042 -0.08,0.073 -0.138,0.088 l 0.184,0.3514 -0.179,0 -0.173,-0.3367 -0.171,0 0,0.3367 -0.151,0 0,-0.8711 0.39,0 c 0.04,0 0.08,0.01 0.111,0.016 0.03,0.011 0.07,0.026 0.09,0.048 0.03,0.022 0.05,0.049 0.06,0.081 0.02,0.033 0.02,0.072 0.02,0.1184 0,0.07 -0.02,0.1253 -0.05,0.1683 z m -0.14,-0.2574 c -0.03,-0.02 -0.06,-0.031 -0.103,-0.031 l -0.234,0 0,0.2476 0.234,0 c 0.04,0 0.08,-0.01 0.103,-0.029 0.03,-0.021 0.04,-0.051 0.04,-0.094 0,-0.041 -0.01,-0.072 -0.04,-0.093 z m -1.807,4.9231 c -0.136,0.2652 -0.324,0.4802 -0.566,0.6472 -0.242,0.166 -0.53,0.289 -0.863,0.369 -0.334,0.08 -0.698,0.12 -1.095,0.12 -0.535,0 -1.046,-0.08 -1.533,-0.226 -0.488,-0.151 -0.905,-0.337 -1.251,-0.559 l 0.888,-1.4044 c 0.119,0.08 0.259,0.1586 0.42,0.2359 0.16,0.077 0.326,0.1459 0.5,0.2075 0.173,0.062 0.348,0.1106 0.523,0.1478 0.175,0.037 0.34,0.056 0.491,0.056 0.326,0 0.552,-0.03 0.674,-0.092 0.123,-0.062 0.185,-0.1693 0.185,-0.324 0,-0.061 -0.02,-0.1164 -0.05,-0.1664 -0.03,-0.049 -0.09,-0.097 -0.18,-0.1429 -0.08,-0.046 -0.199,-0.092 -0.345,-0.1389 -0.145,-0.046 -0.327,-0.094 -0.547,-0.1429 -0.396,-0.092 -0.742,-0.1909 -1.038,-0.2956 -0.296,-0.1047 -0.541,-0.2359 -0.736,-0.3925 -0.195,-0.1576 -0.341,-0.3465 -0.438,-0.5686 -0.1,-0.2222 -0.146,-0.4953 -0.146,-0.8222 0,-0.3014 0.06,-0.5784 0.185,-0.8309 0.122,-0.2525 0.297,-0.4678 0.523,-0.647 0.226,-0.1791 0.5,-0.3171 0.821,-0.4159 0.32,-0.099 0.679,-0.1478 1.075,-0.1478 0.566,0 1.059,0.065 1.478,0.1938 0.418,0.1292 0.803,0.3142 1.155,0.554 l -0.887,1.4044 c -0.296,-0.1967 -0.592,-0.3474 -0.887,-0.4521 -0.296,-0.1048 -0.614,-0.1576 -0.953,-0.1576 -0.277,0 -0.46,0.037 -0.548,0.1106 -0.09,0.074 -0.132,0.1693 -0.132,0.2858 0,0.062 0.02,0.1155 0.05,0.1624 0.03,0.046 0.09,0.089 0.175,0.1292 0.08,0.04 0.191,0.08 0.33,0.1204 0.139,0.04 0.314,0.085 0.528,0.1341 0.415,0.099 0.773,0.2055 1.076,0.323 0.302,0.1174 0.55,0.2554 0.745,0.416 0.195,0.1605 0.34,0.3503 0.435,0.5725 0.09,0.2222 0.142,0.4835 0.142,0.785 0,0.3709 -0.07,0.688 -0.204,0.9523 z m -6.266,0 c -0.136,0.2652 -0.324,0.4802 -0.566,0.6472 -0.242,0.166 -0.53,0.289 -0.863,0.369 -0.334,0.08 -0.698,0.12 -1.095,0.12 -0.535,0 -1.046,-0.08 -1.533,-0.226 -0.488,-0.151 -0.905,-0.337 -1.251,-0.559 l 0.888,-1.4044 c 0.119,0.08 0.259,0.1586 0.42,0.2359 0.16,0.077 0.326,0.1459 0.5,0.2075 0.173,0.062 0.348,0.1106 0.523,0.1478 0.175,0.037 0.34,0.056 0.491,0.056 0.326,0 0.552,-0.03 0.674,-0.092 0.123,-0.062 0.185,-0.1693 0.185,-0.324 0,-0.061 -0.018,-0.1164 -0.052,-0.1664 -0.035,-0.049 -0.095,-0.097 -0.18,-0.1429 -0.085,-0.046 -0.199,-0.092 -0.345,-0.1389 -0.145,-0.046 -0.327,-0.094 -0.547,-0.1429 -0.396,-0.092 -0.742,-0.1909 -1.038,-0.2956 -0.296,-0.1047 -0.541,-0.2359 -0.736,-0.3925 -0.195,-0.1576 -0.341,-0.3465 -0.438,-0.5686 -0.097,-0.2222 -0.146,-0.4953 -0.146,-0.8222 0,-0.3014 0.062,-0.5784 0.185,-0.8309 0.122,-0.2525 0.297,-0.4678 0.523,-0.647 0.226,-0.1791 0.5,-0.3171 0.821,-0.4159 0.32,-0.099 0.679,-0.1478 1.075,-0.1478 0.566,0 1.059,0.065 1.478,0.1938 0.418,0.1292 0.803,0.3142 1.155,0.554 l -0.887,1.4044 c -0.296,-0.1967 -0.592,-0.3474 -0.887,-0.4521 -0.296,-0.1048 -0.614,-0.1576 -0.953,-0.1576 -0.277,0 -0.46,0.037 -0.548,0.1106 -0.088,0.074 -0.132,0.1693 -0.132,0.2858 0,0.062 0.017,0.1155 0.052,0.1624 0.034,0.046 0.093,0.089 0.175,0.1292 0.081,0.04 0.191,0.08 0.33,0.1204 0.139,0.04 0.314,0.085 0.528,0.1341 0.415,0.099 0.773,0.2055 1.076,0.323 0.302,0.1174 0.55,0.2554 0.745,0.416 0.195,0.1605 0.34,0.3503 0.435,0.5725 0.09,0.2222 0.142,0.4835 0.142,0.785 0,0.3709 -0.07,0.688 -0.204,0.9523 z m -6.205,-0.7801 c -0.151,0.416 -0.362,0.7654 -0.633,1.0482 -0.271,0.2831 -0.594,0.4991 -0.972,0.6471 -0.378,0.148 -0.79,0.222 -1.236,0.222 -0.446,0 -0.857,-0.07 -1.231,-0.217 -0.375,-0.144 -0.697,-0.357 -0.967,-0.6374 -0.271,-0.2799 -0.48,-0.6283 -0.628,-1.0433 -0.148,-0.416 -0.222,-0.8916 -0.222,-1.427 0,-0.5354 0.075,-1.011 0.227,-1.427 0.151,-0.416 0.361,-0.7654 0.632,-1.0482 0.271,-0.2829 0.595,-0.4982 0.973,-0.646 0.377,-0.1478 0.789,-0.2222 1.235,-0.2222 0.447,0 0.857,0.073 1.232,0.2173 0.374,0.1449 0.694,0.3573 0.962,0.6372 0.268,0.2809 0.477,0.6283 0.628,1.0433 0.15,0.416 0.227,0.8916 0.227,1.427 0,0.5354 -0.077,1.0101 -0.227,1.426 z m -1.977,-2.7385 c -0.204,-0.3014 -0.492,-0.4522 -0.863,-0.4522 -0.371,0 -0.655,0.1478 -0.854,0.4434 -0.198,0.2956 -0.298,0.735 -0.298,1.3203 0,0.5853 0.103,1.0287 0.307,1.3301 0.205,0.3024 0.492,0.4522 0.863,0.4522 0.371,0 0.656,-0.1478 0.854,-0.4434 0.198,-0.2956 0.297,-0.736 0.297,-1.3213 0,-0.5852 -0.101,-1.0276 -0.306,-1.3291 z m -5.299,4.0098 c -0.409,0.363 -1.032,0.544 -1.869,0.544 l -3.171,0 0,-6.4653 3.19,0 c 0.817,0 1.407,0.1449 1.769,0.4346 0.362,0.2897 0.543,0.7066 0.543,1.2498 0,0.3514 -0.077,0.6196 -0.231,0.8046 -0.154,0.1849 -0.341,0.3396 -0.562,0.4629 0.302,0.1224 0.535,0.2995 0.698,0.5305 0.164,0.231 0.246,0.5305 0.246,0.8985 0,0.6645 -0.204,1.1774 -0.613,1.5404 z m -1.453,-4.3592 c -0.082,-0.1 -0.232,-0.1497 -0.453,-0.1497 l -1.378,0 0,1.0257 1.378,0 c 0.214,0 0.363,-0.047 0.448,-0.14 0.085,-0.093 0.127,-0.2173 0.127,-0.3729 0,-0.1429 -0.04,-0.2633 -0.122,-0.3631 z m 0.113,2.3999 C 85.67,98.1191 85.506,98.0643 85.286,98.0643 l -1.453,0 0,1.2557 1.444,0 c 0.227,0 0.393,-0.061 0.5,-0.1801 0.107,-0.1194 0.161,-0.2721 0.161,-0.4571 0,-0.1918 -0.054,-0.3425 -0.161,-0.4531 z m -5.181,1.011 c -0.113,0.3357 -0.285,0.6215 -0.514,0.8583 -0.229,0.237 -0.519,0.419 -0.868,0.545 -0.349,0.126 -0.757,0.19 -1.222,0.19 -0.44,0 -0.821,-0.05 -1.142,-0.157 -0.321,-0.105 -0.596,-0.254 -0.826,-0.449 -0.23,-0.194 -0.418,-0.4294 -0.566,-0.7064 -0.148,-0.277 -0.263,-0.5853 -0.344,-0.923 l 1.793,-0.4619 c 0.113,0.369 0.248,0.6479 0.406,0.8358 0.157,0.1879 0.393,0.2819 0.708,0.2819 0.296,0 0.516,-0.091 0.661,-0.2721 0.145,-0.182 0.217,-0.4297 0.217,-0.7438 l 0,-3.9717 1.868,0 0,3.8337 c -10e-4,0.4247 -0.058,0.8055 -0.171,1.1402 z m -9.099,-3.8729 c -0.042,0.097 -0.099,0.1821 -0.172,0.2535 -0.073,0.072 -0.16,0.1273 -0.259,0.1684 -0.1,0.04 -0.208,0.061 -0.324,0.061 -0.116,0 -0.224,-0.021 -0.323,-0.061 -0.099,-0.041 -0.186,-0.097 -0.259,-0.1684 -0.073,-0.071 -0.13,-0.1566 -0.172,-0.2535 -0.042,-0.098 -0.062,-0.2035 -0.062,-0.3171 0,-0.1135 0.021,-0.2192 0.062,-0.3161 0.042,-0.097 0.099,-0.182 0.172,-0.2535 0.073,-0.071 0.16,-0.1272 0.259,-0.1683 0.1,-0.041 0.208,-0.061 0.323,-0.061 0.116,0 0.224,0.02 0.324,0.061 0.099,0.041 0.186,0.097 0.259,0.1683 0.073,0.072 0.13,0.1566 0.172,0.2535 0.042,0.098 0.062,0.2036 0.062,0.3161 0,0.1145 -0.02,0.2202 -0.062,0.3171 z m -0.121,-0.5803 c -0.035,-0.081 -0.083,-0.1527 -0.145,-0.2134 -0.062,-0.061 -0.135,-0.1077 -0.218,-0.1419 -0.084,-0.034 -0.174,-0.051 -0.271,-0.051 -0.098,0 -0.188,0.018 -0.271,0.051 -0.083,0.033 -0.155,0.081 -0.217,0.1419 -0.062,0.061 -0.11,0.1321 -0.145,0.2134 -0.035,0.081 -0.052,0.1703 -0.052,0.2642 0,0.096 0.018,0.184 0.052,0.2652 0.034,0.081 0.083,0.1518 0.145,0.2124 0.062,0.061 0.134,0.1077 0.217,0.1419 0.083,0.034 0.173,0.051 0.271,0.051 0.097,0 0.187,-0.017 0.271,-0.051 0.083,-0.034 0.156,-0.081 0.218,-0.1419 0.062,-0.061 0.11,-0.1311 0.145,-0.2124 0.035,-0.081 0.052,-0.1693 0.052,-0.2652 0,-0.095 -0.017,-0.183 -0.052,-0.2642 z m -0.314,0.2446 c -0.034,0.042 -0.081,0.073 -0.138,0.088 l 0.183,0.3514 -0.178,0 -0.173,-0.3367 -0.171,0 0,0.3367 -0.151,0 0,-0.8711 0.39,0 c 0.04,0 0.077,0.01 0.112,0.016 0.035,0.011 0.066,0.026 0.092,0.048 0.026,0.022 0.047,0.049 0.063,0.081 0.016,0.033 0.024,0.072 0.024,0.1184 -10e-4,0.07 -0.019,0.1253 -0.053,0.1683 z m -0.141,-0.2574 c -0.027,-0.02 -0.061,-0.031 -0.102,-0.031 l -0.235,0 0,0.2476 0.235,0 c 0.041,0 0.075,-0.01 0.102,-0.029 0.027,-0.021 0.041,-0.051 0.041,-0.094 0,-0.041 -0.013,-0.072 -0.041,-0.093 z m -3.747,1.0541 0,4.9042 -1.831,0 0,-4.9042 -1.85,0 0,-1.5611 5.53,0 0,1.5611 -1.849,0 z m -5.435,4.9032 -0.359,-1.136 -1.981,0 -0.359,1.136 -1.963,0 2.397,-6.4652 1.85,0 2.397,6.4652 -1.982,0 z M 60.814,97.7491 C 60.757,97.5406 60.707,97.3586 60.663,97.2039 60.619,97.0503 60.58,96.9113 60.545,96.789 60.51,96.6656 60.481,96.5531 60.455,96.4513 60.43,96.3495 60.408,96.2438 60.389,96.1322 c -0.019,0.1106 -0.041,0.2193 -0.066,0.324 -0.025,0.1047 -0.055,0.2183 -0.09,0.3416 -0.035,0.1233 -0.074,0.2623 -0.118,0.4159 -0.044,0.1537 -0.095,0.3318 -0.151,0.5354 l -0.123,0.4258 1.095,0 -0.122,-0.4258 z m -6.549,2.9829 0,-2.5483 -2.057,0 0,2.5483 -1.869,0 0,-6.4652 1.869,0 0,2.3558 2.057,0 0,-2.3558 1.869,0 0,6.4652 -1.869,0 z m -8.37,-1.7311 c -0.151,0.416 -0.377,0.7517 -0.68,1.0071 -0.302,0.255 -0.674,0.44 -1.118,0.554 -0.443,0.115 -0.958,0.171 -1.543,0.171 l -2.142,0 0,-6.4653 2.312,0 c 0.516,0 0.985,0.053 1.406,0.1576 0.421,0.1047 0.778,0.2819 1.071,0.5305 0.293,0.2496 0.519,0.5774 0.68,0.9836 0.161,0.4072 0.241,0.9151 0.241,1.5239 -10e-4,0.6098 -0.077,1.1216 -0.227,1.5376 z m -1.732,-2.2765 c -0.054,-0.2154 -0.14,-0.3905 -0.26,-0.5266 -0.12,-0.136 -0.277,-0.2359 -0.472,-0.3005 -0.195,-0.065 -0.434,-0.097 -0.717,-0.097 l -0.453,0 0,3.3992 0.396,0 c 0.283,0 0.525,-0.029 0.727,-0.088 0.201,-0.059 0.367,-0.1537 0.496,-0.2858 0.129,-0.1321 0.222,-0.3073 0.278,-0.5265 0.057,-0.2183 0.085,-0.4884 0.085,-0.8085 0,-0.2956 -0.027,-0.551 -0.08,-0.7663 z m -10.045,4.0076 0,-6.4652 5.058,0 0,1.5062 -3.246,0 0,0.8682 1.954,0 0,1.4779 -1.954,0 0,1.1079 3.312,0 0,1.505 -5.124,0 z m -3.148,0 -1.078,-2.1794 -0.738,0 0,2.1794 -1.793,0 0,-6.4652 2.954,0 c 0.384,0 0.735,0.039 1.052,0.1155 0.318,0.077 0.59,0.1986 0.816,0.365 0.226,0.1664 0.401,0.3837 0.524,0.6519 0.123,0.2672 0.184,0.5921 0.184,0.9748 0,0.4864 -0.107,0.8838 -0.322,1.1911 -0.215,0.3073 -0.505,0.5422 -0.871,0.7018 l 1.324,2.4661 -2.052,0 z M 30.885,95.9208 C 30.761,95.7916 30.554,95.727 30.264,95.727 l -1.11,0 0,1.4133 1.081,0 c 0.304,0 0.519,-0.062 0.645,-0.1849 0.126,-0.1224 0.19,-0.3015 0.19,-0.5354 0,-0.2036 -0.062,-0.37 -0.185,-0.4992 z
"  />

</svg>