<svg width="180" height="60" viewbox="0 0 180 60" class="product">

<path
  d="m 35.036,29.4727 0,-9.909 5.988,0 0,1.006 -4.884,0 0,3.113 2.831,0 0,1.006 -2.831,0 0,3.779 5.096,0 0,1.005 -6.2,0 z m -2.513,-1.515 c -0.146,0.34 -0.361,0.633 -0.644,0.878 -0.283,0.245 -0.627,0.438 -1.033,0.58 -0.406,0.142 -0.868,0.212 -1.387,0.212 -0.679,0 -1.305,-0.13 -1.875,-0.389 -0.571,-0.26 -1.055,-0.588 -1.451,-0.984 l 0.736,-0.82 c 0.377,0.358 0.783,0.646 1.217,0.863 0.434,0.217 0.906,0.325 1.416,0.325 0.661,0 1.182,-0.15 1.564,-0.453 0.382,-0.302 0.574,-0.717 0.574,-1.245 0,-0.227 -0.038,-0.434 -0.113,-0.623 -0.076,-0.188 -0.206,-0.363 -0.39,-0.523 -0.184,-0.16 -0.427,-0.318 -0.729,-0.475 -0.302,-0.155 -0.679,-0.313 -1.132,-0.474 -0.538,-0.189 -0.989,-0.38 -1.352,-0.574 -0.364,-0.193 -0.656,-0.4 -0.878,-0.622 -0.222,-0.222 -0.382,-0.47 -0.481,-0.743 -0.099,-0.274 -0.149,-0.59 -0.149,-0.948 0,-0.396 0.076,-0.75 0.227,-1.062 0.151,-0.311 0.361,-0.578 0.63,-0.799 0.269,-0.223 0.595,-0.39 0.977,-0.503 0.382,-0.113 0.805,-0.17 1.267,-0.17 0.661,0 1.225,0.1 1.691,0.283 0.467,0.188 0.908,0.448 1.324,0.778 l -0.708,0.863 c -0.358,-0.302 -0.72,-0.53 -1.083,-0.686 -0.364,-0.156 -0.795,-0.234 -1.295,-0.234 -0.34,0 -0.632,0.04 -0.877,0.121 -0.246,0.08 -0.446,0.186 -0.602,0.318 -0.156,0.132 -0.269,0.285 -0.34,0.459 -0.071,0.176 -0.106,0.361 -0.106,0.56 0,0.208 0.028,0.395 0.085,0.56 0.057,0.165 0.17,0.325 0.34,0.48 0.17,0.156 0.408,0.31 0.715,0.461 0.307,0.15 0.71,0.316 1.21,0.495 0.547,0.198 1.005,0.396 1.373,0.595 0.368,0.199 0.663,0.415 0.885,0.651 0.222,0.235 0.379,0.495 0.474,0.778 0.094,0.283 0.142,0.608 0.142,0.977 0,0.387 -0.075,0.75 -0.222,1.09 z m -9.278,0.602 c -0.585,0.713 -1.477,1.068 -2.675,1.068 -1.189,0 -2.083,-0.351 -2.683,-1.054 -0.6,-0.703 -0.899,-1.744 -0.899,-3.122 l 0,-5.889 1.104,0 0,5.86 c 0,2.133 0.845,3.199 2.534,3.199 0.858,0 1.472,-0.259 1.84,-0.778 0.368,-0.519 0.552,-1.316 0.552,-2.393 l 0,-5.889 1.104,0 0,5.86 c 0,1.38 -0.292,2.426 -0.877,3.138 z m -12.839,-7.991 0,3.283 2.718,0 0,1.006 -2.718,0 0,4.614 -1.104,0 0,-9.909 5.818,0 0,1.006 -4.714,0 z m 79.9131,-9.553 c -0.04,0.1 -0.1,0.186 -0.172,0.259 -0.07,0.07 -0.16,0.13 -0.26,0.172 -0.1,0.04 -0.207,0.06 -0.322,0.06 -0.117,0 -0.225,-0.02 -0.324,-0.06 -0.1,-0.04 -0.186,-0.1 -0.258,-0.172 -0.07,-0.07 -0.131,-0.16 -0.172,-0.259 -0.04,-0.1 -0.06,-0.208 -0.06,-0.324 0,-0.116 0.02,-0.224 0.06,-0.323 0.04,-0.1 0.1,-0.186 0.172,-0.259 0.07,-0.07 0.158,-0.12997 0.258,-0.17197 0.1,-0.04 0.207,-0.06 0.324,-0.06 0.115,0 0.223,0.02 0.322,0.06 0.1,0.04 0.186,0.1 0.26,0.17197 0.07,0.07 0.129,0.16 0.172,0.259 0.04,0.1 0.06,0.208 0.06,0.323 0,0.116 -0.02,0.224 -0.06,0.324 z m -0.121,-0.594 c -0.04,-0.08 -0.08,-0.156 -0.145,-0.218 -0.06,-0.06 -0.135,-0.11 -0.219,-0.145 -0.08,-0.03 -0.174,-0.05 -0.27,-0.05 -0.1,0 -0.189,0.02 -0.271,0.05 -0.08,0.03 -0.156,0.08 -0.217,0.145 -0.06,0.06 -0.111,0.135 -0.146,0.218 -0.03,0.08 -0.05,0.174 -0.05,0.27 0,0.1 0.02,0.188 0.05,0.271 0.03,0.08 0.08,0.155 0.146,0.217 0.06,0.06 0.133,0.11 0.217,0.145 0.08,0.03 0.172,0.05 0.271,0.05 0.1,0 0.186,-0.02 0.27,-0.05 0.08,-0.04 0.156,-0.08 0.219,-0.145 0.06,-0.06 0.109,-0.134 0.145,-0.217 0.03,-0.08 0.05,-0.173 0.05,-0.271 0,-0.1 -0.02,-0.187 -0.05,-0.27 z m -0.314,0.25 c -0.03,0.04 -0.08,0.07 -0.139,0.09 l 0.184,0.359 -0.178,0 -0.174,-0.344 -0.17,0 0,0.344 -0.152,0 0,-0.891 0.391,0 c 0.04,0 0.08,0 0.111,0.02 0.03,0.01 0.07,0.03 0.09,0.05 0.03,0.02 0.05,0.05 0.06,0.08 0.02,0.03 0.02,0.07 0.02,0.121 0,0.07 -0.02,0.129 -0.05,0.173 z m -0.141,-0.262 c -0.03,-0.02 -0.06,-0.03 -0.102,-0.03 l -0.234,0 0,0.253 0.234,0 c 0.04,0 0.07,-0.01 0.102,-0.03 0.03,-0.02 0.04,-0.05 0.04,-0.1 0,-0.04 -0.01,-0.07 -0.04,-0.09 z m -1.806,5.029 c -0.137,0.271 -0.324,0.491 -0.566,0.661 -0.242,0.17 -0.531,0.296 -0.863,0.377 -0.334,0.08 -0.699,0.123 -1.096,0.123 -0.535,0 -1.045,-0.08 -1.533,-0.231 -0.488,-0.154 -0.9041,-0.344 -1.2501,-0.571 l 0.8871,-1.435 c 0.119,0.08 0.26,0.162 0.42,0.241 0.16,0.08 0.326,0.149 0.5,0.212 0.174,0.06 0.348,0.113 0.523,0.151 0.175,0.04 0.34,0.06 0.492,0.06 0.326,0 0.551,-0.03 0.674,-0.09 0.123,-0.06 0.184,-0.173 0.184,-0.331 0,-0.06 -0.02,-0.119 -0.05,-0.17 -0.03,-0.05 -0.1,-0.1 -0.18,-0.146 -0.09,-0.05 -0.199,-0.09 -0.346,-0.142 -0.145,-0.05 -0.326,-0.1 -0.547,-0.146 -0.396,-0.09 -0.742,-0.195 -1.037,-0.302 -0.297,-0.107 -0.541,-0.241 -0.736,-0.401 -0.195,-0.161 -0.342,-0.354 -0.4391,-0.581 -0.1,-0.227 -0.146,-0.506 -0.146,-0.84 0,-0.308 0.06,-0.591 0.186,-0.849 0.1211,-0.258 0.2971,-0.478 0.5231,-0.661 0.226,-0.183 0.5,-0.324 0.82,-0.42497 0.32,-0.101 0.68,-0.151 1.076,-0.151 0.566,0 1.059,0.066 1.477,0.198 0.418,0.13197 0.803,0.32097 1.156,0.56597 l -0.887,1.435 c -0.297,-0.201 -0.592,-0.355 -0.887,-0.462 -0.297,-0.107 -0.615,-0.161 -0.953,-0.161 -0.277,0 -0.461,0.04 -0.549,0.113 -0.09,0.08 -0.131,0.173 -0.131,0.292 0,0.06 0.02,0.118 0.05,0.166 0.03,0.05 0.09,0.09 0.176,0.132 0.08,0.04 0.191,0.08 0.33,0.123 0.139,0.04 0.314,0.09 0.527,0.137 0.416,0.101 0.773,0.21 1.076,0.33 0.303,0.12 0.551,0.261 0.746,0.425 0.195,0.164 0.34,0.358 0.434,0.585 0.09,0.227 0.143,0.494 0.143,0.802 0,0.379 -0.07,0.703 -0.204,0.973 z m -6.2661,0 c -0.137,0.271 -0.324,0.491 -0.566,0.661 -0.242,0.17 -0.531,0.296 -0.863,0.377 -0.334,0.08 -0.699,0.123 -1.096,0.123 -0.535,0 -1.045,-0.08 -1.533,-0.231 -0.488,-0.154 -0.904,-0.344 -1.25,-0.571 l 0.887,-1.435 c 0.119,0.08 0.26,0.162 0.42,0.241 0.16,0.08 0.326,0.149 0.5,0.212 0.174,0.06 0.348,0.113 0.523,0.151 0.175,0.04 0.34,0.06 0.492,0.06 0.326,0 0.551,-0.03 0.674,-0.09 0.123,-0.06 0.184,-0.173 0.184,-0.331 0,-0.06 -0.02,-0.119 -0.05,-0.17 -0.03,-0.05 -0.1,-0.1 -0.18,-0.146 -0.09,-0.05 -0.199,-0.09 -0.346,-0.142 -0.145,-0.05 -0.326,-0.1 -0.547,-0.146 -0.396,-0.09 -0.742,-0.195 -1.037,-0.302 -0.297,-0.107 -0.541,-0.241 -0.736,-0.401 -0.195,-0.161 -0.342,-0.354 -0.439,-0.581 -0.1,-0.227 -0.146,-0.506 -0.146,-0.84 0,-0.308 0.06,-0.591 0.186,-0.849 0.121,-0.258 0.297,-0.478 0.523,-0.661 0.226,-0.183 0.5,-0.324 0.82,-0.42497 0.32,-0.101 0.68,-0.151 1.076,-0.151 0.566,0 1.059,0.066 1.477,0.198 0.418,0.13197 0.803,0.32097 1.156,0.56597 l -0.887,1.435 c -0.297,-0.201 -0.592,-0.355 -0.887,-0.462 -0.297,-0.107 -0.615,-0.161 -0.953,-0.161 -0.277,0 -0.461,0.04 -0.549,0.113 -0.09,0.08 -0.131,0.173 -0.131,0.292 0,0.06 0.02,0.118 0.05,0.166 0.04,0.05 0.09,0.09 0.176,0.132 0.08,0.04 0.191,0.08 0.33,0.123 0.139,0.04 0.314,0.09 0.527,0.137 0.416,0.101 0.773,0.21 1.076,0.33 0.303,0.12 0.551,0.261 0.746,0.425 0.195,0.164 0.34,0.358 0.434,0.585 0.09,0.227 0.143,0.494 0.143,0.802 0,0.379 -0.07,0.703 -0.204,0.973 z m -6.205,-0.797 c -0.15,0.425 -0.361,0.782 -0.633,1.071 -0.27,0.29 -0.594,0.51 -0.971,0.661 -0.379,0.151 -0.791,0.227 -1.236,0.227 -0.447,0 -0.857,-0.07 -1.232,-0.222 -0.375,-0.147 -0.697,-0.365 -0.967,-0.651 -0.271,-0.286 -0.48,-0.642 -0.628,-1.066 -0.148,-0.424 -0.222,-0.911 -0.222,-1.458 0,-0.547 0.07,-1.033 0.227,-1.458 0.15,-0.425 0.361,-0.782 0.632,-1.071 0.271,-0.289 0.595,-0.509 0.974,-0.66 0.377,-0.15097 0.789,-0.22697 1.234,-0.22697 0.447,0 0.857,0.074 1.232,0.22197 0.375,0.148 0.695,0.365 0.963,0.651 0.268,0.287 0.477,0.642 0.627,1.066 0.15,0.425 0.227,0.911 0.227,1.458 0,0.547 -0.08,1.033 -0.227,1.457 z m -1.977,-2.798 c -0.205,-0.308 -0.492,-0.462 -0.863,-0.462 -0.371,0 -0.656,0.151 -0.854,0.453 -0.199,0.302 -0.299,0.751 -0.299,1.349 0,0.598 0.104,1.051 0.307,1.359 0.205,0.309 0.492,0.462 0.863,0.462 0.371,0 0.656,-0.151 0.855,-0.453 0.197,-0.302 0.297,-0.752 0.297,-1.35 0,-0.598 -0.101,-1.05 -0.306,-1.358 z m -5.299,4.097 c -0.409,0.371 -1.032,0.556 -1.868,0.556 l -3.172,0 0,-6.60597 3.19,0 c 0.817,0 1.407,0.14797 1.769,0.44397 0.362,0.296 0.543,0.722 0.543,1.277 0,0.359 -0.08,0.633 -0.23,0.822 -0.154,0.189 -0.342,0.347 -0.562,0.473 0.303,0.125 0.535,0.306 0.699,0.542 0.163,0.236 0.245,0.542 0.245,0.918 0,0.679 -0.205,1.203 -0.614,1.574 z m -1.455,-4.454 c -0.08,-0.102 -0.232,-0.153 -0.452,-0.153 l -1.378,0 0,1.048 1.378,0 c 0.214,0 0.363,-0.05 0.448,-0.143 0.09,-0.09 0.127,-0.222 0.127,-0.381 0,-0.146 -0.04,-0.269 -0.123,-0.371 z m 0.114,2.452 c -0.106,-0.113 -0.27,-0.169 -0.49,-0.169 l -1.453,0 0,1.283 1.443,0 c 0.227,0 0.394,-0.06 0.5,-0.184 0.107,-0.123 0.161,-0.278 0.161,-0.467 0,-0.195 -0.05,-0.35 -0.161,-0.463 z m -5.18,1.034 c -0.113,0.343 -0.285,0.635 -0.515,0.877 -0.23,0.242 -0.519,0.428 -0.868,0.557 -0.349,0.129 -0.757,0.194 -1.223,0.194 -0.439,0 -0.82,-0.05 -1.141,-0.161 -0.321,-0.107 -0.597,-0.259 -0.826,-0.458 -0.23,-0.198 -0.418,-0.439 -0.566,-0.722 -0.148,-0.283 -0.263,-0.598 -0.344,-0.943 l 1.793,-0.472 c 0.113,0.377 0.248,0.662 0.405,0.854 0.157,0.192 0.394,0.288 0.708,0.288 0.295,0 0.516,-0.09 0.66,-0.278 0.144,-0.185 0.217,-0.439 0.217,-0.76 l 0,-4.05797 1.869,0 0,3.91697 c 0,0.433 -0.06,0.822 -0.169,1.165 z m -8.533,-3.957 c -0.04,0.1 -0.1,0.186 -0.172,0.259 -0.07,0.07 -0.16,0.13 -0.259,0.172 -0.1,0.04 -0.208,0.06 -0.323,0.06 -0.116,0 -0.225,-0.02 -0.324,-0.06 -0.1,-0.04 -0.186,-0.1 -0.258,-0.172 -0.07,-0.07 -0.131,-0.16 -0.172,-0.259 -0.04,-0.1 -0.06,-0.208 -0.06,-0.324 0,-0.116 0.02,-0.224 0.06,-0.323 0.04,-0.1 0.1,-0.186 0.172,-0.259 0.07,-0.07 0.159,-0.12997 0.258,-0.17197 0.1,-0.04 0.208,-0.06 0.324,-0.06 0.115,0 0.224,0.02 0.323,0.06 0.1,0.04 0.186,0.1 0.259,0.17197 0.07,0.07 0.131,0.16 0.172,0.259 0.04,0.1 0.06,0.208 0.06,0.323 0,0.116 -0.02,0.224 -0.06,0.324 z m -0.121,-0.594 c -0.04,-0.08 -0.08,-0.156 -0.145,-0.218 -0.06,-0.06 -0.135,-0.11 -0.219,-0.145 -0.08,-0.03 -0.174,-0.05 -0.27,-0.05 -0.1,0 -0.188,0.02 -0.271,0.05 -0.08,0.03 -0.155,0.08 -0.217,0.145 -0.06,0.06 -0.11,0.135 -0.145,0.218 -0.03,0.08 -0.05,0.174 -0.05,0.27 0,0.1 0.02,0.188 0.05,0.271 0.03,0.08 0.08,0.155 0.145,0.217 0.06,0.06 0.134,0.11 0.217,0.145 0.08,0.03 0.174,0.05 0.271,0.05 0.1,0 0.186,-0.02 0.27,-0.05 0.08,-0.04 0.156,-0.08 0.219,-0.145 0.06,-0.06 0.109,-0.134 0.145,-0.217 0.04,-0.08 0.05,-0.173 0.05,-0.271 0,-0.1 -0.02,-0.187 -0.05,-0.27 z m -0.315,0.25 c -0.03,0.04 -0.08,0.07 -0.138,0.09 l 0.183,0.359 -0.178,0 -0.173,-0.344 -0.171,0 0,0.344 -0.152,0 0,-0.891 0.391,0 c 0.04,0 0.08,0 0.111,0.02 0.03,0.01 0.07,0.03 0.09,0.05 0.03,0.02 0.05,0.05 0.06,0.08 0.02,0.03 0.02,0.07 0.02,0.121 0,0.07 -0.02,0.129 -0.05,0.173 z m -0.14,-0.262 c -0.03,-0.02 -0.06,-0.03 -0.102,-0.03 l -0.234,0 0,0.253 0.234,0 c 0.04,0 0.08,-0.01 0.102,-0.03 0.03,-0.02 0.04,-0.05 0.04,-0.1 0,-0.04 -0.01,-0.07 -0.04,-0.09 z m -3.747,1.076 0,5.011 -1.831,0 0,-5.011 -1.85,0 0,-1.59497 5.53,0 0,1.59497 -1.849,0 z m -5.435,5.011 -0.359,-1.161 -1.981,0 -0.359,1.161 -1.964,0 2.397,-6.60597 1.85,0 2.397,6.60597 -1.981,0 z m -0.925,-3.049 c -0.06,-0.213 -0.107,-0.399 -0.151,-0.557 -0.04,-0.157 -0.08,-0.299 -0.118,-0.424 -0.03,-0.126 -0.06,-0.241 -0.09,-0.345 -0.03,-0.104 -0.05,-0.212 -0.07,-0.326 -0.02,0.113 -0.04,0.224 -0.07,0.331 -0.02,0.107 -0.05,0.223 -0.09,0.349 -0.04,0.126 -0.07,0.268 -0.118,0.425 -0.04,0.157 -0.09,0.339 -0.151,0.547 l -0.123,0.435 1.095,0 -0.122,-0.435 z m -6.55,3.049 0,-2.604 -2.057,0 0,2.604 -1.869,0 0,-6.60597 1.869,0 0,2.40697 2.057,0 0,-2.40697 1.869,0 0,6.60597 -1.869,0 z m -8.37,-1.77 c -0.151,0.425 -0.377,0.768 -0.68,1.029 -0.302,0.261 -0.674,0.45 -1.118,0.566 -0.443,0.117 -0.958,0.175 -1.543,0.175 l -2.142,0 0,-6.60597 2.312,0 c 0.516,0 0.985,0.05 1.406,0.16097 0.421,0.107 0.778,0.288 1.071,0.542 0.293,0.255 0.519,0.59 0.68,1.005 0.161,0.416 0.241,0.935 0.241,1.557 0,0.623 -0.076,1.147 -0.227,1.571 z m -1.731,-2.326 c -0.054,-0.22 -0.14,-0.399 -0.26,-0.538 -0.12,-0.139 -0.277,-0.241 -0.472,-0.307 -0.195,-0.07 -0.434,-0.1 -0.717,-0.1 l -0.453,0 0,3.473 0.396,0 c 0.283,0 0.525,-0.03 0.727,-0.09 0.201,-0.06 0.367,-0.157 0.496,-0.292 0.129,-0.135 0.222,-0.314 0.278,-0.538 0.057,-0.223 0.085,-0.499 0.085,-0.826 0,-0.302 -0.027,-0.563 -0.08,-0.783 z m -10.046,4.096 0,-6.60597 5.058,0 0,1.53897 -3.246,0 0,0.887 1.954,0 0,1.51 -1.954,0 0,1.132 3.312,0 0,1.538 -5.124,0 z m -3.147,0 -1.078,-2.227 -0.738,0 0,2.227 -1.793,0 0,-6.60597 2.954,0 c 0.384,0 0.735,0.04 1.052,0.11797 0.318,0.08 0.59,0.203 0.816,0.373 0.226,0.17 0.401,0.392 0.524,0.666 0.123,0.273 0.184,0.605 0.184,0.996 0,0.497 -0.107,0.903 -0.322,1.217 -0.215,0.314 -0.505,0.554 -0.871,0.717 l 1.324,2.52 -2.052,0 z m -0.085,-4.917 c -0.124,-0.132 -0.331,-0.198 -0.621,-0.198 l -1.11,0 0,1.444 1.081,0 c 0.304,0 0.519,-0.06 0.645,-0.189 0.126,-0.125 0.19,-0.308 0.19,-0.547 0,-0.208 -0.062,-0.378 -0.185,-0.51 z
"  />

</svg>