<svg width="180" height="60" viewbox="0 0 180 60" class="product">

<path
  d="

  m 55.151,40.9357 c -0.146,0.34 -0.361,0.633 -0.644,0.878 -0.283,0.245 -0.627,0.438 -1.033,0.58 -0.406,0.142 -0.868,0.212 -1.387,0.212 -0.679,0 -1.305,-0.13 -1.875,-0.389 -0.571,-0.26 -1.055,-0.588 -1.451,-0.984 l 0.736,-0.82 c 0.377,0.358 0.783,0.646 1.217,0.863 0.434,0.217 0.906,0.325 1.416,0.325 0.661,0 1.182,-0.15 1.564,-0.453 0.382,-0.302 0.574,-0.717 0.574,-1.245 0,-0.227 -0.04,-0.434 -0.113,-0.623 -0.08,-0.188 -0.206,-0.363 -0.39,-0.523 -0.184,-0.16 -0.427,-0.318 -0.729,-0.475 -0.302,-0.155 -0.679,-0.313 -1.132,-0.474 -0.538,-0.189 -0.989,-0.38 -1.352,-0.573 -0.364,-0.193 -0.656,-0.401 -0.878,-0.623 -0.222,-0.222 -0.382,-0.47 -0.481,-0.743 -0.1,-0.273 -0.149,-0.59 -0.149,-0.948 0,-0.396 0.08,-0.751 0.227,-1.062 0.151,-0.312 0.361,-0.578 0.63,-0.8 0.269,-0.222 0.595,-0.39 0.977,-0.503 0.382,-0.113 0.805,-0.17 1.267,-0.17 0.661,0 1.225,0.09 1.691,0.283 0.467,0.188 0.908,0.448 1.324,0.778 l -0.708,0.863 c -0.358,-0.302 -0.72,-0.53 -1.083,-0.687 -0.364,-0.155 -0.795,-0.233 -1.295,-0.233 -0.34,0 -0.632,0.04 -0.877,0.12 -0.246,0.08 -0.446,0.187 -0.602,0.319 -0.156,0.132 -0.269,0.285 -0.34,0.46 -0.07,0.175 -0.106,0.36 -0.106,0.559 0,0.208 0.03,0.395 0.08,0.56 0.06,0.165 0.17,0.325 0.34,0.481 0.17,0.155 0.408,0.309 0.715,0.46 0.307,0.15 0.71,0.316 1.21,0.495 0.547,0.198 1.005,0.396 1.373,0.595 0.368,0.199 0.663,0.415 0.885,0.651 0.222,0.235 0.379,0.495 0.474,0.778 0.09,0.283 0.142,0.608 0.142,0.977 0,0.388 -0.07,0.751 -0.222,1.091 z m -8.613,1.515 -2.93,-5.28 -1.883,2.436 0,2.845 -1.104,0 0,-9.909 1.104,0 0,4.317 0,1.331 c 0.066,-0.09 0.158,-0.224 0.276,-0.39 0.118,-0.165 0.248,-0.342 0.389,-0.53 0.141,-0.188 0.281,-0.373 0.417,-0.552 0.137,-0.18 0.257,-0.335 0.361,-0.468 l 2.874,-3.709 1.203,0 -2.902,3.724 3.454,6.186 -1.259,0 z m -8.748,-5.238 c -0.425,0.472 -0.991,0.783 -1.699,0.934 l 2.18,4.305 -1.274,0 -2.123,-4.219 -2.35,0 0,4.219 -1.104,0 0,-9.909 3.921,0 c 0.434,0 0.84,0.06 1.217,0.17 0.377,0.113 0.703,0.286 0.977,0.518 0.273,0.23 0.49,0.521 0.651,0.87 0.161,0.349 0.241,0.764 0.241,1.245 0,0.772 -0.212,1.395 -0.637,1.867 z m -0.983,-3.207 c -0.345,-0.306 -0.847,-0.458 -1.508,-0.458 l -2.774,0 0,3.68 2.633,0 c 0.736,0 1.281,-0.152 1.635,-0.458 0.354,-0.306 0.531,-0.769 0.531,-1.389 0,-0.612 -0.173,-1.07 -0.517,-1.375 z m -7.864,5.536 c -0.198,0.628 -0.479,1.168 -0.842,1.621 -0.363,0.453 -0.8,0.807 -1.31,1.062 -0.509,0.255 -1.071,0.382 -1.685,0.382 -0.613,0 -1.172,-0.125 -1.677,-0.375 -0.505,-0.25 -0.937,-0.602 -1.295,-1.055 -0.359,-0.452 -0.635,-0.99 -0.828,-1.613 -0.194,-0.623 -0.291,-1.307 -0.291,-2.053 0,-0.745 0.099,-1.432 0.297,-2.06 0.198,-0.627 0.477,-1.168 0.835,-1.62 0.358,-0.453 0.792,-0.808 1.302,-1.062 0.509,-0.254 1.071,-0.382 1.684,-0.382 0.614,0 1.173,0.125 1.678,0.375 0.504,0.25 0.937,0.602 1.295,1.055 0.359,0.453 0.637,0.991 0.835,1.613 0.198,0.623 0.297,1.308 0.297,2.053 0,0.745 -0.096,1.432 -0.295,2.059 z m -1.04,-3.723 c -0.156,-0.505 -0.371,-0.938 -0.644,-1.302 -0.274,-0.363 -0.595,-0.642 -0.962,-0.836 -0.368,-0.193 -0.77,-0.29 -1.203,-0.29 -0.425,0 -0.819,0.1 -1.182,0.29 -0.363,0.194 -0.677,0.468 -0.941,0.821 -0.264,0.353 -0.472,0.783 -0.623,1.288 -0.151,0.505 -0.226,1.068 -0.226,1.691 0,0.623 0.078,1.188 0.233,1.691 0.156,0.505 0.368,0.939 0.637,1.303 0.269,0.363 0.588,0.642 0.956,0.835 0.368,0.193 0.769,0.29 1.203,0.29 0.425,0 0.821,-0.1 1.189,-0.29 0.368,-0.193 0.684,-0.467 0.948,-0.821 0.264,-0.354 0.472,-0.783 0.623,-1.288 0.15,-0.504 0.226,-1.068 0.226,-1.691 0,-0.623 -0.078,-1.186 -0.234,-1.691 z m -10.383,6.632 -1.246,0 -1.557,-6.342 c -0.038,-0.16 -0.08,-0.34 -0.127,-0.538 -0.047,-0.198 -0.092,-0.396 -0.134,-0.594 -0.042,-0.198 -0.083,-0.395 -0.12,-0.588 -0.038,-0.193 -0.071,-0.365 -0.099,-0.517 -0.028,0.151 -0.062,0.321 -0.099,0.51 -0.038,0.188 -0.078,0.382 -0.121,0.58 -0.043,0.198 -0.087,0.396 -0.134,0.595 -0.047,0.198 -0.09,0.382 -0.127,0.552 l -1.557,6.342 -1.217,0 -1.982,-9.909 1.104,0 1.161,6.37 c 0.028,0.161 0.059,0.345 0.092,0.553 0.033,0.207 0.066,0.412 0.099,0.615 0.033,0.203 0.066,0.396 0.099,0.58 0.033,0.185 0.059,0.338 0.078,0.46 0.019,-0.122 0.047,-0.273 0.085,-0.452 0.038,-0.18 0.078,-0.371 0.12,-0.573 0.042,-0.203 0.087,-0.406 0.134,-0.609 0.047,-0.202 0.09,-0.384 0.127,-0.545 l 1.571,-6.398 1.189,0 1.571,6.398 c 0.038,0.161 0.08,0.343 0.127,0.545 0.047,0.203 0.092,0.406 0.135,0.609 0.042,0.202 0.082,0.394 0.12,0.573 0.038,0.179 0.066,0.33 0.085,0.452 0.019,-0.122 0.044,-0.275 0.078,-0.46 0.033,-0.184 0.066,-0.377 0.099,-0.58 0.033,-0.203 0.066,-0.408 0.099,-0.615 0.033,-0.208 0.064,-0.392 0.092,-0.553 l 1.161,-6.37 1.076,0 -1.982,9.909 z m 77.428,-12.976 0,-9.909 5.988,0 0,1.005 -4.885,0 0,3.114 2.832,0 0,1.005 -2.832,0 0,3.779 5.096,0 0,1.005 -6.199,0 z m -3.412,-0.297 c -0.537,0.302 -1.17,0.452 -1.896,0.452 -0.604,0 -1.154,-0.13 -1.648,-0.389 -0.496,-0.26 -0.918,-0.616 -1.268,-1.069 -0.35,-0.452 -0.617,-0.99 -0.807,-1.613 -0.19,-0.623 -0.283,-1.298 -0.283,-2.024 0,-0.736 0.1,-1.417 0.297,-2.045 0.199,-0.627 0.475,-1.167 0.828,-1.621 0.353,-0.454 0.781,-0.809 1.281,-1.069 0.5,-0.259 1.047,-0.389 1.643,-0.389 1.34,0 2.393,0.529 3.156,1.585 l -0.877,0.666 c -0.322,-0.434 -0.652,-0.75 -0.992,-0.949 -0.34,-0.199 -0.777,-0.297 -1.316,-0.297 -0.424,0 -0.816,0.102 -1.174,0.305 -0.359,0.203 -0.666,0.483 -0.92,0.842 -0.256,0.358 -0.455,0.788 -0.602,1.288 -0.147,0.5 -0.221,1.052 -0.221,1.656 0,0.604 0.07,1.159 0.221,1.663 0.146,0.505 0.352,0.939 0.615,1.303 0.263,0.364 0.576,0.646 0.934,0.85 0.359,0.203 0.746,0.304 1.162,0.304 0.537,0 1,-0.113 1.387,-0.34 0.387,-0.227 0.74,-0.547 1.061,-0.962 l 0.766,0.665 c -0.361,0.49 -0.808,0.886 -1.347,1.188 z m -9.256,0.297 0,-9.909 1.104,0 0,9.909 -1.104,0 z m -5.492,0 -1.219,0 -3.369,-9.909 1.162,0 2.207,6.781 c 0.05,0.15 0.102,0.32 0.164,0.509 0.06,0.189 0.119,0.376 0.176,0.56 0.06,0.184 0.109,0.356 0.156,0.517 0.05,0.161 0.08,0.283 0.113,0.368 0.03,-0.09 0.07,-0.21 0.113,-0.375 0.05,-0.165 0.102,-0.342 0.162,-0.531 0.06,-0.188 0.123,-0.38 0.184,-0.573 0.06,-0.193 0.117,-0.36 0.164,-0.502 l 2.223,-6.752 1.131,0 -3.367,9.907 z m -6.512,-5.238 c -0.425,0.472 -0.991,0.783 -1.699,0.934 l 2.18,4.305 -1.273,0 -2.123,-4.219 -2.35,0 0,4.219 -1.104,0 0,-9.909 3.921,0 c 0.434,0 0.84,0.06 1.217,0.17 0.378,0.113 0.703,0.286 0.978,0.517 0.273,0.231 0.49,0.521 0.651,0.87 0.16,0.349 0.24,0.764 0.24,1.246 0,0.772 -0.214,1.395 -0.638,1.867 z m -0.984,-3.207 c -0.344,-0.306 -0.847,-0.458 -1.508,-0.458 l -2.773,0 0,3.681 2.633,0 c 0.736,0 1.281,-0.153 1.635,-0.459 0.354,-0.305 0.531,-0.768 0.531,-1.389 0,-0.611 -0.173,-1.069 -0.518,-1.375 z m -13.695,8.445 0,-9.909 5.988,0 0,1.005 -4.884,0 0,3.114 2.831,0 0,1.005 -2.831,0 0,3.779 5.097,0 0,1.005 -6.201,0 z m -2.513,-1.514 c -0.146,0.34 -0.361,0.633 -0.644,0.878 -0.283,0.245 -0.627,0.438 -1.033,0.58 -0.406,0.142 -0.868,0.212 -1.387,0.212 -0.679,0 -1.305,-0.13 -1.875,-0.389 -0.571,-0.26 -1.055,-0.588 -1.451,-0.984 l 0.736,-0.82 c 0.377,0.358 0.783,0.646 1.217,0.863 0.434,0.217 0.906,0.325 1.416,0.325 0.661,0 1.182,-0.15 1.564,-0.453 0.382,-0.302 0.574,-0.717 0.574,-1.245 0,-0.227 -0.04,-0.434 -0.113,-0.623 -0.08,-0.188 -0.206,-0.363 -0.39,-0.523 -0.184,-0.16 -0.427,-0.318 -0.729,-0.475 -0.302,-0.155 -0.679,-0.313 -1.132,-0.474 -0.538,-0.189 -0.989,-0.38 -1.352,-0.574 -0.364,-0.193 -0.656,-0.4 -0.878,-0.622 -0.222,-0.222 -0.382,-0.47 -0.481,-0.743 -0.099,-0.274 -0.149,-0.59 -0.149,-0.949 0,-0.396 0.076,-0.75 0.227,-1.062 0.151,-0.312 0.361,-0.578 0.63,-0.8 0.269,-0.222 0.595,-0.389 0.977,-0.502 0.382,-0.113 0.805,-0.17 1.267,-0.17 0.661,0 1.225,0.09 1.691,0.283 0.467,0.189 0.908,0.448 1.324,0.778 l -0.708,0.864 c -0.358,-0.302 -0.72,-0.531 -1.083,-0.687 -0.364,-0.156 -0.795,-0.234 -1.295,-0.234 -0.34,0 -0.632,0.04 -0.877,0.121 -0.246,0.08 -0.446,0.187 -0.602,0.318 -0.156,0.132 -0.269,0.286 -0.34,0.46 -0.071,0.175 -0.106,0.361 -0.106,0.559 0,0.208 0.028,0.395 0.085,0.559 0.057,0.166 0.17,0.326 0.34,0.481 0.17,0.155 0.408,0.309 0.715,0.46 0.307,0.151 0.71,0.316 1.21,0.496 0.547,0.198 1.005,0.396 1.373,0.595 0.368,0.199 0.663,0.415 0.885,0.651 0.222,0.235 0.379,0.495 0.474,0.778 0.09,0.283 0.142,0.608 0.142,0.977 0,0.388 -0.08,0.751 -0.222,1.091 z m -17.856,1.514 0,-9.909 5.988,0 0,1.005 -4.884,0 0,3.114 2.831,0 0,1.005 -2.831,0 0,3.779 5.096,0 0,1.005 -6.2,0 z m -2.513,-1.514 c -0.146,0.34 -0.361,0.633 -0.644,0.878 -0.283,0.245 -0.627,0.438 -1.033,0.58 -0.406,0.142 -0.868,0.212 -1.387,0.212 -0.679,0 -1.305,-0.13 -1.875,-0.389 -0.571,-0.26 -1.055,-0.588 -1.451,-0.984 l 0.736,-0.82 c 0.377,0.358 0.783,0.646 1.217,0.863 0.434,0.217 0.906,0.325 1.416,0.325 0.661,0 1.182,-0.15 1.564,-0.453 0.382,-0.302 0.574,-0.717 0.574,-1.245 0,-0.227 -0.038,-0.434 -0.113,-0.623 -0.076,-0.188 -0.206,-0.363 -0.39,-0.523 -0.184,-0.16 -0.427,-0.318 -0.729,-0.475 -0.302,-0.155 -0.679,-0.313 -1.132,-0.474 -0.538,-0.189 -0.989,-0.38 -1.352,-0.574 -0.364,-0.193 -0.656,-0.4 -0.878,-0.622 -0.222,-0.222 -0.382,-0.47 -0.481,-0.743 -0.099,-0.274 -0.149,-0.59 -0.149,-0.949 0,-0.396 0.076,-0.75 0.227,-1.062 0.151,-0.312 0.361,-0.578 0.63,-0.8 0.269,-0.222 0.595,-0.389 0.977,-0.502 0.382,-0.113 0.805,-0.17 1.267,-0.17 0.661,0 1.225,0.09 1.691,0.283 0.467,0.189 0.908,0.448 1.324,0.778 l -0.708,0.864 c -0.358,-0.302 -0.72,-0.531 -1.083,-0.687 -0.364,-0.156 -0.795,-0.234 -1.295,-0.234 -0.34,0 -0.632,0.04 -0.877,0.121 -0.246,0.08 -0.446,0.187 -0.602,0.318 -0.156,0.132 -0.269,0.286 -0.34,0.46 -0.071,0.175 -0.106,0.361 -0.106,0.559 0,0.208 0.028,0.395 0.085,0.559 0.057,0.166 0.17,0.326 0.34,0.481 0.17,0.155 0.408,0.309 0.715,0.46 0.307,0.151 0.71,0.316 1.21,0.496 0.547,0.198 1.005,0.396 1.373,0.595 0.368,0.199 0.663,0.415 0.885,0.651 0.222,0.235 0.379,0.495 0.474,0.778 0.094,0.283 0.142,0.608 0.142,0.977 0,0.388 -0.075,0.751 -0.222,1.091 z m -9.278,0.601 c -0.585,0.713 -1.477,1.068 -2.675,1.068 -1.189,0 -2.083,-0.351 -2.683,-1.054 -0.6,-0.703 -0.899,-1.744 -0.899,-3.122 l 0,-5.888 1.104,0 0,5.86 c 0,2.133 0.845,3.199 2.534,3.199 0.858,0 1.472,-0.259 1.84,-0.778 0.368,-0.519 0.552,-1.316 0.552,-2.393 l 0,-5.888 1.104,0 0,5.86 c 0,1.378 -0.292,2.424 -0.877,3.136 z m -12.839,-7.99 0,3.284 2.718,0 0,1.005 -2.718,0 0,4.614 -1.104,0 0,-9.909 5.818,0 0,1.005 -4.714,0 z m 79.913,-9.554 c -0.04,0.099 -0.1,0.186 -0.172,0.259 -0.07,0.073 -0.158,0.13 -0.258,0.172 -0.1,0.041 -0.207,0.062 -0.324,0.062 -0.115,0 -0.223,-0.021 -0.322,-0.062 -0.1,-0.042 -0.188,-0.099 -0.26,-0.172 -0.07,-0.073 -0.131,-0.16 -0.172,-0.259 -0.04,-0.1 -0.06,-0.208 -0.06,-0.324 0,-0.116 0.02,-0.224 0.06,-0.323 0.04,-0.099 0.1,-0.186 0.172,-0.259 0.07,-0.073 0.16,-0.13 0.26,-0.172 0.1,-0.042 0.207,-0.062 0.322,-0.062 0.117,0 0.225,0.021 0.324,0.062 0.1,0.041 0.186,0.099 0.258,0.172 0.07,0.073 0.131,0.16 0.172,0.259 0.04,0.1 0.06,0.208 0.06,0.323 0,0.117 -0.02,0.225 -0.06,0.324 z m -0.121,-0.593 c -0.03,-0.083 -0.08,-0.156 -0.145,-0.218 -0.06,-0.062 -0.135,-0.11 -0.219,-0.145 -0.08,-0.035 -0.174,-0.052 -0.27,-0.052 -0.1,0 -0.188,0.018 -0.271,0.052 -0.08,0.035 -0.154,0.083 -0.217,0.145 -0.06,0.062 -0.109,0.135 -0.145,0.218 -0.04,0.083 -0.05,0.174 -0.05,0.27 0,0.098 0.02,0.188 0.05,0.271 0.03,0.083 0.08,0.155 0.145,0.217 0.06,0.062 0.135,0.11 0.217,0.145 0.08,0.035 0.174,0.052 0.271,0.052 0.1,0 0.188,-0.017 0.27,-0.052 0.08,-0.035 0.158,-0.083 0.219,-0.145 0.06,-0.062 0.109,-0.134 0.145,-0.217 0.04,-0.083 0.05,-0.173 0.05,-0.271 0,-0.097 -0.02,-0.187 -0.05,-0.27 z m -0.315,0.25 c -0.03,0.043 -0.08,0.074 -0.137,0.09 l 0.184,0.359 -0.18,0 -0.172,-0.344 -0.172,0 0,0.344 -0.15,0 0,-0.89 0.389,0 c 0.04,0 0.08,0.01 0.111,0.016 0.03,0.011 0.07,0.027 0.09,0.049 0.03,0.022 0.05,0.05 0.06,0.083 0.02,0.034 0.02,0.074 0.02,0.121 0,0.071 -0.02,0.128 -0.05,0.172 z m -0.139,-0.263 c -0.03,-0.021 -0.06,-0.032 -0.104,-0.032 l -0.234,0 0,0.253 0.234,0 c 0.04,0 0.08,-0.01 0.104,-0.03 0.03,-0.021 0.04,-0.052 0.04,-0.096 0,-0.042 -0.01,-0.074 -0.04,-0.095 z m -1.808,5.03 c -0.135,0.271 -0.324,0.491 -0.566,0.661 -0.242,0.17 -0.529,0.296 -0.863,0.377 -0.334,0.08 -0.697,0.123 -1.094,0.123 -0.535,0 -1.047,-0.08 -1.533,-0.231 -0.488,-0.154 -0.906,-0.344 -1.252,-0.571 l 0.889,-1.435 c 0.119,0.082 0.258,0.162 0.42,0.241 0.16,0.079 0.326,0.149 0.5,0.212 0.172,0.063 0.348,0.113 0.523,0.151 0.175,0.038 0.34,0.057 0.49,0.057 0.326,0 0.553,-0.031 0.674,-0.094 0.123,-0.063 0.186,-0.173 0.186,-0.331 0,-0.062 -0.02,-0.119 -0.05,-0.17 -0.03,-0.05 -0.09,-0.099 -0.18,-0.146 -0.08,-0.047 -0.199,-0.094 -0.344,-0.142 -0.145,-0.048 -0.328,-0.096 -0.547,-0.146 -0.396,-0.094 -0.742,-0.195 -1.039,-0.302 -0.295,-0.107 -0.541,-0.241 -0.736,-0.401 -0.195,-0.161 -0.34,-0.354 -0.438,-0.581 -0.1,-0.227 -0.146,-0.506 -0.146,-0.84 0,-0.308 0.06,-0.591 0.184,-0.849 0.123,-0.258 0.297,-0.478 0.523,-0.661 0.226,-0.183 0.5,-0.324 0.822,-0.425 0.32,-0.101 0.678,-0.151 1.074,-0.151 0.566,0 1.059,0.066 1.479,0.198 0.418,0.132 0.803,0.321 1.154,0.566 l -0.887,1.435 c -0.295,-0.201 -0.592,-0.355 -0.887,-0.462 -0.295,-0.107 -0.613,-0.161 -0.953,-0.161 -0.277,0 -0.459,0.038 -0.547,0.113 -0.09,0.076 -0.133,0.173 -0.133,0.292 0,0.063 0.02,0.118 0.05,0.166 0.03,0.047 0.09,0.091 0.174,0.132 0.08,0.041 0.191,0.082 0.33,0.123 0.139,0.041 0.314,0.087 0.529,0.137 0.414,0.101 0.773,0.21 1.076,0.33 0.301,0.12 0.549,0.261 0.744,0.425 0.195,0.164 0.34,0.358 0.436,0.585 0.09,0.227 0.141,0.494 0.141,0.802 0,0.379 -0.07,0.703 -0.203,0.973 z m -6.266,0 c -0.135,0.271 -0.324,0.491 -0.566,0.661 -0.242,0.17 -0.529,0.296 -0.863,0.377 -0.334,0.08 -0.697,0.123 -1.094,0.123 -0.535,0 -1.047,-0.08 -1.533,-0.231 -0.488,-0.154 -0.906,-0.344 -1.252,-0.571 l 0.889,-1.435 c 0.119,0.082 0.258,0.162 0.42,0.241 0.16,0.079 0.326,0.149 0.5,0.212 0.172,0.063 0.348,0.113 0.523,0.151 0.175,0.038 0.34,0.057 0.49,0.057 0.326,0 0.553,-0.031 0.674,-0.094 0.123,-0.063 0.186,-0.173 0.186,-0.331 0,-0.062 -0.02,-0.119 -0.05,-0.17 -0.03,-0.05 -0.09,-0.099 -0.18,-0.146 -0.08,-0.047 -0.199,-0.094 -0.344,-0.142 -0.145,-0.048 -0.328,-0.096 -0.547,-0.146 -0.396,-0.094 -0.742,-0.195 -1.039,-0.302 -0.295,-0.107 -0.541,-0.241 -0.736,-0.401 -0.195,-0.161 -0.34,-0.354 -0.438,-0.581 -0.1,-0.227 -0.146,-0.506 -0.146,-0.84 0,-0.308 0.06,-0.591 0.184,-0.849 0.123,-0.258 0.297,-0.478 0.523,-0.661 0.226,-0.183 0.5,-0.324 0.822,-0.425 0.32,-0.101 0.678,-0.151 1.074,-0.151 0.566,0 1.059,0.066 1.479,0.198 0.418,0.132 0.803,0.321 1.154,0.566 l -0.887,1.435 c -0.295,-0.201 -0.592,-0.355 -0.887,-0.462 -0.295,-0.107 -0.613,-0.161 -0.953,-0.161 -0.277,0 -0.459,0.038 -0.547,0.113 -0.09,0.076 -0.133,0.173 -0.133,0.292 0,0.063 0.02,0.118 0.05,0.166 0.03,0.047 0.09,0.091 0.174,0.132 0.08,0.041 0.191,0.082 0.33,0.123 0.139,0.041 0.314,0.087 0.529,0.137 0.414,0.101 0.773,0.21 1.076,0.33 0.301,0.12 0.549,0.261 0.744,0.425 0.195,0.164 0.34,0.358 0.436,0.585 0.09,0.227 0.141,0.494 0.141,0.802 0,0.379 -0.07,0.703 -0.203,0.973 z m -6.205,-0.797 c -0.15,0.425 -0.361,0.782 -0.633,1.071 -0.27,0.29 -0.594,0.51 -0.971,0.661 -0.379,0.151 -0.791,0.227 -1.236,0.227 -0.447,0 -0.857,-0.07 -1.232,-0.222 -0.373,-0.147 -0.695,-0.365 -0.967,-0.651 -0.27,-0.286 -0.479,-0.642 -0.627,-1.066 -0.148,-0.425 -0.222,-0.911 -0.222,-1.458 0,-0.547 0.08,-1.033 0.227,-1.458 0.152,-0.425 0.361,-0.782 0.632,-1.071 0.271,-0.289 0.594,-0.509 0.973,-0.66 0.377,-0.151 0.789,-0.227 1.234,-0.227 0.447,0 0.857,0.074 1.232,0.222 0.375,0.148 0.695,0.365 0.963,0.651 0.268,0.287 0.477,0.642 0.627,1.066 0.15,0.425 0.227,0.911 0.227,1.458 0,0.547 -0.08,1.032 -0.227,1.457 z m -1.976,-2.798 c -0.205,-0.308 -0.492,-0.462 -0.863,-0.462 -0.371,0 -0.656,0.151 -0.854,0.453 -0.199,0.302 -0.299,0.751 -0.299,1.349 0,0.598 0.104,1.051 0.307,1.359 0.205,0.309 0.492,0.462 0.863,0.462 0.371,0 0.656,-0.151 0.855,-0.453 0.197,-0.302 0.297,-0.752 0.297,-1.35 0,-0.598 -0.101,-1.05 -0.306,-1.358 z m -5.299,4.097 c -0.409,0.371 -1.032,0.556 -1.869,0.556 l -3.17,0 0,-6.606 3.189,0 c 0.817,0 1.407,0.148 1.77,0.444 0.361,0.296 0.543,0.722 0.543,1.277 0,0.359 -0.08,0.633 -0.232,0.822 -0.154,0.189 -0.341,0.347 -0.561,0.473 0.302,0.125 0.534,0.306 0.697,0.542 0.164,0.236 0.246,0.542 0.246,0.918 0,0.679 -0.205,1.203 -0.613,1.574 z m -1.453,-4.454 c -0.08,-0.102 -0.232,-0.153 -0.453,-0.153 l -1.378,0 0,1.048 1.378,0 c 0.214,0 0.363,-0.048 0.448,-0.143 0.09,-0.095 0.128,-0.222 0.128,-0.381 0,-0.146 -0.04,-0.269 -0.123,-0.371 z m 0.113,2.452 c -0.107,-0.113 -0.271,-0.169 -0.491,-0.169 l -1.453,0 0,1.283 1.444,0 c 0.227,0 0.393,-0.062 0.5,-0.184 0.106,-0.123 0.16,-0.278 0.16,-0.467 0,-0.196 -0.05,-0.35 -0.16,-0.463 z m -5.182,1.033 c -0.113,0.343 -0.284,0.635 -0.514,0.877 -0.23,0.242 -0.52,0.428 -0.868,0.557 -0.348,0.129 -0.757,0.194 -1.222,0.194 -0.441,0 -0.821,-0.05 -1.143,-0.161 -0.32,-0.107 -0.596,-0.259 -0.825,-0.458 -0.23,-0.198 -0.418,-0.439 -0.566,-0.722 -0.148,-0.283 -0.263,-0.598 -0.344,-0.943 l 1.792,-0.472 c 0.113,0.377 0.248,0.662 0.406,0.854 0.157,0.192 0.393,0.288 0.707,0.288 0.297,0 0.516,-0.093 0.661,-0.278 0.145,-0.186 0.218,-0.439 0.218,-0.76 l 0,-4.058 1.867,0 0,3.917 c 0,0.434 -0.05,0.823 -0.169,1.165 z m -8.532,-3.957 c -0.04,0.099 -0.1,0.186 -0.172,0.259 -0.07,0.073 -0.16,0.13 -0.259,0.172 -0.1,0.041 -0.208,0.062 -0.324,0.062 -0.116,0 -0.224,-0.021 -0.323,-0.062 -0.1,-0.042 -0.186,-0.099 -0.259,-0.172 -0.07,-0.073 -0.13,-0.16 -0.172,-0.259 -0.04,-0.1 -0.06,-0.208 -0.06,-0.324 0,-0.116 0.02,-0.224 0.06,-0.323 0.04,-0.099 0.1,-0.186 0.172,-0.259 0.07,-0.073 0.16,-0.13 0.259,-0.172 0.1,-0.042 0.208,-0.062 0.323,-0.062 0.116,0 0.224,0.021 0.324,0.062 0.1,0.042 0.186,0.099 0.259,0.172 0.07,0.073 0.13,0.16 0.172,0.259 0.04,0.1 0.06,0.208 0.06,0.323 0,0.117 -0.02,0.225 -0.06,0.324 z m -0.121,-0.593 c -0.03,-0.083 -0.08,-0.156 -0.145,-0.218 -0.06,-0.062 -0.135,-0.11 -0.218,-0.145 -0.08,-0.035 -0.174,-0.052 -0.271,-0.052 -0.1,0 -0.188,0.018 -0.271,0.052 -0.08,0.034 -0.155,0.083 -0.217,0.145 -0.06,0.062 -0.11,0.135 -0.145,0.218 -0.03,0.083 -0.05,0.174 -0.05,0.27 0,0.098 0.02,0.188 0.05,0.271 0.03,0.083 0.08,0.155 0.145,0.217 0.06,0.062 0.134,0.11 0.217,0.145 0.08,0.035 0.173,0.052 0.271,0.052 0.1,0 0.187,-0.017 0.271,-0.052 0.08,-0.035 0.156,-0.083 0.218,-0.145 0.06,-0.062 0.11,-0.134 0.145,-0.217 0.03,-0.083 0.05,-0.173 0.05,-0.271 0,-0.097 -0.02,-0.187 -0.05,-0.27 z m -0.315,0.25 c -0.03,0.043 -0.08,0.074 -0.138,0.09 l 0.183,0.359 -0.178,0 -0.173,-0.344 -0.171,0 0,0.344 -0.151,0 0,-0.89 0.39,0 c 0.04,0 0.08,0.01 0.112,0.016 0.04,0.011 0.07,0.027 0.09,0.049 0.03,0.022 0.05,0.05 0.06,0.083 0.02,0.034 0.02,0.074 0.02,0.121 0,0.071 -0.02,0.128 -0.05,0.172 z m -0.14,-0.263 c -0.03,-0.021 -0.06,-0.032 -0.102,-0.032 l -0.235,0 0,0.253 0.235,0 c 0.04,0 0.08,-0.01 0.102,-0.03 0.03,-0.021 0.04,-0.052 0.04,-0.096 0,-0.042 -0.01,-0.074 -0.04,-0.095 z m -3.747,1.077 0,5.011 -1.831,0 0,-5.011 -1.85,0 0,-1.595 5.53,0 0,1.595 -1.849,0 z m -5.435,5.01 -0.359,-1.161 -1.981,0 -0.359,1.161 -1.963,0 2.397,-6.606 1.85,0 2.397,6.606 -1.982,0 z m -0.925,-3.048 c -0.057,-0.213 -0.107,-0.399 -0.151,-0.557 -0.044,-0.157 -0.083,-0.299 -0.118,-0.424 -0.035,-0.126 -0.064,-0.241 -0.09,-0.345 -0.025,-0.104 -0.047,-0.212 -0.066,-0.326 -0.019,0.113 -0.041,0.224 -0.066,0.331 -0.025,0.107 -0.055,0.223 -0.09,0.349 -0.035,0.126 -0.074,0.268 -0.118,0.425 -0.044,0.157 -0.095,0.339 -0.151,0.547 l -0.123,0.435 1.095,0 -0.122,-0.435 z m -6.549,3.048 0,-2.604 -2.057,0 0,2.604 -1.869,0 0,-6.606 1.869,0 0,2.407 2.057,0 0,-2.407 1.869,0 0,6.606 -1.869,0 z m -8.371,-1.769 c -0.151,0.425 -0.377,0.768 -0.68,1.029 -0.302,0.261 -0.674,0.45 -1.118,0.566 -0.443,0.117 -0.958,0.175 -1.543,0.175 l -2.141,0 0,-6.606 2.312,0 c 0.516,0 0.985,0.054 1.406,0.161 0.421,0.107 0.778,0.288 1.071,0.542 0.293,0.255 0.519,0.59 0.68,1.005 0.161,0.416 0.241,0.935 0.241,1.557 0,0.623 -0.077,1.146 -0.228,1.571 z m -1.731,-2.326 c -0.054,-0.22 -0.14,-0.399 -0.26,-0.538 -0.12,-0.139 -0.277,-0.241 -0.472,-0.307 -0.195,-0.066 -0.434,-0.099 -0.717,-0.099 l -0.453,0 0,3.473 0.396,0 c 0.283,0 0.525,-0.03 0.727,-0.09 0.201,-0.06 0.367,-0.157 0.496,-0.292 0.129,-0.135 0.222,-0.314 0.278,-0.538 0.057,-0.223 0.085,-0.499 0.085,-0.826 0,-0.302 -0.027,-0.563 -0.08,-0.783 z m -10.045,4.095 0,-6.606 5.058,0 0,1.539 -3.246,0 0,0.887 1.954,0 0,1.51 -1.954,0 0,1.132 3.312,0 0,1.538 -5.124,0 z m -3.148,0 -1.078,-2.227 -0.738,0 0,2.227 -1.793,0 0,-6.606 2.954,0 c 0.384,0 0.735,0.04 1.052,0.118 0.318,0.079 0.59,0.203 0.816,0.373 0.226,0.17 0.401,0.392 0.524,0.666 0.123,0.273 0.184,0.605 0.184,0.996 0,0.497 -0.107,0.903 -0.322,1.217 -0.215,0.314 -0.505,0.554 -0.871,0.717 l 1.324,2.52 -2.052,0 z m -0.085,-4.916 c -0.124,-0.132 -0.331,-0.198 -0.621,-0.198 l -1.11,0 0,1.444 1.081,0 c 0.304,0 0.519,-0.063 0.645,-0.189 0.126,-0.125 0.19,-0.308 0.19,-0.547 0,-0.208 -0.062,-0.378 -0.185,-0.51 z
"  />

</svg>