<svg width="180" height="60" viewbox="0 0 180 60" class="product">

<path
  d="

m 66.376,42.3607 0,-9.909 5.989,0 0,1.006 -4.885,0 0,3.114 2.831,0 0,1.005 -2.831,0 0,3.779 5.096,0 0,1.005 -6.2,0 z m -3.666,0 0,-6.71 0,-1.062 c -0.03,0.09 -0.06,0.21 -0.106,0.347 -0.04,0.138 -0.09,0.279 -0.148,0.425 -0.06,0.146 -0.113,0.295 -0.169,0.446 -0.06,0.151 -0.113,0.292 -0.169,0.425 l -2.641,6.384 -2.599,-6.384 c -0.057,-0.123 -0.113,-0.262 -0.169,-0.418 -0.057,-0.155 -0.111,-0.307 -0.163,-0.453 -0.052,-0.146 -0.099,-0.287 -0.141,-0.425 -0.042,-0.137 -0.078,-0.252 -0.106,-0.347 l 0,1.062 0,6.71 -1.076,0 0,-9.909 1.233,0 2.34,5.932 c 0.06,0.151 0.12,0.316 0.191,0.495 0.07,0.18 0.139,0.359 0.205,0.538 0.07,0.18 0.128,0.347 0.185,0.503 0.06,0.155 0.1,0.285 0.128,0.389 0.03,-0.104 0.07,-0.235 0.127,-0.396 0.06,-0.16 0.118,-0.33 0.184,-0.509 0.07,-0.18 0.135,-0.359 0.206,-0.538 0.07,-0.18 0.134,-0.34 0.191,-0.481 l 2.368,-5.932 1.205,0 0,9.909 -1.076,0 z m -11.268,0 0,-9.909 1.104,0 0,9.909 -1.104,0 z m -4.982,-8.903 0,8.903 -1.104,0 0,-8.903 -2.916,0 0,-1.006 6.936,0 0,1.006 -2.916,0 z m -10.051,8.903 0,-9.909 1.104,0 0,8.904 4.898,0 0,1.005 -6.002,0 z m -3.213,0 -0.85,-2.52 -4.091,0 -0.863,2.52 -1.133,0 3.44,-9.909 1.217,0 3.44,9.909 -1.16,0 z m -2.279,-6.78 c -0.057,-0.16 -0.116,-0.335 -0.177,-0.523 -0.062,-0.189 -0.121,-0.371 -0.177,-0.545 -0.057,-0.175 -0.106,-0.34 -0.148,-0.496 -0.042,-0.155 -0.078,-0.285 -0.106,-0.389 -0.028,0.104 -0.064,0.23 -0.106,0.382 -0.042,0.152 -0.092,0.316 -0.148,0.495 -0.057,0.18 -0.118,0.366 -0.184,0.56 -0.066,0.193 -0.127,0.375 -0.184,0.545 l -1.09,3.228 3.411,0 -1.091,-3.257 z m -12.414,6.78 0,-9.909 5.988,0 0,1.006 -4.884,0 0,3.114 2.831,0 0,1.005 -2.831,0 0,3.779 5.096,0 0,1.005 -6.2,0 z m -2.831,-5.238 c -0.425,0.472 -0.991,0.783 -1.699,0.934 l 2.18,4.305 -1.274,0 -2.123,-4.219 -2.35,0 0,4.219 -1.104,0 0,-9.909 3.921,0 c 0.434,0 0.84,0.06 1.217,0.17 0.377,0.113 0.703,0.286 0.977,0.518 0.273,0.23 0.49,0.521 0.651,0.87 0.161,0.349 0.241,0.764 0.241,1.245 0,0.772 -0.212,1.395 -0.637,1.867 z m -0.984,-3.207 c -0.345,-0.306 -0.847,-0.458 -1.508,-0.458 l -2.774,0 0,3.68 2.633,0 c 0.736,0 1.281,-0.152 1.635,-0.458 0.354,-0.306 0.531,-0.769 0.531,-1.389 0,-0.612 -0.172,-1.07 -0.517,-1.375 z m 107.792,-6.683 c -0.184,0.513 -0.441,0.941 -0.771,1.285 -0.33,0.343 -0.721,0.6 -1.168,0.769 -0.449,0.17 -0.932,0.254 -1.451,0.254 -0.604,0 -1.154,-0.13 -1.648,-0.389 -0.496,-0.26 -0.918,-0.616 -1.268,-1.069 -0.35,-0.452 -0.617,-0.99 -0.807,-1.613 -0.19,-0.623 -0.283,-1.298 -0.283,-2.024 0,-0.736 0.1,-1.417 0.297,-2.045 0.199,-0.627 0.475,-1.167 0.828,-1.621 0.353,-0.454 0.781,-0.809 1.281,-1.069 0.5,-0.259 1.047,-0.389 1.643,-0.389 1.34,0 2.393,0.529 3.156,1.585 l -0.877,0.666 c -0.322,-0.434 -0.652,-0.75 -0.992,-0.949 -0.34,-0.199 -0.777,-0.297 -1.316,-0.297 -0.424,0 -0.816,0.102 -1.174,0.305 -0.359,0.203 -0.666,0.483 -0.92,0.842 -0.256,0.358 -0.455,0.788 -0.602,1.288 -0.147,0.5 -0.221,1.052 -0.221,1.656 0,0.604 0.08,1.159 0.227,1.663 0.152,0.505 0.357,0.939 0.617,1.303 0.258,0.363 0.568,0.646 0.926,0.85 0.359,0.203 0.746,0.304 1.162,0.304 0.83,0 1.465,-0.25 1.902,-0.75 0.439,-0.5 0.658,-1.236 0.658,-2.208 l 0,-0.09 -1.783,0 0,-1.005 2.859,0 0,0.96 c 0,0.676 -0.09,1.27 -0.275,1.783 z m -9.606,-3.086 c -0.424,0.472 -0.99,0.783 -1.697,0.934 l 2.18,4.305 -1.273,0 -2.125,-4.219 -2.35,0 0,4.219 -1.104,0 0,-9.909 3.922,0 c 0.434,0 0.84,0.06 1.217,0.17 0.377,0.113 0.703,0.286 0.977,0.517 0.274,0.231 0.49,0.521 0.65,0.87 0.16,0.349 0.242,0.764 0.242,1.246 0,0.772 -0.213,1.395 -0.639,1.867 z m -0.982,-3.207 c -0.346,-0.306 -0.848,-0.458 -1.508,-0.458 l -2.775,0 0,3.681 2.633,0 c 0.736,0 1.281,-0.153 1.635,-0.459 0.355,-0.305 0.531,-0.768 0.531,-1.389 0,-0.611 -0.172,-1.069 -0.516,-1.375 z m -9.053,8.445 0,-6.709 0,-1.062 c -0.03,0.09 -0.06,0.21 -0.105,0.347 -0.04,0.137 -0.09,0.278 -0.148,0.424 -0.06,0.146 -0.113,0.295 -0.17,0.446 -0.06,0.151 -0.113,0.292 -0.17,0.424 l -2.641,6.384 -2.6,-6.384 c -0.06,-0.123 -0.113,-0.262 -0.168,-0.417 -0.06,-0.156 -0.111,-0.307 -0.164,-0.453 -0.05,-0.146 -0.1,-0.288 -0.141,-0.424 -0.04,-0.136 -0.08,-0.252 -0.105,-0.347 l 0,1.062 0,6.709 -1.076,0 0,-9.909 1.234,0 2.338,5.931 c 0.06,0.151 0.121,0.316 0.191,0.495 0.07,0.18 0.141,0.359 0.207,0.538 0.06,0.18 0.127,0.347 0.184,0.503 0.06,0.155 0.1,0.285 0.127,0.389 0.03,-0.104 0.07,-0.235 0.129,-0.396 0.06,-0.16 0.117,-0.33 0.184,-0.509 0.07,-0.18 0.135,-0.359 0.205,-0.538 0.07,-0.18 0.135,-0.34 0.191,-0.481 l 2.369,-5.931 1.205,0 0,9.909 -1.076,0 z m -19.476,0 0,-9.909 5.986,0 0,1.005 -4.883,0 0,3.114 2.83,0 0,1.005 -2.83,0 0,3.779 5.096,0 0,1.005 -6.199,0 z m -2.514,-1.514 c -0.146,0.34 -0.361,0.633 -0.645,0.878 -0.284,0.245 -0.627,0.438 -1.033,0.58 -0.406,0.142 -0.867,0.212 -1.387,0.212 -0.68,0 -1.305,-0.13 -1.875,-0.389 -0.572,-0.26 -1.055,-0.588 -1.451,-0.984 l 0.736,-0.82 c 0.377,0.358 0.783,0.646 1.217,0.863 0.434,0.217 0.906,0.325 1.416,0.325 0.66,0 1.182,-0.15 1.564,-0.453 0.381,-0.302 0.572,-0.717 0.572,-1.245 0,-0.227 -0.04,-0.434 -0.113,-0.623 -0.08,-0.188 -0.205,-0.363 -0.389,-0.523 -0.184,-0.16 -0.428,-0.318 -0.729,-0.475 -0.303,-0.155 -0.68,-0.313 -1.133,-0.474 -0.539,-0.189 -0.988,-0.38 -1.352,-0.574 -0.363,-0.193 -0.656,-0.4 -0.879,-0.622 -0.221,-0.222 -0.381,-0.47 -0.48,-0.743 -0.1,-0.274 -0.148,-0.59 -0.148,-0.949 0,-0.396 0.07,-0.75 0.227,-1.062 0.15,-0.312 0.361,-0.578 0.629,-0.8 0.27,-0.222 0.596,-0.389 0.977,-0.502 0.383,-0.113 0.805,-0.17 1.268,-0.17 0.66,0 1.225,0.09 1.691,0.283 0.467,0.189 0.908,0.448 1.324,0.778 l -0.709,0.864 c -0.357,-0.302 -0.719,-0.531 -1.082,-0.687 -0.363,-0.156 -0.795,-0.234 -1.295,-0.234 -0.34,0 -0.633,0.04 -0.879,0.121 -0.244,0.08 -0.445,0.187 -0.602,0.318 -0.154,0.132 -0.268,0.286 -0.34,0.46 -0.07,0.175 -0.105,0.361 -0.105,0.559 0,0.208 0.03,0.395 0.09,0.559 0.06,0.166 0.17,0.326 0.34,0.481 0.17,0.155 0.406,0.309 0.715,0.46 0.305,0.151 0.709,0.316 1.209,0.496 0.547,0.198 1.006,0.396 1.373,0.595 0.369,0.198 0.664,0.415 0.885,0.651 0.223,0.235 0.381,0.495 0.475,0.778 0.09,0.283 0.141,0.608 0.141,0.977 0,0.388 -0.07,0.751 -0.219,1.091 z m -9.646,1.514 0,-9.909 1.105,0 0,9.909 -1.105,0 z m -2.902,-5.238 c -0.425,0.472 -0.991,0.783 -1.699,0.934 l 2.18,4.305 -1.274,0 -2.123,-4.219 -2.35,0 0,4.219 -1.104,0 0,-9.909 3.921,0 c 0.434,0 0.84,0.06 1.218,0.17 0.377,0.113 0.703,0.286 0.977,0.517 0.274,0.231 0.49,0.521 0.65,0.87 0.161,0.349 0.241,0.764 0.241,1.246 0,0.772 -0.212,1.395 -0.637,1.867 z m -0.983,-3.207 c -0.346,-0.306 -0.848,-0.458 -1.508,-0.458 l -2.774,0 0,3.681 2.633,0 c 0.736,0 1.281,-0.153 1.635,-0.459 0.354,-0.305 0.53,-0.768 0.53,-1.389 0,-0.611 -0.172,-1.069 -0.516,-1.375 z m -7.517,2.804 c -0.165,0.382 -0.394,0.704 -0.687,0.962 -0.292,0.26 -0.646,0.456 -1.062,0.588 -0.416,0.132 -0.869,0.198 -1.359,0.198 l -2.406,0 0,3.893 -1.104,0 0,-9.909 3.708,0 c 0.453,0 0.871,0.06 1.253,0.177 0.382,0.118 0.715,0.3 0.998,0.545 0.283,0.246 0.505,0.555 0.665,0.927 0.161,0.373 0.241,0.81 0.241,1.31 0,0.491 -0.08,0.927 -0.247,1.309 z m -1.395,-2.746 c -0.358,-0.344 -0.877,-0.517 -1.557,-0.517 l -2.562,0 0,4.006 2.421,0 c 1.491,0 2.236,-0.67 2.236,-2.01 0,-0.641 -0.179,-1.134 -0.538,-1.479 z m -8.054,3.149 c -0.425,0.472 -0.991,0.783 -1.699,0.934 l 2.18,4.305 -1.274,0 -2.123,-4.219 -2.35,0 0,4.219 -1.104,0 0,-9.909 3.921,0 c 0.434,0 0.84,0.06 1.217,0.17 0.377,0.113 0.703,0.286 0.977,0.517 0.273,0.231 0.49,0.521 0.651,0.87 0.161,0.349 0.241,0.764 0.241,1.246 0,0.772 -0.213,1.395 -0.637,1.867 z m -0.984,-3.207 c -0.345,-0.306 -0.847,-0.458 -1.508,-0.458 l -2.774,0 0,3.681 2.633,0 c 0.736,0 1.281,-0.153 1.635,-0.459 0.354,-0.305 0.531,-0.768 0.531,-1.389 0,-0.611 -0.173,-1.069 -0.517,-1.375 z m -13.695,8.445 0,-9.909 5.988,0 0,1.005 -4.884,0 0,3.114 2.831,0 0,1.005 -2.831,0 0,3.779 5.096,0 0,1.005 -6.2,0 z m -4.911,-8.903 0,8.904 -1.105,0 0,-8.904 -2.916,0 0,-1.005 6.936,0 0,1.005 -2.915,0 z m -7.05,8.903 -4.319,-6.78 c -0.057,-0.08 -0.118,-0.187 -0.184,-0.305 -0.066,-0.118 -0.132,-0.235 -0.198,-0.354 -0.066,-0.119 -0.129,-0.229 -0.19,-0.333 -0.062,-0.104 -0.106,-0.188 -0.134,-0.254 l 0,0.679 0,7.347 -1.076,0 0,-9.909 1.076,0 4.289,6.908 c 0.057,0.08 0.118,0.187 0.184,0.305 0.066,0.118 0.132,0.235 0.198,0.354 0.066,0.119 0.129,0.229 0.191,0.333 0.062,0.104 0.106,0.188 0.135,0.255 l 0,-0.68 0,-7.474 1.076,0 0,9.909 -1.048,0 z m -14.41,0 0,-9.909 5.988,0 0,1.005 -4.884,0 0,3.114 2.831,0 0,1.005 -2.831,0 0,3.779 5.096,0 0,1.005 -6.2,0 z m 43.835,-18.457 c -0.042,0.099 -0.099,0.186 -0.172,0.259 -0.073,0.073 -0.16,0.13 -0.259,0.172 -0.1,0.041 -0.208,0.062 -0.324,0.062 -0.116,0 -0.224,-0.021 -0.323,-0.062 -0.099,-0.042 -0.186,-0.099 -0.259,-0.172 -0.073,-0.073 -0.13,-0.16 -0.172,-0.259 -0.042,-0.1 -0.062,-0.208 -0.062,-0.324 0,-0.116 0.021,-0.224 0.062,-0.323 0.042,-0.099 0.099,-0.186 0.172,-0.259 0.073,-0.073 0.16,-0.13 0.259,-0.172 0.1,-0.042 0.208,-0.062 0.323,-0.062 0.116,0 0.224,0.021 0.324,0.062 0.099,0.042 0.186,0.099 0.259,0.172 0.073,0.073 0.13,0.16 0.172,0.259 0.042,0.1 0.062,0.208 0.062,0.323 0,0.117 -0.021,0.225 -0.062,0.324 z m -0.121,-0.593 c -0.035,-0.083 -0.083,-0.156 -0.145,-0.218 -0.062,-0.062 -0.135,-0.11 -0.218,-0.145 -0.084,-0.035 -0.174,-0.052 -0.271,-0.052 -0.098,0 -0.188,0.018 -0.271,0.052 -0.083,0.034 -0.155,0.083 -0.217,0.145 -0.062,0.062 -0.11,0.135 -0.145,0.218 -0.035,0.083 -0.052,0.174 -0.052,0.27 0,0.098 0.018,0.188 0.052,0.271 0.034,0.083 0.083,0.155 0.145,0.217 0.062,0.062 0.134,0.11 0.217,0.145 0.083,0.035 0.173,0.052 0.271,0.052 0.097,0 0.187,-0.017 0.271,-0.052 0.083,-0.035 0.156,-0.083 0.218,-0.145 0.062,-0.062 0.11,-0.134 0.145,-0.217 0.035,-0.083 0.052,-0.173 0.052,-0.271 0,-0.097 -0.018,-0.187 -0.052,-0.27 z m -0.315,0.25 c -0.034,0.043 -0.081,0.074 -0.138,0.09 l 0.183,0.359 -0.178,0 -0.173,-0.344 -0.171,0 0,0.344 -0.151,0 0,-0.89 0.39,0 c 0.04,0 0.077,0.01 0.112,0.016 0.035,0.011 0.066,0.027 0.092,0.049 0.026,0.022 0.047,0.05 0.063,0.083 0.016,0.034 0.024,0.074 0.024,0.121 -10e-4,0.071 -0.018,0.128 -0.053,0.172 z m -0.14,-0.263 c -0.027,-0.021 -0.061,-0.032 -0.102,-0.032 l -0.235,0 0,0.253 0.235,0 c 0.041,0 0.075,-0.01 0.102,-0.03 0.027,-0.021 0.041,-0.052 0.041,-0.096 0,-0.042 -0.014,-0.074 -0.041,-0.095 z m -3.75,1.08 0,5.007 -1.83,0 0,-5.007 -1.848,0 0,-1.594 5.526,0 0,1.594 -1.848,0 z m -5.437,5.007 -0.358,-1.16 -1.98,0 -0.358,1.16 -1.961,0 2.395,-6.601 1.849,0 2.395,6.601 -1.982,0 z m -0.924,-3.046 c -0.236,-0.849 -0.339,-1.207 -0.424,-1.65 -0.085,0.443 -0.189,0.811 -0.424,1.65 l -0.123,0.434 1.094,0 -0.123,-0.434 z m -6.55,3.046 0,-2.603 -2.056,0 0,2.603 -1.867,0 0,-6.601 1.867,0 0,2.405 2.056,0 0,-2.405 1.867,0 0,6.601 -1.867,0 z m -11.709,0 -2.141,0 0,-6.601 2.311,0 c 2.075,0 3.395,0.783 3.395,3.263 0,2.48 -1.226,3.338 -3.565,3.338 z m 0.16,-5.035 -0.453,0 0,3.47 0.396,0 c 1.141,0 1.584,-0.434 1.584,-1.745 0,-1.216 -0.386,-1.725 -1.527,-1.725 z m -8.595,5.035 0,-6.601 5.055,0 0,1.537 -3.244,0 0,0.877 1.952,0 0,1.519 -1.952,0 0,1.131 3.31,0 0,1.537 -5.121,0 z m -3.145,0 -1.075,-2.226 -0.735,0 0,2.226 -1.801,0 0,-6.601 2.952,0 c 1.546,0 2.574,0.585 2.574,2.15 0,0.99 -0.462,1.603 -1.188,1.933 l 1.32,2.518 -2.047,0 z m -0.707,-5.111 -1.103,0 0,1.442 1.075,0 c 0.594,0 0.83,-0.264 0.83,-0.735 -10e-4,-0.415 -0.227,-0.707 -0.802,-0.707 z

"  />

</svg>