<svg width="180" height="60" viewbox="0 0 180 60" class="product">

<path
  d="


  m 72.717,29.3827 -2.93,-5.279 -1.883,2.435 0,2.845 -1.104,0 0,-9.909 1.104,0 0,4.318 0,1.33 c 0.07,-0.09 0.158,-0.224 0.277,-0.39 0.117,-0.165 0.247,-0.342 0.389,-0.53 0.142,-0.188 0.281,-0.373 0.418,-0.553 0.137,-0.179 0.256,-0.334 0.36,-0.467 l 2.874,-3.709 1.203,0 -2.902,3.723 3.455,6.187 -1.261,0 z m -8.746,-5.239 c -0.426,0.472 -0.992,0.783 -1.699,0.934 l 2.18,4.305 -1.273,0 -2.123,-4.219 -2.351,0 0,4.219 -1.104,0 0,-9.909 3.922,0 c 0.434,0 0.84,0.06 1.217,0.17 0.377,0.113 0.703,0.286 0.977,0.518 0.273,0.23 0.49,0.521 0.651,0.869 0.161,0.35 0.241,0.765 0.241,1.246 0,0.773 -0.214,1.396 -0.638,1.867 z m -0.985,-3.207 c -0.345,-0.306 -0.848,-0.458 -1.508,-0.458 l -2.774,0 0,3.681 2.633,0 c 0.736,0 1.281,-0.153 1.636,-0.459 0.354,-0.306 0.53,-0.769 0.53,-1.39 0,-0.61 -0.173,-1.068 -0.517,-1.374 z m -7.863,5.536 c -0.198,0.628 -0.479,1.168 -0.842,1.621 -0.363,0.453 -0.801,0.807 -1.311,1.062 -0.509,0.255 -1.07,0.382 -1.684,0.382 -0.614,0 -1.173,-0.125 -1.678,-0.375 -0.505,-0.25 -0.937,-0.602 -1.295,-1.055 -0.359,-0.452 -0.635,-0.99 -0.828,-1.613 -0.193,-0.623 -0.291,-1.307 -0.291,-2.053 0,-0.745 0.1,-1.432 0.298,-2.06 0.198,-0.628 0.477,-1.167 0.835,-1.62 0.359,-0.453 0.793,-0.807 1.303,-1.062 0.51,-0.254 1.07,-0.382 1.684,-0.382 0.614,0 1.174,0.125 1.678,0.375 0.505,0.251 0.938,0.602 1.295,1.055 0.359,0.453 0.638,0.991 0.836,1.614 0.198,0.623 0.297,1.307 0.297,2.052 0,0.746 -0.1,1.433 -0.297,2.059 z m -1.041,-3.722 c -0.155,-0.504 -0.37,-0.939 -0.644,-1.303 -0.274,-0.363 -0.595,-0.641 -0.962,-0.834 -0.369,-0.193 -0.77,-0.291 -1.203,-0.291 -0.426,0 -0.819,0.1 -1.183,0.291 -0.364,0.193 -0.677,0.467 -0.941,0.82 -0.264,0.353 -0.472,0.783 -0.623,1.288 -0.151,0.505 -0.226,1.069 -0.226,1.691 0,0.623 0.08,1.188 0.232,1.691 0.156,0.505 0.369,0.939 0.637,1.303 0.27,0.363 0.588,0.642 0.956,0.835 0.368,0.193 0.769,0.29 1.203,0.29 0.425,0 0.821,-0.1 1.189,-0.29 0.368,-0.193 0.685,-0.467 0.948,-0.821 0.264,-0.354 0.472,-0.783 0.623,-1.288 0.15,-0.504 0.227,-1.068 0.227,-1.691 0,-0.623 -0.08,-1.186 -0.233,-1.691 z m -10.383,6.632 -1.245,0 -1.557,-6.342 c -0.04,-0.16 -0.08,-0.339 -0.127,-0.538 -0.05,-0.197 -0.09,-0.396 -0.134,-0.594 -0.04,-0.199 -0.08,-0.395 -0.12,-0.588 -0.04,-0.193 -0.07,-0.365 -0.1,-0.517 -0.03,0.151 -0.06,0.321 -0.1,0.51 -0.04,0.188 -0.08,0.382 -0.121,0.58 -0.04,0.198 -0.09,0.396 -0.134,0.595 -0.05,0.198 -0.09,0.383 -0.127,0.552 l -1.557,6.342 -1.217,0 -1.982,-9.909 1.104,0 1.161,6.37 c 0.03,0.161 0.06,0.345 0.09,0.553 0.03,0.207 0.07,0.412 0.1,0.615 0.03,0.203 0.07,0.396 0.1,0.58 0.03,0.185 0.06,0.338 0.08,0.46 0.02,-0.122 0.05,-0.273 0.09,-0.452 0.04,-0.18 0.08,-0.371 0.12,-0.573 0.04,-0.203 0.09,-0.406 0.134,-0.609 0.05,-0.202 0.09,-0.384 0.127,-0.545 l 1.571,-6.398 1.189,0 1.571,6.398 c 0.04,0.161 0.08,0.343 0.128,0.545 0.05,0.203 0.09,0.406 0.135,0.609 0.04,0.202 0.08,0.394 0.12,0.573 0.04,0.179 0.07,0.33 0.08,0.452 0.02,-0.122 0.04,-0.275 0.08,-0.46 0.03,-0.184 0.07,-0.377 0.1,-0.58 0.03,-0.203 0.07,-0.408 0.1,-0.615 0.03,-0.208 0.06,-0.392 0.09,-0.553 l 1.16,-6.37 1.076,0 -1.984,9.909 z m -12.937,-8.904 0,8.903 -1.104,0 0,-8.903 -2.916,0 0,-1.006 6.936,0 0,1.006 -2.916,0 z m -11.72,8.904 0,-9.909 5.988,0 0,1.006 -4.884,0 0,3.113 2.831,0 0,1.006 -2.831,0 0,3.779 5.096,0 0,1.005 -6.2,0 z m -3.638,0 -4.319,-6.78 c -0.057,-0.08 -0.118,-0.187 -0.184,-0.305 -0.066,-0.117 -0.132,-0.235 -0.198,-0.354 -0.066,-0.119 -0.129,-0.229 -0.19,-0.333 -0.062,-0.104 -0.106,-0.188 -0.134,-0.255 l 0,0.68 0,7.347 -1.076,0 0,-9.909 1.076,0 4.289,6.908 c 0.057,0.09 0.118,0.187 0.184,0.305 0.066,0.118 0.132,0.235 0.198,0.354 0.066,0.119 0.129,0.229 0.191,0.333 0.062,0.104 0.106,0.188 0.135,0.255 l 0,-0.68 0,-7.475 1.076,0 0,9.909 -1.048,0 z m 37.733,-18.457 c -0.04,0.1 -0.1,0.186 -0.172,0.259 -0.07,0.07 -0.16,0.13 -0.259,0.172 -0.1,0.04 -0.208,0.06 -0.323,0.06 -0.116,0 -0.225,-0.02 -0.324,-0.06 -0.1,-0.04 -0.186,-0.1 -0.258,-0.172 -0.07,-0.07 -0.131,-0.16 -0.172,-0.259 -0.04,-0.1 -0.06,-0.208 -0.06,-0.324 0,-0.116 0.02,-0.224 0.06,-0.323 0.04,-0.1 0.1,-0.186 0.172,-0.259 0.07,-0.07 0.159,-0.13 0.258,-0.172 0.1,-0.04 0.208,-0.06 0.324,-0.06 0.115,0 0.224,0.02 0.323,0.06 0.1,0.04 0.186,0.1 0.259,0.172 0.07,0.07 0.131,0.16 0.172,0.259 0.04,0.1 0.06,0.208 0.06,0.323 0,0.116 -0.02,0.224 -0.06,0.324 z m -0.121,-0.594 c -0.03,-0.08 -0.08,-0.156 -0.145,-0.218 -0.06,-0.06 -0.135,-0.11 -0.219,-0.145 -0.08,-0.03 -0.174,-0.05 -0.27,-0.05 -0.1,0 -0.188,0.02 -0.271,0.05 -0.08,0.03 -0.155,0.08 -0.217,0.145 -0.06,0.06 -0.11,0.135 -0.145,0.218 -0.03,0.08 -0.05,0.174 -0.05,0.27 0,0.1 0.02,0.188 0.05,0.271 0.03,0.08 0.08,0.155 0.145,0.217 0.06,0.06 0.134,0.11 0.217,0.145 0.08,0.03 0.174,0.05 0.271,0.05 0.1,0 0.186,-0.02 0.27,-0.05 0.08,-0.04 0.156,-0.08 0.219,-0.145 0.06,-0.06 0.109,-0.134 0.145,-0.217 0.04,-0.08 0.05,-0.173 0.05,-0.271 0,-0.1 -0.02,-0.187 -0.05,-0.27 z m -0.315,0.25 c -0.03,0.04 -0.08,0.07 -0.138,0.09 l 0.183,0.359 -0.178,0 -0.173,-0.344 -0.171,0 0,0.344 -0.152,0 0,-0.891 0.391,0 c 0.04,0 0.08,0 0.111,0.02 0.03,0.01 0.07,0.03 0.09,0.05 0.03,0.02 0.05,0.05 0.06,0.08 0.02,0.03 0.02,0.07 0.02,0.121 0,0.07 -0.02,0.129 -0.05,0.173 z m -0.14,-0.262 c -0.03,-0.02 -0.06,-0.03 -0.102,-0.03 l -0.234,0 0,0.253 0.234,0 c 0.04,0 0.08,-0.01 0.102,-0.03 0.03,-0.02 0.04,-0.05 0.04,-0.1 0,-0.04 -0.01,-0.07 -0.04,-0.09 z m -3.747,1.076 0,5.011 -1.831,0 0,-5.011 -1.85,0 0,-1.595 5.53,0 0,1.595 -1.849,0 z m -5.435,5.011 -0.359,-1.161 -1.981,0 -0.359,1.161 -1.963,0 2.397,-6.606 1.85,0 2.396,6.606 -1.981,0 z m -0.926,-3.049 c -0.06,-0.213 -0.106,-0.399 -0.15,-0.557 -0.04,-0.157 -0.08,-0.299 -0.118,-0.424 -0.03,-0.126 -0.06,-0.241 -0.09,-0.345 -0.03,-0.104 -0.05,-0.212 -0.07,-0.326 -0.02,0.113 -0.04,0.224 -0.07,0.331 -0.03,0.107 -0.06,0.223 -0.09,0.349 -0.03,0.126 -0.07,0.268 -0.118,0.425 -0.04,0.157 -0.09,0.339 -0.151,0.547 l -0.123,0.435 1.095,0 -0.123,-0.435 z m -6.549,3.049 0,-2.604 -2.057,0 0,2.604 -1.869,0 0,-6.606 1.869,0 0,2.407 2.057,0 0,-2.407 1.869,0 0,6.606 -1.869,0 z m -8.37,-1.77 c -0.151,0.425 -0.377,0.768 -0.68,1.029 -0.302,0.261 -0.674,0.45 -1.118,0.566 -0.443,0.117 -0.958,0.175 -1.543,0.175 l -2.142,0 0,-6.606 2.312,0 c 0.516,0 0.985,0.05 1.406,0.161 0.421,0.107 0.778,0.288 1.071,0.542 0.293,0.255 0.519,0.59 0.68,1.005 0.161,0.416 0.241,0.935 0.241,1.557 0,0.623 -0.076,1.147 -0.227,1.571 z m -1.731,-2.326 c -0.054,-0.22 -0.14,-0.399 -0.26,-0.538 -0.12,-0.139 -0.277,-0.241 -0.472,-0.307 -0.195,-0.07 -0.434,-0.1 -0.717,-0.1 l -0.453,0 0,3.473 0.396,0 c 0.283,0 0.525,-0.03 0.727,-0.09 0.201,-0.06 0.367,-0.157 0.496,-0.292 0.129,-0.135 0.222,-0.314 0.278,-0.538 0.057,-0.223 0.085,-0.499 0.085,-0.826 0,-0.302 -0.027,-0.563 -0.08,-0.783 z m -10.046,4.096 0,-6.606 5.058,0 0,1.539 -3.246,0 0,0.887 1.954,0 0,1.51 -1.954,0 0,1.132 3.312,0 0,1.538 -5.124,0 z m -3.147,0 -1.078,-2.227 -0.739,0 0,2.227 -1.793,0 0,-6.606 2.954,0 c 0.384,0 0.735,0.04 1.052,0.118 0.318,0.08 0.59,0.203 0.816,0.373 0.226,0.17 0.401,0.392 0.524,0.666 0.123,0.273 0.184,0.605 0.184,0.996 0,0.497 -0.107,0.903 -0.322,1.217 -0.215,0.314 -0.505,0.554 -0.871,0.717 l 1.324,2.52 -2.051,0 z m -0.086,-4.917 c -0.124,-0.132 -0.331,-0.198 -0.621,-0.198 l -1.11,0 0,1.444 1.081,0 c 0.304,0 0.519,-0.06 0.645,-0.189 0.126,-0.125 0.19,-0.308 0.19,-0.547 0,-0.208 -0.062,-0.378 -0.185,-0.51 z


"  />

</svg>