<svg class='rh-color-theme-group-3b' height='1000' version='1.1' viewBox='0 0 500 500' width='1000' xmlns='http://www.w3.org/2000/svg'>
  <defs>
    <pattern height='62' id='Pattern' patternUnits='userSpaceOnUse' width='62' x='0' y='0'>
      <svg version="1.1" id="Layer_1" xmlns="http://www.w3.org/2000/svg" xmlns:xlink="http://www.w3.org/1999/xlink" x="0px" y="0px"
      	 width="62px" height="62px" viewBox="0.867 0.867 62 62" enable-background="new 0.867 0.867 62 62" xml:space="preserve">
      <path d="M0.867,0.867v0.998h0.499h7.125v6.728c-4.235,0.274-7.624,3.721-7.624,8.025c0,4.304,3.389,7.751,7.624,8.024v6.73H1.366
      	H0.867v0.998h0.499h7.125v6.726c-4.235,0.272-7.624,3.72-7.624,8.024c0,4.304,3.389,7.751,7.624,8.024v7.224v0.499H9.49v-0.499
      	v-7.224c4.064-0.26,7.268-3.463,7.528-7.525h6.726v6.73c-4.238,0.271-7.625,3.716-7.625,8.019v0.499h0.998v-0.499
      	c0-3.941,3.182-7.123,7.126-7.123c3.943,0,7.125,3.181,7.125,7.123v0.499h0.998v-0.499c0-4.304-3.387-7.747-7.625-8.019v-6.73h6.728
      	c0.261,4.062,3.464,7.266,7.529,7.525v7.224v0.499h0.997v-0.499v-7.224c4.062-0.262,7.262-3.465,7.523-7.525h6.73v6.73
      	c-4.238,0.27-7.628,3.715-7.628,8.019v0.499h0.999v-0.499c0-3.941,3.183-7.123,7.125-7.123c3.941,0,7.123,3.181,7.123,7.123v0.499
      	h0.998v-0.499c0-4.303-3.385-7.746-7.62-8.019v-6.73h7.123h0.499V46.62h-0.499h-7.123v-6.729c4.234-0.273,7.622-3.717,7.622-8.02
      	s-3.388-7.748-7.622-8.022v-6.733h7.123h0.499v-0.998h-0.499h-7.123V9.391c4.236-0.273,7.622-3.721,7.622-8.025V0.867H61.87v0.499
      	c0,3.942-3.182,7.128-7.123,7.128c-3.942,0-7.128-3.186-7.128-7.128V0.867H47.12h-0.5h-6.626h-0.997h-6.632h-0.499h-0.5v0.499
      	c0,3.942-3.183,7.128-7.125,7.128c-3.944,0-7.126-3.186-7.126-7.128V0.867h-0.499h-0.499H9.49H8.491H1.366H0.867z M9.49,1.865h6.73
      	c0.261,4.062,3.459,7.265,7.523,7.526v6.728h-6.726c-0.26-4.064-3.464-7.266-7.528-7.526V1.865z M32.263,1.865h6.734v6.728
      	c-4.064,0.26-7.268,3.462-7.529,7.526H24.74V9.391C28.804,9.13,32.003,5.927,32.263,1.865z M39.994,1.865h6.728
      	c0.262,4.062,3.463,7.265,7.526,7.526v6.728h-6.73c-0.262-4.062-3.462-7.264-7.523-7.526V1.865z M8.98,9.492h0.026
      	c3.931,0.007,7.105,3.181,7.112,7.111v0.027c-0.007,3.931-3.181,7.105-7.112,7.112H8.98c-3.936-0.008-7.115-3.188-7.115-7.125
      	C1.865,12.679,5.045,9.499,8.98,9.492L8.98,9.492z M39.48,9.492h0.026c3.936,0.007,7.114,3.187,7.114,7.125
      	c0,3.938-3.179,7.118-7.114,7.125H39.48c-3.936-0.008-7.115-3.188-7.115-7.125C32.365,12.679,35.544,9.499,39.48,9.492z
      	 M17.017,17.116h6.726v6.733c-4.061,0.261-7.26,3.462-7.521,7.523H9.49v-6.73C13.553,24.383,16.757,21.18,17.017,17.116z
      	 M24.74,17.116h6.728c0.261,4.064,3.464,7.267,7.529,7.526v6.73h-6.734c-0.26-4.061-3.461-7.263-7.523-7.523V17.116z M47.518,17.116
      	h6.73v6.733c-4.063,0.259-7.265,3.461-7.526,7.523h-6.728v-6.73C44.056,24.38,47.256,21.178,47.518,17.116z M24.242,24.746
      	c3.94,0,7.125,3.185,7.125,7.125s-3.185,7.123-7.125,7.123s-7.123-3.183-7.123-7.123S20.302,24.746,24.242,24.746z M54.744,24.746
      	c3.941,0,7.126,3.185,7.126,7.125s-3.185,7.123-7.126,7.123c-3.94,0-7.125-3.183-7.125-7.123S50.804,24.746,54.744,24.746z
      	 M9.49,32.37h6.732c0.261,4.061,3.46,7.26,7.521,7.521v6.729h-6.726c-0.26-4.062-3.464-7.265-7.528-7.524V32.37z M32.263,32.37
      	h6.734v6.726c-4.064,0.26-7.268,3.462-7.529,7.524H24.74v-6.729C28.802,39.63,32.002,36.431,32.263,32.37z M39.994,32.37h6.728
      	c0.262,4.062,3.463,7.261,7.526,7.521v6.729h-6.73c-0.262-4.061-3.462-7.263-7.523-7.524V32.37z M8.993,39.991
      	c3.938,0,7.118,3.18,7.125,7.115v0.026c-0.007,3.936-3.188,7.115-7.125,7.115c-3.942,0-7.128-3.187-7.128-7.128
      	C1.865,43.178,5.051,39.991,8.993,39.991L8.993,39.991z M39.493,39.991c3.942,0,7.127,3.187,7.127,7.129
      	c0,3.941-3.185,7.128-7.127,7.128s-7.128-3.187-7.128-7.128C32.365,43.178,35.551,39.991,39.493,39.991z"/>
      </svg>
    </pattern>
  </defs>
  <style>
    .rh-color-theme-corporate { color: #b90c20; fill: #b90c20; }
    
    .rh-color-theme-corporate-light { color: #f42d31; fill: #f42d31; }
    
    .rh-color-theme-group-1 { color: #f27428; fill: #f27428; }
    
    .rh-color-theme-group-1-light { color: #ffb642; fill: #ffb642; }
    
    .rh-color-theme-group-2a { color: #00a2dc; fill: #00a2dc; }
    
    .rh-color-theme-group-2a-light { color: #82d2e5; fill: #82d2e5; }
    
    .rh-color-theme-group-2b { color: #00a2dc; fill: #00a2dc; }
    
    .rh-color-theme-group-2b-light { color: #82d2e5; fill: #82d2e5; }
    
    .rh-color-theme-group-3a { color: #00a2dc; fill: #00a2dc; }
    
    .rh-color-theme-group-3a-light { color: #82d2e5; fill: #82d2e5; }
    
    .rh-color-theme-group-3b { color: #00a2dc; fill: #00a2dc; }
    
    .rh-color-theme-group-3b-light { color: #82d2e5; fill: #82d2e5; }
    
    .rh-color-theme-group-3c { color: #00a2dc; fill: #00a2dc; }
    
    .rh-color-theme-group-3c-light { color: #82d2e5; fill: #82d2e5; }
    
    .rh-color-theme-services { color: #5b6770; fill: #5b6770; }
    
    .rh-color-theme-services-light { color: #5b6770; fill: #5b6770; }
    
    .rh-theme-corporate-campaign-skyscrapers-web { background-image: url(../images/category-pngs/corporate-campaign-skyscrapers-web.png); background-size: cover; }
    
    .rh-theme-corporate-campaign-skyscrapers-grey-web { background-image: url(../images/category-pngs/corporate-campaign-skyscrapers-grey-web.png); background-size: cover; }
    
    .rh-theme-corporate-campaign-cave-web { background-image: url(../images/category-pngs/corporate-campaign-cave-web.png); background-size: cover; }
    
    .rh-theme-corporate-campaign-cave-grey-web { background-image: url(../images/category-pngs/corporate-campaign-cave-grey-web.png); background-size: cover; }
    
    .rh-theme-corporate-campaign-clouds-web { background-image: url(../images/category-pngs/corporate-campaign-clouds-web.png); background-size: cover; }
    
    .rh-theme-corporate-campaign-clouds-grey-web { background-image: url(../images/category-pngs/corporate-campaign-clouds-grey-web.png); background-size: cover; }
    
    .rh-theme-corporate-campaign-road-grey-web { background-image: url(../images/category-pngs/corporate-campaign-road-grey-web.png); background-size: cover; }
    
    .rh-theme-corporate-brand-skyscrapers-web { background-image: url(../images/category-pngs/corporate-brand-skyscrapers-web.png); background-size: cover; }
    
    .rh-theme-corporate-brand-skyscrapers-grey-web { background-image: url(../images/category-pngs/corporate-brand-skyscrapers-grey-web.png); background-size: cover; }
    
    .rh-theme-corporate-brand-cave-web { background-image: url(../images/category-pngs/corporate-brand-cave-web.png); background-size: cover; }
    
    .rh-theme-corporate-brand-cave-grey-web { background-image: url(../images/category-pngs/corporate-brand-cave-grey-web.png); background-size: cover; }
    
    .rh-theme-corporate-brand-clouds-web { background-image: url(../images/category-pngs/corporate-brand-clouds-web.png); background-size: cover; }
    
    .rh-theme-corporate-brand-clouds-grey-web { background-image: url(../images/category-pngs/corporate-brand-clouds-grey-web.png); background-size: cover; }
    
    .rh-theme-corporate-brand-road-grey-web { background-image: url(../images/category-pngs/corporate-brand-road-grey-web.png); background-size: cover; }
  </style>
  <g style='overflow: hidden' transform='translate(250, 250) rotate(-45 0 0)'>
    <rect fill='url(#Pattern)' height='61' stroke='none' transform='translate(-500, 0)' width='1000' x='0' y='0'></rect>
  </g>
</svg>
