<svg class='rh-color-theme-group-1' height='1000' version='1.1' viewBox='0 0 500 500' width='1000' xmlns='http://www.w3.org/2000/svg'>
  <defs>
    <pattern height='62' id='Pattern' patternUnits='userSpaceOnUse' width='62' x='0' y='0'>
      <svg version="1.1" id="Layer_1" xmlns="http://www.w3.org/2000/svg" xmlns:xlink="http://www.w3.org/1999/xlink" x="0px" y="0px"
      	 width="62px" height="62px" viewBox="1.34 0 62 62" enable-background="new 1.34 0 62 62" xml:space="preserve">
      <path d="M11.13,0l-0.324,0.296L1.308,9.792v1.321l0.05,0.049l9.447-9.447v8.887l-9.497,9.494v1.324l0.05,0.05l10.156-10.159h8.887
      	L1.308,30.405v1.324l0.05,0.05l9.447-9.447v8.884l-9.497,9.493v1.324l0.05,0.05L11.52,31.922h8.884L1.308,51.02v1.32l0.05,0.05
      	l9.447-9.447v8.888l-9.497,9.491V62h0.746l9.459-9.46h8.885l-9.444,9.444L10.97,62h1.39L31.42,42.938v8.89L21.26,61.984L21.275,62
      	h1.391l9.461-9.46h8.883l-9.444,9.444L31.583,62h1.389L52.03,42.941v8.887L41.872,61.984L41.886,62h1.393l9.46-9.46h8.887
      	l-9.449,9.444L52.192,62h1.392l9.46-9.46l0.296-0.277V41.225h-9.594l9.303-9.303l0.291-0.283V20.612h-9.597l9.301-9.3l0.296-0.288V0
      	H52.317L52.03,0.293l-9.304,9.303V0H31.734L31.42,0.293l-9.303,9.303V0H11.13L11.13,0z M11.81,1.005h9.303v9.303H11.81V1.005z
      	 M32.425,1.005h9.298v9.303h-9.298V1.005z M53.035,1.005h9.3v9.303h-9.3V1.005z M31.42,1.714v8.887L21.406,20.612h-8.882
      	L31.42,1.714z M52.03,1.716v8.884L42.018,20.612h-8.884L52.03,1.716z M32.129,11.312h8.881L22.117,30.208v-8.884L32.129,11.312z
      	 M52.742,11.312h8.884L42.726,30.211v-8.885L52.742,11.312z M11.81,21.617h9.303v9.3H11.81V21.617z M32.425,21.617h9.298v9.3h-9.298
      	V21.617z M53.035,21.617h9.3v9.3h-9.3V21.617z M31.42,22.326v8.887L21.406,41.225h-8.882L31.42,22.326z M52.03,22.326v8.887
      	L42.018,41.225h-8.884L52.03,22.326z M32.132,31.922h8.884L22.117,50.821v-8.884L32.132,31.922z M52.744,31.922h8.885L42.726,50.824
      	v-8.885L52.744,31.922z M11.81,42.23h9.303v9.306H11.81V42.23z M32.425,42.23h9.298v9.306h-9.298V42.23z M53.035,42.23h9.3v9.306
      	h-9.3V42.23z"/>
      </svg>
    </pattern>
  </defs>
  <style>
    .rh-color-theme-corporate { color: #b90c20; fill: #b90c20; }
    
    .rh-color-theme-corporate-light { color: #f42d31; fill: #f42d31; }
    
    .rh-color-theme-group-1 { color: #f27428; fill: #f27428; }
    
    .rh-color-theme-group-1-light { color: #ffb642; fill: #ffb642; }
    
    .rh-color-theme-group-2a { color: #00a2dc; fill: #00a2dc; }
    
    .rh-color-theme-group-2a-light { color: #82d2e5; fill: #82d2e5; }
    
    .rh-color-theme-group-2b { color: #00a2dc; fill: #00a2dc; }
    
    .rh-color-theme-group-2b-light { color: #82d2e5; fill: #82d2e5; }
    
    .rh-color-theme-group-3a { color: #00a2dc; fill: #00a2dc; }
    
    .rh-color-theme-group-3a-light { color: #82d2e5; fill: #82d2e5; }
    
    .rh-color-theme-group-3b { color: #00a2dc; fill: #00a2dc; }
    
    .rh-color-theme-group-3b-light { color: #82d2e5; fill: #82d2e5; }
    
    .rh-color-theme-group-3c { color: #00a2dc; fill: #00a2dc; }
    
    .rh-color-theme-group-3c-light { color: #82d2e5; fill: #82d2e5; }
    
    .rh-color-theme-services { color: #5b6770; fill: #5b6770; }
    
    .rh-color-theme-services-light { color: #5b6770; fill: #5b6770; }
    
    .rh-theme-corporate-campaign-skyscrapers-web { background-image: url(../images/category-pngs/corporate-campaign-skyscrapers-web.png); background-size: cover; }
    
    .rh-theme-corporate-campaign-skyscrapers-grey-web { background-image: url(../images/category-pngs/corporate-campaign-skyscrapers-grey-web.png); background-size: cover; }
    
    .rh-theme-corporate-campaign-cave-web { background-image: url(../images/category-pngs/corporate-campaign-cave-web.png); background-size: cover; }
    
    .rh-theme-corporate-campaign-cave-grey-web { background-image: url(../images/category-pngs/corporate-campaign-cave-grey-web.png); background-size: cover; }
    
    .rh-theme-corporate-campaign-clouds-web { background-image: url(../images/category-pngs/corporate-campaign-clouds-web.png); background-size: cover; }
    
    .rh-theme-corporate-campaign-clouds-grey-web { background-image: url(../images/category-pngs/corporate-campaign-clouds-grey-web.png); background-size: cover; }
    
    .rh-theme-corporate-campaign-road-grey-web { background-image: url(../images/category-pngs/corporate-campaign-road-grey-web.png); background-size: cover; }
    
    .rh-theme-corporate-brand-skyscrapers-web { background-image: url(../images/category-pngs/corporate-brand-skyscrapers-web.png); background-size: cover; }
    
    .rh-theme-corporate-brand-skyscrapers-grey-web { background-image: url(../images/category-pngs/corporate-brand-skyscrapers-grey-web.png); background-size: cover; }
    
    .rh-theme-corporate-brand-cave-web { background-image: url(../images/category-pngs/corporate-brand-cave-web.png); background-size: cover; }
    
    .rh-theme-corporate-brand-cave-grey-web { background-image: url(../images/category-pngs/corporate-brand-cave-grey-web.png); background-size: cover; }
    
    .rh-theme-corporate-brand-clouds-web { background-image: url(../images/category-pngs/corporate-brand-clouds-web.png); background-size: cover; }
    
    .rh-theme-corporate-brand-clouds-grey-web { background-image: url(../images/category-pngs/corporate-brand-clouds-grey-web.png); background-size: cover; }
    
    .rh-theme-corporate-brand-road-grey-web { background-image: url(../images/category-pngs/corporate-brand-road-grey-web.png); background-size: cover; }
  </style>
  <g style='overflow: hidden' transform='translate(250, 250) rotate(-45 0 0)'>
    <rect fill='url(#Pattern)' height='61' stroke='none' transform='translate(-500, 0)' width='1000' x='0' y='0'></rect>
  </g>
</svg>
