<svg class='rh-color-theme-group-2b' height='1000' version='1.1' viewBox='0 0 500 500' width='1000' xmlns='http://www.w3.org/2000/svg'>
  <defs>
    <pattern height='62' id='Pattern' patternUnits='userSpaceOnUse' width='62' x='0' y='0'>
      <svg version="1.1" id="Layer_1" xmlns="http://www.w3.org/2000/svg" xmlns:xlink="http://www.w3.org/1999/xlink" x="0px" y="0px"
      	 width="62px" height="62px" viewBox="0 0 62 62" enable-background="new 0 0 62 62" xml:space="preserve">
      <path d="M6.836,0C3.625,1.08,1.083,3.616,0,6.826v6.881c1.193,3.448,4.14,6.046,7.763,6.937C4.14,21.535,1.193,24.132,0,27.581
      	v6.833c1.196,3.453,4.152,6.052,7.781,6.938C4.151,42.237,1.196,44.838,0,48.29v6.885C1.083,58.385,3.625,60.92,6.836,62h6.855
      	c3.459-1.192,6.064-4.148,6.953-7.781c0.889,3.633,3.494,6.589,6.952,7.781h6.805c3.458-1.192,6.063-4.148,6.952-7.781
      	c0.889,3.631,3.492,6.587,6.948,7.781h6.867c3.209-1.082,5.748-3.616,6.831-6.825v-6.881c-1.194-3.452-4.145-6.053-7.771-6.943
      	c3.625-0.889,6.576-3.489,7.771-6.939v-6.833c-1.192-3.444-4.136-6.04-7.752-6.934c3.616-0.895,6.56-3.491,7.752-6.935V6.826
      	C60.917,3.617,58.378,1.081,55.169,0h-6.867c-3.456,1.194-6.06,4.15-6.948,7.781C40.465,4.147,37.859,1.191,34.398,0h-6.799
      	c-3.46,1.191-6.066,4.147-6.955,7.781C19.755,4.147,17.149,1.191,13.688,0H6.836z M51.074,0.569
      	c-0.327,4.909-4.172,8.757-9.085,9.086C42.318,4.746,46.165,0.898,51.074,0.569z M52.345,0.569c4.909,0.329,8.756,4.177,9.086,9.086
      	C56.52,9.326,52.673,5.478,52.345,0.569z M10.922,0.572c4.909,0.329,8.756,4.175,9.086,9.083
      	C15.099,9.326,11.252,5.479,10.922,0.572L10.922,0.572z M30.365,0.572c-0.329,4.907-4.176,8.754-9.085,9.083
      	C21.609,4.746,25.455,0.899,30.365,0.572z M31.635,0.572c4.908,0.33,8.754,4.175,9.083,9.083
      	C35.811,9.326,31.965,5.479,31.635,0.572z M9.65,0.575C9.319,5.48,5.476,9.326,0.566,9.655C0.896,4.748,4.742,0.905,9.65,0.575z
      	 M51.709,2.448c0.96,3.916,3.921,6.881,7.837,7.842c-3.916,0.961-6.877,3.927-7.837,7.845c-0.958-3.919-3.922-6.883-7.841-7.843
      	C47.788,9.333,50.751,6.366,51.709,2.448z M10.285,2.451c0.959,3.915,3.924,6.878,7.839,7.839c-3.916,0.961-6.877,3.926-7.836,7.842
      	c-0.96-3.918-3.926-6.881-7.845-7.839C6.362,9.334,9.325,6.368,10.285,2.451z M30.998,2.454c0.138,0.563,0.124,1.182,0.346,1.708
      	c0.55,1.299,1.349,2.47,2.332,3.454c1.38,1.38,3.202,2.195,5.158,2.675c-1.957,0.48-3.778,1.297-5.158,2.679
      	c-1.379,1.38-2.198,3.202-2.678,5.158c-0.961-3.914-3.92-6.876-7.834-7.837C27.078,9.33,30.037,6.367,30.998,2.454z M20.009,10.925
      	c-0.328,4.911-4.176,8.757-9.086,9.086C11.251,15.102,15.099,11.254,20.009,10.925z M21.279,10.925
      	c4.91,0.329,8.756,4.176,9.085,9.086C25.453,19.684,21.606,15.837,21.279,10.925z M61.431,10.925
      	c-0.327,4.912-4.175,8.76-9.086,9.089C52.673,15.103,56.52,11.255,61.431,10.925z M0.566,10.928
      	c4.908,0.329,8.753,4.175,9.083,9.083C4.741,19.681,0.896,15.837,0.566,10.928z M41.989,10.928c4.911,0.328,8.758,4.175,9.085,9.086
      	C46.164,19.685,42.318,15.839,41.989,10.928z M40.718,10.931c-0.33,4.908-4.176,8.748-9.083,9.078
      	c0.075-1.116,0.231-2.214,0.646-3.197C33.691,13.473,36.927,11.186,40.718,10.931z M20.644,12.805
      	c0.958,3.915,3.916,6.876,7.828,7.839c-3.912,0.963-6.871,3.925-7.828,7.839c-0.958-3.915-3.918-6.877-7.832-7.839
      	C16.726,19.682,19.686,16.72,20.644,12.805z M41.354,12.805c0.957,3.912,3.91,6.873,7.818,7.839
      	c-3.908,0.966-6.861,3.928-7.818,7.839c-0.959-3.915-3.917-6.877-7.831-7.839C37.437,19.682,40.395,16.72,41.354,12.805z
      	 M51.074,21.274c-0.325,4.914-4.172,8.765-9.085,9.093C42.314,25.454,46.161,21.603,51.074,21.274L51.074,21.274z M52.345,21.274
      	c4.913,0.329,8.762,4.18,9.086,9.093C56.518,30.039,52.671,26.188,52.345,21.274z M9.652,21.277
      	c-0.325,4.914-4.175,8.762-9.086,9.091C0.892,25.455,4.74,21.606,9.652,21.277z M10.922,21.277c4.914,0.329,8.762,4.179,9.086,9.094
      	C15.097,30.042,11.249,26.19,10.922,21.277z M30.365,21.277c-0.327,4.913-4.174,8.764-9.085,9.094
      	C21.603,25.456,25.451,21.604,30.365,21.277z M31.635,21.28c4.91,0.33,8.757,4.175,9.083,9.085
      	c-1.114-0.075-2.217-0.228-3.198-0.643c-1.179-0.497-2.239-1.219-3.129-2.109c-0.891-0.891-1.612-1.95-2.109-3.128
      	C31.865,23.5,31.71,22.397,31.635,21.28z M51.709,23.159c0.958,3.914,3.915,6.878,7.828,7.842c-3.913,0.964-6.87,3.926-7.828,7.839
      	c-0.958-3.913-3.915-6.876-7.827-7.839C47.795,30.037,50.752,27.074,51.709,23.159z M10.288,23.164
      	c0.958,3.91,3.913,6.874,7.821,7.839c-3.908,0.965-6.862,3.924-7.821,7.833c-0.959-3.911-3.917-6.869-7.826-7.833
      	C6.372,30.04,9.329,27.077,10.288,23.164z M30.998,23.169c0.48,1.957,1.297,3.78,2.678,5.161c0.983,0.983,2.152,1.779,3.451,2.329
      	c0.522,0.221,1.138,0.207,1.696,0.344c-1.952,0.481-3.77,1.295-5.147,2.672c-1.381,1.382-2.198,3.203-2.678,5.161
      	c-0.96-3.909-3.912-6.868-7.818-7.833C27.086,30.038,30.038,27.078,30.998,23.169z M0.569,31.637
      	c4.907,0.329,8.75,4.175,9.081,9.083C4.742,40.389,0.899,36.543,0.569,31.637z M20.006,31.637c-0.331,4.906-4.173,8.752-9.081,9.083
      	C11.255,35.811,15.098,31.966,20.006,31.637z M21.282,31.637c4.908,0.329,8.75,4.175,9.081,9.083
      	C25.454,40.391,21.612,36.544,21.282,31.637z M41.991,31.637c4.909,0.329,8.754,4.176,9.083,9.085
      	C46.165,40.393,42.322,36.545,41.991,31.637z M61.428,31.637c-0.329,4.908-4.174,8.756-9.083,9.085
      	C52.673,35.812,56.519,31.967,61.428,31.637z M40.716,31.639c-0.332,4.905-4.173,8.746-9.078,9.077
      	c0.075-1.114,0.229-2.215,0.644-3.196c0.995-2.357,2.881-4.242,5.238-5.237C38.5,31.867,39.602,31.714,40.716,31.639z M20.644,33.51
      	c0.959,3.923,3.927,6.887,7.85,7.845c-3.922,0.957-6.89,3.923-7.85,7.845c-0.96-3.921-3.928-6.888-7.85-7.845
      	C16.716,40.396,19.685,37.433,20.644,33.51z M41.354,33.51c0.959,3.919,3.92,6.883,7.836,7.845
      	c-3.916,0.962-6.877,3.927-7.836,7.845c-0.96-3.921-3.927-6.888-7.85-7.845C37.427,40.396,40.395,37.433,41.354,33.51z
      	 M51.074,41.989c-0.327,4.911-4.174,8.758-9.085,9.086C42.318,46.165,46.164,42.318,51.074,41.989z M52.345,41.989
      	c4.91,0.329,8.758,4.176,9.086,9.086C56.521,50.746,52.674,46.899,52.345,41.989z M9.652,41.992
      	c-0.329,4.91-4.177,8.757-9.086,9.086C0.894,46.167,4.742,42.322,9.652,41.992z M10.922,41.992c4.911,0.33,8.758,4.175,9.086,9.086
      	C15.099,50.749,11.251,46.902,10.922,41.992z M30.365,41.992c-0.329,4.91-4.176,8.757-9.085,9.086
      	C21.606,46.167,25.453,42.32,30.365,41.992z M31.635,41.995c4.907,0.331,8.753,4.17,9.083,9.077
      	c-1.114-0.074-2.217-0.228-3.198-0.643c-1.178-0.497-2.239-1.217-3.129-2.106l-0.002-0.002c-0.892-0.892-1.61-1.951-2.107-3.13
      	C31.866,44.21,31.71,43.11,31.635,41.995L31.635,41.995z M51.709,43.868c0.96,3.921,3.927,6.883,7.845,7.843
      	c-3.916,0.959-6.883,3.923-7.845,7.839c-0.96-3.916-3.921-6.88-7.839-7.839C47.789,50.751,50.751,47.787,51.709,43.868z
      	 M10.288,43.874c0.959,3.916,3.921,6.879,7.836,7.839c-3.914,0.962-6.879,3.923-7.839,7.837c-0.961-3.914-3.921-6.875-7.834-7.837
      	C6.365,50.753,9.328,47.79,10.288,43.874L10.288,43.874z M31,43.874c0.48,1.957,1.296,3.781,2.676,5.161
      	c0.983,0.983,2.152,1.778,3.451,2.33c0.526,0.222,1.147,0.207,1.712,0.346c-0.563,0.139-1.184,0.124-1.709,0.347
      	c-2.599,1.101-4.683,3.187-5.783,5.786c-0.223,0.527-0.208,1.149-0.347,1.714c-0.958-3.918-3.92-6.883-7.836-7.845
      	C27.079,50.753,30.04,47.79,31,43.874z M0.566,52.349c4.907,0.33,8.753,4.173,9.083,9.083C4.742,61.103,0.896,57.256,0.566,52.349z
      	 M20.009,52.349c-0.331,4.908-4.177,8.755-9.086,9.083C11.253,56.521,15.1,52.678,20.009,52.349z M21.279,52.349
      	c4.909,0.33,8.752,4.173,9.083,9.083C25.454,61.104,21.609,57.257,21.279,52.349z M40.718,52.349c-0.329,4.906-4.174,8.75-9.08,9.08
      	c0.165-2.453,1.12-4.692,2.753-6.325C36.023,53.47,38.265,52.514,40.718,52.349z M41.989,52.349
      	c4.911,0.329,8.759,4.175,9.088,9.086C46.167,61.107,42.319,57.259,41.989,52.349z M61.431,52.349
      	c-0.33,4.909-4.177,8.758-9.086,9.086C52.674,56.523,56.521,52.679,61.431,52.349z"/>
      </svg>
    </pattern>
  </defs>
  <style>
    .rh-color-theme-corporate { color: #b90c20; fill: #b90c20; }
    
    .rh-color-theme-corporate-light { color: #f42d31; fill: #f42d31; }
    
    .rh-color-theme-group-1 { color: #f27428; fill: #f27428; }
    
    .rh-color-theme-group-1-light { color: #ffb642; fill: #ffb642; }
    
    .rh-color-theme-group-2a { color: #00a2dc; fill: #00a2dc; }
    
    .rh-color-theme-group-2a-light { color: #82d2e5; fill: #82d2e5; }
    
    .rh-color-theme-group-2b { color: #00a2dc; fill: #00a2dc; }
    
    .rh-color-theme-group-2b-light { color: #82d2e5; fill: #82d2e5; }
    
    .rh-color-theme-group-3a { color: #00a2dc; fill: #00a2dc; }
    
    .rh-color-theme-group-3a-light { color: #82d2e5; fill: #82d2e5; }
    
    .rh-color-theme-group-3b { color: #00a2dc; fill: #00a2dc; }
    
    .rh-color-theme-group-3b-light { color: #82d2e5; fill: #82d2e5; }
    
    .rh-color-theme-group-3c { color: #00a2dc; fill: #00a2dc; }
    
    .rh-color-theme-group-3c-light { color: #82d2e5; fill: #82d2e5; }
    
    .rh-color-theme-services { color: #5b6770; fill: #5b6770; }
    
    .rh-color-theme-services-light { color: #5b6770; fill: #5b6770; }
    
    .rh-theme-corporate-campaign-skyscrapers-web { background-image: url(../images/category-pngs/corporate-campaign-skyscrapers-web.png); background-size: cover; }
    
    .rh-theme-corporate-campaign-skyscrapers-grey-web { background-image: url(../images/category-pngs/corporate-campaign-skyscrapers-grey-web.png); background-size: cover; }
    
    .rh-theme-corporate-campaign-cave-web { background-image: url(../images/category-pngs/corporate-campaign-cave-web.png); background-size: cover; }
    
    .rh-theme-corporate-campaign-cave-grey-web { background-image: url(../images/category-pngs/corporate-campaign-cave-grey-web.png); background-size: cover; }
    
    .rh-theme-corporate-campaign-clouds-web { background-image: url(../images/category-pngs/corporate-campaign-clouds-web.png); background-size: cover; }
    
    .rh-theme-corporate-campaign-clouds-grey-web { background-image: url(../images/category-pngs/corporate-campaign-clouds-grey-web.png); background-size: cover; }
    
    .rh-theme-corporate-campaign-road-grey-web { background-image: url(../images/category-pngs/corporate-campaign-road-grey-web.png); background-size: cover; }
    
    .rh-theme-corporate-brand-skyscrapers-web { background-image: url(../images/category-pngs/corporate-brand-skyscrapers-web.png); background-size: cover; }
    
    .rh-theme-corporate-brand-skyscrapers-grey-web { background-image: url(../images/category-pngs/corporate-brand-skyscrapers-grey-web.png); background-size: cover; }
    
    .rh-theme-corporate-brand-cave-web { background-image: url(../images/category-pngs/corporate-brand-cave-web.png); background-size: cover; }
    
    .rh-theme-corporate-brand-cave-grey-web { background-image: url(../images/category-pngs/corporate-brand-cave-grey-web.png); background-size: cover; }
    
    .rh-theme-corporate-brand-clouds-web { background-image: url(../images/category-pngs/corporate-brand-clouds-web.png); background-size: cover; }
    
    .rh-theme-corporate-brand-clouds-grey-web { background-image: url(../images/category-pngs/corporate-brand-clouds-grey-web.png); background-size: cover; }
    
    .rh-theme-corporate-brand-road-grey-web { background-image: url(../images/category-pngs/corporate-brand-road-grey-web.png); background-size: cover; }
  </style>
  <g style='overflow: hidden' transform='translate(250, 250) rotate(-45 0 0)'>
    <rect fill='url(#Pattern)' height='61' stroke='none' transform='translate(-500, 0)' width='1000' x='0' y='0'></rect>
  </g>
</svg>
