<svg class='rh-color-theme-services' height='1000' version='1.1' viewBox='0 0 500 500' width='1000' xmlns='http://www.w3.org/2000/svg'>
  <defs>
    <pattern height='62' id='Pattern' patternUnits='userSpaceOnUse' width='62' x='0' y='0'>
      <svg version="1.1" id="Layer_1" xmlns="http://www.w3.org/2000/svg" xmlns:xlink="http://www.w3.org/1999/xlink" x="0px" y="0px"
      	 width="62px" height="62px" viewBox="0 0 62 62" enable-background="new 0 0 62 62" xml:space="preserve">
      <path d="M0,0v0.727l2.725,2.727L0,6.179v1.457l3.454-3.455l3.208,3.208L0,14.053v2.417l6.662,6.662L3.454,26.34L0,22.885v1.456
      	l2.725,2.725L0,29.794v2.416l2.725,2.728L0,37.661v1.455l3.454-3.451l3.205,3.208L0,45.532v2.419l6.659,6.659l-3.205,3.207L0,54.366
      	v1.457l2.725,2.725L0,61.273V62h0.729l2.725-2.726L6.179,62h1.457l-3.455-3.452l3.208-3.208L14.048,62h2.425l6.657-6.657
      	l3.208,3.205L22.885,62h1.456l2.722-2.723L29.786,62h2.424l2.725-2.726L37.661,62h1.455l-3.453-3.452l3.207-3.207L45.529,62h2.422
      	l6.659-6.659l3.208,3.207L54.366,62h1.459l2.72-2.723L61.267,62H62v-0.727l-2.726-2.726L62,55.823v-1.457l-3.455,3.451l-3.208-3.207
      	L62,47.951v-2.419l-6.66-6.662l3.205-3.205L62,39.12v-1.459l-2.726-2.726L62,32.21v-2.416l-2.728-2.728L62,24.339V22.88
      	l-3.455,3.458l-3.208-3.206L62,16.47v-2.417l-6.663-6.665l3.208-3.208L62,7.638V6.179l-2.726-2.728L62,0.727V0h-0.729l-2.727,2.725
      	L55.823,0h-1.457l3.452,3.452l-3.211,3.21L47.948,0h-2.416L38.87,6.662l-3.207-3.208L39.114,0h-1.453l-2.728,2.725L32.208,0h-2.418
      	l-2.726,2.725L24.339,0h-1.454l3.452,3.454l-3.208,3.205L16.47,0h-2.419L7.389,6.662L4.181,3.454L7.636,0H6.179L3.452,2.725L0.727,0
      	H0z M15.26,0.247l7.142,7.142l-3.178,3.178l-3.779-3.782l-0.365,0.362l-3.605,3.602L8.118,7.392L15.26,0.247z M30.998,0.247
      	l3.208,3.208l-3.208,3.205l-3.205-3.205L30.998,0.247z M46.738,0.247l7.143,7.142L50.54,10.73l-3.856-3.856l-3.801,3.803
      	l-3.286-3.288L46.738,0.247z M27.063,4.181l3.935,3.937l3.935-3.937l3.207,3.21l-7.139,7.139l-7.143-7.142L27.063,4.181z
      	 M23.129,8.116l7.142,7.145l-7.142,7.142l-3.055-3.054l3.967-3.964l-4.09-4.09L23.129,8.116z M7.389,8.118l3.361,3.358l-3.905,3.905
      	l3.782,3.785l-3.238,3.239L0.247,15.26L7.389,8.118z M38.867,8.118l3.289,3.286l-4.069,4.071l0.365,0.365l3.489,3.489l-3.071,3.071
      	l-7.143-7.142L38.867,8.118z M54.61,8.118l7.143,7.142l-7.143,7.142l-3.129-3.127l3.803-3.803l-4.015-4.015L54.61,8.118z
      	 M15.443,8.239l3.055,3.055l-3.24,3.237l-3.052-3.052L15.443,8.239L15.443,8.239z M46.683,8.33l3.13,3.127l-3.075,3.074
      	l-3.126-3.127L46.683,8.33z M19.225,12.021l3.36,3.363l-3.237,3.237l-3.361-3.361L19.225,12.021z M42.882,12.133l3.126,3.127
      	l-3.338,3.339l-3.127-3.124L42.882,12.133z M50.542,12.187l3.284,3.283l-3.075,3.076l-3.286-3.286L50.542,12.187z M11.479,12.206
      	l3.052,3.055l-3.175,3.178l-3.055-3.055L11.479,12.206L11.479,12.206z M15.258,15.987l3.363,3.361l-3.178,3.178l-3.361-3.36
      	L15.258,15.987z M30.998,15.987l7.142,7.142l-3.124,3.125l-3.938-3.937l-4.018,4.017l-3.205-3.205L30.998,15.987L30.998,15.987z
      	 M46.738,15.987l3.287,3.288l-3.34,3.339l-3.288-3.286L46.738,15.987L46.738,15.987z M11.355,19.892l4.087,4.09l3.905-3.904
      	l3.054,3.052l-7.145,7.145l-7.142-7.143L11.355,19.892z M50.754,20.002l3.126,3.129l-7.139,7.14l-7.146-7.142l3.074-3.074
      	l4.015,4.015L50.754,20.002z M31.079,23.773l3.211,3.21l-3.292,3.288l-3.208-3.208L31.079,23.773z M7.389,23.859l7.142,7.143
      	l-7.142,7.142l-3.208-3.205l3.937-3.937l-3.937-3.935L7.389,23.859z M23.129,23.859l3.205,3.202l-3.854,3.854l0.365,0.365
      	l3.575,3.573l-3.291,3.29l-7.142-7.142L23.129,23.859z M38.87,23.859l7.143,7.143l-7.143,7.142l-3.213-3.214l4.021-4.017
      	l-3.932-3.932L38.87,23.859z M54.61,23.859l3.205,3.208l-3.932,3.935l3.935,3.934l-3.208,3.208l-7.142-7.142L54.61,23.859z
      	 M35.016,27.71l3.202,3.202l-3.289,3.291l-3.202-3.202L35.016,27.71z M27.061,27.791l3.21,3.211l-3.125,3.122l-3.208-3.208
      	L27.061,27.791z M3.452,27.793l3.21,3.211l-3.208,3.205l-3.21-3.207L3.452,27.793z M58.544,27.796l3.208,3.206l-3.208,3.204
      	l-3.204-3.204L58.544,27.796z M15.258,31.727L22.4,38.87l-3.339,3.343l-3.856-3.857l-3.803,3.803l-3.286-3.285L15.258,31.727z
      	 M30.998,31.727l3.202,3.202l-3.121,3.126l-3.202-3.202L30.998,31.727L30.998,31.727z M46.738,31.731l7.143,7.142l-3.229,3.229
      	l-3.927-3.927l-0.361,0.365l-3.549,3.549l-3.216-3.216L46.738,31.731z M27.147,35.583l3.932,3.928l3.851-3.852l3.211,3.214
      	l-7.142,7.142l-7.142-7.142L27.147,35.583z M7.389,39.599l3.286,3.286l-4.068,4.07l0.365,0.365l3.492,3.489l-3.074,3.073
      	l-7.142-7.142L7.389,39.599z M23.129,39.599l7.142,7.143l-7.142,7.142l-3.127-3.127l3.803-3.803l-4.015-4.016L23.129,39.599z
      	 M38.87,39.599l3.216,3.216l-3.958,3.958l3.926,3.927l-3.184,3.184l-7.143-7.142L38.87,39.599z M54.61,39.599l7.14,7.143
      	l-7.14,7.142l-3.193-3.194l3.91-3.912l-3.948-3.946L54.61,39.599z M46.728,39.628l3.196,3.199l-3.187,3.185l-3.196-3.197
      	L46.728,39.628z M15.204,39.814l3.127,3.128l-3.073,3.072l-3.127-3.127L15.204,39.814L15.204,39.814z M42.812,43.544l3.2,3.197
      	l-3.231,3.229l-3.198-3.198L42.812,43.544z M50.654,43.555l3.219,3.218l-3.186,3.187l-3.219-3.218L50.654,43.555z M11.404,43.615
      	l3.127,3.127l-3.342,3.339l-3.124-3.125L11.404,43.615z M19.061,43.667l3.286,3.286l-3.073,3.076l-3.286-3.288L19.061,43.667z
      	 M15.258,47.471l3.288,3.285l-3.339,3.341l-3.289-3.287L15.258,47.471z M31.001,47.471l7.139,7.139l-3.207,3.207l-3.935-3.932
      	l-3.935,3.936l-3.205-3.208L31.001,47.471z M46.738,47.471l3.22,3.218l-3.229,3.23L43.51,50.7L46.738,47.471z M50.687,51.417
      	l3.193,3.196l-7.143,7.14l-7.142-7.14l3.185-3.184l3.947,3.946L50.687,51.417z M19.273,51.486l3.127,3.127l-7.14,7.14L8.118,54.61
      	l3.071-3.07l4.018,4.015L19.273,51.486z M30.998,55.342l3.206,3.205l-3.206,3.205l-3.205-3.205L30.998,55.342z"/>
      </svg>
    </pattern>
  </defs>
  <style>
    .rh-color-theme-corporate { color: #b90c20; fill: #b90c20; }
    
    .rh-color-theme-corporate-light { color: #f42d31; fill: #f42d31; }
    
    .rh-color-theme-group-1 { color: #f27428; fill: #f27428; }
    
    .rh-color-theme-group-1-light { color: #ffb642; fill: #ffb642; }
    
    .rh-color-theme-group-2a { color: #00a2dc; fill: #00a2dc; }
    
    .rh-color-theme-group-2a-light { color: #82d2e5; fill: #82d2e5; }
    
    .rh-color-theme-group-2b { color: #00a2dc; fill: #00a2dc; }
    
    .rh-color-theme-group-2b-light { color: #82d2e5; fill: #82d2e5; }
    
    .rh-color-theme-group-3a { color: #00a2dc; fill: #00a2dc; }
    
    .rh-color-theme-group-3a-light { color: #82d2e5; fill: #82d2e5; }
    
    .rh-color-theme-group-3b { color: #00a2dc; fill: #00a2dc; }
    
    .rh-color-theme-group-3b-light { color: #82d2e5; fill: #82d2e5; }
    
    .rh-color-theme-group-3c { color: #00a2dc; fill: #00a2dc; }
    
    .rh-color-theme-group-3c-light { color: #82d2e5; fill: #82d2e5; }
    
    .rh-color-theme-services { color: #5b6770; fill: #5b6770; }
    
    .rh-color-theme-services-light { color: #5b6770; fill: #5b6770; }
    
    .rh-theme-corporate-campaign-skyscrapers-web { background-image: url(../images/category-pngs/corporate-campaign-skyscrapers-web.png); background-size: cover; }
    
    .rh-theme-corporate-campaign-skyscrapers-grey-web { background-image: url(../images/category-pngs/corporate-campaign-skyscrapers-grey-web.png); background-size: cover; }
    
    .rh-theme-corporate-campaign-cave-web { background-image: url(../images/category-pngs/corporate-campaign-cave-web.png); background-size: cover; }
    
    .rh-theme-corporate-campaign-cave-grey-web { background-image: url(../images/category-pngs/corporate-campaign-cave-grey-web.png); background-size: cover; }
    
    .rh-theme-corporate-campaign-clouds-web { background-image: url(../images/category-pngs/corporate-campaign-clouds-web.png); background-size: cover; }
    
    .rh-theme-corporate-campaign-clouds-grey-web { background-image: url(../images/category-pngs/corporate-campaign-clouds-grey-web.png); background-size: cover; }
    
    .rh-theme-corporate-campaign-road-grey-web { background-image: url(../images/category-pngs/corporate-campaign-road-grey-web.png); background-size: cover; }
    
    .rh-theme-corporate-brand-skyscrapers-web { background-image: url(../images/category-pngs/corporate-brand-skyscrapers-web.png); background-size: cover; }
    
    .rh-theme-corporate-brand-skyscrapers-grey-web { background-image: url(../images/category-pngs/corporate-brand-skyscrapers-grey-web.png); background-size: cover; }
    
    .rh-theme-corporate-brand-cave-web { background-image: url(../images/category-pngs/corporate-brand-cave-web.png); background-size: cover; }
    
    .rh-theme-corporate-brand-cave-grey-web { background-image: url(../images/category-pngs/corporate-brand-cave-grey-web.png); background-size: cover; }
    
    .rh-theme-corporate-brand-clouds-web { background-image: url(../images/category-pngs/corporate-brand-clouds-web.png); background-size: cover; }
    
    .rh-theme-corporate-brand-clouds-grey-web { background-image: url(../images/category-pngs/corporate-brand-clouds-grey-web.png); background-size: cover; }
    
    .rh-theme-corporate-brand-road-grey-web { background-image: url(../images/category-pngs/corporate-brand-road-grey-web.png); background-size: cover; }
  </style>
  <g style='overflow: hidden' transform='translate(250, 250) rotate(-45 0 0)'>
    <rect fill='url(#Pattern)' height='61' stroke='none' transform='translate(-500, 0)' width='1000' x='0' y='0'></rect>
  </g>
</svg>
