<svg class='rh-color-theme-group-2a' height='1000' version='1.1' viewBox='0 0 500 500' width='1000' xmlns='http://www.w3.org/2000/svg'>
  <defs>
    <pattern height='62' id='Pattern' patternUnits='userSpaceOnUse' width='62' x='0' y='0'>
      <svg version="1.1" id="Layer_1" xmlns="http://www.w3.org/2000/svg" xmlns:xlink="http://www.w3.org/1999/xlink" x="0px" y="0px"
      	 width="62px" height="62px" viewBox="-0.124 -0.124 62 62" enable-background="new -0.124 -0.124 62 62" xml:space="preserve">
      <path d="M5.665-0.124l-5.788,5.786v1.458l7.241-7.244H5.665z M13.644-0.124L-0.124,13.644v1.459L14.987-0.008L30.105,15.11
      	L15.108,30.108l-0.043-0.041l-0.121,0.121l-15.067-15.07v1.459l14.341,14.337L-0.124,45.253v2.778l13.845,13.845h2.687
      	l14.504-14.505l14.507,14.505h2.688l13.77-13.768V46.65L46.763,61.763L31.642,46.642l15-14.997l0.043,0.039l0.121-0.119
      	l15.07,15.069v-1.453L47.533,30.838l14.344-14.344v-2.768L48.029-0.124h-2.687L30.835,14.384L16.331-0.124H13.644z M22.781-0.124
      	L30.8,7.893l8.016-8.017H37.36L30.8,6.437l-6.565-6.561H22.781z M54.479-0.124l7.397,7.397V5.817l-5.943-5.941H54.479z
      	 M46.685-0.008L61.804,15.11l-14.998,15l-0.042-0.043l-0.122,0.121L31.567,15.111L46.685-0.008L46.685-0.008z M15.038,6.348
      	l-8.652,8.655l0.364,0.365l8.288,8.284L23.69,15L15.038,6.348z M46.573,6.676l-8.649,8.652l0.364,0.365l8.288,8.288l8.651-8.655
      	L46.573,6.676z M15.038,7.807L22.234,15l-7.196,7.195l-7.193-7.192L15.038,7.807z M46.576,8.129l7.195,7.195l-7.195,7.199
      	l-7.196-7.196L46.576,8.129z M30.835,15.837l15.081,15.078l-15,15L15.834,30.838L30.835,15.837z M30.945,22.086l-8.655,8.652
      	l0.365,0.365l8.288,8.29l8.655-8.652L30.945,22.086z M61.876,22.91l-8.033,8.03l8.033,8.033v-1.456l-6.577-6.577l6.577-6.576V22.91z
      	 M-0.124,23.062v1.456l6.421,6.421l-6.421,6.42v1.459l7.877-7.879L-0.124,23.062z M30.945,23.542l7.193,7.198l-7.196,7.193
      	l-7.196-7.196L30.945,23.542z M15.105,31.565l15.078,15.077L15.064,61.763L-0.054,46.642l14.998-14.997l0.043,0.039L15.105,31.565
      	L15.105,31.565z M46.682,38.154l-8.652,8.652l0.365,0.364l8.287,8.288l8.653-8.652L46.682,38.154z M14.88,38.372l-8.652,8.655
      	l0.365,0.36l8.288,8.288l8.652-8.652L14.88,38.372z M46.682,39.611l7.196,7.195l-7.196,7.195l-7.193-7.195L46.682,39.611z
      	 M14.88,39.828l7.195,7.195l-7.193,7.196l-7.198-7.196L14.88,39.828z M30.8,53.983l-7.893,7.894h1.454l6.439-6.435l6.434,6.435
      	h1.457L30.8,53.983z M61.876,54.606l-7.271,7.271h1.453l5.817-5.814V54.606z M-0.124,54.758v1.459l5.662,5.659h1.453L-0.124,54.758z
      	"/>
      </svg>
    </pattern>
  </defs>
  <style>
    .rh-color-theme-corporate { color: #b90c20; fill: #b90c20; }
    
    .rh-color-theme-corporate-light { color: #f42d31; fill: #f42d31; }
    
    .rh-color-theme-group-1 { color: #f27428; fill: #f27428; }
    
    .rh-color-theme-group-1-light { color: #ffb642; fill: #ffb642; }
    
    .rh-color-theme-group-2a { color: #00a2dc; fill: #00a2dc; }
    
    .rh-color-theme-group-2a-light { color: #82d2e5; fill: #82d2e5; }
    
    .rh-color-theme-group-2b { color: #00a2dc; fill: #00a2dc; }
    
    .rh-color-theme-group-2b-light { color: #82d2e5; fill: #82d2e5; }
    
    .rh-color-theme-group-3a { color: #00a2dc; fill: #00a2dc; }
    
    .rh-color-theme-group-3a-light { color: #82d2e5; fill: #82d2e5; }
    
    .rh-color-theme-group-3b { color: #00a2dc; fill: #00a2dc; }
    
    .rh-color-theme-group-3b-light { color: #82d2e5; fill: #82d2e5; }
    
    .rh-color-theme-group-3c { color: #00a2dc; fill: #00a2dc; }
    
    .rh-color-theme-group-3c-light { color: #82d2e5; fill: #82d2e5; }
    
    .rh-color-theme-services { color: #5b6770; fill: #5b6770; }
    
    .rh-color-theme-services-light { color: #5b6770; fill: #5b6770; }
    
    .rh-theme-corporate-campaign-skyscrapers-web { background-image: url(../images/category-pngs/corporate-campaign-skyscrapers-web.png); background-size: cover; }
    
    .rh-theme-corporate-campaign-skyscrapers-grey-web { background-image: url(../images/category-pngs/corporate-campaign-skyscrapers-grey-web.png); background-size: cover; }
    
    .rh-theme-corporate-campaign-cave-web { background-image: url(../images/category-pngs/corporate-campaign-cave-web.png); background-size: cover; }
    
    .rh-theme-corporate-campaign-cave-grey-web { background-image: url(../images/category-pngs/corporate-campaign-cave-grey-web.png); background-size: cover; }
    
    .rh-theme-corporate-campaign-clouds-web { background-image: url(../images/category-pngs/corporate-campaign-clouds-web.png); background-size: cover; }
    
    .rh-theme-corporate-campaign-clouds-grey-web { background-image: url(../images/category-pngs/corporate-campaign-clouds-grey-web.png); background-size: cover; }
    
    .rh-theme-corporate-campaign-road-grey-web { background-image: url(../images/category-pngs/corporate-campaign-road-grey-web.png); background-size: cover; }
    
    .rh-theme-corporate-brand-skyscrapers-web { background-image: url(../images/category-pngs/corporate-brand-skyscrapers-web.png); background-size: cover; }
    
    .rh-theme-corporate-brand-skyscrapers-grey-web { background-image: url(../images/category-pngs/corporate-brand-skyscrapers-grey-web.png); background-size: cover; }
    
    .rh-theme-corporate-brand-cave-web { background-image: url(../images/category-pngs/corporate-brand-cave-web.png); background-size: cover; }
    
    .rh-theme-corporate-brand-cave-grey-web { background-image: url(../images/category-pngs/corporate-brand-cave-grey-web.png); background-size: cover; }
    
    .rh-theme-corporate-brand-clouds-web { background-image: url(../images/category-pngs/corporate-brand-clouds-web.png); background-size: cover; }
    
    .rh-theme-corporate-brand-clouds-grey-web { background-image: url(../images/category-pngs/corporate-brand-clouds-grey-web.png); background-size: cover; }
    
    .rh-theme-corporate-brand-road-grey-web { background-image: url(../images/category-pngs/corporate-brand-road-grey-web.png); background-size: cover; }
  </style>
  <g style='overflow: hidden' transform='translate(250, 250) rotate(-45 0 0)'>
    <rect fill='url(#Pattern)' height='61' stroke='none' transform='translate(-500, 0)' width='1000' x='0' y='0'></rect>
  </g>
</svg>
