<svg class='rh-color-theme-group-3a' height='1000' version='1.1' viewBox='0 0 500 500' width='1000' xmlns='http://www.w3.org/2000/svg'>
  <defs>
    <pattern height='62' id='Pattern' patternUnits='userSpaceOnUse' width='62' x='0' y='0'>
      <svg version="1.1" id="Layer_1" xmlns="http://www.w3.org/2000/svg" xmlns:xlink="http://www.w3.org/1999/xlink" x="0px" y="0px"
      	 width="62px" height="62px" viewBox="0 0 62 62" enable-background="new 0 0 62 62" xml:space="preserve">
      <path d="M9.83,0v9.831H0v1.008h9.83v19.659H0v1.007h9.83v19.659H0v1.007h9.83V62h1.008v-9.83h19.656V62h1.007v-9.83h19.66V62h1.009
      	v-9.83h9.828v-1.007H52.17V31.505h9.828v-1.007H52.17V10.839h9.828V9.831H52.17V0h-1.009v9.831h-19.66V0h-1.007v9.831H10.838V0H9.83
      	z M12.415,0c0,4.551,3.7,8.254,8.254,8.254c4.553,0,8.252-3.704,8.252-8.254h-1.007c0,4.006-3.237,7.246-7.246,7.246
      	c-4.009,0-7.247-3.239-7.247-7.246H12.415z M33.081,0c0,4.551,3.699,8.254,8.254,8.254c4.551,0,8.25-3.704,8.25-8.254h-1.006
      	c0,4.006-3.237,7.246-7.244,7.246c-4.011,0-7.247-3.238-7.247-7.246H33.081z M7.246,0.002c0,4.006-3.238,7.246-7.244,7.246v1.007
      	c4.55,0,8.252-3.702,8.252-8.252H7.246z M53.746,0.002c0,4.55,3.701,8.25,8.254,8.25V7.246c-4.008,0-7.247-3.238-7.247-7.244H53.746
      	z M10.838,10.839h19.656v19.659H10.838V10.839z M31.501,10.839h19.66v19.659h-19.66V10.839z M0,12.413v1.007
      	c4.007,0,7.248,3.238,7.248,7.243c0,4.012-3.241,7.248-7.248,7.248v1.007c4.551,0,8.254-3.7,8.254-8.255
      	C8.254,16.113,4.551,12.413,0,12.413z M61.998,12.413c-4.551,0-8.252,3.701-8.252,8.254s3.701,8.251,8.252,8.251v-1.007
      	c-4.007,0-7.245-3.235-7.245-7.244c0-4.01,3.239-7.247,7.245-7.247V12.413z M20.667,12.415c-4.552,0-8.254,3.7-8.254,8.252
      	s3.702,8.255,8.254,8.255s8.252-3.703,8.252-8.255S25.219,12.415,20.667,12.415z M41.335,12.415c-4.555,0-8.254,3.7-8.254,8.252
      	c0,4.551,3.699,8.255,8.254,8.255c4.551,0,8.25-3.705,8.25-8.255C49.585,16.115,45.886,12.415,41.335,12.415z M20.667,13.422
      	c4.008,0,7.246,3.237,7.246,7.245c0,4.009-3.237,7.248-7.246,7.248c-4.008,0-7.247-3.239-7.247-7.248
      	C13.419,16.659,16.659,13.422,20.667,13.422z M41.335,13.422c4.007,0,7.244,3.237,7.244,7.245c0,4.006-3.237,7.248-7.244,7.248
      	c-4.011,0-7.247-3.24-7.247-7.248S37.324,13.422,41.335,13.422z M10.838,31.505h19.656v19.659H10.838V31.505z M31.501,31.505h19.66
      	v19.659h-19.66V31.505z M20.667,33.078c-4.552,0-8.254,3.701-8.254,8.254c0,4.552,3.702,8.255,8.254,8.255s8.252-3.703,8.252-8.255
      	C28.919,36.78,25.219,33.078,20.667,33.078z M0,33.08v1.007c4.007,0,7.248,3.238,7.248,7.245c0,4.01-3.241,7.249-7.248,7.249v1.006
      	c4.551,0,8.254-3.701,8.254-8.255C8.254,36.781,4.551,33.08,0,33.08z M41.335,33.08c-4.555,0-8.254,3.699-8.254,8.252
      	c0,4.552,3.699,8.255,8.254,8.255c4.551,0,8.25-3.701,8.25-8.255C49.585,36.78,45.886,33.08,41.335,33.08z M61.998,33.08
      	c-4.551,0-8.252,3.699-8.252,8.256c0,4.55,3.701,8.251,8.252,8.251v-1.006c-4.006,0-7.245-3.239-7.245-7.245
      	c0-4.013,3.239-7.249,7.245-7.249V33.08z M20.667,34.087c4.008,0,7.246,3.237,7.246,7.245c0,4.009-3.237,7.247-7.246,7.247
      	c-4.008,0-7.247-3.238-7.247-7.247C13.419,37.324,16.659,34.087,20.667,34.087z M41.335,34.087c4.007,0,7.244,3.237,7.244,7.245
      	c0,4.01-3.237,7.247-7.244,7.247c-4.011,0-7.247-3.238-7.247-7.247C34.088,37.324,37.324,34.087,41.335,34.087z M0.004,53.748v1.009
      	c4.007,0,7.246,3.236,7.246,7.243h1.008C8.258,57.448,4.555,53.748,0.004,53.748z M20.663,53.748c-4.549,0-8.25,3.702-8.25,8.252
      	h1.007c0-4.005,3.238-7.243,7.243-7.243c4.013,0,7.25,3.236,7.25,7.243h1.007C28.919,57.448,25.219,53.748,20.663,53.748z
      	 M41.331,53.748c-4.553,0-8.25,3.702-8.25,8.252h1.007c0-4.006,3.235-7.243,7.243-7.243c4.012,0,7.248,3.236,7.248,7.243h1.006
      	C49.585,57.448,45.886,53.748,41.331,53.748z M62,53.748c-4.553,0-8.252,3.702-8.252,8.252h1.007c0-4.005,3.237-7.245,7.245-7.245
      	V53.748z"/>
      </svg>
    </pattern>
  </defs>
  <style>
    .rh-color-theme-corporate { color: #b90c20; fill: #b90c20; }
    
    .rh-color-theme-corporate-light { color: #f42d31; fill: #f42d31; }
    
    .rh-color-theme-group-1 { color: #f27428; fill: #f27428; }
    
    .rh-color-theme-group-1-light { color: #ffb642; fill: #ffb642; }
    
    .rh-color-theme-group-2a { color: #00a2dc; fill: #00a2dc; }
    
    .rh-color-theme-group-2a-light { color: #82d2e5; fill: #82d2e5; }
    
    .rh-color-theme-group-2b { color: #00a2dc; fill: #00a2dc; }
    
    .rh-color-theme-group-2b-light { color: #82d2e5; fill: #82d2e5; }
    
    .rh-color-theme-group-3a { color: #00a2dc; fill: #00a2dc; }
    
    .rh-color-theme-group-3a-light { color: #82d2e5; fill: #82d2e5; }
    
    .rh-color-theme-group-3b { color: #00a2dc; fill: #00a2dc; }
    
    .rh-color-theme-group-3b-light { color: #82d2e5; fill: #82d2e5; }
    
    .rh-color-theme-group-3c { color: #00a2dc; fill: #00a2dc; }
    
    .rh-color-theme-group-3c-light { color: #82d2e5; fill: #82d2e5; }
    
    .rh-color-theme-services { color: #5b6770; fill: #5b6770; }
    
    .rh-color-theme-services-light { color: #5b6770; fill: #5b6770; }
    
    .rh-theme-corporate-campaign-skyscrapers-web { background-image: url(../images/category-pngs/corporate-campaign-skyscrapers-web.png); background-size: cover; }
    
    .rh-theme-corporate-campaign-skyscrapers-grey-web { background-image: url(../images/category-pngs/corporate-campaign-skyscrapers-grey-web.png); background-size: cover; }
    
    .rh-theme-corporate-campaign-cave-web { background-image: url(../images/category-pngs/corporate-campaign-cave-web.png); background-size: cover; }
    
    .rh-theme-corporate-campaign-cave-grey-web { background-image: url(../images/category-pngs/corporate-campaign-cave-grey-web.png); background-size: cover; }
    
    .rh-theme-corporate-campaign-clouds-web { background-image: url(../images/category-pngs/corporate-campaign-clouds-web.png); background-size: cover; }
    
    .rh-theme-corporate-campaign-clouds-grey-web { background-image: url(../images/category-pngs/corporate-campaign-clouds-grey-web.png); background-size: cover; }
    
    .rh-theme-corporate-campaign-road-grey-web { background-image: url(../images/category-pngs/corporate-campaign-road-grey-web.png); background-size: cover; }
    
    .rh-theme-corporate-brand-skyscrapers-web { background-image: url(../images/category-pngs/corporate-brand-skyscrapers-web.png); background-size: cover; }
    
    .rh-theme-corporate-brand-skyscrapers-grey-web { background-image: url(../images/category-pngs/corporate-brand-skyscrapers-grey-web.png); background-size: cover; }
    
    .rh-theme-corporate-brand-cave-web { background-image: url(../images/category-pngs/corporate-brand-cave-web.png); background-size: cover; }
    
    .rh-theme-corporate-brand-cave-grey-web { background-image: url(../images/category-pngs/corporate-brand-cave-grey-web.png); background-size: cover; }
    
    .rh-theme-corporate-brand-clouds-web { background-image: url(../images/category-pngs/corporate-brand-clouds-web.png); background-size: cover; }
    
    .rh-theme-corporate-brand-clouds-grey-web { background-image: url(../images/category-pngs/corporate-brand-clouds-grey-web.png); background-size: cover; }
    
    .rh-theme-corporate-brand-road-grey-web { background-image: url(../images/category-pngs/corporate-brand-road-grey-web.png); background-size: cover; }
  </style>
  <g style='overflow: hidden' transform='translate(250, 250) rotate(-45 0 0)'>
    <rect fill='url(#Pattern)' height='61' stroke='none' transform='translate(-500, 0)' width='1000' x='0' y='0'></rect>
  </g>
</svg>
