<svg class='rh-color-theme-corporate' height='1000' version='1.1' viewBox='0 0 500 500' width='1000' xmlns='http://www.w3.org/2000/svg'>
  <defs>
    <pattern height='62' id='Pattern' patternUnits='userSpaceOnUse' width='62' x='0' y='0'>
      <svg version="1.1" id="Layer_1" xmlns="http://www.w3.org/2000/svg" xmlns:xlink="http://www.w3.org/1999/xlink" x="0px" y="0px"
      	 width="62px" height="62px" viewBox="-0.124 -0.125 62 62" enable-background="new -0.124 -0.125 62 62" xml:space="preserve">
      <path d="M-0.125-0.125v0.713l30.273,30.276L-0.125,61.14v0.735h0.722l30.281-30.281l30.279,30.281h0.722V61.14L31.604,30.864
      	L61.878,0.588v-0.713h-0.741L30.878,30.138L0.615-0.125H-0.125z M7.034-0.125l23.841,23.85l23.843-23.85h-1.453l-22.39,22.391
      	L8.487-0.125H7.034z M14.903-0.125L30.875,15.85L46.853-0.125h-1.457L30.875,14.394L16.359-0.125H14.903z M22.772-0.125l8.103,8.105
      	l8.105-8.105h-1.456l-6.649,6.646l-6.646-6.646H22.772z M-0.125,7.004V8.46l22.401,22.404L-0.125,53.271v1.454l23.86-23.86
      	L-0.125,7.004z M61.878,7.004L38.02,30.864l23.858,23.86v-1.454L39.477,30.864L61.878,8.46V7.004z M-0.125,14.876v1.457
      	l14.532,14.532L-0.125,45.396v1.456l15.991-15.988L-0.125,14.876z M61.878,14.876L45.89,30.864l15.988,15.988v-1.456L47.346,30.864
      	l14.532-14.532V14.876z M-0.125,22.748v1.457l6.663,6.66l-6.663,6.664v1.454l8.119-8.118L-0.125,22.748z M61.878,22.748l-8.12,8.116
      	l8.12,8.118v-1.454l-6.664-6.664l6.664-6.66V22.748z M30.875,38.009L7.012,61.875h1.457l22.406-22.409l22.41,22.409h1.456
      	L30.875,38.009z M30.875,45.876L14.881,61.875h1.459l14.534-14.539l14.541,14.539h1.459L30.875,45.876z M30.875,53.75l-8.124,8.125
      	h1.459l6.665-6.668l6.668,6.668h1.459L30.875,53.75z"/>
      </svg>
    </pattern>
  </defs>
  <style>
    .rh-color-theme-corporate { color: #b90c20; fill: #b90c20; }
    
    .rh-color-theme-corporate-light { color: #f42d31; fill: #f42d31; }
    
    .rh-color-theme-group-1 { color: #f27428; fill: #f27428; }
    
    .rh-color-theme-group-1-light { color: #ffb642; fill: #ffb642; }
    
    .rh-color-theme-group-2a { color: #00a2dc; fill: #00a2dc; }
    
    .rh-color-theme-group-2a-light { color: #82d2e5; fill: #82d2e5; }
    
    .rh-color-theme-group-2b { color: #00a2dc; fill: #00a2dc; }
    
    .rh-color-theme-group-2b-light { color: #82d2e5; fill: #82d2e5; }
    
    .rh-color-theme-group-3a { color: #00a2dc; fill: #00a2dc; }
    
    .rh-color-theme-group-3a-light { color: #82d2e5; fill: #82d2e5; }
    
    .rh-color-theme-group-3b { color: #00a2dc; fill: #00a2dc; }
    
    .rh-color-theme-group-3b-light { color: #82d2e5; fill: #82d2e5; }
    
    .rh-color-theme-group-3c { color: #00a2dc; fill: #00a2dc; }
    
    .rh-color-theme-group-3c-light { color: #82d2e5; fill: #82d2e5; }
    
    .rh-color-theme-services { color: #5b6770; fill: #5b6770; }
    
    .rh-color-theme-services-light { color: #5b6770; fill: #5b6770; }
    
    .rh-theme-corporate-campaign-skyscrapers-web { background-image: url(../images/category-pngs/corporate-campaign-skyscrapers-web.png); background-size: cover; }
    
    .rh-theme-corporate-campaign-skyscrapers-grey-web { background-image: url(../images/category-pngs/corporate-campaign-skyscrapers-grey-web.png); background-size: cover; }
    
    .rh-theme-corporate-campaign-cave-web { background-image: url(../images/category-pngs/corporate-campaign-cave-web.png); background-size: cover; }
    
    .rh-theme-corporate-campaign-cave-grey-web { background-image: url(../images/category-pngs/corporate-campaign-cave-grey-web.png); background-size: cover; }
    
    .rh-theme-corporate-campaign-clouds-web { background-image: url(../images/category-pngs/corporate-campaign-clouds-web.png); background-size: cover; }
    
    .rh-theme-corporate-campaign-clouds-grey-web { background-image: url(../images/category-pngs/corporate-campaign-clouds-grey-web.png); background-size: cover; }
    
    .rh-theme-corporate-campaign-road-grey-web { background-image: url(../images/category-pngs/corporate-campaign-road-grey-web.png); background-size: cover; }
    
    .rh-theme-corporate-brand-skyscrapers-web { background-image: url(../images/category-pngs/corporate-brand-skyscrapers-web.png); background-size: cover; }
    
    .rh-theme-corporate-brand-skyscrapers-grey-web { background-image: url(../images/category-pngs/corporate-brand-skyscrapers-grey-web.png); background-size: cover; }
    
    .rh-theme-corporate-brand-cave-web { background-image: url(../images/category-pngs/corporate-brand-cave-web.png); background-size: cover; }
    
    .rh-theme-corporate-brand-cave-grey-web { background-image: url(../images/category-pngs/corporate-brand-cave-grey-web.png); background-size: cover; }
    
    .rh-theme-corporate-brand-clouds-web { background-image: url(../images/category-pngs/corporate-brand-clouds-web.png); background-size: cover; }
    
    .rh-theme-corporate-brand-clouds-grey-web { background-image: url(../images/category-pngs/corporate-brand-clouds-grey-web.png); background-size: cover; }
    
    .rh-theme-corporate-brand-road-grey-web { background-image: url(../images/category-pngs/corporate-brand-road-grey-web.png); background-size: cover; }
  </style>
  <g style='overflow: hidden' transform='translate(250, 250) rotate(-45 0 0)'>
    <rect fill='url(#Pattern)' height='61' stroke='none' transform='translate(-500, 0)' width='1000' x='0' y='0'></rect>
  </g>
</svg>
