<svg class='rh-color-theme-group-3c' height='1000' version='1.1' viewBox='0 0 500 500' width='1000' xmlns='http://www.w3.org/2000/svg'>
  <defs>
    <pattern height='62' id='Pattern' patternUnits='userSpaceOnUse' width='62' x='0' y='0'>
      <svg
         width="62.48199"
         height="63.51044"
         viewBox="0 0 62.48199 63.51044"
         class="brand-pattern agile">
        <path
           d="M 10.41544579,0 C 6.006946391,0 2.475451289,3.472038697 2.195818689,7.810916299 l -2.19581870134862588,0 0,1.0257839 2.19581870134862588,0 c 0.2798419,4.338677001 3.811272002,7.808245011 8.219627101,7.808245311 4.4083553,0 7.9371141,-3.46956831 8.2169559,-7.808245311 l 4.39163711,0 c 0.279842,4.338677001 3.8086008,7.808245311 8.2169559,7.808245311 4.4083552,0 7.9397853,-3.46956831 8.2196274,-7.808245311 l 4.3916368,0 c 0.279842,4.338677001 3.8086009,7.808245311 8.21695611,7.808245311 4.4083551,0 7.9397851,-3.46956831 8.2196271,-7.808245311 l 2.1931472,0 0,-1.0257839 -2.1931472,0 C 60.00920951,3.472038697 56.47771441,0 52.06921501,0 47.6607154,0 44.1318917,3.472038697 43.8522589,7.810916299 l -4.3916368,0 C 39.1809893,3.472038697 35.6494942,0 31.2409947,0 26.8324953,0 23.3036714,3.472038697 23.0240388,7.810916299 l -4.39163711,0 C 18.35276909,3.472038697 14.82394539,0 10.41544579,0 Z m 0,1.025783696 c 4.0359546,0 7.2953533,3.262070001 7.2953533,7.298024603 0,4.035954601 -3.2593987,7.295353311 -7.2953533,7.295353311 -4.0359545,0 -7.2980245,-3.25939871 -7.2980245,-7.295353311 0,-4.035954602 3.26207,-7.298024603 7.2980245,-7.298024603 z m 20.82554891,0 c 4.0359546,0 7.2980245,3.262070001 7.2980245,7.298024603 0,4.035954601 -3.2620699,7.295353311 -7.2980245,7.295353311 -4.0359545,0 -7.2953531,-3.25939871 -7.2953531,-7.295353311 0,-4.035954602 3.2593986,-7.298024603 7.2953531,-7.298024603 z m 20.82822031,0 c 4.0359543,0 7.2980245,3.262070001 7.2980244,7.298024603 0,4.035954601 -3.2620701,7.295353311 -7.2980244,7.295353311 -4.03595461,0 -7.29535331,-3.25939871 -7.29535331,-7.295353311 0,-4.035954602 3.2593987,-7.298024603 7.29535331,-7.298024603 z M -1.234863145e-8,15.62183281 l 0,1.0257839 C 4.03520929,16.64761671 7.29535329,19.90762941 7.29535329,23.94564131 c 0,4.0365561 -3.2600356,7.2953533 -7.29535330234863277,7.2953533 l 0,1.0257838 C 4.40844309,32.26677841 7.93837389,28.79622631 8.21695619,24.45586171 l 4.3943083,0 c 0.2796326,4.3388778 3.8084563,7.8109167 8.2169559,7.8109167 4.40852851,0 7.94003671,-3.4719984 8.21962711,-7.8109167 l 4.3889658,0 c 0.2796326,4.3388778 3.8111277,7.8109167 8.2196272,7.8109167 4.4084994,0 7.9373232,-3.4720389 8.2169559,-7.8109167 l 4.39163701,0 c 0.2782743,4.3416172 3.8083694,7.8109167 8.2169559,7.8109167 l 0,-1.0257838 c -4.0353176,0 -7.2953533,-3.2572331 -7.2953533,-7.2953533 0,-4.0365564 3.2615998,-7.2980246 7.2953533,-7.2980246 l 0,-1.0257839 c -4.4056428,0 -7.9359587,3.4701132 -8.2169559,7.8082452 l -4.39163701,0 c -0.2796327,-4.3388776 -3.8084565,-7.8082452 -8.2169559,-7.8082452 -4.4084995,0 -7.9399946,3.4693676 -8.2196272,7.8082452 l -4.3889658,0 c -0.2795904,-4.3389181 -3.8110986,-7.8082452 -8.21962711,-7.8082452 -4.4084996,0 -7.9373233,3.4693676 -8.2169559,7.8082452 l -4.3943083,0 C 7.93595049,19.09080651 4.40687179,15.62183281 -1.234862568e-8,15.62183281 Z M 20.82822039,16.64761671 c 4.03595461,0 7.29802451,3.2593987 7.29802451,7.2953532 0,4.0359545 -3.2620699,7.2980245 -7.29802451,7.2980247 -4.0359546,0 -7.2953533,-3.2620702 -7.2953533,-7.2980247 0,-4.0359545 3.2593987,-7.2953532 7.2953533,-7.2953532 z m 20.82822011,0 c 4.0359545,0 7.2953533,3.2593987 7.2953533,7.2953532 0,4.0359545 -3.2593988,7.2980245 -7.2953533,7.2980247 -4.0359546,0 -7.2980246,-3.2620702 -7.2980246,-7.2980247 0,-4.0359545 3.26207,-7.2953532 7.2980246,-7.2953532 z m -31.24099471,14.5960491 c -4.408314999,0 -7.938629101,3.4699193 -8.219627101,7.808245 l -2.19581870134861789,0 0,1.0257839 2.19581870134861789,0 c 0.2783583,4.34085681 3.809492602,7.81358781 8.219627101,7.81358781 4.4101348,0 7.941269,-3.472731 8.2196273,-7.81358781 l 4.38629441,0 c 0.2783165,4.34089681 3.8094636,7.81358781 8.2196272,7.81358781 4.4101348,0 7.941269,-3.472731 8.2196274,-7.81358781 l 4.3889655,0 c 0.2783584,4.34085681 3.8094926,7.81358781 8.21962741,7.81358781 4.4101346,0 7.9412689,-3.472731 8.2196271,-7.81358781 l 2.1931472,0 0,-1.0257839 -2.1931472,0 c -0.280998,-4.3383257 -3.8113121,-7.808245 -8.2196271,-7.808245 -4.40831521,0 -7.93862941,3.4699193 -8.21962741,7.808245 l -4.3889655,0 c -0.2809981,-4.3383257 -3.8113123,-7.808245 -8.2196274,-7.808245 -4.4083445,0 -7.9386718,3.4698784 -8.2196272,7.808245 l -4.38629441,0 c -0.2809979,-4.3383257 -3.8113122,-7.808245 -8.2196273,-7.808245 z m 0,1.0257838 c 4.0367099,0 7.2980246,3.2613147 7.2980246,7.2980246 0,4.0367103 -3.2613147,7.29802431 -7.2980246,7.29802431 -4.0367097,0 -7.2980245,-3.26131401 -7.2980245,-7.29802431 0,-4.0367099 3.2613148,-7.2980246 7.2980245,-7.2980246 z m 20.82554891,0 c 4.03671,0 7.2980245,3.2613147 7.2980245,7.2980246 0,4.0367103 -3.2613145,7.29802431 -7.2980245,7.29802431 -4.0367098,0 -7.2980246,-3.26131401 -7.2980246,-7.29802431 0,-4.0367099 3.2613148,-7.2980246 7.2980246,-7.2980246 z m 20.82822031,0 c 4.0367098,0 7.2980244,3.2613147 7.2980244,7.2980246 10e-8,4.0367103 -3.2613146,7.29802431 -7.2980244,7.29802431 -4.03671001,0 -7.29802461,-3.26131401 -7.29802471,-7.29802431 1e-7,-4.0367099 3.2613147,-7.2980246 7.29802471,-7.2980246 z M -1.234863145e-8,46.86549852 l 0,1.025784 C 4.03520929,47.89128252 7.29535329,51.15007952 7.29535329,55.18663552 c 0,4.038012 -3.2600356,7.298025 -7.29535330234863277,7.298025 l 0,1.025784 C 4.40767719,63.51044452 7.93726199,60.03996552 8.21695619,55.69952752 l 4.3943083,0 c 0.2796326,4.338878 3.8084563,7.810917 8.2169559,7.810917 4.40852851,0 7.94003671,-3.471999 8.21962711,-7.810917 l 4.3889658,0 c 0.2796326,4.338878 3.8111277,7.810917 8.2196272,7.810917 4.4084994,0 7.9373232,-3.472039 8.2169559,-7.810917 l 4.39163701,0 c 0.2795941,4.341491 3.8092789,7.810917 8.2169559,7.810917 l 0,-1.025784 c -4.0353176,0 -7.2953533,-3.258449 -7.2953533,-7.298025 0,-4.0351 3.2615998,-7.295353 7.2953533,-7.295353 l 0,-1.025784 c -4.406552,0 -7.9372781,3.469988 -8.2169559,7.808245 l -4.39163701,0 c -0.279842,-4.338677 -3.8086008,-7.808245 -8.2169559,-7.808245 -4.4083551,0 -7.9397854,3.469568 -8.2196272,7.808245 l -4.3889658,0 c -0.2797996,-4.338717 -3.8112428,-7.808245 -8.21962711,-7.808245 -4.4083553,0 -7.9371141,3.469568 -8.2169559,7.808245 l -4.3943083,0 C 7.93726989,50.33434552 4.40778129,46.86549852 -1.23486199e-8,46.86549852 Z M 20.82822039,47.89128252 c 4.03595461,0 7.29802451,3.259399 7.29802451,7.295353 0,4.035955 -3.2620699,7.298025 -7.29802451,7.298025 -4.0359546,0 -7.2953533,-3.26207 -7.2953533,-7.298025 0,-4.035954 3.2593987,-7.295353 7.2953533,-7.295353 z m 20.82822011,0 c 4.0359545,0 7.2953533,3.259399 7.2953533,7.295353 0,4.035955 -3.2593988,7.298025 -7.2953533,7.298025 -4.0359546,0 -7.2980246,-3.26207 -7.2980246,-7.298025 0,-4.035954 3.26207,-7.295353 7.2980246,-7.295353 z"
      />
      </svg>
    </pattern>
  </defs>
  <style>
    .rh-color-theme-corporate { color: #b90c20; fill: #b90c20; }
    
    .rh-color-theme-corporate-light { color: #f42d31; fill: #f42d31; }
    
    .rh-color-theme-group-1 { color: #f27428; fill: #f27428; }
    
    .rh-color-theme-group-1-light { color: #ffb642; fill: #ffb642; }
    
    .rh-color-theme-group-2a { color: #00a2dc; fill: #00a2dc; }
    
    .rh-color-theme-group-2a-light { color: #82d2e5; fill: #82d2e5; }
    
    .rh-color-theme-group-2b { color: #00a2dc; fill: #00a2dc; }
    
    .rh-color-theme-group-2b-light { color: #82d2e5; fill: #82d2e5; }
    
    .rh-color-theme-group-3a { color: #00a2dc; fill: #00a2dc; }
    
    .rh-color-theme-group-3a-light { color: #82d2e5; fill: #82d2e5; }
    
    .rh-color-theme-group-3b { color: #00a2dc; fill: #00a2dc; }
    
    .rh-color-theme-group-3b-light { color: #82d2e5; fill: #82d2e5; }
    
    .rh-color-theme-group-3c { color: #00a2dc; fill: #00a2dc; }
    
    .rh-color-theme-group-3c-light { color: #82d2e5; fill: #82d2e5; }
    
    .rh-color-theme-services { color: #5b6770; fill: #5b6770; }
    
    .rh-color-theme-services-light { color: #5b6770; fill: #5b6770; }
    
    .rh-theme-corporate-campaign-skyscrapers-web { background-image: url(../images/category-pngs/corporate-campaign-skyscrapers-web.png); background-size: cover; }
    
    .rh-theme-corporate-campaign-skyscrapers-grey-web { background-image: url(../images/category-pngs/corporate-campaign-skyscrapers-grey-web.png); background-size: cover; }
    
    .rh-theme-corporate-campaign-cave-web { background-image: url(../images/category-pngs/corporate-campaign-cave-web.png); background-size: cover; }
    
    .rh-theme-corporate-campaign-cave-grey-web { background-image: url(../images/category-pngs/corporate-campaign-cave-grey-web.png); background-size: cover; }
    
    .rh-theme-corporate-campaign-clouds-web { background-image: url(../images/category-pngs/corporate-campaign-clouds-web.png); background-size: cover; }
    
    .rh-theme-corporate-campaign-clouds-grey-web { background-image: url(../images/category-pngs/corporate-campaign-clouds-grey-web.png); background-size: cover; }
    
    .rh-theme-corporate-campaign-road-grey-web { background-image: url(../images/category-pngs/corporate-campaign-road-grey-web.png); background-size: cover; }
    
    .rh-theme-corporate-brand-skyscrapers-web { background-image: url(../images/category-pngs/corporate-brand-skyscrapers-web.png); background-size: cover; }
    
    .rh-theme-corporate-brand-skyscrapers-grey-web { background-image: url(../images/category-pngs/corporate-brand-skyscrapers-grey-web.png); background-size: cover; }
    
    .rh-theme-corporate-brand-cave-web { background-image: url(../images/category-pngs/corporate-brand-cave-web.png); background-size: cover; }
    
    .rh-theme-corporate-brand-cave-grey-web { background-image: url(../images/category-pngs/corporate-brand-cave-grey-web.png); background-size: cover; }
    
    .rh-theme-corporate-brand-clouds-web { background-image: url(../images/category-pngs/corporate-brand-clouds-web.png); background-size: cover; }
    
    .rh-theme-corporate-brand-clouds-grey-web { background-image: url(../images/category-pngs/corporate-brand-clouds-grey-web.png); background-size: cover; }
    
    .rh-theme-corporate-brand-road-grey-web { background-image: url(../images/category-pngs/corporate-brand-road-grey-web.png); background-size: cover; }
  </style>
  <g style='overflow: hidden' transform='translate(250, 250) rotate(-45 0 0)'>
    <rect fill='url(#Pattern)' height='61' stroke='none' transform='translate(-500, 0)' width='1000' x='0' y='0'></rect>
  </g>
</svg>
