<svg xmlns:svg="http://www.w3.org/2000/svg"
	 xmlns="http://www.w3.org/2000/svg" xmlns:xlink="http://www.w3.org/1999/xlink" viewBox="0 522.5 612 269.5" xml:space="preserve">
<polygon fill="none" points="267.927,726.501 267.927,701.364 271.661,701.364 271.661,722.8 284.2,722.8 284.2,726.501 "/>
<path fill="none" d="M300.639,718.454c-0.504-0.259-1.094-0.458-1.784-0.61c-0.684-0.14-1.519-0.219-2.525-0.219
	c-1.201,0-2.145,0.259-2.848,0.75c-0.688,0.511-1.035,1.193-1.035,2.05c0,0.941,0.292,1.698,0.896,2.275
	c0.597,0.568,1.52,0.854,2.733,0.854c1.002,0,1.908-0.245,2.711-0.749c0.805-0.498,1.422-1.056,1.847-1.65v-2.7H300.639z
	 M300.639,726.501v-1.864c-0.649,0.646-1.406,1.188-2.302,1.605c-0.891,0.438-1.844,0.664-2.872,0.664
	c-0.771,0-1.546-0.119-2.329-0.347c-0.77-0.23-1.473-0.604-2.09-1.102c-0.616-0.498-1.127-1.161-1.525-1.978
	c-0.392-0.811-0.597-1.8-0.597-2.938c0-1.055,0.192-1.964,0.577-2.733c0.391-0.763,0.915-1.397,1.585-1.891
	c0.67-0.518,1.453-0.889,2.36-1.128c0.915-0.232,1.903-0.358,2.979-0.358c1.729,0,3.131,0.239,4.206,0.719v-1.399
	c0-1.021-0.308-1.812-0.923-2.369c-0.61-0.55-1.485-0.821-2.633-0.821c-0.982,0-1.864,0.101-2.643,0.284
	c-0.775,0.187-1.532,0.498-2.282,0.896l-1.433-2.8c0.908-0.544,1.884-0.97,2.905-1.262c1.026-0.271,2.223-0.418,3.556-0.418
	c2.107,0,3.813,0.523,5.122,1.561c1.293,1.048,1.957,2.627,1.957,4.764v12.923h-3.623L300.639,726.501L300.639,726.501z"/>
<path fill="none" d="M319.686,726.03c-0.458,0.266-0.995,0.471-1.599,0.624c-0.61,0.157-1.287,0.236-2.03,0.236
	c-1.32,0-2.354-0.409-3.104-1.221c-0.757-0.822-1.135-2.069-1.135-3.773v-10.873h-2.7v-3.385h2.7v-5.394l3.629-1.938v7.324h4.664
	v3.384h-4.664v10.229c0,0.889,0.142,1.479,0.438,1.798c0.298,0.313,0.803,0.465,1.499,0.465c0.478,0,0.969-0.08,1.473-0.239
	c0.504-0.146,0.916-0.323,1.254-0.511L319.686,726.03z"/>
<path fill="none" d="M326.387,707.647h3.732v18.854h-3.732V707.647z M329.929,704.496c-0.473,0.464-1.021,0.696-1.672,0.696
	c-0.679,0-1.24-0.232-1.705-0.696c-0.473-0.465-0.703-1.016-0.703-1.665c0-0.67,0.23-1.241,0.703-1.719
	c0.465-0.458,1.026-0.689,1.705-0.689c0.648,0,1.199,0.231,1.672,0.689c0.465,0.478,0.696,1.049,0.696,1.719
	C330.632,703.48,330.401,704.031,329.929,704.496"/>
<path fill="none" d="M348.273,726.501V715.86c0-1.911-0.352-3.244-1.016-4.007c-0.689-0.771-1.625-1.154-2.854-1.154
	c-1.24,0-2.188,0.424-2.857,1.26c-0.679,0.836-1.001,2.018-1.001,3.543v10.999h-3.735v-18.854h3.735v1.815
	c0.478-0.703,1.146-1.247,1.988-1.632c0.855-0.398,1.767-0.584,2.746-0.584c2.209,0,3.881,0.703,5.022,2.116
	c1.134,1.42,1.697,3.51,1.697,6.32v10.81h-3.729v0.007L348.273,726.501L348.273,726.501z"/>
<path fill="none" d="M380.986,711.376c-0.14-0.451-0.312-0.962-0.504-1.52c-0.187-0.544-0.379-1.09-0.558-1.646
	c-0.181-0.544-0.347-1.062-0.504-1.52c-0.142-0.457-0.261-0.829-0.341-1.096c-0.071,0.267-0.172,0.639-0.323,1.096
	c-0.141,0.458-0.3,0.969-0.473,1.513c-0.166,0.531-0.332,1.088-0.511,1.659c-0.179,0.584-0.358,1.101-0.518,1.552l-2.019,5.745
	h7.771L380.986,711.376z M386.266,726.501l-2.116-5.957h-10.063l-2.076,5.957h-3.921l9.049-25.137h3.993l9.162,25.137H386.266z"/>
<path fill="none" d="M417.765,726.501V715.86c0-1.911-0.298-3.244-0.902-4.007c-0.597-0.771-1.512-1.154-2.727-1.154
	c-1.247,0-2.155,0.424-2.746,1.26c-0.584,0.836-0.889,2.018-0.889,3.543v10.999h-3.729V715.86c0-1.911-0.306-3.244-0.902-4.007
	c-0.598-0.771-1.513-1.154-2.727-1.154c-1.247,0-2.17,0.424-2.747,1.26c-0.59,0.836-0.882,2.02-0.882,3.543v10.999h-3.742v-18.854
	h3.742v1.815c0.471-0.703,1.101-1.247,1.87-1.632c0.764-0.398,1.639-0.584,2.628-0.584c1.287,0,2.354,0.232,3.178,0.703
	c0.842,0.472,1.506,1.175,2.01,2.083c0.332-0.424,0.69-0.815,1.063-1.16c0.371-0.346,0.774-0.631,1.247-0.869
	c0.458-0.246,0.969-0.432,1.524-0.563c0.577-0.142,1.223-0.199,1.972-0.199c2.209,0,3.848,0.703,4.907,2.116
	c1.042,1.42,1.572,3.51,1.572,6.321v10.809h-3.722L417.765,726.501L417.765,726.501z"/>
<path fill="none" d="M439.008,713.498c-0.173-0.57-0.444-1.074-0.805-1.512c-0.363-0.427-0.803-0.766-1.341-1.018
	c-0.544-0.252-1.2-0.385-1.957-0.385c-1.254,0-2.242,0.418-2.965,1.247c-0.743,0.823-1.188,1.99-1.354,3.496h8.764
	C439.306,714.68,439.187,714.075,439.008,713.498 M443.039,717.651c-0.014,0.292-0.039,0.544-0.064,0.724h-12.466
	c0.1,0.922,0.285,1.698,0.577,2.348c0.283,0.65,0.644,1.184,1.073,1.602c0.427,0.418,0.915,0.729,1.435,0.936
	c0.531,0.198,1.088,0.307,1.659,0.307c0.796,0,1.519-0.142,2.176-0.404c0.656-0.259,1.287-0.624,1.917-1.115l2.194,2.369
	c-0.843,0.789-1.776,1.398-2.813,1.83c-1.021,0.432-2.255,0.657-3.701,0.657c-1.102,0-2.144-0.221-3.132-0.657
	c-1.002-0.432-1.87-1.063-2.62-1.903c-0.729-0.836-1.327-1.855-1.752-3.092c-0.438-1.221-0.663-2.607-0.663-4.159
	c0-1.604,0.206-3.019,0.63-4.239c0.398-1.228,0.956-2.24,1.681-3.07c0.724-0.829,1.593-1.459,2.601-1.893
	c1.016-0.425,2.137-0.637,3.363-0.637c1.348,0,2.515,0.239,3.497,0.743c1.001,0.504,1.822,1.188,2.479,2.057
	c0.657,0.855,1.154,1.857,1.475,3.005c0.332,1.154,0.482,2.362,0.482,3.629C443.079,717.027,443.073,717.347,443.039,717.651"/>
<path fill="none" d="M459.03,711.563c-0.411-0.205-0.822-0.386-1.261-0.506c-0.424-0.117-0.948-0.179-1.579-0.179
	c-1.167,0-2.076,0.411-2.72,1.229c-0.646,0.813-0.969,2.028-0.969,3.621v10.779h-3.734v-18.858h3.734v1.798
	c0.425-0.624,1.021-1.144,1.765-1.555c0.764-0.418,1.6-0.637,2.548-0.637c0.756,0,1.396,0.073,1.878,0.192
	c0.49,0.14,0.937,0.338,1.319,0.597L459.03,711.563z"/>
<path fill="none" d="M465.027,707.647h3.735v18.854h-3.735V707.647z M468.57,704.496c-0.465,0.464-1.015,0.696-1.665,0.696
	c-0.677,0-1.247-0.232-1.712-0.696c-0.464-0.465-0.696-1.016-0.696-1.665c0-0.67,0.232-1.241,0.696-1.719
	c0.465-0.458,1.035-0.689,1.712-0.689c0.65,0,1.2,0.231,1.665,0.689c0.458,0.478,0.696,1.049,0.696,1.719
	C469.266,703.48,469.028,704.031,468.57,704.496"/>
<path fill="none" d="M487.298,713.061c-0.771-0.787-1.521-1.371-2.249-1.736c-0.73-0.378-1.515-0.559-2.355-0.559
	c-1.354,0-2.435,0.559-3.225,1.672c-0.789,1.114-1.188,2.642-1.188,4.57c0,0.942,0.102,1.798,0.299,2.574
	c0.182,0.77,0.458,1.446,0.855,2.01c0.385,0.564,0.856,1.002,1.413,1.313c0.571,0.313,1.221,0.465,1.964,0.465
	c0.883,0,1.632-0.199,2.242-0.597c0.608-0.398,1.287-0.971,2.03-1.745l2.366,2.342c-0.355,0.478-0.749,0.929-1.181,1.347
	c-0.431,0.418-0.922,0.789-1.466,1.114c-0.537,0.325-1.144,0.571-1.806,0.764c-0.678,0.188-1.438,0.298-2.31,0.298
	c-1.146,0-2.223-0.243-3.204-0.701c-0.995-0.466-1.852-1.128-2.581-1.979c-0.743-0.854-1.313-1.864-1.736-3.072
	c-0.411-1.198-0.623-2.54-0.623-4.02c0-1.546,0.212-2.946,0.644-4.167c0.431-1.221,1.015-2.255,1.765-3.098
	c0.736-0.855,1.625-1.508,2.62-1.957c1.011-0.438,2.083-0.65,3.237-0.65c1.387,0,2.627,0.259,3.722,0.796
	c1.088,0.544,2.07,1.341,2.959,2.389L487.298,713.061z"/>
<path fill="none" d="M505.469,718.454c-0.505-0.259-1.097-0.458-1.785-0.61c-0.684-0.14-1.521-0.219-2.527-0.219
	c-1.201,0-2.143,0.259-2.846,0.75c-0.69,0.511-1.035,1.193-1.035,2.05c0,0.941,0.299,1.698,0.896,2.275
	c0.604,0.568,1.52,0.854,2.731,0.854c1.002,0,1.904-0.245,2.713-0.749c0.797-0.498,1.413-1.056,1.847-1.65v-2.7H505.469z
	 M505.469,726.501v-1.864c-0.646,0.646-1.42,1.188-2.305,1.605c-0.889,0.438-1.844,0.664-2.879,0.664
	c-0.763,0-1.53-0.119-2.32-0.347c-0.771-0.23-1.475-0.604-2.098-1.102c-0.615-0.498-1.128-1.161-1.524-1.978
	c-0.386-0.811-0.59-1.8-0.59-2.938c0-1.055,0.196-1.964,0.568-2.733c0.397-0.763,0.922-1.397,1.585-1.891
	c0.679-0.518,1.469-0.889,2.369-1.128c0.915-0.232,1.903-0.358,2.979-0.358c1.729,0,3.131,0.239,4.206,0.719v-1.399
	c0-1.021-0.308-1.812-0.924-2.369c-0.608-0.55-1.484-0.821-2.634-0.821c-0.98,0-1.856,0.101-2.634,0.284
	c-0.783,0.188-1.54,0.498-2.282,0.896l-1.438-2.8c0.907-0.544,1.885-0.97,2.904-1.262c1.035-0.271,2.225-0.418,3.563-0.418
	c2.097,0,3.813,0.523,5.115,1.561c1.3,1.048,1.949,2.627,1.949,4.764v12.923h-3.614v-0.008H505.469z"/>
<path fill="#CC0000" d="M211.318,631.089c0-55.428-45.829-100.368-102.352-100.368c-56.523,0-102.332,44.939-102.332,100.368
	c0,69.446,101.403,154.317,101.403,154.317S211.318,697.689,211.318,631.089"/>
<path fill="#AA0000" d="M211.318,631.089c0-28.706-12.293-54.592-31.981-72.882l-71.297,227.2
	C108.037,785.406,211.318,697.689,211.318,631.089"/>
<path fill="#000000" d="M285.533,572.291c-0.851-0.657-2.03-0.982-3.522-0.982h-8.797v8.571h8.797c3.191,0,4.797-1.438,4.797-4.332
	C286.801,574.022,286.383,572.928,285.533,572.291 M285.972,598.263l-5.991-12.066h-6.771v12.066h-6.647v-33.516h15.61
	c1.559,0,3.045,0.212,4.451,0.644c1.398,0.432,2.634,1.096,3.688,1.99c1.049,0.889,1.878,2.003,2.495,3.331
	c0.604,1.32,0.908,2.873,0.908,4.664c0,2.521-0.53,4.584-1.605,6.196c-1.065,1.611-2.68,2.839-4.81,3.662l6.415,13.028H285.972z"/>
<polygon fill="#000000" points="302.185,598.263 302.185,564.748 325.409,564.748 325.409,571.302 308.839,571.302 308.839,577.047 
	318.456,577.047 318.456,583.608 308.839,583.608 308.839,591.709 326.134,591.709 326.134,598.263 "/>
<path fill="#000000" d="M352.651,573.856c-1.578-1.705-4.14-2.555-7.695-2.555H341.4v20.407h3.313c1.765,0,3.29-0.252,4.598-0.743
	c1.287-0.491,2.348-1.188,3.184-2.069c0.836-0.896,1.453-1.971,1.878-3.225c0.411-1.254,0.624-2.641,0.624-4.167
	C354.997,578.109,354.217,575.563,352.651,573.856 M360.433,589.095c-0.978,2.117-2.271,3.861-3.881,5.215
	c-1.612,1.36-3.45,2.362-5.507,2.999c-2.063,0.631-4.159,0.955-6.304,0.955h-9.998v-33.516h10.482c2.388,0,4.604,0.292,6.634,0.876
	c2.023,0.597,3.774,1.559,5.27,2.906c1.484,1.34,2.651,3.064,3.496,5.193c0.85,2.116,1.261,4.718,1.261,7.782
	C361.893,584.444,361.402,586.972,360.433,589.095"/>
<polygon fill="#000000" points="405.811,598.263 405.811,584.192 392.018,584.192 392.018,598.263 385.358,598.263 385.358,564.748 
	392.018,564.748 392.018,577.625 405.811,577.625 405.811,564.748 412.464,564.748 412.464,598.263 "/>
<path fill="#000000" d="M437.8,578.341c-0.358-0.98-0.689-1.942-0.988-2.873c-0.299-0.929-0.53-1.705-0.689-2.342
	c-0.151,0.637-0.392,1.413-0.688,2.342c-0.305,0.93-0.63,1.892-0.981,2.873l-2.147,6.09h7.654L437.8,578.341z M444.886,598.263
	l-2.628-7.47h-12.272l-2.628,7.47h-7.185l12.831-33.516h6.515l12.737,33.516H444.886z"/>
<polygon fill="#000000" points="469.496,571.309 469.496,598.27 462.844,598.27 462.844,571.309 453.211,571.309 453.211,564.748 
	479.122,564.748 479.122,571.309 "/>
<polygon fill="#000000" points="280.346,628.15 280.346,640.702 300.553,640.702 300.553,653.824 280.346,653.824 280.346,682.066 
	267.037,682.066 267.037,615.028 314.923,615.028 314.923,628.15 "/>
<path fill="#000000" d="M363.656,632.84c-2.933-3.702-6.771-5.553-11.482-5.553c-4.726,0-8.498,1.818-11.353,5.454
	c-2.84,3.642-4.266,8.883-4.266,15.716c0,6.826,1.473,12.093,4.411,15.809c2.926,3.702,6.768,5.547,11.482,5.547
	c4.736,0,8.505-1.816,11.353-5.452c2.846-3.645,4.266-8.871,4.266-15.709C368.069,641.81,366.61,636.549,363.656,632.84
	 M379.703,663.014c-1.434,4.271-3.457,7.896-6.084,10.872c-2.619,2.966-5.736,5.248-9.381,6.841c-3.642,1.587-7.629,2.4-11.968,2.4
	c-4.411,0-8.425-0.789-12.027-2.354c-3.614-1.555-6.707-3.828-9.288-6.802c-2.594-2.959-4.598-6.567-6.035-10.819
	c-1.428-4.239-2.156-9.083-2.156-14.509c0-5.42,0.729-10.275,2.156-14.562c1.438-4.272,3.463-7.895,6.09-10.867
	c2.612-2.965,5.746-5.248,9.381-6.846c3.643-1.6,7.656-2.389,12.062-2.389c4.347,0,8.325,0.775,11.937,2.342
	c3.603,1.565,6.707,3.828,9.281,6.8c2.594,2.965,4.598,6.574,6.028,10.82c1.439,4.252,2.163,9.082,2.163,14.516
	C381.872,653.884,381.145,658.733,379.703,663.014"/>
<path fill="#000000" d="M436.215,630.101c-1.705-1.3-4.047-1.957-7.065-1.957h-17.581v17.149h17.581
	c6.408,0,9.612-2.893,9.612-8.671C438.762,633.577,437.906,631.401,436.215,630.101 M437.09,682.066l-11.994-24.129h-13.533v24.129
	H398.24v-67.04h31.229c3.124,0,6.097,0.431,8.901,1.293c2.813,0.862,5.273,2.188,7.377,3.974c2.104,1.785,3.764,4.007,4.982,6.661
	c1.221,2.646,1.812,5.758,1.812,9.334c0,5.042-1.063,9.182-3.196,12.399c-2.145,3.23-5.354,5.665-9.626,7.323l12.83,26.053H437.09
	V682.066z"/>
<path fill="#000000" d="M515.108,675.127c-4.783,5.34-11.45,8.007-19.979,8.007c-4.021,0-7.696-0.677-11.048-2.021
	c-3.344-1.334-6.201-3.306-8.559-5.892c-2.354-2.588-4.186-5.76-5.493-9.535c-1.307-3.761-1.957-8.104-1.957-13.021v-37.636h13.311
	v37.449c0,5.428,1.214,9.706,3.653,12.831c2.437,3.132,5.799,4.689,10.093,4.689c4.283,0,7.66-1.521,10.13-4.59
	c2.468-3.065,3.709-7.318,3.709-12.738v-37.636h13.308v37.45C522.273,662.243,519.878,669.799,515.108,675.127"/>
<path fill="#000000" d="M591.322,682.066V657.46c0-0.896,0.026-2.043,0.062-3.457c0.02-1.399,0.039-2.833,0.039-4.306
	c0-1.466,0.021-2.839,0.054-4.113c0.026-1.281,0.046-2.243,0.046-2.879c-0.518,1.28-1.2,2.972-2.063,5.075
	c-0.869,2.108-1.754,4.12-2.647,6.037l-13.633,29.78l-13.567-29.78c-0.896-1.917-1.765-3.929-2.627-6.037
	c-0.854-2.104-1.532-3.795-2.05-5.075c0,0.637,0.014,1.599,0.047,2.879c0.033,1.273,0.053,2.647,0.053,4.113
	c0,1.473,0.016,2.906,0.048,4.306c0.025,1.413,0.047,2.562,0.047,3.457v24.606H542.01v-67.04h12.923l13.945,30.357
	c0.449,0.962,0.896,1.964,1.34,3.02c0.442,1.055,0.876,2.096,1.287,3.118c0.411,1.021,0.796,1.977,1.152,2.865
	c0.347,0.896,0.617,1.625,0.812,2.209c0.431-1.28,1.081-2.985,1.924-5.128c0.829-2.143,1.691-4.167,2.587-6.083l13.541-30.357
	h13.122v67.039H591.322L591.322,682.066z"/>
<path fill="#000000" d="M91.446,570.241l-26.362,58.016l76.77-20.115L91.446,570.241z M62.049,633.172l-2.335-2.76l29.137-64.093
	l3.012-0.771l55.694,41.868l-0.688,3.523L62.049,633.172z"/>
<path fill="#FFFFFF" d="M65.446,632.283l58.487,57.412l19.656-77.886L65.446,632.283z M123.62,694.982l-63.481-62.314l0.896-3.35
	l84.815-22.231l2.428,2.415l-21.32,84.54L123.62,694.982z"/>
<path fill="#FFFFFF" d="M101.031,572.443l44.607,33.542l8.545-17.104L101.031,572.443z M145.149,610.609l-55.688-41.868l1.785-3.502
	l66.348,20.525l1.208,2.793l-10.661,21.35L145.149,610.609z"/>
<path fill="#FFFFFF" d="M50.022,615.983l10.935,11.722l22.41-49.318L50.022,615.983z M60.078,632.602l-14.21-15.225l-0.033-2.694
	l43.334-48.859l3.304,2.148l-29.123,64.1L60.078,632.602z"/>
<path fill="#FFFFFF" d="M63.529,684.155l55.913,6.721l-55.913-54.871V684.155z M124.788,695.533l-63.489-7.623l-1.751-1.983v-54.678
	l3.39-1.42l63.489,62.313L124.788,695.533z"/>
<path fill="#FFFFFF" d="M147.185,613.88l-18.874,74.8l46.127-33.721L147.185,613.88z M126.201,695.162l-3.125-2.09l21.336-84.539
	l3.596-0.617l30.809,46.433l-0.489,2.707L126.201,695.162z"/>
<path fill="#FFFFFF" d="M148.645,608.878l22.795,34.353l-14.898-50.147L148.645,608.878z M175.493,656.551l-30.812-46.432
	l-0.119-1.99l10.647-21.349l3.702,0.317l20.146,67.781L175.493,656.551z"/>
<path fill="#FFFFFF" d="M50.692,622.544l8.856,43.546v-34.053L50.692,622.544z M59.581,686.325l-14.216-69.91l3.423-1.758
	l14.204,15.231l0.535,1.354v54.69L59.581,686.325z"/>
</svg>
