<svg xmlns:svg="http://www.w3.org/2000/svg"
	 xmlns="http://www.w3.org/2000/svg" xmlns:xlink="http://www.w3.org/1999/xlink" viewBox="-0.501 736.568 45.15 55.931" xml:space="preserve">
<path fill="#CC0000" d="M44.148,758.716c0-11.955-9.885-21.648-22.076-21.648S0,746.761,0,758.716C0,773.694,21.872,792,21.872,792
	S44.148,773.08,44.148,758.716"/>
<path fill="#AA0000" d="M44.148,758.716c0-6.191-2.652-11.774-6.898-15.72L21.872,792C21.872,792,44.148,773.08,44.148,758.716"/>
<path fill="#FFFFFF" d="M18.293,745.592l-5.686,12.514l16.559-4.339L18.293,745.592z M11.953,759.165l-0.504-0.596l6.285-13.823
	l0.649-0.167l12.013,9.031l-0.148,0.76L11.953,759.165z"/>
<path fill="#FFFFFF" d="M12.685,758.974L25.3,771.356l4.24-16.799L12.685,758.974z M25.232,772.497l-13.692-13.44l0.193-0.723
	l18.293-4.795l0.523,0.521l-4.598,18.234L25.232,772.497z"/>
<path fill="#FFFFFF" d="M20.36,746.066l9.621,7.234l1.843-3.688L20.36,746.066z M29.876,754.299l-12.011-9.03l0.385-0.756
	l14.31,4.427l0.261,0.603l-2.299,4.605L29.876,754.299z"/>
<path fill="#FFFFFF" d="M9.358,755.458l2.358,2.528l4.833-10.638L9.358,755.458z M11.527,759.042l-3.065-3.283l-0.007-0.581
	l9.346-10.539l0.713,0.464l-6.282,13.825L11.527,759.042z"/>
<path fill="#FFFFFF" d="M12.271,770.161l12.06,1.45l-12.06-11.835V770.161z M25.484,772.615l-13.694-1.644l-0.377-0.428V758.75
	l0.731-0.306l13.694,13.439L25.484,772.615z"/>
<path fill="#FFFFFF" d="M30.315,755.004l-4.071,16.134l9.949-7.273L30.315,755.004z M25.789,772.535l-0.674-0.45l4.602-18.234
	l0.776-0.133l6.645,10.015l-0.105,0.584L25.789,772.535z"/>
<path fill="#FFFFFF" d="M30.63,753.925l4.917,7.41l-3.213-10.816L30.63,753.925z M36.421,764.208l-6.646-10.015l-0.025-0.43
	l2.296-4.604l0.798,0.068l4.345,14.619L36.421,764.208z"/>
<path fill="#FFFFFF" d="M9.503,756.873l1.91,9.392v-7.345L9.503,756.873z M11.42,770.63l-3.066-15.079l0.738-0.379l3.063,3.285
	l0.115,0.292v11.796L11.42,770.63z"/>
</svg>
