<svg xmlns:svg="http://www.w3.org/2000/svg"
	 xmlns="http://www.w3.org/2000/svg" xmlns:xlink="http://www.w3.org/1999/xlink" viewBox="0 288.5 612 208" xml:space="preserve">
<path id="shadowman-face" fill="#FFFFFF" d="M186.523,444.816c-3.611-0.828-7.439-1.351-11.313-1.351
	c-6.624,0-12.652,1.146-17.098,2.999c-0.489,0.242-0.839,0.756-0.839,1.337c0,0.214,0.052,0.428,0.135,0.611
	c0.525,1.521-0.338,3.172-4.642,4.118c-6.38,1.401-10.406,7.986-12.709,10.172c-2.707,2.57-10.352,4.146-9.201,2.614
	c0.9-1.194,4.338-4.931,6.432-8.968c1.872-3.609,3.538-4.636,5.834-8.08c0.672-1.008,3.283-4.555,4.044-7.363
	c0.851-2.736,0.563-6.178,0.892-7.591c0.469-2.045,2.396-6.473,2.541-8.974c0.077-1.415-5.907,2.019-8.749,2.019
	c-2.843,0-5.609-1.704-8.149-1.825c-3.143-0.146-5.162,2.427-8.006,1.976c-1.623-0.26-2.992-1.692-5.828-1.796
	c-4.041-0.148-8.976,2.247-18.249,1.947c-9.12-0.298-17.544-11.528-18.693-13.314c-1.349-2.093-2.994-2.093-4.786-0.445
	c-1.796,1.643-4.007,0.35-4.639-0.754c-1.196-2.091-4.394-8.207-9.348-9.492c-6.852-1.775-10.32,3.791-9.868,8.223
	c0.456,4.498,3.363,5.76,4.711,8.149c1.345,2.393,2.033,3.932,4.567,4.99c1.794,0.753,2.463,1.856,1.929,3.332
	c-0.47,1.283-2.338,1.577-3.564,1.638c-2.61,0.13-4.439-0.585-5.774-1.435c-1.551-0.994-2.814-2.366-4.168-4.697
	c-1.566-2.574-4.035-3.696-6.912-3.696c-1.368,0-2.652,0.361-3.792,0.948c-4.507,2.349-9.869,3.735-15.645,3.735h-6.513
	c12.488,37.043,47.514,63.716,88.771,63.716c32.956,0,61.938-17.016,78.63-42.75V444.816z"/>
<path id="registered" fill="#FFFFFF" d="M206.206,439.501c0,2.607-2.12,4.73-4.732,4.73s-4.736-2.123-4.736-4.73
	c0-2.614,2.124-4.735,4.736-4.735S206.206,436.887,206.206,439.501z M201.472,435.603c-2.152,0-3.898,1.745-3.898,3.901
	c0,2.146,1.746,3.883,3.898,3.883c2.148,0,3.893-1.736,3.893-3.883C205.365,437.347,203.621,435.603,201.472,435.603z
	 M200.606,439.816h0.843l1.276,2.093h0.82l-1.381-2.133c0.716-0.09,1.258-0.462,1.258-1.322c0-0.96-0.565-1.376-1.705-1.376h-1.842
	v4.83h0.73V439.816L200.606,439.816z M200.606,439.195v-1.499h0.997c0.507,0,1.054,0.116,1.054,0.71c0,0.74-0.549,0.789-1.174,0.789
	H200.606z"/>
<g id="use23721" transform="translate(302.547,0.09637)">
	<path id="registered_1_" d="M597.662,439.626c0,2.607-2.121,4.73-4.733,4.73s-4.735-2.123-4.735-4.73
		c0-2.615,2.123-4.735,4.735-4.735S597.662,437.011,597.662,439.626z M592.928,435.728c-2.153,0-3.898,1.745-3.898,3.901
		c0,2.146,1.745,3.883,3.898,3.883c2.148,0,3.893-1.736,3.893-3.883C596.821,437.472,595.077,435.728,592.928,435.728z
		 M592.061,439.941h0.844l1.276,2.093h0.82l-1.381-2.133c0.716-0.091,1.258-0.462,1.258-1.322c0-0.96-0.565-1.377-1.706-1.377
		h-1.841v4.83h0.729V439.941z M592.061,439.32v-1.499h0.998c0.507,0,1.053,0.116,1.053,0.71c0,0.74-0.548,0.789-1.173,0.789H592.061
		z"/>
</g>
<path id="path8455" d="M565.737,364.991v14.152h18.303v5.152h-18.303v41.738c0,8.166,2.533,13.282,9.432,13.282
	c3.309,0,5.65-0.435,7.297-1.006l0.768,4.917c-2.071,0.871-4.984,1.544-8.862,1.544c-4.687,0-8.572-1.476-11.081-4.554
	c-2.907-3.373-3.903-8.762-3.903-15.314v-40.609H548.55v-5.152h10.836v-11.808L565.737,364.991z M540.444,428.111
	c0,5.078,0.206,10.335,0.936,15.253h-5.849l-0.934-9.201h-0.302c-3.11,4.948-10.267,10.664-20.475,10.664
	c-12.922,0-18.934-9.089-18.934-17.651c0-14.822,13.083-23.753,39.206-23.477v-1.717c0-6.353-1.234-19.022-16.423-18.924
	c-5.619,0-11.476,1.505-16.12,4.786l-2.022-4.619c5.867-3.976,13.032-5.548,18.84-5.548c18.529,0,22.076,13.91,22.076,25.387
	V428.111L540.444,428.111z M534.093,409.042c-13.983-0.402-32.446,1.716-32.446,17.134c0,9.228,6.091,13.377,12.781,13.377
	c10.7,0,16.785-6.626,19.002-12.878c0.462-1.369,0.663-2.747,0.663-3.847V409.042z M461.137,377.674
	c-4.886,0-9.263,1.409-12.941,3.68c-3.817,2.237-6.925,5.688-8.771,9.263h-0.259v-30.031l-6.352-1.876v84.655h6.352v-39.271
	c0-2.61,0.207-4.42,0.864-6.328c2.744-7.988,10.271-14.542,19.369-14.542c13.146,0,17.698,10.542,17.698,22.105v38.036h6.347
	v-38.735C483.445,380.711,467.224,377.674,461.137,377.674L461.137,377.674z M402.022,415.541c0,1.701-0.13,3.285-0.493,4.733
	c-1.633,7.021-7.375,11.546-14.011,11.546c-10.216,0-16.06-8.611-16.06-20.401c0-11.906,5.792-21.119,16.245-21.119
	c7.294,0,12.519,5.143,13.951,11.393c0.277,1.314,0.367,2.936,0.367,4.232V415.541z M418.237,354.489l-16.218-4.575v36.192h-0.268
	c-2.87-4.741-9.196-8.358-17.979-8.358c-15.432,0-28.865,12.768-28.768,34.265c0,19.723,12.136,32.792,27.458,32.792
	c9.259,0,17-4.413,20.835-11.601h0.287l0.728,10.16h14.456c-0.299-4.361-0.534-11.429-0.534-17.996v-70.879H418.237z
	 M304.836,415.647c0.43,11.627,9.429,16.713,19.82,16.713c7.46,0,12.8-1.169,17.706-2.97l2.4,11.162
	c-5.488,2.33-13.109,4.068-22.42,4.068c-20.838,0-33.043-12.866-33.043-32.527c0-17.708,10.741-34.467,31.383-34.467
	c20.863,0,27.655,17.161,27.655,31.205c0,3.016-0.271,5.436-0.577,6.932L304.836,415.647L304.836,415.647z M333.055,404.346
	c0.077-5.947-2.513-15.635-13.38-15.635c-9.991,0-14.141,9.061-14.871,15.635H333.055z M249.296,399.819
	c0-8.59-0.187-14.908-0.526-20.623h14.049l0.602,12.188h0.459c3.16-9.034,10.641-13.637,17.565-13.637
	c1.587,0,2.508,0.064,3.807,0.349v15.283c-1.518-0.299-2.938-0.462-4.888-0.462c-7.732,0-13.097,4.918-14.546,12.273
	c-0.274,1.432-0.418,3.146-0.418,4.895v33.277h-16.235l0.129-43.544H249.296z"/>
<path id="path23724" d="M128.523,436.23c0.481,0.468,1.311,2.053,0.296,4.056c-0.569,1.063-1.183,1.811-2.277,2.686
	c-1.316,1.058-3.895,2.274-7.425,0.038c-1.897-1.204-2.013-1.609-4.637-1.271c-1.872,0.247-2.617-1.643-1.945-3.218
	c0.675-1.565,3.442-2.836,6.882-0.818c1.549,0.906,3.961,2.83,6.073,1.128c0.875-0.703,1.398-1.169,2.615-2.577
	c0.052-0.052,0.133-0.091,0.218-0.091c0.077,0,0.146,0.025,0.2,0.077V436.23z M186.523,444.821
	c-3.611-0.833-7.439-1.351-11.313-1.351c-6.624,0-12.652,1.149-17.098,2.997c-0.491,0.245-0.839,0.757-0.839,1.339
	c0,0.211,0.052,0.431,0.135,0.608c0.525,1.523-0.338,3.178-4.642,4.122c-6.38,1.399-10.406,7.981-12.709,10.171
	c-2.707,2.567-10.352,4.149-9.201,2.617c0.9-1.198,4.338-4.934,6.432-8.973c1.872-3.606,3.538-4.635,5.834-8.075
	c0.672-1.012,3.283-4.56,4.044-7.364c0.851-2.742,0.563-6.177,0.892-7.596c0.469-2.039,2.396-6.469,2.541-8.969
	c0.077-1.413-5.907,2.014-8.749,2.014c-2.843,0-5.609-1.698-8.149-1.821c-3.143-0.151-5.162,2.423-8.006,1.974
	c-1.623-0.26-2.992-1.688-5.828-1.796c-4.041-0.15-8.976,2.245-18.249,1.947c-9.12-0.293-17.544-11.523-18.693-13.311
	c-1.349-2.097-2.994-2.097-4.786-0.447c-1.796,1.639-4.007,0.35-4.639-0.753c-1.196-2.093-4.394-8.212-9.348-9.493
	c-6.852-1.779-10.32,3.793-9.868,8.221c0.456,4.496,3.363,5.758,4.711,8.148c1.345,2.394,2.033,3.94,4.567,4.999
	c1.794,0.744,2.463,1.854,1.929,3.328c-0.47,1.282-2.338,1.577-3.564,1.638c-2.61,0.13-4.439-0.585-5.774-1.439
	c-1.551-0.986-2.814-2.36-4.168-4.694c-1.566-2.573-4.035-3.694-6.912-3.694c-1.368,0-2.652,0.363-3.792,0.948
	c-4.507,2.344-9.869,3.735-15.645,3.735H19.12c-3.17-9.398-4.888-19.467-4.888-29.938c0-51.729,41.935-93.659,93.66-93.659
	c51.728,0,93.657,41.93,93.657,93.659C201.55,412.684,196.031,430.161,186.523,444.821L186.523,444.821z"/>
<path id="path23726" fill="#CC0000" d="M100.605,344.851c-10.818,0.782-11.939,1.95-13.967,4.108
	c-2.858,3.043-6.622-3.948-6.622-3.948c-2.258-0.476-4.996-4.119-3.521-7.519c1.456-3.364,4.145-2.355,4.985-1.308
	c1.025,1.275,3.213,3.363,6.053,3.286c2.839-0.078,6.115-0.67,10.684-0.67c4.631,0,7.744,1.729,7.919,3.215
	C106.284,343.281,105.761,344.477,100.605,344.851z M111.971,326.975c-0.025,0-0.038,0.001-0.052,0.001
	c-0.166,0-0.303-0.129-0.303-0.284c0-0.116,0.065-0.212,0.171-0.259c2.101-1.104,5.228-1.988,8.809-2.354
	c1.075-0.104,2.126-0.167,3.137-0.173c0.178,0,0.354,0,0.534,0c6.004,0.136,10.808,2.522,10.738,5.328
	c-0.078,2.809-4.993,4.975-10.998,4.842c-1.942-0.039-3.767-0.329-5.337-0.781c-0.186-0.052-0.32-0.206-0.32-0.394
	s0.138-0.348,0.324-0.396c3.745-0.867,6.273-2.282,6.095-3.62c-0.235-1.774-5.133-2.74-10.942-2.157
	c-0.638,0.064-1.256,0.148-1.856,0.243L111.971,326.975z M160.746,368.992c-0.928,3.113-2.241,7.092-8.099,10.097
	c-0.854,0.438-1.179-0.279-0.785-0.953c2.214-3.764,2.607-4.706,3.25-6.19c0.899-2.171,1.372-5.261-0.419-11.701
	c-3.521-12.677-10.87-29.619-16.212-35.116c-5.153-5.306-14.493-6.795-22.936-4.632c-3.109,0.797-9.19,3.96-20.47,1.42
	c-19.522-4.396-22.417,5.379-23.533,9.636c-1.123,4.259-3.812,16.362-3.812,16.362c-0.896,4.931-2.071,13.501,28.241,19.276
	c14.121,2.688,14.839,6.337,15.462,8.961c1.123,4.705,2.912,7.397,4.932,8.744c2.016,1.347,0,2.461-2.239,2.688
	c-6.014,0.625-28.241-5.75-41.391-13.222c-10.761-6.574-10.938-12.495-8.477-17.516c-16.25-1.758-28.448,1.523-30.658,9.216
	c-3.795,13.203,29.028,35.757,66.404,47.075c39.224,11.875,79.564,3.582,84.051-21.071
	C186.091,380.867,176.656,372.581,160.746,368.992z"/>
</svg>
