<?xml version="1.0" encoding="utf-8"?>
<!-- Generator: Adobe Illustrator 18.0.0, SVG Export Plug-In . SVG Version: 6.00 Build 0)  -->
<!DOCTYPE svg PUBLIC "-//W3C//DTD SVG 1.1//EN" "http://www.w3.org/Graphics/SVG/1.1/DTD/svg11.dtd">
<svg version="1.1"
	 id="svg3070" sodipodi:docname="New document 4" inkscape:version="0.48.0 r9654" xmlns:svg="http://www.w3.org/2000/svg" xmlns:cc="http://creativecommons.org/ns#" xmlns:rdf="http://www.w3.org/1999/02/22-rdf-syntax-ns#" xmlns:dc="http://purl.org/dc/elements/1.1/" xmlns:sodipodi="http://sodipodi.sourceforge.net/DTD/sodipodi-0.dtd" xmlns:inkscape="http://www.inkscape.org/namespaces/inkscape"
	 xmlns="http://www.w3.org/2000/svg" xmlns:xlink="http://www.w3.org/1999/xlink" x="0px" y="0px" viewBox="0 0 266.9 266.9"
	 enable-background="new 0 0 266.9 266.9" xml:space="preserve">
<sodipodi:namedview  id="base" showgrid="false" fit-margin-left="0" inkscape:cy="33.703355" fit-margin-top="0" bordercolor="#666666" inkscape:zoom="2.8" borderopacity="1.0" inkscape:cx="142.93233" pagecolor="#ffffff" inkscape:window-x="-8" inkscape:window-y="-8" fit-margin-bottom="0" inkscape:window-width="1280" inkscape:current-layer="layer1" inkscape:window-height="750" inkscape:document-units="px" inkscape:window-maximized="1" inkscape:pageshadow="2" fit-margin-right="0" inkscape:pageopacity="0.0">
	</sodipodi:namedview>
<g>
	<path id="path14" inkscape:connector-curvature="0" fill="#006699" d="M4.6,22.3c0-10.3,8.5-18.6,19-18.6h219.6
		c10.5,0,19,8.3,19,18.6v222.2c0,10.3-8.5,18.6-19,18.6H23.6c-10.5,0-19-8.3-19-18.6V22.3z"/>
	<path id="path28" inkscape:connector-curvature="0" fill="#FFFFFF" d="M82.7,220.9V103.8H43.8v117.1H82.7z M63.2,87.8
		c13.6,0,22-9,22-20.2C85,56,76.8,47.3,63.5,47.3c-13.3,0-22,8.7-22,20.2c0,11.2,8.4,20.2,21.5,20.2H63.2L63.2,87.8z"/>
	<path id="path30" inkscape:connector-curvature="0" fill="#FFFFFF" d="M104.2,220.9h38.9v-65.4c0-3.5,0.3-7,1.3-9.5
		c2.8-7,9.2-14.2,20-14.2c14.1,0,19.7,10.7,19.7,26.5v62.7h38.9v-67.2c0-36-19.2-52.7-44.8-52.7c-21,0-30.2,11.7-35.3,19.7h0.3v-17
		h-38.9C104.8,114.8,104.2,220.9,104.2,220.9L104.2,220.9z"/>
</g>
</svg>
