<?xml version="1.0" encoding="utf-8"?>
<!-- Generator: Adobe Illustrator 18.0.0, SVG Export Plug-In . SVG Version: 6.00 Build 0)  -->
<!DOCTYPE svg PUBLIC "-//W3C//DTD SVG 1.1//EN" "http://www.w3.org/Graphics/SVG/1.1/DTD/svg11.dtd">
<svg version="1.1"
	 id="svg2" sodipodi:docname="Twitter_bird_logo_2012.svg" inkscape:version="0.48.4 r9939" xmlns:svg="http://www.w3.org/2000/svg" xmlns:cc="http://creativecommons.org/ns#" xmlns:rdf="http://www.w3.org/1999/02/22-rdf-syntax-ns#" xmlns:dc="http://purl.org/dc/elements/1.1/" xmlns:sodipodi="http://sodipodi.sourceforge.net/DTD/sodipodi-0.dtd" xmlns:inkscape="http://www.inkscape.org/namespaces/inkscape"
	 xmlns="http://www.w3.org/2000/svg" xmlns:xlink="http://www.w3.org/1999/xlink" x="0px" y="0px" viewBox="0 0 266.9 266.9"
	 enable-background="new 0 0 266.9 266.9" xml:space="preserve">
<sodipodi:namedview  id="base" showgrid="false" fit-margin-left="0" inkscape:cy="50.181142" fit-margin-top="0" bordercolor="#666666" inkscape:zoom="3.7200571" borderopacity="1.0" inkscape:cx="101.29413" pagecolor="#ffffff" inkscape:window-x="-8" inkscape:window-y="-8" fit-margin-bottom="0" inkscape:window-width="1280" inkscape:current-layer="layer1" inkscape:window-height="962" inkscape:document-units="px" inkscape:window-maximized="1" inkscape:pageshadow="2" fit-margin-right="0" inkscape:pageopacity="0.0">
	</sodipodi:namedview>
<g>
	<path id="path14" inkscape:connector-curvature="0" fill="#2AA9E0" d="M4.6,22.3c0-10.3,8.5-18.6,19-18.6h219.6
		c10.5,0,19,8.3,19,18.6v222.2c0,10.3-8.5,18.6-19,18.6H23.6c-10.5,0-19-8.3-19-18.6V22.3z"/>
	<g id="layer1" transform="translate(-282.32053,-396.30734)" inkscape:label="Layer 1" inkscape:groupmode="layer">
		<path id="path5" inkscape:connector-curvature="0" fill="#FFFFFF" d="M499.1,478.1c-6.1,2.7-12.7,4.6-19.6,5.4
			c7.1-4.2,12.5-10.9,15-18.9c-6.6,3.9-13.9,6.8-21.7,8.3c-6.2-6.6-15.1-10.8-25-10.8c-18.9,0-34.2,15.3-34.2,34.2
			c0,2.7,0.3,5.3,0.9,7.8c-28.4-1.4-53.6-15-70.5-35.7c-2.9,5-4.6,10.9-4.6,17.2c0,11.9,6,22.3,15.2,28.5
			c-5.6-0.2-10.9-1.7-15.5-4.3c0,0.1,0,0.3,0,0.4c0,16.6,11.8,30.4,27.4,33.5c-2.9,0.8-5.9,1.2-9,1.2c-2.2,0-4.3-0.2-6.4-0.6
			c4.4,13.6,17,23.5,31.9,23.7c-11.7,9.2-26.4,14.6-42.5,14.6c-2.8,0-5.5-0.2-8.2-0.5c15.1,9.7,33.1,15.4,52.4,15.4
			c62.9,0,97.3-52.1,97.3-97.3c0-1.5,0-3-0.1-4.4C488.7,490.9,494.5,484.9,499.1,478.1L499.1,478.1z"/>
	</g>
</g>
</svg>
