<?xml version="1.0" encoding="utf-8"?>
<!-- Generator: Adobe Illustrator 18.0.0, SVG Export Plug-In . SVG Version: 6.00 Build 0)  -->
<!DOCTYPE svg PUBLIC "-//W3C//DTD SVG 1.1//EN" "http://www.w3.org/Graphics/SVG/1.1/DTD/svg11.dtd">
<svg version="1.1"
	 id="svg2" xmlns:sodipodi="http://sodipodi.sourceforge.net/DTD/sodipodi-0.dtd" xmlns:dc="http://purl.org/dc/elements/1.1/" xmlns:rdf="http://www.w3.org/1999/02/22-rdf-syntax-ns#" xmlns:cc="http://creativecommons.org/ns#" xmlns:svg="http://www.w3.org/2000/svg" sodipodi:docname="Twitter_bird_logo_2012.svg" inkscape:version="0.48.4 r9939" xmlns:inkscape="http://www.inkscape.org/namespaces/inkscape"
	 xmlns="http://www.w3.org/2000/svg" xmlns:xlink="http://www.w3.org/1999/xlink" x="0px" y="0px" viewBox="132.4 1.9 135.1 136.1"
	 enable-background="new 132.4 1.9 135.1 136.1" xml:space="preserve">
<sodipodi:namedview  id="base" showgrid="false" fit-margin-left="0" inkscape:cy="50.181142" fit-margin-top="0" bordercolor="#666666" inkscape:zoom="3.7200571" borderopacity="1.0" inkscape:cx="101.29413" pagecolor="#ffffff" inkscape:window-width="1280" inkscape:pageshadow="2" inkscape:pageopacity="0.0" fit-margin-bottom="0" fit-margin-right="0" inkscape:document-units="px" inkscape:window-y="-8" inkscape:window-maximized="1" inkscape:current-layer="layer1" inkscape:window-height="962" inkscape:window-x="-8">
	</sodipodi:namedview>
<g>
	<path id="path14" inkscape:connector-curvature="0" fill="#57595B" d="M132.4,11.7c0-5.4,4.5-9.8,10-9.8h115.2c5.5,0,10,4.4,10,9.8
		v116.6c0,5.4-4.5,9.8-10,9.8H142.4c-5.5,0-10-4.4-10-9.8C132.4,128.3,132.4,11.7,132.4,11.7z"/>
</g>
<g id="layer1" transform="translate(-282.32053,-396.30734)" inkscape:label="Layer 1" inkscape:groupmode="layer">
	<path id="path5" inkscape:connector-curvature="0" fill="#FFFFFF" d="M526,439.2c-3.2,1.4-6.7,2.4-10.3,2.8
		c3.7-2.2,6.6-5.7,7.9-9.9c-3.5,2-7.3,3.6-11.4,4.4c-3.3-3.5-7.9-5.7-13.1-5.7c-9.9,0-17.9,8-17.9,17.9c0,1.4,0.2,2.8,0.5,4.1
		c-14.9-0.7-28.1-7.9-37-18.7c-1.5,2.6-2.4,5.7-2.4,9c0,6.2,3.1,11.7,8,14.9c-2.9-0.1-5.7-0.9-8.1-2.3c0,0.1,0,0.2,0,0.2
		c0,8.7,6.2,15.9,14.4,17.6c-1.5,0.4-3.1,0.6-4.7,0.6c-1.2,0-2.3-0.1-3.4-0.3c2.3,7.1,8.9,12.3,16.7,12.4
		c-6.1,4.8-13.8,7.7-22.3,7.7c-1.5,0-2.9-0.1-4.3-0.3c7.9,5.1,17.4,8.1,27.5,8.1c33,0,51-27.3,51-51c0-0.8,0-1.6-0.1-2.3
		C520.6,445.9,523.6,442.8,526,439.2L526,439.2z"/>
</g>
</svg>
