<?xml version="1.0" encoding="utf-8"?>
<!-- Generator: Adobe Illustrator 15.1.0, SVG Export Plug-In . SVG Version: 6.00 Build 0)  -->
<!DOCTYPE svg PUBLIC "-//W3C//DTD SVG 1.1//EN" "http://www.w3.org/Graphics/SVG/1.1/DTD/svg11.dtd">
<svg version="1.1" id="Layer_1" xmlns="http://www.w3.org/2000/svg" xmlns:xlink="http://www.w3.org/1999/xlink" x="0px" y="0px"
	 width="1451.34px" height="1451.34px" viewBox="0 0 1451.34 1451.34" enable-background="new 0 0 1451.34 1451.34"
	 xml:space="preserve">
<g>
	<path fill="#DD1927" d="M1308.739,571.99c0-315.795-261.073-571.831-583.124-571.831c-322.016,0-583.015,256.036-583.015,571.831
		c0,395.653,577.735,879.192,577.735,879.192S1308.739,951.439,1308.739,571.99"/>
	<path fill="#BB1720" d="M1308.739,571.99c0-163.556-70.02-311.034-182.23-415.255L720.336,1451.182
		C720.336,1451.182,1308.739,951.439,1308.739,571.99"/>
	<path fill="#FFFFFF" d="M625.807,225.299L475.613,555.84l437.401-114.61L625.807,225.299z M458.303,583.875l-13.288-15.725
		l165.99-365.163l17.164-4.375l317.289,238.539l-3.951,20.062L458.303,583.875z"/>
	<path fill="#FFFFFF" d="M477.682,578.78l333.235,327.109l111.988-443.75L477.682,578.78z M809.106,936.008l-361.693-355.03
		l5.093-19.084l483.244-126.66L949.593,449L828.116,930.693L809.106,936.008z"/>
	<path fill="#FFFFFF" d="M680.396,237.849l254.137,191.108l48.686-97.445L680.396,237.849z M931.764,455.311L614.513,216.773
		l10.148-19.97l378.009,116.954l6.866,15.91l-60.758,121.623L931.764,455.311z"/>
	<path fill="#FFFFFF" d="M389.794,485.912l62.308,66.79l127.676-280.985L389.794,485.912z M447.081,580.625l-80.947-86.741
		l-0.185-15.337l246.901-278.386l18.824,12.256l-165.916,365.2L447.081,580.625z"/>
	<path fill="#FFFFFF" d="M466.755,874.367l318.546,38.24L466.755,599.969V874.367z M815.752,939.182l-361.73-43.48l-9.967-11.295
		V572.875l19.305-8.084l361.731,354.977L815.752,939.182z"/>
	<path fill="#FFFFFF" d="M943.353,473.953L835.832,900.129l262.809-192.14L943.353,473.953z M823.836,937.043l-17.791-11.961
		l121.549-481.618l20.484-3.526l175.514,264.544l-2.805,15.429L823.836,937.043z"/>
	<path fill="#FFFFFF" d="M951.695,445.437l129.854,195.725l-84.895-285.714L951.695,445.437z M1104.656,717.05L929.143,452.507
		l-0.665-11.332l60.683-121.642l21.076,1.827l114.796,386.167L1104.656,717.05z"/>
	<path fill="#FFFFFF" d="M393.596,523.303l50.459,248.117V577.396L393.596,523.303z M444.276,886.695l-81.021-398.311l19.489-10.022
		l80.908,86.798l3.064,7.695v311.55L444.276,886.695z"/>
</g>
</svg>
