<svg xmlns="http://www.w3.org/2000/svg" xmlns:xlink="http://www.w3.org/1999/xlink" viewBox="0 0 137.872 137.838" xml:space="preserve">
<polygon fill="#cc0000" points="0,137.841 137.872,-0.002 0,-0.002 "/>
<path id="path4380_2_" display="none" opacity="0.9" fill="#D6826B" enable-background="new    " d="M-0.106,462.763h132.2V330.544
	L-0.106,462.763z"/>
<path id="t-pattern_1_" display="none" fill="none" stroke="#E8B4A2" stroke-width="0.625" stroke-linecap="square" stroke-miterlimit="10" d="
	M3.404,459.063h2.797v-2.799 M2.005,460.461h5.549v-5.596 M0.653,461.859h8.299v-8.395 M14.454,456.264v2.801h2.751 M13.056,454.865
	v5.596h5.548 M11.75,453.467v8.395h8.253 M10.352,462.326v-10.258 M14.454,447.871h2.751v-2.797 M13.056,449.27h5.548v-5.594
	 M11.75,450.67h8.253v-8.393 M28.303,456.264h-2.752v2.801 M29.701,454.865h-5.549v5.596 M31.1,453.467h-8.299v8.395
	 M25.551,445.074v2.797h2.752 M24.152,443.676v5.594h5.549 M22.754,442.277v8.393h8.253 M17.252,459.063v-2.799h-2.705
	 M18.604,460.461v-5.596h-5.548 M20.003,461.859v-8.395H11.75 M21.402,462.326v-21.449 M32.498,452.068H10.352 M25.551,436.867
	h2.752v-2.703 M24.152,438.08h5.549v-5.316 M22.801,439.479H31.1v-8.064 M39.399,445.074h-2.704v2.797 M40.752,443.676h-5.549v5.594
	 M42.15,442.277h-8.253v8.393 M36.602,434.164v2.703h2.752 M35.203,432.764v5.316h5.549 M33.897,431.365v8.111h8.253 M28.35,447.871
	v-2.797h-2.752 M29.701,449.27v-5.594h-5.549 M31.1,450.67v-8.393h-8.299 M32.498,452.068v-22.104 M43.549,440.877H21.402
	 M36.695,425.771h2.704v-2.754 M35.297,427.17h5.502v-5.549 M33.897,428.568h8.253v-8.3 M50.496,434.07h-2.75v2.75 M51.896,432.672
	h-5.549v5.408 M53.295,431.273h-8.301v8.203 M47.746,423.02v2.754h2.75 M46.347,421.621v5.549h5.549 M44.948,420.224v8.251h8.3
	 M39.399,436.82v-2.797h-2.704 M40.799,438.08v-5.408h-5.502 M42.197,439.479v-8.111h-8.253 M43.596,440.877v-22.053
	 M54.646,429.967H32.498 M47.746,414.722h2.75v-2.705 M46.347,416.071h5.549v-5.549 M44.948,417.472h8.3v-8.253 M61.547,423.02
	h-2.704v2.754 M62.945,421.621h-5.502v5.549 M64.345,420.224h-8.253v8.251 M58.843,411.922v2.752h2.704 M57.443,410.522v5.549h5.502
	 M50.496,425.771v-2.754h-2.75 M51.896,427.17v-5.549h-5.549 M53.295,428.568v-8.3h-8.301 M72.645,411.922h-2.751v2.752
	 M74.043,410.522h-5.549v5.549 M75.441,409.125h-8.299v8.299 M69.894,400.873v2.75h2.751 M68.494,399.474v5.549h5.549
	 M67.096,398.074v8.254h8.299 M61.547,414.674v-2.752h-2.704 M62.945,416.071v-5.549h-5.502 M64.345,417.472v-8.253h-8.3v8.253
	h8.254 M65.744,418.824v-22.148 M76.793,407.819H54.646 M70.034,392.479h2.704v-2.797 M68.635,393.832h5.502v-5.549 M67.236,395.229
	h8.252v-8.299 M83.834,400.731h-2.75v2.75 M85.233,399.334h-5.548v5.549 M86.586,398.026h-8.301v8.255 M81.038,389.683v2.75h2.75
	 M79.686,388.33v5.548h5.548 M78.286,386.931v8.299h8.301 M72.738,403.528v-2.702h-2.704 M74.137,404.883v-5.549h-5.502
	 M75.536,406.281v-8.255h-8.252 M76.887,407.681v-22.147 M87.984,396.629H65.837 M81.038,381.382h2.75v-2.704 M79.686,382.781h5.548
	v-5.503 M78.286,384.133h8.301v-8.299 M94.885,389.683h-2.704v2.75 M96.284,388.33h-5.502v5.548 M97.637,386.931h-8.254v8.299
	 M92.088,378.584v2.751h2.75 M90.782,377.278v5.503h5.502 M89.383,375.833v8.299h8.254 M83.834,392.479v-2.797h-2.75
	 M85.233,393.832v-5.549h-5.548 M86.586,395.229v-8.299h-8.301 M87.984,396.629v-22.194 M99.036,385.532H76.887 M92.181,370.332
	h2.704v-2.751 M90.782,371.638h5.502v-5.503 M89.383,373.036h8.254v-8.253 M105.982,378.584h-2.751v2.751 M107.381,377.187h-5.549
	v5.549 M108.733,375.833h-8.3v8.299 M103.185,367.534v2.705h2.751 M101.833,366.183v5.549h5.549 M100.434,364.783v8.252h8.3
	 M94.885,381.382v-2.705h-2.704 M96.284,382.733v-5.549h-5.502 M97.683,384.133v-8.299H89.43 M99.036,385.532v-22.147
	 M110.133,374.435H87.984 M103.277,359.142h2.752v-2.752 M101.973,360.54h5.502v-5.549 M100.575,361.847h8.252v-8.254
	 M117.172,367.394h-2.75v2.752 M118.525,366.042h-5.549v5.548 M119.924,364.644h-8.301v8.299 M114.375,356.39v2.752h2.75
	 M112.977,354.991v5.549h5.549 M111.624,353.593v8.254h8.301 M106.077,370.192v-2.752h-2.705 M107.428,371.59v-5.548h-5.549
	 M108.827,372.942v-8.299h-8.252 M110.226,374.341v-22.146 M121.322,363.244H99.174 M114.375,348.044h2.75v-2.751 M112.977,349.442
	h5.549v-5.549 M111.624,350.842h8.301v-8.253 M128.223,356.39h-2.703v2.752 M129.575,354.991h-5.548v5.549 M130.975,353.593h-8.254
	v8.254 M125.426,345.293v2.751h2.751 M124.027,343.894v5.549h5.548 M122.721,342.496v8.299h8.254 M117.172,359.142v-2.752h-2.75
	 M118.525,360.54v-5.549h-5.549 M119.924,361.847v-8.254h-8.301 M121.322,363.244v-22.147 M132.374,352.194h-22.146
	 M125.426,336.994h2.751v-2.751 M124.12,338.392h5.502v-5.548 M122.721,339.698h8.254v-8.254 M128.223,348.044v-2.751h-2.703
	 M129.622,349.442v-5.549h-5.502 M130.975,350.795v-8.299h-8.254 M132.374,352.194v-22.147 M132.374,341.097h-11.052
	 M54.646,429.967v-22.147 M65.697,418.869H43.549 M58.843,403.623h2.704v-2.75 M57.443,405.021h5.502v-5.549 M56.045,406.42h8.254
	v-8.299"/>
<g display="none">
	<g display="inline">
		<g>
			<defs>
				<polygon id="SVGID_1_" points="0.046,137.749 137.826,0 0.046,0 				"/>
			</defs>
			<clipPath id="SVGID_2_">
				<use xlink:href="#SVGID_1_"  overflow="visible"/>
			</clipPath>
			<g clip-path="url(#SVGID_2_)">
				<g>
					<rect x="-26.299" y="136.571" fill="#B4111A" width="27.432" height="0.5"/>
					<rect x="-12.834" y="123.106" fill="#B4111A" width="0.5" height="27.43"/>
					<polygon fill="#B4111A" points="-11.12,124.819 -10.62,124.819 -10.62,134.856 -0.583,134.856 -0.583,135.356 -11.12,135.356 
											"/>
					<polygon fill="#B4111A" points="-8.907,126.534 -8.905,133.144 -2.297,133.144 -2.297,133.644 -9.405,133.644 -9.407,126.534 
											"/>
					<polygon fill="#B4111A" points="-7.69,128.247 -7.19,128.247 -7.19,131.427 -4.011,131.427 -4.011,131.927 -7.69,131.927 					
						"/>
					<polygon fill="#B4111A" points="-24.584,138.286 -14.047,138.286 -14.047,148.823 -14.547,148.823 -14.547,138.786 
						-24.584,138.786 					"/>
					<polygon fill="#B4111A" points="-22.87,139.997 -15.761,139.997 -15.762,147.108 -16.262,147.108 -16.261,140.497 
						-22.87,140.497 					"/>
					<polygon fill="#B4111A" points="-17.477,141.712 -17.477,145.394 -17.977,145.394 -17.977,142.212 -21.157,142.214 
						-21.157,141.714 					"/>
					<polygon fill="#B4111A" points="-14.547,124.819 -14.047,124.819 -14.047,135.356 -24.584,135.356 -24.584,134.856 
						-14.547,134.856 					"/>
					<polygon fill="#B4111A" points="-16.262,126.534 -15.762,126.534 -15.762,133.644 -22.87,133.642 -22.87,133.142 
						-16.262,133.144 					"/>
					<polygon fill="#B4111A" points="-17.977,128.247 -17.477,128.247 -17.477,131.927 -21.157,131.927 -21.157,131.427 
						-17.977,131.427 					"/>
					<polygon fill="#B4111A" points="-11.12,138.286 -0.583,138.286 -0.583,138.786 -10.62,138.786 -10.62,148.823 -11.12,148.823 
											"/>
					<polygon fill="#B4111A" points="-9.405,139.997 -2.297,139.999 -2.297,140.499 -8.905,140.497 -8.903,147.108 -9.403,147.108 
											"/>
					<polygon fill="#B4111A" points="-7.69,141.714 -4.011,141.714 -4.011,142.214 -7.19,142.214 -7.19,145.394 -7.69,145.394 					
						"/>
					<rect x="-12.565" y="122.835" fill="#B4111A" width="27.436" height="0.5"/>
					<rect x="0.904" y="109.368" fill="#B4111A" width="0.5" height="27.433"/>
					<polygon fill="#B4111A" points="2.617,111.083 3.117,111.083 3.117,121.12 13.154,121.12 13.154,121.62 2.617,121.62 					"/>
					<polygon fill="#B4111A" points="4.332,112.798 4.832,112.798 4.832,119.405 11.439,119.405 11.439,119.905 4.332,119.905 					
						"/>
					<polygon fill="#B4111A" points="6.044,114.513 6.544,114.513 6.544,117.691 9.724,117.69 9.724,118.19 6.044,118.192 					"/>
					<polygon fill="#B4111A" points="-10.85,124.55 -0.313,124.55 -0.313,135.085 -0.813,135.085 -0.813,125.05 -10.85,125.05 					
						"/>
					<polygon fill="#B4111A" points="-9.133,126.264 -2.028,126.265 -2.028,133.37 -2.528,133.37 -2.528,126.765 -9.133,126.764 
											"/>
					<polygon fill="#B4111A" points="-7.42,127.979 -3.741,127.979 -3.741,131.657 -4.241,131.657 -4.241,128.479 -7.42,128.479 
											"/>
					<polygon fill="#B4111A" points="-0.813,111.083 -0.313,111.083 -0.313,121.62 -10.85,121.62 -10.85,121.12 -0.813,121.12 					
						"/>
					<polygon fill="#B4111A" points="-2.526,112.798 -2.026,112.798 -2.026,119.905 -9.134,119.907 -9.134,119.407 -2.526,119.405 
											"/>
					<polygon fill="#B4111A" points="-4.241,114.513 -3.741,114.513 -3.741,118.19 -7.42,118.192 -7.42,117.691 -4.241,117.69 					
						"/>
					<polygon fill="#B4111A" points="2.617,124.55 13.154,124.55 13.154,125.05 3.117,125.05 3.117,135.085 2.617,135.085 					"/>
					<polygon fill="#B4111A" points="4.332,126.263 11.439,126.264 11.439,126.764 4.832,126.763 4.832,133.372 4.332,133.372 					
						"/>
					<polygon fill="#B4111A" points="6.044,127.979 9.724,127.979 9.724,128.479 6.544,128.479 6.544,131.657 6.044,131.657 					
						"/>
					<rect x="1.154" y="109.119" fill="#B4111A" width="27.428" height="0.5"/>
					<rect x="14.619" y="95.652" fill="#B4111A" width="0.5" height="27.433"/>
					<polygon fill="#B4111A" points="16.832,97.37 16.832,107.404 26.871,107.404 26.871,107.904 16.332,107.904 16.332,97.37 					
						"/>
					<polygon fill="#B4111A" points="18.544,99.083 18.546,105.69 25.154,105.691 25.154,106.191 18.046,106.19 18.044,99.083 					
						"/>
					<polygon fill="#B4111A" points="19.761,100.798 20.261,100.798 20.261,103.976 23.441,103.976 23.441,104.476 19.761,104.476 
											"/>
					<polygon fill="#B4111A" points="2.867,110.833 13.404,110.833 13.404,121.37 12.904,121.37 12.904,111.333 2.867,111.333 					
						"/>
					<polygon fill="#B4111A" points="4.582,112.548 11.689,112.548 11.689,119.655 11.189,119.655 11.189,113.048 4.582,113.048 
											"/>
					<polygon fill="#B4111A" points="6.294,114.263 9.974,114.263 9.974,117.94 9.474,117.94 9.474,114.763 6.294,114.763 					"/>
					<polygon fill="#B4111A" points="12.904,97.37 13.404,97.37 13.404,107.904 2.867,107.904 2.867,107.404 12.904,107.404 					
						"/>
					<polygon fill="#B4111A" points="11.189,99.083 11.689,99.083 11.689,106.191 4.582,106.188 4.582,105.688 11.189,105.691 					
						"/>
					<polygon fill="#B4111A" points="9.474,100.796 9.974,100.796 9.974,104.476 6.294,104.476 6.294,103.976 9.474,103.976 					
						"/>
					<polygon fill="#B4111A" points="16.332,110.833 26.871,110.833 26.871,111.333 16.832,111.333 16.832,121.37 16.332,121.37 
											"/>
					<polygon fill="#B4111A" points="18.044,112.548 25.155,112.548 25.155,113.048 18.544,113.048 18.548,119.655 18.048,119.655 
											"/>
					<polygon fill="#B4111A" points="19.761,114.263 23.441,114.263 23.441,114.763 20.261,114.763 20.261,117.941 19.761,117.941 
											"/>
				</g>
				<g>
					<rect x="14.996" y="95.274" fill="#B4111A" width="27.432" height="0.5"/>
					<rect x="28.462" y="81.809" fill="#B4111A" width="0.5" height="27.432"/>
					<polygon fill="#B4111A" points="30.177,83.524 30.677,83.524 30.677,93.56 40.712,93.56 40.712,94.06 30.177,94.06 					"/>
					<polygon fill="#B4111A" points="31.892,85.237 32.392,85.237 32.392,91.846 39,91.846 39,92.346 31.892,92.346 					"/>
					<polygon fill="#B4111A" points="33.605,86.952 34.105,86.952 34.105,90.13 37.287,90.13 37.287,90.63 33.605,90.63 					"/>
					<polygon fill="#B4111A" points="16.71,96.988 27.248,96.988 27.248,107.524 26.748,107.524 26.748,97.488 16.71,97.488 					
						"/>
					<polygon fill="#B4111A" points="18.427,98.702 25.537,98.702 25.535,105.811 25.035,105.811 25.037,99.202 18.427,99.202 					
						"/>
					<polygon fill="#B4111A" points="20.14,100.417 23.819,100.417 23.819,104.097 23.319,104.097 23.319,100.917 20.14,100.917 
											"/>
					<polygon fill="#B4111A" points="26.748,83.523 27.248,83.523 27.248,94.06 16.71,94.06 16.71,93.56 26.748,93.56 					"/>
					<polygon fill="#B4111A" points="25.035,85.236 25.535,85.236 25.535,92.346 18.427,92.345 18.427,91.845 25.035,91.846 					
						"/>
					<polygon fill="#B4111A" points="23.319,86.952 23.819,86.952 23.819,90.63 20.14,90.63 20.14,90.13 23.319,90.13 					"/>
					<polygon fill="#B4111A" points="30.177,96.989 40.712,96.989 40.712,97.489 30.677,97.489 30.677,107.524 30.177,107.524 					
						"/>
					<polygon fill="#B4111A" points="31.892,98.702 39,98.704 39,99.204 32.392,99.202 32.392,105.812 31.892,105.812 					"/>
					<polygon fill="#B4111A" points="33.605,100.417 37.287,100.417 37.287,100.917 34.105,100.917 34.105,104.097 33.605,104.097 
											"/>
					<rect x="28.734" y="81.538" fill="#B4111A" width="27.432" height="0.5"/>
					<rect x="42.201" y="68.071" fill="#B4111A" width="0.5" height="27.432"/>
					<polygon fill="#B4111A" points="43.912,69.786 44.412,69.786 44.412,79.825 54.451,79.825 54.451,80.325 43.912,80.325 					
						"/>
					<polygon fill="#B4111A" points="45.628,71.501 46.128,71.501 46.128,78.108 52.737,78.108 52.737,78.608 45.628,78.608 					
						"/>
					<polygon fill="#B4111A" points="47.341,73.216 47.841,73.216 47.841,76.396 51.021,76.396 51.021,76.896 47.341,76.896 					
						"/>
					<polygon fill="#B4111A" points="30.448,83.251 40.984,83.253 40.984,93.79 40.484,93.79 40.484,83.753 30.448,83.751 					"/>
					<polygon fill="#B4111A" points="32.162,84.968 39.269,84.968 39.269,92.075 38.769,92.075 38.769,85.468 32.162,85.468 					
						"/>
					<polygon fill="#B4111A" points="33.876,86.683 37.554,86.683 37.554,90.36 37.054,90.36 37.054,87.183 33.876,87.183 					"/>
					<polygon fill="#B4111A" points="40.484,69.788 40.984,69.788 40.984,80.325 30.448,80.325 30.448,79.825 40.484,79.825 					
						"/>
					<polygon fill="#B4111A" points="38.771,71.501 39.271,71.501 39.269,78.608 32.162,78.608 32.162,78.108 38.769,78.108 					
						"/>
					<polygon fill="#B4111A" points="37.054,73.216 37.554,73.216 37.554,76.896 33.876,76.896 33.876,76.396 37.054,76.396 					
						"/>
					<polygon fill="#B4111A" points="43.912,83.251 54.451,83.253 54.451,83.753 44.412,83.751 44.412,93.79 43.912,93.79 					"/>
					<polygon fill="#B4111A" points="45.628,84.967 52.737,84.967 52.737,85.467 46.128,85.467 46.128,92.075 45.628,92.075 					
						"/>
					<polygon fill="#B4111A" points="47.341,86.683 51.021,86.683 51.021,87.183 47.841,87.183 47.841,90.36 47.341,90.36 					"/>
					<rect x="42.449" y="67.821" fill="#B4111A" width="27.43" height="0.5"/>
					<rect x="55.914" y="54.358" fill="#B4111A" width="0.5" height="27.43"/>
					<polygon fill="#B4111A" points="58.126,56.071 58.128,66.108 68.166,66.108 68.166,66.608 57.628,66.608 57.626,56.071 					
						"/>
					<polygon fill="#B4111A" points="59.841,57.786 59.843,64.394 66.451,64.394 66.451,64.894 59.343,64.894 59.341,57.786 					
						"/>
					<polygon fill="#B4111A" points="61.058,59.501 61.558,59.501 61.558,62.681 64.737,62.68 64.737,63.18 61.058,63.181 					"/>
					<polygon fill="#B4111A" points="44.162,69.536 54.701,69.538 54.701,80.075 54.201,80.075 54.201,70.038 44.162,70.036 					
						"/>
					<polygon fill="#B4111A" points="45.878,71.251 52.987,71.251 52.987,78.358 52.487,78.358 52.487,71.751 45.878,71.751 					
						"/>
					<polygon fill="#B4111A" points="47.591,72.966 51.271,72.966 51.271,76.646 50.771,76.646 50.771,73.466 47.591,73.466 					
						"/>
					<polygon fill="#B4111A" points="54.201,56.071 54.701,56.071 54.701,66.608 44.162,66.608 44.162,66.108 54.201,66.108 					
						"/>
					<polygon fill="#B4111A" points="52.485,57.786 52.985,57.786 52.985,64.894 45.878,64.894 45.878,64.394 52.485,64.394 					
						"/>
					<polygon fill="#B4111A" points="50.771,59.499 51.271,59.499 51.271,63.18 47.591,63.18 47.591,62.68 50.771,62.68 					"/>
					<polygon fill="#B4111A" points="57.628,69.538 68.166,69.538 68.166,70.038 58.128,70.038 58.128,80.075 57.628,80.075 					
						"/>
					<polygon fill="#B4111A" points="59.341,71.251 66.453,71.251 66.453,71.751 59.841,71.751 59.843,78.358 59.343,78.358 					
						"/>
					<polygon fill="#B4111A" points="61.058,72.966 64.737,72.966 64.737,73.466 61.558,73.466 61.558,76.646 61.058,76.646 					
						"/>
				</g>
				<g>
					<rect x="56.294" y="53.978" fill="#B4111A" width="27.431" height="0.5"/>
					<rect x="69.759" y="40.512" fill="#B4111A" width="0.5" height="27.431"/>
					<polygon fill="#B4111A" points="71.474,42.228 71.974,42.228 71.974,52.264 82.009,52.264 82.009,52.764 71.474,52.764 					
						"/>
					<polygon fill="#B4111A" points="73.188,43.942 73.688,43.942 73.688,50.55 80.294,50.55 80.294,51.05 73.188,51.05 					"/>
					<polygon fill="#B4111A" points="74.902,45.657 75.402,45.657 75.402,48.835 78.582,48.835 78.582,49.335 74.902,49.335 					
						"/>
					<polygon fill="#B4111A" points="58.007,55.692 68.542,55.692 68.542,66.229 68.042,66.229 68.042,56.192 58.007,56.192 					
						"/>
					<polygon fill="#B4111A" points="59.722,57.407 66.832,57.407 66.832,64.514 66.332,64.514 66.332,57.907 59.722,57.907 					
						"/>
					<polygon fill="#B4111A" points="61.435,59.122 65.117,59.122 65.116,62.801 64.616,62.801 64.617,59.622 61.435,59.622 					
						"/>
					<polygon fill="#B4111A" points="68.042,42.228 68.542,42.228 68.542,52.764 58.007,52.763 58.007,52.263 68.042,52.264 					
						"/>
					<polygon fill="#B4111A" points="66.332,43.942 66.832,43.942 66.83,51.05 59.722,51.048 59.722,50.548 66.33,50.55 					"/>
					<polygon fill="#B4111A" points="64.616,45.657 65.116,45.657 65.116,49.335 61.435,49.335 61.435,48.835 64.616,48.835 					
						"/>
					<polygon fill="#B4111A" points="71.474,55.692 82.009,55.692 82.009,56.192 71.974,56.192 71.974,66.229 71.474,66.229 					
						"/>
					<polygon fill="#B4111A" points="73.188,57.407 80.296,57.407 80.296,57.907 73.688,57.907 73.689,64.514 73.189,64.514 					
						"/>
					<polygon fill="#B4111A" points="74.902,59.122 78.582,59.122 78.582,59.622 75.402,59.622 75.402,62.801 74.902,62.801 					
						"/>
					<rect x="70.029" y="40.241" fill="#B4111A" width="27.432" height="0.5"/>
					<rect x="83.496" y="26.774" fill="#B4111A" width="0.5" height="27.432"/>
					<polygon fill="#B4111A" points="85.209,28.489 85.709,28.489 85.708,38.528 95.746,38.528 95.746,39.028 85.208,39.028 					
						"/>
					<polygon fill="#B4111A" points="86.925,30.205 87.425,30.205 87.425,36.813 94.033,36.813 94.033,37.313 86.925,37.313 					
						"/>
					<polygon fill="#B4111A" points="88.64,31.919 89.14,31.919 89.138,35.099 92.318,35.099 92.318,35.599 88.638,35.599 					"/>
					<polygon fill="#B4111A" points="71.744,41.956 82.28,41.956 82.28,52.493 81.78,52.493 81.78,42.456 71.744,42.456 					"/>
					<polygon fill="#B4111A" points="73.458,43.669 80.565,43.671 80.565,50.778 80.065,50.778 80.065,44.171 73.458,44.169 					
						"/>
					<polygon fill="#B4111A" points="75.171,45.386 78.851,45.386 78.851,49.065 78.351,49.065 78.351,45.886 75.171,45.886 					
						"/>
					<polygon fill="#B4111A" points="82.28,28.491 82.282,39.028 71.744,39.028 71.744,38.528 81.782,38.528 81.78,28.491 					"/>
					<polygon fill="#B4111A" points="80.066,30.205 80.566,30.205 80.566,37.313 73.458,37.313 73.458,36.813 80.066,36.813 					
						"/>
					<polygon fill="#B4111A" points="78.351,31.919 78.851,31.919 78.851,35.599 75.171,35.599 75.171,35.099 78.351,35.099 					
						"/>
					<polygon fill="#B4111A" points="85.208,41.956 95.746,41.956 95.746,42.456 85.708,42.456 85.708,52.495 85.208,52.495 					
						"/>
					<polygon fill="#B4111A" points="86.925,43.669 94.033,43.669 94.033,44.169 87.425,44.169 87.423,50.78 86.923,50.78 					"/>
					<polygon fill="#B4111A" points="88.638,45.385 92.318,45.386 92.318,45.886 89.138,45.885 89.138,49.065 88.638,49.065 					
						"/>
					<rect x="83.747" y="26.526" fill="#B4111A" width="27.429" height="0.5"/>
					<rect x="97.21" y="13.062" fill="#B4111A" width="0.5" height="27.43"/>
					<polygon fill="#B4111A" points="98.925,14.774 99.425,14.774 99.425,24.813 109.46,24.813 109.46,25.313 98.925,25.313 					
						"/>
					<polygon fill="#B4111A" points="100.64,16.489 101.14,16.489 101.14,23.099 107.747,23.099 107.747,23.599 100.64,23.599 					
						"/>
					<polygon fill="#B4111A" points="102.354,18.205 102.854,18.205 102.854,21.385 106.034,21.385 106.034,21.885 102.354,21.885 
											"/>
					<polygon fill="#B4111A" points="85.459,28.239 95.997,28.241 95.996,38.778 95.496,38.778 95.497,28.741 85.459,28.739 					
						"/>
					<polygon fill="#B4111A" points="87.175,29.955 94.283,29.955 94.283,37.063 93.783,37.063 93.783,30.455 87.175,30.455 					
						"/>
					<polygon fill="#B4111A" points="88.89,31.669 92.568,31.669 92.568,35.349 92.068,35.349 92.068,32.169 88.89,32.169 					"/>
					<polygon fill="#B4111A" points="95.497,14.774 95.997,14.774 95.997,25.313 85.459,25.313 85.459,24.813 95.497,24.813 					
						"/>
					<polygon fill="#B4111A" points="93.782,16.489 94.282,16.489 94.282,23.599 87.175,23.597 87.175,23.097 93.782,23.099 					
						"/>
					<polygon fill="#B4111A" points="92.068,18.205 92.568,18.205 92.568,21.883 88.888,21.883 88.888,21.383 92.068,21.383 					
						"/>
					<polygon fill="#B4111A" points="98.925,28.241 109.461,28.241 109.461,28.741 99.425,28.741 99.425,38.778 98.925,38.778 					
						"/>
					<polygon fill="#B4111A" points="100.64,29.955 107.748,29.955 107.748,30.455 101.14,30.455 101.141,37.063 100.641,37.063 
											"/>
					<polygon fill="#B4111A" points="102.354,31.67 106.034,31.67 106.034,32.17 102.854,32.17 102.854,35.349 102.354,35.349 					
						"/>
				</g>
				<g>
					<rect x="97.521" y="12.75" fill="#B4111A" width="27.432" height="0.5"/>
					<rect x="110.987" y="-0.716" fill="#B4111A" width="0.5" height="27.431"/>
					<polygon fill="#B4111A" points="112.703,0.999 113.203,0.999 113.203,11.036 123.237,11.036 123.237,11.536 112.703,11.536 
											"/>
					<polygon fill="#B4111A" points="114.417,2.713 114.917,2.713 114.917,9.321 121.523,9.321 121.523,9.821 114.417,9.821 					
						"/>
					<polygon fill="#B4111A" points="116.132,4.428 116.632,4.428 116.632,7.606 119.809,7.606 119.809,8.106 116.132,8.106 					
						"/>
					<polygon fill="#B4111A" points="99.237,14.465 109.773,14.465 109.773,25 109.273,25 109.273,14.965 99.237,14.965 					"/>
					<polygon fill="#B4111A" points="100.951,16.179 108.058,16.179 108.058,23.286 107.558,23.286 107.558,16.679 100.951,16.679 
											"/>
					<polygon fill="#B4111A" points="102.667,17.894 106.345,17.894 106.345,21.571 105.845,21.571 105.845,18.394 102.667,18.394 
											"/>
					<polygon fill="#B4111A" points="109.273,0.999 109.773,0.999 109.773,11.536 99.237,11.534 99.237,11.034 109.273,11.036 					
						"/>
					<polygon fill="#B4111A" points="107.558,2.713 108.058,2.713 108.058,9.821 100.951,9.819 100.951,9.319 107.558,9.321 					
						"/>
					<polygon fill="#B4111A" points="105.844,4.428 106.344,4.428 106.344,8.106 102.667,8.106 102.667,7.606 105.844,7.606 					
						"/>
					<polygon fill="#B4111A" points="112.703,14.465 123.24,14.465 123.24,14.965 113.203,14.965 113.204,25 112.704,25 					"/>
					<polygon fill="#B4111A" points="114.417,16.179 121.523,16.179 121.523,16.679 114.917,16.679 114.917,23.286 114.417,23.286 
											"/>
					<polygon fill="#B4111A" points="116.132,17.894 119.809,17.894 119.809,18.394 116.632,18.394 116.632,21.571 116.132,21.571 
											"/>
					<rect x="111.257" y="-0.986" fill="#B4111A" width="27.432" height="0.5"/>
					<rect x="124.723" y="-14.452" fill="#B4111A" width="0.5" height="27.432"/>
					<polygon fill="#B4111A" points="126.438,-12.738 126.938,-12.738 126.938,-2.7 136.975,-2.7 136.975,-2.2 126.438,-2.2 					
						"/>
					<polygon fill="#B4111A" points="128.652,-11.022 128.653,-4.414 135.259,-4.416 135.259,-3.916 128.153,-3.914 
						128.152,-11.022 					"/>
					<polygon fill="#B4111A" points="129.869,-9.31 130.369,-9.31 130.366,-6.129 133.544,-6.129 133.544,-5.629 129.866,-5.629 
											"/>
					<polygon fill="#B4111A" points="112.973,0.728 123.509,0.729 123.507,11.265 123.007,11.265 123.009,1.229 112.973,1.228 					
						"/>
					<polygon fill="#B4111A" points="114.686,2.442 121.792,2.442 121.792,9.55 121.292,9.55 121.292,2.942 114.686,2.942 					"/>
					<polygon fill="#B4111A" points="116.402,4.157 120.08,4.157 120.08,7.837 119.58,7.837 119.58,4.657 116.402,4.657 					"/>
					<polygon fill="#B4111A" points="123.507,-12.737 123.509,-2.2 112.971,-2.2 112.971,-2.7 123.009,-2.7 123.007,-12.737 					
						"/>
					<polygon fill="#B4111A" points="121.294,-11.022 121.794,-11.022 121.794,-3.914 114.686,-3.914 114.686,-4.414 
						121.294,-4.414 					"/>
					<polygon fill="#B4111A" points="119.58,-9.31 120.08,-9.31 120.08,-5.629 116.402,-5.629 116.402,-6.129 119.58,-6.129 					
						"/>
					<polygon fill="#B4111A" points="126.438,0.728 136.974,0.729 136.974,1.229 126.938,1.228 126.937,11.266 126.437,11.266 					
						"/>
					<polygon fill="#B4111A" points="128.152,2.442 135.259,2.442 135.259,2.942 128.652,2.942 128.652,9.552 128.152,9.552 					
						"/>
					<polygon fill="#B4111A" points="129.869,4.157 133.544,4.157 133.544,4.657 130.369,4.657 130.369,7.837 129.869,7.837 					
						"/>
					<rect x="124.973" y="-14.701" fill="#B4111A" width="27.432" height="0.5"/>
					<rect x="138.439" y="-28.166" fill="#B4111A" width="0.5" height="27.43"/>
					<polygon fill="#B4111A" points="140.652,-26.453 140.653,-16.416 150.689,-16.416 150.689,-15.916 140.153,-15.916 
						140.152,-26.453 					"/>
					<polygon fill="#B4111A" points="141.869,-24.738 142.369,-24.738 142.369,-18.129 148.975,-18.129 148.975,-17.629 
						141.869,-17.629 					"/>
					<polygon fill="#B4111A" points="143.582,-23.022 144.082,-23.022 144.082,-19.845 147.259,-19.845 147.259,-19.345 
						143.582,-19.345 					"/>
					<polygon fill="#B4111A" points="126.688,-12.988 137.224,-12.987 137.225,-2.45 136.725,-2.45 136.724,-12.487 
						126.688,-12.488 					"/>
					<polygon fill="#B4111A" points="128.402,-11.272 135.509,-11.272 135.509,-4.166 135.009,-4.166 135.009,-10.772 
						128.402,-10.772 					"/>
					<polygon fill="#B4111A" points="130.119,-9.56 133.794,-9.56 133.794,-5.879 133.294,-5.879 133.294,-9.06 130.119,-9.06 					
						"/>
					<polygon fill="#B4111A" points="137.223,-26.453 137.224,-15.916 126.688,-15.916 126.688,-16.416 136.724,-16.416 
						136.723,-26.453 					"/>
					<polygon fill="#B4111A" points="135.009,-24.738 135.509,-24.738 135.509,-17.629 128.402,-17.632 128.402,-18.132 
						135.009,-18.129 					"/>
					<polygon fill="#B4111A" points="133.294,-23.022 133.794,-23.022 133.792,-19.345 130.116,-19.345 130.116,-19.845 
						133.292,-19.845 					"/>
					<polygon fill="#B4111A" points="140.152,-12.987 150.689,-12.987 150.689,-12.487 140.652,-12.487 140.654,-2.45 
						140.154,-2.45 					"/>
					<polygon fill="#B4111A" points="141.869,-11.272 148.975,-11.272 148.975,-10.772 142.369,-10.772 142.369,-4.164 
						141.869,-4.164 					"/>
					<polygon fill="#B4111A" points="143.582,-9.558 147.261,-9.558 147.261,-9.058 144.082,-9.058 144.083,-5.879 143.583,-5.879 
											"/>
				</g>
			</g>
		</g>
	</g>
</g>
<polygon display="none" fill="#E22433" points="0.046,110.781 110.823,0 83.428,0 0.046,83.386 "/>
<polygon display="none" fill="#B4111A" points="0.046,83.661 83.725,0 0.046,0 "/>
<g id="black_134_" display="none">
	<g display="inline">
		<path fill="#FFFFFF" d="M33.009,25.394h0.072l0.106,0.174h0.065l-0.113-0.179c0.058-0.006,0.104-0.037,0.104-0.107
			c0-0.078-0.049-0.117-0.143-0.117h-0.156v0.403h0.063L33.009,25.394L33.009,25.394z M33.009,25.345v-0.13h0.082
			c0.047,0,0.091,0.013,0.091,0.061c0,0.063-0.044,0.069-0.099,0.069H33.009z"/>
		<path fill="#FFFFFF" d="M33.48,25.366c0,0.218-0.177,0.396-0.396,0.396c-0.219,0-0.396-0.179-0.396-0.396
			c0-0.216,0.181-0.396,0.396-0.396C33.303,24.971,33.48,25.151,33.48,25.366z M33.083,25.041c-0.182,0-0.326,0.146-0.326,0.325
			c0,0.179,0.146,0.326,0.326,0.326c0.183,0,0.326-0.147,0.326-0.326C33.41,25.186,33.264,25.041,33.083,25.041z"/>
	</g>
	<g display="inline">
		<path d="M31.832,25.814c-0.301-0.07-0.623-0.111-0.947-0.111c-0.553,0-1.059,0.094-1.43,0.25c-0.045,0.021-0.07,0.063-0.07,0.109
			c0,0.02,0.005,0.037,0.015,0.052c0.041,0.13-0.03,0.269-0.394,0.349c-0.532,0.115-0.871,0.666-1.063,0.852
			c-0.229,0.213-0.867,0.348-0.771,0.218c0.074-0.099,0.359-0.411,0.539-0.753c0.158-0.302,0.295-0.386,0.486-0.676
			c0.059-0.084,0.274-0.381,0.34-0.616c0.072-0.229,0.049-0.518,0.074-0.634c0.039-0.173,0.201-0.542,0.211-0.755
			c0.01-0.116-0.494,0.171-0.73,0.171c-0.237,0-0.471-0.145-0.684-0.153c-0.264-0.011-0.432,0.202-0.668,0.165
			c-0.137-0.021-0.25-0.141-0.486-0.146c-0.338-0.012-0.754,0.186-1.531,0.164c-0.764-0.027-1.469-0.969-1.565-1.117
			c-0.11-0.176-0.247-0.176-0.399-0.037c-0.146,0.139-0.334,0.027-0.389-0.063c-0.1-0.175-0.367-0.688-0.781-0.795
			c-0.573-0.148-0.865,0.315-0.825,0.688c0.038,0.377,0.278,0.484,0.394,0.684c0.112,0.2,0.17,0.329,0.385,0.422
			c0.148,0.061,0.207,0.152,0.158,0.273c-0.039,0.109-0.193,0.134-0.297,0.139c-0.22,0.012-0.371-0.049-0.484-0.121
			c-0.129-0.08-0.234-0.193-0.346-0.391c-0.133-0.219-0.34-0.311-0.58-0.311c-0.113,0-0.224,0.028-0.318,0.08
			c-0.377,0.193-0.825,0.312-1.311,0.312h-0.547c-0.263-0.787-0.406-1.631-0.406-2.505c0-4.336,3.512-7.844,7.844-7.844
			c4.33,0,7.843,3.508,7.843,7.844C33.091,23.121,32.628,24.586,31.832,25.814z"/>
		<g id="logo_155_">
			<g id="white_154_">
				<path fill="#FFFFFF" d="M31.832,25.813c-0.301-0.068-0.623-0.109-0.947-0.109c-0.553,0-1.059,0.094-1.43,0.25
					c-0.045,0.02-0.07,0.063-0.07,0.109c0,0.02,0.005,0.037,0.015,0.053c0.041,0.124-0.03,0.266-0.394,0.348
					c-0.532,0.113-0.871,0.666-1.063,0.85c-0.229,0.215-0.867,0.35-0.771,0.218c0.074-0.097,0.359-0.409,0.539-0.751
					c0.158-0.302,0.295-0.386,0.486-0.676c0.059-0.084,0.274-0.381,0.34-0.616c0.072-0.229,0.049-0.518,0.074-0.634
					c0.039-0.173,0.201-0.542,0.211-0.755c0.01-0.116-0.494,0.171-0.73,0.171c-0.237,0-0.471-0.145-0.684-0.152
					c-0.264-0.012-0.432,0.201-0.668,0.164c-0.137-0.021-0.25-0.141-0.486-0.146c-0.338-0.016-0.754,0.186-1.531,0.164
					c-0.764-0.027-1.469-0.969-1.565-1.119c-0.11-0.174-0.247-0.174-0.399-0.035c-0.146,0.14-0.334,0.027-0.389-0.063
					c-0.1-0.175-0.367-0.688-0.781-0.795c-0.573-0.148-0.865,0.315-0.825,0.688c0.038,0.377,0.278,0.484,0.394,0.684
					c0.112,0.2,0.17,0.329,0.385,0.418c0.148,0.063,0.207,0.154,0.158,0.277c-0.039,0.109-0.193,0.134-0.297,0.139
					c-0.22,0.012-0.371-0.049-0.484-0.119c-0.129-0.082-0.234-0.195-0.346-0.393c-0.133-0.219-0.34-0.313-0.58-0.313
					c-0.113,0-0.224,0.03-0.318,0.082c-0.377,0.193-0.825,0.312-1.311,0.312h-0.547c1.047,3.104,3.982,5.336,7.438,5.336
					C28.007,29.393,30.433,27.969,31.832,25.813z"/>
			</g>
			<g id="black_135_">
				<g>
					<path fill="#FFFFFF" d="M33.009,25.394h0.072l0.106,0.174h0.065l-0.113-0.179c0.058-0.006,0.104-0.037,0.104-0.107
						c0-0.078-0.049-0.117-0.143-0.117h-0.156v0.403h0.063L33.009,25.394L33.009,25.394z M33.009,25.345v-0.13h0.082
						c0.047,0,0.091,0.013,0.091,0.061c0,0.063-0.044,0.069-0.099,0.069H33.009z"/>
					<path fill="#FFFFFF" d="M33.48,25.366c0,0.218-0.177,0.396-0.396,0.396c-0.219,0-0.396-0.179-0.396-0.396
						c0-0.216,0.181-0.396,0.396-0.396C33.303,24.971,33.48,25.151,33.48,25.366z M33.083,25.041c-0.182,0-0.326,0.146-0.326,0.325
						c0,0.179,0.146,0.326,0.326,0.326c0.183,0,0.326-0.147,0.326-0.326C33.41,25.186,33.264,25.041,33.083,25.041z"/>
				</g>
				<g>
					<path d="M31.832,25.814c-0.301-0.07-0.623-0.111-0.947-0.111c-0.553,0-1.059,0.094-1.43,0.25
						c-0.045,0.021-0.07,0.063-0.07,0.109c0,0.02,0.005,0.037,0.015,0.052c0.041,0.13-0.03,0.269-0.394,0.349
						c-0.532,0.115-0.871,0.666-1.063,0.852c-0.229,0.213-0.867,0.348-0.771,0.218c0.074-0.099,0.359-0.411,0.539-0.753
						c0.158-0.302,0.295-0.386,0.486-0.676c0.059-0.084,0.274-0.381,0.34-0.616c0.072-0.229,0.049-0.518,0.074-0.634
						c0.039-0.173,0.201-0.542,0.211-0.755c0.01-0.116-0.494,0.171-0.73,0.171c-0.237,0-0.471-0.145-0.684-0.153
						c-0.264-0.011-0.432,0.202-0.668,0.165c-0.137-0.021-0.25-0.141-0.486-0.146c-0.338-0.012-0.754,0.186-1.531,0.164
						c-0.764-0.027-1.469-0.969-1.565-1.117c-0.11-0.176-0.247-0.176-0.399-0.037c-0.146,0.139-0.334,0.027-0.389-0.063
						c-0.1-0.175-0.367-0.688-0.781-0.795c-0.573-0.148-0.865,0.315-0.825,0.688c0.038,0.377,0.278,0.484,0.394,0.684
						c0.112,0.2,0.17,0.329,0.385,0.422c0.148,0.061,0.207,0.152,0.158,0.273c-0.039,0.109-0.193,0.134-0.297,0.139
						c-0.22,0.012-0.371-0.049-0.484-0.121c-0.129-0.08-0.234-0.193-0.346-0.391c-0.133-0.219-0.34-0.311-0.58-0.311
						c-0.113,0-0.224,0.028-0.318,0.08c-0.377,0.193-0.825,0.312-1.311,0.312h-0.547c-0.263-0.787-0.406-1.631-0.406-2.505
						c0-4.336,3.512-7.844,7.844-7.844c4.33,0,7.843,3.508,7.843,7.844C33.091,23.121,32.628,24.586,31.832,25.814z"/>
				</g>
				<path fill="#FFFFFF" d="M37.091,22.043c0-0.718-0.019-1.248-0.047-1.727h1.178l0.053,1.021h0.037
					c0.264-0.758,0.891-1.144,1.473-1.144c0.133,0,0.209,0.003,0.315,0.029V21.5c-0.126-0.023-0.247-0.037-0.407-0.037
					c-0.646,0-1.099,0.412-1.224,1.027c-0.021,0.118-0.03,0.264-0.03,0.41v2.785h-1.361L37.091,22.043z"/>
				<path fill="#FFFFFF" d="M41.74,23.371c0.035,0.974,0.789,1.397,1.66,1.397c0.627,0,1.068-0.099,1.482-0.247l0.199,0.936
					c-0.461,0.193-1.097,0.34-1.877,0.34c-1.744,0-2.769-1.078-2.769-2.727c0-1.48,0.901-2.884,2.627-2.884
					c1.746,0,2.315,1.435,2.315,2.61c0,0.254-0.021,0.453-0.045,0.582L41.74,23.371z M44.103,22.422
					c0.008-0.498-0.21-1.311-1.119-1.311c-0.838,0-1.188,0.762-1.246,1.311H44.103z"/>
				<path fill="#FFFFFF" d="M49.88,23.361c0,0.143-0.012,0.273-0.043,0.396c-0.14,0.587-0.615,0.969-1.174,0.969
					c-0.855,0-1.347-0.725-1.347-1.709c0-1,0.487-1.768,1.36-1.768c0.611,0,1.052,0.429,1.168,0.95
					c0.023,0.11,0.033,0.247,0.033,0.355L49.88,23.361L49.88,23.361z M51.234,18.25l-1.354-0.385v3.029h-0.025
					c-0.238-0.396-0.77-0.698-1.504-0.698c-1.292,0-2.42,1.066-2.408,2.869c0,1.651,1.016,2.746,2.301,2.746
					c0.772,0,1.424-0.372,1.74-0.974h0.029l0.061,0.852h1.209c-0.023-0.361-0.047-0.958-0.047-1.505v-5.937h-0.002V18.25z"/>
				<path fill="#FFFFFF" d="M54.832,20.189c-0.412,0-0.776,0.116-1.086,0.309c-0.317,0.188-0.58,0.479-0.736,0.776h-0.02v-2.519
					l-0.529-0.155v7.09h0.529v-3.287c0-0.221,0.018-0.368,0.072-0.528c0.23-0.668,0.859-1.219,1.62-1.219
					c1.101,0,1.481,0.881,1.481,1.852v3.185h0.532V22.45C56.697,20.444,55.341,20.189,54.832,20.189z"/>
				<path fill="#FFFFFF" d="M61.468,24.416c0,0.422,0.02,0.86,0.078,1.273H61.06l-0.08-0.77h-0.023
					c-0.262,0.416-0.858,0.894-1.715,0.894c-1.08,0-1.586-0.763-1.586-1.478c0-1.244,1.098-1.991,3.285-1.967v-0.146
					c0-0.532-0.105-1.595-1.377-1.584c-0.473,0-0.963,0.126-1.354,0.399l-0.168-0.387c0.492-0.334,1.09-0.466,1.578-0.466
					c1.549,0,1.849,1.164,1.849,2.127L61.468,24.416L61.468,24.416z M60.941,22.816c-1.176-0.033-2.721,0.145-2.721,1.436
					c0,0.773,0.514,1.121,1.072,1.121c0.895,0,1.405-0.556,1.592-1.076c0.037-0.117,0.057-0.233,0.057-0.324V22.816z"/>
				<path fill="#FFFFFF" d="M63.589,19.127v1.184h1.531v0.438h-1.531v3.493c0,0.685,0.213,1.11,0.791,1.11
					c0.276,0,0.473-0.037,0.611-0.084l0.063,0.413c-0.174,0.071-0.42,0.129-0.742,0.129c-0.395,0-0.719-0.126-0.93-0.381
					c-0.242-0.282-0.323-0.735-0.323-1.285v-3.396h-0.907V20.31h0.907v-0.984L63.589,19.127z"/>
				<g>
					<path fill="#FFFFFF" d="M65.792,25.403h0.072l0.107,0.177h0.064l-0.113-0.179c0.061-0.008,0.104-0.036,0.104-0.11
						c0-0.078-0.051-0.113-0.146-0.113h-0.151v0.402h0.06L65.792,25.403L65.792,25.403z M65.792,25.354v-0.127h0.084
						c0.043,0,0.09,0.011,0.09,0.06c0,0.063-0.047,0.067-0.1,0.067H65.792z"/>
					<path fill="#FFFFFF" d="M66.259,25.377c0,0.22-0.176,0.396-0.396,0.396c-0.217,0-0.396-0.176-0.396-0.396
						s0.181-0.396,0.396-0.396C66.085,24.982,66.259,25.158,66.259,25.377z M65.867,25.049c-0.182,0-0.33,0.148-0.33,0.328
						c0,0.181,0.148,0.326,0.33,0.326c0.178,0,0.326-0.146,0.326-0.326C66.193,25.198,66.044,25.049,65.867,25.049z"/>
				</g>
				<path d="M26.975,25.094c0.039,0.039,0.11,0.171,0.022,0.34c-0.045,0.089-0.099,0.15-0.19,0.226c-0.108,0.087-0.321,0.19-0.622,0
					c-0.156-0.097-0.167-0.132-0.389-0.104c-0.15,0.021-0.217-0.136-0.162-0.271c0.057-0.133,0.287-0.238,0.576-0.068
					c0.131,0.074,0.332,0.236,0.508,0.094c0.074-0.061,0.119-0.098,0.221-0.216c0.004-0.003,0.012-0.007,0.02-0.007
					C26.958,25.086,26.971,25.088,26.975,25.094z"/>
			</g>
			<path id="red_154_" fill="#E22434" d="M24.636,17.441c-0.902,0.066-0.999,0.164-1.17,0.346c-0.236,0.256-0.555-0.332-0.555-0.332
				c-0.188-0.037-0.418-0.346-0.295-0.629c0.12-0.281,0.346-0.197,0.418-0.109c0.084,0.104,0.27,0.281,0.508,0.272
				c0.235-0.006,0.512-0.056,0.895-0.056c0.389,0,0.648,0.146,0.662,0.27C25.113,17.311,25.068,17.41,24.636,17.441z M25.589,15.943
				h-0.004c-0.015,0-0.025-0.01-0.025-0.02c0-0.014,0.006-0.022,0.014-0.024c0.18-0.095,0.439-0.166,0.738-0.196
				c0.092-0.012,0.178-0.015,0.264-0.015c0.014,0,0.029,0,0.043,0c0.506,0.015,0.908,0.211,0.899,0.446
				c-0.005,0.234-0.415,0.416-0.917,0.402c-0.169-0.002-0.32-0.027-0.449-0.063c-0.018-0.005-0.025-0.015-0.025-0.035
				c0-0.015,0.01-0.028,0.025-0.031c0.313-0.071,0.523-0.19,0.508-0.303c-0.02-0.147-0.426-0.229-0.914-0.181
				C25.691,15.929,25.639,15.937,25.589,15.943z M29.671,19.461c-0.075,0.264-0.187,0.595-0.676,0.848
				c-0.07,0.037-0.101-0.021-0.066-0.082c0.188-0.313,0.223-0.391,0.273-0.518c0.073-0.183,0.114-0.438-0.035-0.979
				c-0.295-1.063-0.912-2.481-1.357-2.94c-0.432-0.442-1.215-0.568-1.919-0.387c-0.261,0.064-0.772,0.329-1.716,0.116
				c-1.635-0.366-1.879,0.448-1.973,0.808c-0.095,0.358-0.318,1.372-0.318,1.372c-0.072,0.41-0.176,1.13,2.365,1.61
				c1.183,0.227,1.244,0.531,1.297,0.753c0.09,0.396,0.242,0.621,0.412,0.731c0.168,0.11,0,0.207-0.188,0.225
				c-0.505,0.052-2.367-0.479-3.468-1.105c-0.901-0.551-0.918-1.046-0.709-1.468c-1.36-0.147-2.383,0.128-2.567,0.771
				c-0.319,1.105,2.433,2.996,5.562,3.943c3.287,0.992,6.662,0.299,7.039-1.766C31.794,20.457,31.007,19.764,29.671,19.461z"/>
		</g>
	</g>
	<g display="inline">
		<path fill="#FFFFFF" d="M65.792,25.403h0.072l0.107,0.177h0.064l-0.113-0.179c0.061-0.008,0.104-0.036,0.104-0.11
			c0-0.078-0.051-0.113-0.146-0.113h-0.151v0.402h0.06L65.792,25.403L65.792,25.403z M65.792,25.354v-0.127h0.084
			c0.043,0,0.09,0.011,0.09,0.06c0,0.063-0.047,0.067-0.1,0.067H65.792z"/>
		<path fill="#FFFFFF" d="M66.259,25.377c0,0.22-0.176,0.396-0.396,0.396c-0.217,0-0.396-0.176-0.396-0.396s0.181-0.396,0.396-0.396
			C66.085,24.982,66.259,25.158,66.259,25.377z M65.867,25.049c-0.182,0-0.33,0.148-0.33,0.328c0,0.181,0.148,0.326,0.33,0.326
			c0.178,0,0.326-0.146,0.326-0.326C66.193,25.198,66.044,25.049,65.867,25.049z"/>
	</g>
	<path display="inline" d="M26.975,25.094c0.039,0.039,0.11,0.171,0.022,0.34c-0.045,0.089-0.099,0.15-0.19,0.226
		c-0.108,0.087-0.321,0.19-0.622,0c-0.156-0.097-0.167-0.132-0.389-0.104c-0.15,0.021-0.217-0.136-0.162-0.271
		c0.057-0.133,0.287-0.238,0.576-0.068c0.131,0.074,0.332,0.236,0.508,0.094c0.074-0.061,0.119-0.098,0.221-0.216
		c0.004-0.003,0.012-0.007,0.02-0.007C26.958,25.086,26.971,25.088,26.975,25.094z"/>
</g>
</svg>
