<svg 
  version="1.1"
  xmlns="http://www.w3.org/2000/svg" 
  xmlns:xlink="http://www.w3.org/1999/xlink" 
  x="0px" y="0px"
	viewBox="0 0 400 140"
  class="show-red-hat-{{ show-red-hat }}">

  <style>
    .text text {
      font-family: "Overpass";
      text-transform: uppercase;
      font-weight: bold;
      fill: black;
    }
    .text text.text_line-three { 
      text-transform: none; 
      font-weight: normal;
      font-size: 18px;
    }

    .text_red-hat { font-size: 24px; }
    .text_line-one, .text_line-two { font-size: 36px; }

    .icon path {
      fill: none;
      stroke: white;
    }

    .icon.icon-executive path {
      stroke: #BC1C29;
    }

    .frame-red-light  { fill: #E32734 }
    .frame-red-dark   { fill: #BC1C29 }

    .show-red-hat-yes .no-red-hat { visibility: hidden; }
    .show-red-hat-yes .yes-red-hat { visibility: visible; }

    .show-red-hat-no .no-red-hat { visibility: visible; }
    .show-red-hat-no .yes-red-hat { visibility: hidden; }
  </style>
  
  <defs>
    <g class="frames">
      <g id="frame-large" class="frame">
        <polygon class="frame-red-light"  points="112,0 0,0 0,112 40,112 56,128 72,112 112,112 "/>
        <polygon class="frame-red-dark"   points="112,0 112,112 72,112 56,128 40,112 0,112 "/>
      </g>

      <g id="frame-travelling" class="frame">
        <path class="frame-red-light" d="M112,54.9C112,24.6,86.9,0,56,0C25.1,0,0,24.6,0,54.9c0,38,55.5,84.4,55.5,84.4S112,91.4,112,54.9"/>
        <path class="frame-red-dark"  d="M112,54.9c0-15.7-6.7-29.9-17.5-39.9l-39,124.3C55.5,139.4,112,91.4,112,54.9"/>
      </g>

      <g id="frame-executive" class="frame">
        <path fill="#E6E7E8" d="M95.6,95.6c21.9-21.9,21.9-57.3,0-79.2c-21.9-21.9-57.3-21.9-79.2,0c-21.9,21.9-21.9,57.3,0,79.2
        C38.3,117.5,73.7,117.5,95.6,95.6"/>
        <path fill="#DCDDDE" d="M95.6,95.6c21.9-21.9,21.9-57.3,0-79.2L16.4,95.6C38.3,117.5,73.7,117.5,95.6,95.6"/>
      </g>
    </g>

    <g class="icons">
      <svg 
          id="icon-network" 
          class="icon icon-network stroked icon-{{ event-type }}"
          width="144" height="144"  
          viewBox="0 0 144 144"
          preserveAspectRatio="xMidYmid meet">
        
        <path class="long"  d="M 89.84,40.78 C 107.1,50.77 113,72.79 103.1,90.09 93.06,107.4 71.05,113.3 53.75,103.3 36.45,93.31 30.55,71.29 40.54,53.99 50.52,36.7 72.54,30.8 89.84,40.78 z"/>
        <path class="short" d="m 87.51,51.84 c 0,0.74 -0.56,1.3 -1.29,1.3 -0.7,0 -1.29,-0.56 -1.29,-1.3 0,-0.71 0.59,-1.27 1.29,-1.27 0.73,0 1.29,0.56 1.29,1.27 z m 6.06,12.43 c 0,0.17 -0.14,0.31 -0.31,0.31 -0.18,0 -0.33,-0.14 -0.33,-0.31 0,-0.18 0.15,-0.32 0.33,-0.32 0.17,0 0.31,0.14 0.31,0.32 z m -6.32,16.82 c 0,0.2 -0.16,0.35 -0.35,0.35 -0.2,0 -0.36,-0.15 -0.36,-0.35 0,-0.19 0.16,-0.35 0.36,-0.35 0.19,0 0.35,0.16 0.35,0.35 z m -0.23,14.75 c 0,0.44 -0.36,0.79 -0.78,0.79 -0.44,0 -0.77,-0.35 -0.77,-0.79 0,-0.42 0.33,-0.76 0.77,-0.76 0.42,0 0.78,0.34 0.78,0.76 z M 52.93,82.42 c 0,0.38 -0.3,0.68 -0.67,0.68 -0.37,0 -0.67,-0.3 -0.67,-0.68 0,-0.36 0.3,-0.66 0.67,-0.66 0.37,0 0.67,0.3 0.67,0.66 z M 63.64,61.27 c 0,0.15 -0.12,0.28 -0.28,0.28 -0.15,0 -0.28,-0.13 -0.28,-0.28 0,-0.16 0.13,-0.28 0.28,-0.28 0.16,0 0.28,0.12 0.28,0.28 z m -10.56,1.15 c 0,0.42 -0.35,0.76 -0.76,0.76 -0.41,0 -0.74,-0.34 -0.74,-0.76 0,-0.41 0.33,-0.75 0.74,-0.75 0.41,0 0.76,0.34 0.76,0.75 z m 0.79,20 c 0,0.9 -0.72,1.63 -1.61,1.63 -0.9,0 -1.61,-0.73 -1.61,-1.63 0,-0.87 0.71,-1.6 1.61,-1.6 0.89,0 1.61,0.73 1.61,1.6 z m 34.37,13.4 c 0,1.13 -0.89,2.04 -2.02,2.04 -1.13,0 -2.03,-0.91 -2.03,-2.04 0,-1.11 0.9,-2.02 2.03,-2.02 1.13,0 2.02,0.91 2.02,2.02 z M 88.09,81.08 c 0,0.68 -0.55,1.2 -1.19,1.2 -0.66,0 -1.19,-0.52 -1.19,-1.2 0,-0.64 0.53,-1.18 1.19,-1.18 0.64,0 1.19,0.54 1.19,1.18 z m 6.43,-16.81 c 0,0.68 -0.56,1.25 -1.24,1.25 -0.72,0 -1.28,-0.57 -1.28,-1.25 0,-0.69 0.56,-1.25 1.28,-1.25 0.68,0 1.24,0.56 1.24,1.25 z M 86.58,51.8 c 0,0.2 -0.15,0.35 -0.35,0.35 -0.19,0 -0.35,-0.15 -0.35,-0.35 0,-0.19 0.16,-0.34 0.35,-0.34 0.2,0 0.35,0.15 0.35,0.34 z m -21.99,9.46 c 0,0.68 -0.54,1.22 -1.22,1.22 -0.67,0 -1.23,-0.54 -1.23,-1.22 0,-0.69 0.56,-1.21 1.23,-1.21 0.68,0 1.22,0.52 1.22,1.21 z m -10.5,1.15 c 0,0.99 -0.81,1.79 -1.78,1.79 -0.98,0 -1.76,-0.8 -1.76,-1.79 0,-0.97 0.78,-1.76 1.76,-1.76 0.97,0 1.78,0.79 1.78,1.76 z m 35.58,33.46 c 0,1.92 -1.54,3.46 -3.45,3.46 -1.92,0 -3.46,-1.54 -3.46,-3.46 0,-1.91 1.54,-3.46 3.46,-3.46 1.91,0 3.45,1.55 3.45,3.46 z m 5.85,-31.65 c 0,1.27 -1.03,2.3 -2.31,2.3 -1.28,0 -2.31,-1.03 -2.31,-2.3 0,-1.28 1.03,-2.31 2.31,-2.31 1.28,0 2.31,1.03 2.31,2.31 z m -40.17,-1.8 c 0,1.68 -1.36,3.04 -3.04,3.04 -1.68,0 -3.04,-1.36 -3.04,-3.04 0,-1.68 1.36,-3.04 3.04,-3.04 1.68,0 3.04,1.36 3.04,3.04 z M 89.52,81.1 c 0,1.47 -1.19,2.61 -2.61,2.61 -1.46,0 -2.61,-1.14 -2.61,-2.61 0,-1.42 1.15,-2.6 2.61,-2.6 1.42,0 2.61,1.18 2.61,2.6 z M 66.04,61.28 c 0,1.45 -1.17,2.65 -2.65,2.65 -1.44,0 -2.64,-1.2 -2.64,-2.65 0,-1.48 1.2,-2.64 2.64,-2.64 1.48,0 2.65,1.16 2.65,2.64 z M 55.33,82.39 c 0,1.73 -1.36,3.13 -3.08,3.13 -1.73,0 -3.09,-1.4 -3.09,-3.13 0,-1.68 1.36,-3.08 3.09,-3.08 1.72,0 3.08,1.4 3.08,3.08 z M 88.44,51.81 c 0,1.24 -0.97,2.21 -2.21,2.21 -1.21,0 -2.22,-0.97 -2.22,-2.21 0,-1.22 1.01,-2.22 2.22,-2.22 1.24,0 2.21,1 2.21,2.22 z m -3.31,-13.3 c -0.47,4.02 -0.24,7.73 0.53,11.15 m 1.26,4.25 c 1.17,3.14 2.8,6 4.72,8.61 m 2.94,3.55 c 3.87,4.22 8.42,7.64 12.82,10.33 m -2.1,9.34 C 100.6,85.2 95.07,84.13 89.35,82.03 M 84.52,80 C 77.41,76.63 70.38,71.46 64.83,63.51 m -2.8,-4.49 C 59.1,53.76 56.77,47.48 55.32,39.98 M 37.79,83.75 c 3.92,-0.9 7.71,-1.34 11.36,-1.39 m 6.16,0.28 c 10.9,1.16 20.39,5.67 28.13,11.17 m 5.46,4.26 c 1.29,1.1 2.52,2.23 3.68,3.33 m 2.1,-57.11 c -2.14,2.37 -4.36,4.45 -6.64,6.27 m -3.56,2.61 c -5.92,3.94 -12.16,6.31 -18.49,7.62 m -5.22,0.86 c -1.81,0.22 -3.63,0.37 -5.44,0.45 m -6.06,0.1 C 45.38,62.1 41.23,61.79 37.48,61.39 m 49.75,43.01 c -0.3,-1.6 -0.56,-3.3 -0.76,-5.08 m -0.45,-6.88 c 0,-2.88 0.1,-5.82 0.48,-8.78 m 0.91,-5.12 c 0.94,-4.18 2.42,-8.35 4.56,-12.38 m 2.37,-3.98 c 2.14,-3.24 4.77,-6.36 7.96,-9.29 M 67.81,36.31 C 59.96,43.14 55.24,51.19 52.94,59.44 m -1.24,5.94 c -0.68,4.72 -0.62,9.44 0,13.95 m 1.28,6.1 c 2.67,9.68 8.1,17.87 14.79,22.47" />
      </svg>

      <svg 
        id="icon-atom"
        class="icon icon-atom stroked icon-{{ event-type }}"
        width="144"
        height="144"
        viewBox="0 0 144 144">
        
        <path class="long"  d="M 66.8,77.1 C 53.86,64.1 45.53,51.29 48.34,48.48 51.15,45.67 63.99,54.01 76.9,66.9 89.9,79.9 98.1,92.7 95.3,95.5 92.5,98.3 79.8,90 66.8,77.1 z m 5.3,2.1 C 53.75,79.1 38.71,76 38.81,72 38.66,68.1 53.69,64.9 71.9,64.8 c 18.4,0 33.3,3.2 33.3,7.2 0,4 -14.9,7.2 -33.1,7.2 z m 5,-2.2 C 64.1,89.9 51.23,98.4 48.34,95.5 45.59,92.7 53.94,79.7 66.9,66.8 79.8,53.89 92.7,45.71 95.4,48.46 98.2,51.21 90,64.1 77.1,77 z m 2.2,-5 C 79.1,90.3 76,105.2 72,105.2 68,105.3 64.9,90.2 64.9,72 64.8,53.72 68,38.74 72,38.81 76,38.71 79.2,53.67 79.3,72 z" />
        <path class="short"  d="m 74.7,72 c 0,1.6 -1.2,2.7 -2.7,2.7 -1.5,0 -2.7,-1.1 -2.7,-2.7 0,-1.5 1.2,-2.7 2.7,-2.7 1.5,0 2.7,1.2 2.7,2.7 z"/>
      </svg>

      <svg 
        id="icon-chair"
        class="icon icon-chair stroked icon-{{ event-type }}"
        width="144"
        height="144"
        viewBox="0 0 144 144">

        <path class="long"  d="m 72,73 13.9,0 c 1.8,0 2.57,1.72 4.28,4.72 C 91.09,79.86 87.7,82 85.9,82 l -27.8,0 c -1.9,0 -5.1,-1 -4.4,-4 1.3,-3 2.5,-5 4.4,-5 z m -12.5,-11.65 0,0 0,0 0,0 0,0 2,-18.35 c 0.3,-3 1.3,-6 3,-8 1.4,-2 3.2,-3 5.1,-3 l 4.8,0 c 1.9,0 3.6,1 5.1,3 1.6,2 2.7,5 3,8 l 2,18.35 0,0 0,0 0,0 0,0 c 0.11,0.89 -0.14,2.87 -2.54,2.86 L 62.2,64.11 c -2.4,0 -2.85,-1.57 -2.7,-2.76 z m 8.3,11.65 0,-5 -6.7,0 c -3.55,0 -5.65,-2.44 -5.3,-7.14 L 57.7,42 c 1.1,-6.54 5.5,-12.92 11.9,-13 l 4.8,0 c 7.12,0.58 10.95,6.41 11.9,13 l 1.9,18.86 C 88.67,65.2 87.32,68 83.4,68 l -7.3,0 0,5 M 87.5,73.69 90.7,67 c 0.5,-2 1.7,-2 3.1,-2 0,0 2.3,0 2.8,0 2.1,0 1.8,3 1.8,3 0,1 -4,2 -4.1,2 l -4.1,11 c -0.7,2 -2.7,6 -5.3,6 l -6.8,0 c 0,0 -0.9,0 -1.2,0 -0.4,0 -0.4,1 -0.4,1 l 0,5 c 0,1 -0.7,1 -1.7,1 l -2.8,0 -2.8,0 c -1,0 -1.8,0 -1.8,-1 l 0,-5 c 0,0 0,-1 -0.3,-1 -0.3,0 -1.3,0 -1.3,0 l -6.7,0 c -2.7,0 -4.8,-3 -5.7,-6 L 49.7,70 c -0.2,0 -4.2,-1 -4.2,-2 0,0 -0.3,-3 1.9,-3 0.4,0 2.8,0 2.8,0 1.4,0 2.6,0 3,2 l 3.41,6.49 M 57,111 c 0,0 13.3,-19 29.9,0" />
        <path class="short"  d="m 89.6,112.2 c 0,0.9 -0.7,1.6 -1.6,1.6 -0.9,0 -1.6,-0.7 -1.6,-1.6 0,-0.9 0.7,-1.6 1.6,-1.6 0.9,0 1.6,0.7 1.6,1.6 z m -15.7,0.9 c 0,1 -0.9,1.9 -1.9,1.9 -1,0 -1.9,-0.9 -1.9,-1.9 0,-1 0.9,-1.9 1.9,-1.9 1,0 1.9,0.9 1.9,1.9 z m -16.4,-0.9 c 0,0.9 -0.7,1.6 -1.6,1.6 -0.9,0 -1.6,-0.7 -1.6,-1.6 0,-0.9 0.7,-1.6 1.6,-1.6 0.9,0 1.6,0.7 1.6,1.6 z M 66.7,87 77.4,87 M 75,94 c -0.4,0 -0.4,1 -0.4,1 l 0.1,3 c 0,1 -0.8,1 -1.8,1 L 71,99 c -0.9,0 -1.7,0 -1.7,-1 l 0,-3 c 0,0 0,-1 -0.3,-1 -0.3,0 6.3,0 6,0 z m -3,5 0,12.2"  />
      </svg>

      <svg 
        id="icon-gears"
        class="icon icon-network stroked icon-{{ event-type }}"       
        width="144"
        height="144"
        viewBox="0 0 144 144">
        <path class="long"   d="m 103.4,48.6 c -0.5,-0.8 -1.1,-1.5 -1.7,-2.1 l 2.1,-5.1 c -1.2,-0.8 -2.4,-1.4 -3.7,-2 l -3,4.8 c -1.8,-0.4 -3.7,-0.4 -5.4,0.2 L 88.2,40 c -1.2,0.6 -2.4,1.4 -3.5,2.2 l 2.6,5 c -1.3,1.4 -2.1,3 -2.5,4.8 l -5.5,0.8 c -0.1,1.4 0,2.8 0.1,4.2 l 5.7,0.2 c 0.2,0.8 0.6,1.7 1.1,2.5 0.5,0.8 1.1,1.4 1.8,2 l -2.2,5.2 c 1.2,0.8 2.5,1.4 3.8,2 l 3,-4.8 c 1.7,0.4 3.6,0.3 5.4,-0.2 l 3.4,4.4 c 1.3,-0.6 2.4,-1.4 3.6,-2.2 l -2.7,-5 c 1.3,-1.4 2.2,-3.1 2.5,-4.8 l 5.6,-0.8 c 0.1,-1.4 0,-2.8 -0.2,-4.2 l -5.6,-0.2 c -0.3,-0.8 -0.6,-1.7 -1.2,-2.5 z M 89.8,96.2 c 0.1,-1.4 0.1,-2.9 0,-4.3 l -5.6,-0.4 c -0.4,-2 -1.1,-3.8 -2.2,-5.4 l 3.6,-4.3 c -0.9,-1.1 -1.9,-2.1 -3,-3 l -4.3,3.6 c -1.6,-1.1 -3.4,-1.8 -5.4,-2.2 l -0.5,-5.6 c -1.4,-0.1 -2.8,-0.1 -4.2,0 l -0.5,5.6 c -1.9,0.4 -3.8,1.1 -5.3,2.2 l -4.3,-3.6 c -1.1,0.9 -2.1,1.9 -3,3 l 3.6,4.3 c -1.1,1.6 -1.9,3.4 -2.2,5.4 l -5.6,0.4 c -0.2,1.4 -0.2,2.9 0,4.3 l 5.6,0.4 c 0.3,2 1.1,3.8 2.2,5.4 l -3.6,4.3 c 0.9,1.1 1.9,2.1 3,3 l 4.3,-3.6 c 1.5,1.1 3.4,1.8 5.3,2.2 l 0.5,5.6 c 1.4,0.1 2.8,0.1 4.2,0 l 0.5,-5.6 c 2,-0.4 3.8,-1.1 5.4,-2.2 l 4.3,3.6 c 1.1,-0.9 2.1,-1.9 3,-3 L 82,102 c 1.1,-1.6 1.8,-3.4 2.2,-5.4 l 5.6,-0.4 z M 78.3,55.4 c 0,-0.9 -0.1,-1.7 -0.2,-2.6 l 5.3,-1.9 c -0.2,-1.4 -0.6,-2.8 -1,-4.1 l -5.6,1 C 76.1,46.2 75.2,44.7 74.2,43.4 L 77.8,39 c -0.9,-1.1 -1.9,-2.1 -2.9,-3 l -4.4,3.7 C 69.1,38.6 67.7,37.8 66,37.1 l 1,-5.6 C 65.7,31 64.4,30.7 63,30.4 l -2,5.4 c -0.8,-0.1 -1.7,-0.2 -2.5,-0.2 -0.9,0 -1.8,0.1 -2.6,0.2 L 54,30.4 c -1.5,0.3 -2.8,0.6 -4.1,1.1 l 1,5.6 c -1.6,0.7 -3.1,1.5 -4.5,2.6 L 42.1,36 c -1.1,0.9 -2.1,1.9 -3,3 l 3.6,4.4 c -1,1.3 -1.9,2.8 -2.5,4.4 l -5.6,-1 c -0.5,1.3 -0.9,2.7 -1.1,4.1 l 5.3,1.9 c -0.1,0.9 -0.2,1.7 -0.2,2.6 0,0.9 0.1,1.7 0.2,2.6 l -5.3,1.9 c 0.2,1.4 0.6,2.8 1.1,4.1 l 5.6,-1 c 0.6,1.6 1.5,3.1 2.5,4.4 l -3.6,4.4 c 0.9,1.1 1.9,2.1 3,3 l 4.3,-3.7 c 1.4,1.1 2.9,1.9 4.5,2.6 l -1,5.6 c 1.3,0.5 2.6,0.8 4,1.1 l 2,-5.4 c 0.8,0.1 1.7,0.2 2.6,0.2 0.8,0 1.7,-0.1 2.5,-0.2 l 2,5.4 c 1.4,-0.3 2.7,-0.6 4,-1.1 l -1,-5.6 c 1.7,-0.7 3.1,-1.5 4.5,-2.6 l 4.4,3.7 c 1,-0.9 2,-1.9 2.9,-3 l -3.6,-4.4 c 1,-1.3 1.9,-2.8 2.6,-4.4 l 5.6,1 c 0.4,-1.3 0.8,-2.7 1,-4.1 L 78.1,58 c 0.1,-0.9 0.2,-1.7 0.2,-2.6 z"/>
        <path class="short" d="m 77.1,100.2 c -1.7,1.8 -4.1,3 -6.8,3 -5,0 -9.1,-4.1 -9.1,-9.1 0,-5.1 4.1,-9.2 9.1,-9.2 5.1,0 9.1,4.1 9.1,9.2 0,0.6 0,1.2 -0.1,1.8 m -24.2,-49 c 1,-0.4 2.2,-0.6 3.4,-0.6 5,0 9.1,4.1 9.1,9.1 0,5 -4.1,9.1 -9.1,9.1 -5.1,0 -9.2,-4.1 -9.2,-9.1 0,-1.8 0.6,-3.6 1.5,-5 m 24.1,43.7 c 0,2.6 -2,4.6 -4.6,4.6 -2.6,0 -4.6,-2 -4.6,-4.6 0,-2.6 2,-4.6 4.6,-4.6 2.6,0 4.6,2 4.6,4.6 z m 24.5,-40 c 0,2.6 -2,4.6 -4.6,4.6 -2.6,0 -4.6,-2 -4.6,-4.6 0,-2.6 2,-4.6 4.6,-4.6 2.6,0 4.6,2 4.6,4.6 z m -36.3,1.3 c 0,2.6 -2,4.6 -4.6,4.6 -2.6,0 -4.6,-2 -4.6,-4.6 0,-2.6 2,-4.6 4.6,-4.6 2.6,0 4.6,2 4.6,4.6 z" />
      </svg>

      <svg 
        id="icon-government"
        width="144"
        height="144"
        viewBox="0 0 144 144"
        class="icon icon-gov icon-government stroked icon-{{ event-type }}">

        <path class="long"  d="m 78.39,93.49 5.9,0 m 0,-25.7 -5.9,0 m 5.9,28.9 0,-32.1 -5.9,0 0,32.1 m -12.6,-3.2 -6.04,0 m 0,-25.7 6.04,0 m 0,28.9 0,-32.1 -6.04,0 0,32.1 m 38.54,0 0,-32.1 -5.9,0 0,32.1 m -40.73,0 0,-32.1 -5.94,0 0,32.1 m -4.23,-0.2 61.01,0 0,7.61 -61.01,0 z m 61.01,-39.52 0,7.62 -61.01,0 0,-7.62 m 30,-17.06 37.31,17.14 -73.59,0 z" />
        <path class="short"  d="m 66.09,45.77 5.5,-2.59 18.7,8.6 m 2.1,41.71 5.9,0 m 0,-25.7 -5.9,0 m -40.73,25.7 -5.94,0 m 0,-25.7 5.94,0 m 50.84,32.51 -61.01,0" />
      </svg>
    </g>
  </defs>

  <use id="frame" x="0"   y="0"   xlink:href="#frame-{{ event-type }}" />
  <use id="icon"  x="-16" y="-16" xlink:href="#icon-{{ icon }}" />

  <g class="text three-line no-red-hat">
    <text class="text_line-one" x="124" y="40">{{ line-one }}</text>
    <text class="text_line-two" x="124" y="76">{{ line-two }}</text>
    <text class="text_line-three" x="124" y="98">{{ line-three }}</text>
  </g>
  
  {{#line-three}}
  <g class="text three-line yes-red-hat">
    <text class="text_red-hat"  x="124" y="20">Red Hat</text>
    <text class="text_line-one" x="124" y="54">{{ line-one }}</text>
    <text class="text_line-two" x="124" y="90">{{ line-two }}</text>
    <text class="text_line-three" x="124" y="112">{{ line-three }}</text>
  </g>
  {{/line-three}}

  {{^line-three}}
  <g class="text two-line yes-red-hat">
    <text class="text_red-hat"  x="124" y="31">Red Hat</text>
    <text class="text_line-one" x="124" y="65">{{ line-one }}</text>
    <text class="text_line-two" x="124" y="101">{{ line-two }}</text>
  </g>
  {{/line-three}}
</svg>
