<?xml version="1.0" encoding="utf-8"?>
<!-- Generator: Adobe Illustrator 18.0.0, SVG Export Plug-In . SVG Version: 6.00 Build 0)  -->
<!DOCTYPE svg PUBLIC "-//W3C//DTD SVG 1.1//EN" "http://www.w3.org/Graphics/SVG/1.1/DTD/svg11.dtd">
<svg version="1.1" id="Layer_1" xmlns="http://www.w3.org/2000/svg" xmlns:xlink="http://www.w3.org/1999/xlink" x="0px" y="0px"
	 viewBox="26 26 92 92" enable-background="new 26 26 92 92" xml:space="preserve">
<line fill="none" stroke="#000000" stroke-miterlimit="10" x1="95.2" y1="41.2" x2="48.9" y2="41.2"/>
<line fill="none" stroke="#000000" stroke-miterlimit="10" x1="95.2" y1="102.8" x2="48.9" y2="102.8"/>
<path fill="none" stroke="#000000" stroke-width="2" stroke-miterlimit="10" d="M54.8,31h34.5c3.3,0,5.9,2.6,5.9,5.9V107
	c0,3.3-2.6,6-5.9,6H54.8c-3.3,0-5.9-2.7-5.9-6V36.9C48.8,33.6,51.5,31,54.8,31z"/>
<path fill="none" stroke="#000000" stroke-miterlimit="10" d="M63.1,36.1h0.2 M67.2,36.1h13.7 M85.8,94.4h2.1 M79.8,94.4H82
	 M73.9,94.4H76 M68,94.4h2.1 M62.1,94.4h2.1 M56.1,94.4h2.1 M82.8,90.4h2.1 M76.8,90.4H79 M70.9,90.4h2.1 M65,90.4h2.1 M59.1,90.4
	h2.1 M85.8,86.5h2.1 M79.8,86.5h2.1 M73.9,86.5H76 M68,86.5h2.1 M62.1,86.5h2.1 M56.1,86.5h2.1 M84.8,98.3h2.6 M56.5,98.3h2.6
	 M64.8,98.3h14.3 M77.2,47.5l14.1,17.8 M71.4,46.5l11.1,13.8 M69.2,105.9h5.7c0.1,0,0.2,0,0.2,0.1v3c0,0.1-0.1,0.1-0.2,0.1h-5.7
	c-0.1,0-0.2,0-0.2-0.1v-3C69,105.9,69.1,105.9,69.2,105.9z"/>
</svg>
