<svg xmlns="http://www.w3.org/2000/svg" version="1.1" xmlns:xlink="http://www.w3.org/1999/xlink"  width="60"  height="60" viewBox="0 0 60 60"><path id="pattern-corporate-path" stroke-width="1" fill="none" d="M 45,0 30,15 15,0 M 60,22.5 52.5,30 60,37.5 M 60,45 45,30 60,15 M 60,7.5 37.5,30 60,52.5 M 45,60 30,45 15,60 M 60,60 0,0 M 22.5,0 30,7.5 37.5,0 M 7.5,0 30,22.5 52.5,0 M 0,15 15,30 0,45 M 22.5,60 30,52.5 37.5,60 M 7.5,60 30,37.5 52.5,60 M 0,37.5 7.5,30 0,22.5 M 0,52.5 22.5,30 0,7.5 M 0,60 60,0" style="stroke-linecap:square" class="pattern-path"></path></svg>
