<?xml version="1.0" encoding="utf-8"?>
<!-- Generator: Adobe Illustrator 16.0.0, SVG Export Plug-In . SVG Version: 6.00 Build 0)  -->
<!DOCTYPE svg PUBLIC "-//W3C//DTD SVG 1.1//EN" "http://www.w3.org/Graphics/SVG/1.1/DTD/svg11.dtd">
<svg version="1.1" id="Layer_1" xmlns="http://www.w3.org/2000/svg" xmlns:xlink="http://www.w3.org/1999/xlink" x="0px" y="0px"
	 width="38px" height="31px" viewBox="0 0 38 31" enable-background="new 0 0 38 31" xml:space="preserve">
<g>
	<g>
		<g>
			<g>
				<path fill="#010101" d="M5.167,21.526c0.307,0,0.523-0.052,0.65-0.158c0.128-0.105,0.192-0.269,0.192-0.486
					c0-0.137-0.04-0.254-0.121-0.349c-0.079-0.095-0.237-0.212-0.472-0.348l-0.94-0.565c-0.214-0.13-0.383-0.263-0.509-0.398
					s-0.211-0.278-0.261-0.427c-0.049-0.148-0.074-0.31-0.074-0.48c0-0.422,0.139-0.752,0.414-0.993
					c0.274-0.241,0.715-0.362,1.321-0.362c0.236,0,0.47,0.029,0.697,0.086c0.228,0.059,0.404,0.122,0.529,0.192
					c0.054,0.03,0.093,0.06,0.118,0.086c0.025,0.027,0.039,0.062,0.039,0.106v0.484c0,0.116-0.059,0.151-0.179,0.107
					c-0.13-0.05-0.314-0.096-0.555-0.143s-0.454-0.07-0.643-0.07c-0.5,0-0.749,0.166-0.749,0.499c0,0.116,0.038,0.213,0.116,0.292
					c0.077,0.079,0.232,0.188,0.465,0.328l0.857,0.509c0.25,0.148,0.446,0.297,0.587,0.446c0.14,0.151,0.239,0.304,0.295,0.461
					s0.084,0.336,0.084,0.538c0,0.263-0.061,0.505-0.18,0.729c-0.12,0.225-0.317,0.407-0.591,0.549
					c-0.274,0.143-0.63,0.212-1.066,0.212c-0.293,0-0.56-0.032-0.803-0.1c-0.244-0.067-0.412-0.13-0.508-0.185
					c-0.067-0.039-0.111-0.07-0.13-0.094c-0.021-0.021-0.03-0.054-0.03-0.098v-0.484c0-0.109,0.062-0.146,0.183-0.108
					C4.368,21.452,4.788,21.526,5.167,21.526z"/>
				<path fill="#010101" d="M11.469,18.669c0,0.588-0.188,1.013-0.568,1.276c-0.381,0.264-0.876,0.396-1.486,0.396
					c-0.037,0-0.121-0.003-0.247-0.008c-0.128-0.007-0.212-0.011-0.251-0.013c-0.04-0.002-0.086-0.004-0.136-0.007v1.861
					c0,0.041-0.014,0.075-0.041,0.102c-0.026,0.026-0.059,0.04-0.096,0.04H7.93c-0.035,0-0.066-0.015-0.098-0.041
					c-0.03-0.028-0.046-0.062-0.046-0.101v-4.911c0-0.066,0.019-0.116,0.057-0.148c0.04-0.03,0.097-0.052,0.174-0.063
					c0.39-0.063,0.856-0.094,1.397-0.094c0.612,0,1.109,0.129,1.487,0.385c0.379,0.257,0.567,0.678,0.567,1.263V18.669z
					 M10.482,18.669v-0.063c0-0.297-0.086-0.51-0.259-0.637s-0.443-0.192-0.81-0.192c-0.23,0-0.441,0.011-0.634,0.031v1.697
					c0.23,0.014,0.44,0.021,0.634,0.021c0.256,0,0.461-0.03,0.616-0.093c0.156-0.061,0.27-0.154,0.344-0.28
					C10.447,19.027,10.482,18.866,10.482,18.669z"/>
				<path fill="#010101" d="M16.087,20.147c0,0.506-0.086,0.926-0.258,1.258c-0.172,0.335-0.412,0.579-0.718,0.733
					c-0.308,0.157-0.661,0.233-1.06,0.233c-0.4,0-0.753-0.076-1.06-0.233c-0.307-0.154-0.546-0.398-0.718-0.733
					c-0.172-0.332-0.259-0.752-0.259-1.258v-0.962c0-0.507,0.087-0.927,0.259-1.26c0.172-0.334,0.411-0.578,0.718-0.733
					s0.659-0.233,1.06-0.233c0.398,0,0.752,0.078,1.06,0.233c0.306,0.155,0.546,0.399,0.718,0.733
					c0.172,0.333,0.258,0.753,0.258,1.26V20.147z M15.086,20.147v-0.962c0-0.469-0.083-0.814-0.253-1.033
					c-0.167-0.22-0.428-0.33-0.781-0.33s-0.614,0.11-0.782,0.33c-0.169,0.219-0.253,0.564-0.253,1.033v0.962
					c0,0.467,0.084,0.811,0.253,1.033c0.168,0.221,0.429,0.332,0.782,0.332s0.614-0.111,0.781-0.332
					C15.003,20.958,15.086,20.614,15.086,20.147z"/>
				<path fill="#010101" d="M20.887,22.032c0,0.079-0.027,0.146-0.084,0.201c-0.055,0.057-0.122,0.084-0.201,0.084H19.88
					c-0.108,0-0.195-0.015-0.26-0.045c-0.065-0.03-0.125-0.101-0.175-0.213l-1.583-3.474c-0.018-0.036-0.04-0.057-0.065-0.057
					c-0.023,0-0.035,0.021-0.035,0.057v3.59c0,0.041-0.013,0.075-0.04,0.102c-0.026,0.026-0.059,0.04-0.096,0.04H17.02
					c-0.035,0-0.066-0.015-0.097-0.041c-0.03-0.028-0.046-0.062-0.046-0.101v-4.874c0-0.081,0.028-0.147,0.084-0.204
					c0.055-0.055,0.123-0.083,0.202-0.083h0.769c0.08,0,0.143,0.017,0.188,0.049c0.047,0.032,0.088,0.093,0.127,0.182l1.662,3.669
					c0.019,0.037,0.039,0.055,0.06,0.055c0.023,0,0.034-0.022,0.034-0.065V17.15c0-0.039,0.013-0.071,0.038-0.098
					c0.026-0.025,0.059-0.038,0.099-0.038h0.613c0.039,0,0.072,0.013,0.098,0.038c0.025,0.026,0.037,0.059,0.037,0.098V22.032z"/>
				<path fill="#010101" d="M23.155,21.526c0.307,0,0.524-0.052,0.651-0.158c0.129-0.105,0.191-0.269,0.191-0.486
					c0-0.137-0.039-0.254-0.119-0.349s-0.238-0.212-0.474-0.348l-0.939-0.565c-0.214-0.13-0.384-0.263-0.509-0.398
					s-0.212-0.278-0.261-0.427c-0.05-0.148-0.073-0.31-0.073-0.48c0-0.422,0.137-0.752,0.411-0.993
					c0.276-0.241,0.717-0.362,1.324-0.362c0.236,0,0.468,0.029,0.696,0.086c0.228,0.059,0.404,0.122,0.528,0.192
					c0.055,0.03,0.094,0.06,0.12,0.086c0.024,0.027,0.037,0.062,0.037,0.106v0.484c0,0.116-0.059,0.151-0.177,0.107
					c-0.13-0.05-0.316-0.096-0.556-0.143c-0.241-0.047-0.455-0.07-0.643-0.07c-0.5,0-0.75,0.166-0.75,0.499
					c0,0.116,0.039,0.213,0.117,0.292c0.077,0.079,0.232,0.188,0.466,0.328l0.856,0.509c0.251,0.148,0.446,0.297,0.588,0.446
					c0.14,0.151,0.237,0.304,0.293,0.461c0.057,0.157,0.084,0.336,0.084,0.538c0,0.263-0.06,0.505-0.18,0.729
					c-0.119,0.225-0.315,0.407-0.591,0.549c-0.273,0.143-0.63,0.212-1.065,0.212c-0.292,0-0.561-0.032-0.804-0.1
					c-0.242-0.067-0.412-0.13-0.507-0.185c-0.067-0.039-0.11-0.07-0.131-0.094c-0.02-0.021-0.028-0.054-0.028-0.098v-0.484
					c0-0.109,0.059-0.146,0.18-0.108C22.356,21.452,22.777,21.526,23.155,21.526z"/>
				<path fill="#010101" d="M29.724,20.147c0,0.506-0.085,0.926-0.258,1.258c-0.172,0.335-0.411,0.579-0.718,0.733
					c-0.307,0.157-0.66,0.233-1.06,0.233c-0.4,0-0.752-0.076-1.06-0.233c-0.307-0.154-0.545-0.398-0.717-0.733
					c-0.173-0.332-0.258-0.752-0.258-1.258v-0.962c0-0.507,0.085-0.927,0.258-1.26c0.172-0.334,0.41-0.578,0.717-0.733
					c0.308-0.155,0.659-0.233,1.06-0.233c0.399,0,0.753,0.078,1.06,0.233s0.546,0.399,0.718,0.733
					c0.173,0.333,0.258,0.753,0.258,1.26V20.147z M28.723,20.147v-0.962c0-0.469-0.083-0.814-0.252-1.033
					c-0.168-0.22-0.429-0.33-0.782-0.33s-0.614,0.11-0.781,0.33c-0.169,0.219-0.254,0.564-0.254,1.033v0.962
					c0,0.467,0.085,0.811,0.254,1.033c0.167,0.221,0.428,0.332,0.781,0.332s0.614-0.111,0.782-0.332
					C28.64,20.958,28.723,20.614,28.723,20.147z"/>
				<path fill="#010101" d="M34.367,22.229c0,0.06-0.028,0.088-0.085,0.088h-0.868c-0.035,0-0.062-0.011-0.078-0.034
					c-0.018-0.021-0.039-0.058-0.065-0.107l-1.027-1.906h-0.103c-0.036,0-0.119-0.004-0.246-0.009
					c-0.129-0.007-0.212-0.011-0.251-0.013c-0.04-0.003-0.085-0.005-0.137-0.008v1.936c0,0.041-0.013,0.075-0.039,0.102
					c-0.027,0.026-0.06,0.04-0.096,0.04h-0.715c-0.035,0-0.067-0.015-0.097-0.041c-0.031-0.028-0.045-0.062-0.045-0.101v-4.911
					c0-0.066,0.019-0.116,0.057-0.148c0.038-0.03,0.096-0.052,0.172-0.063c0.391-0.063,0.855-0.094,1.396-0.094
					c0.611,0,1.107,0.127,1.486,0.379c0.38,0.253,0.569,0.666,0.569,1.234v0.063c0,0.365-0.084,0.67-0.254,0.912
					c-0.17,0.244-0.406,0.426-0.71,0.544l1.122,2.085C34.362,22.188,34.367,22.207,34.367,22.229z M33.212,18.634v-0.063
					c0-0.267-0.089-0.462-0.264-0.582c-0.176-0.121-0.443-0.182-0.808-0.182c-0.052,0-0.159,0.004-0.319,0.011
					s-0.266,0.013-0.314,0.018v1.607c0.231,0.013,0.442,0.02,0.634,0.02c0.375,0,0.646-0.063,0.816-0.186
					C33.127,19.153,33.212,18.938,33.212,18.634z"/>
			</g>
			<g>
				<path fill="#010101" d="M14.568,26.883c0,0.032-0.006,0.055-0.02,0.068s-0.039,0.024-0.074,0.03
					c-0.07,0.017-0.194,0.031-0.37,0.044s-0.32,0.021-0.433,0.021c-0.223,0-0.415-0.026-0.574-0.08
					c-0.159-0.052-0.285-0.15-0.377-0.292c-0.093-0.143-0.139-0.341-0.139-0.594v-2.485c0-0.023,0.01-0.045,0.03-0.065
					c0.019-0.02,0.04-0.029,0.064-0.029h0.468c0.023,0,0.045,0.01,0.065,0.029c0.019,0.021,0.03,0.042,0.03,0.065v2.485
					c0,0.154,0.025,0.26,0.078,0.319c0.054,0.057,0.149,0.087,0.286,0.087h0.87c0.03,0,0.053,0.008,0.069,0.024
					s0.024,0.041,0.024,0.069V26.883z"/>
				<path fill="#010101" d="M17.423,25.575c0,0.333-0.058,0.612-0.171,0.831c-0.113,0.222-0.271,0.383-0.474,0.485
					c-0.203,0.104-0.437,0.155-0.701,0.155c-0.266,0-0.498-0.052-0.701-0.155c-0.203-0.103-0.361-0.264-0.476-0.485
					c-0.112-0.219-0.171-0.498-0.171-0.831v-0.637c0-0.336,0.059-0.613,0.171-0.834c0.114-0.222,0.272-0.383,0.476-0.485
					c0.203-0.104,0.436-0.155,0.701-0.155c0.265,0,0.498,0.052,0.701,0.155c0.202,0.103,0.36,0.264,0.474,0.485
					c0.113,0.221,0.171,0.498,0.171,0.834V25.575z M16.762,25.575v-0.637c0-0.312-0.057-0.54-0.167-0.684
					c-0.111-0.146-0.284-0.219-0.518-0.219c-0.234,0-0.406,0.073-0.519,0.219c-0.11,0.144-0.166,0.372-0.166,0.684v0.637
					c0,0.308,0.056,0.535,0.166,0.683c0.112,0.146,0.284,0.219,0.519,0.219c0.233,0,0.406-0.072,0.518-0.219
					C16.705,26.11,16.762,25.882,16.762,25.575z"/>
				<path fill="#010101" d="M18.526,24.91v0.689c0,0.307,0.062,0.531,0.181,0.674c0.119,0.142,0.262,0.214,0.424,0.214
					c0.166,0,0.32-0.005,0.469-0.016v-1.204c0-0.025,0.008-0.047,0.025-0.066c0.019-0.019,0.04-0.027,0.064-0.027h0.468
					c0.024,0,0.047,0.007,0.064,0.026c0.019,0.019,0.027,0.041,0.027,0.067v1.586c0,0.062-0.028,0.099-0.087,0.114
					c-0.079,0.016-0.166,0.03-0.264,0.043c-0.099,0.011-0.221,0.021-0.367,0.026s-0.279,0.01-0.4,0.01
					c-0.139,0-0.279-0.025-0.423-0.073c-0.144-0.049-0.28-0.13-0.411-0.245s-0.234-0.267-0.313-0.455
					c-0.079-0.188-0.118-0.414-0.118-0.674v-0.682c0-0.285,0.041-0.525,0.122-0.72c0.08-0.192,0.188-0.343,0.322-0.45
					c0.136-0.107,0.277-0.182,0.428-0.223s0.311-0.062,0.479-0.062c0.142,0,0.271,0.015,0.393,0.044s0.229,0.064,0.325,0.104
					c0.094,0.039,0.166,0.072,0.211,0.103c0.07,0.039,0.104,0.082,0.104,0.129v0.315c0,0.077-0.039,0.101-0.117,0.071
					c-0.117-0.048-0.252-0.093-0.404-0.138c-0.153-0.043-0.309-0.065-0.465-0.065c-0.253,0-0.44,0.066-0.558,0.2
					C18.587,24.359,18.526,24.585,18.526,24.91z"/>
				<path fill="#010101" d="M23.469,25.575c0,0.333-0.058,0.612-0.171,0.831c-0.114,0.222-0.273,0.383-0.476,0.485
					c-0.203,0.104-0.437,0.155-0.7,0.155c-0.266,0-0.498-0.052-0.701-0.155c-0.203-0.103-0.361-0.264-0.476-0.485
					c-0.113-0.219-0.171-0.498-0.171-0.831v-0.637c0-0.336,0.058-0.613,0.171-0.834c0.114-0.222,0.272-0.383,0.476-0.485
					c0.203-0.104,0.436-0.155,0.701-0.155c0.264,0,0.497,0.052,0.7,0.155c0.202,0.103,0.361,0.264,0.476,0.485
					c0.113,0.221,0.171,0.498,0.171,0.834V25.575z M22.807,25.575v-0.637c0-0.312-0.057-0.54-0.167-0.684
					c-0.113-0.146-0.284-0.219-0.518-0.219s-0.407,0.073-0.519,0.219c-0.111,0.144-0.167,0.372-0.167,0.684v0.637
					c0,0.308,0.056,0.535,0.167,0.683c0.111,0.146,0.285,0.219,0.519,0.219s0.404-0.072,0.518-0.219
					C22.75,26.11,22.807,25.882,22.807,25.575z"/>
			</g>
		</g>
	</g>
	<g>
		
			<linearGradient id="SVGID_1_" gradientUnits="userSpaceOnUse" x1="18.2676" y1="9.8989" x2="23.7994" y2="8.1929" gradientTransform="matrix(0.9787 0.0046 0.0046 0.999 -1.5457 0.2956)">
			<stop  offset="0" style="stop-color:#D66CA4"/>
			<stop  offset="0.5" style="stop-color:#C61883"/>
			<stop  offset="1" style="stop-color:#9D2482"/>
		</linearGradient>
		<path opacity="0.73" fill="url(#SVGID_1_)" d="M23.098,10.052c0,0-0.606,1.28-3.717,2.929c-2.579,1.367-4.431,1.977-4.431,1.977
			l-0.046-4.942c0,0,1.998-0.349,4.533-2.405c3.205-2.602,3.609-3.656,3.609-3.656L23.098,10.052z"/>
		<linearGradient id="SVGID_2_" gradientUnits="userSpaceOnUse" x1="16.8711" y1="9.5615" x2="21.1299" y2="9.5615">
			<stop  offset="0" style="stop-color:#FBE7A0"/>
			<stop  offset="0.5" style="stop-color:#FAC914"/>
			<stop  offset="1" style="stop-color:#F2AA1D"/>
		</linearGradient>
		<path opacity="0.73" fill="url(#SVGID_2_)" d="M21.13,10.647c0,0-0.354,1.087-1.938,2.549c-1.373,1.266-2.308,1.599-2.308,1.599
			l-0.013-4.785c0,0,0.646-0.392,2.313-2.128c1.823-1.895,1.94-3.553,1.94-3.553L21.13,10.647z"/>
		<linearGradient id="SVGID_3_" gradientUnits="userSpaceOnUse" x1="15.6494" y1="12.5957" x2="20.4877" y2="10.9105">
			<stop  offset="0.0112" style="stop-color:#51AECA"/>
			<stop  offset="0.5" style="stop-color:#0193B8"/>
			<stop  offset="0.9944" style="stop-color:#0D767C"/>
		</linearGradient>
		<path opacity="0.73" fill="url(#SVGID_3_)" d="M24.177,12.096c0,0-1.381,1.554-5.119,2.349c-2.853,0.606-5.233,0.506-5.233,0.506
			v-4.894c0,0,2.104,0.264,5.063-0.564c3.399-0.949,5.289-2.904,5.289-2.904V12.096z"/>
	</g>
</g>
</svg>
