<svg width="180" height="60" viewbox="0 0 180 60" class="product">

<path
  d="m 145.356,29.3827 0,-6.71 0,-1.062 c -0.03,0.09 -0.06,0.21 -0.105,0.347 -0.04,0.137 -0.09,0.279 -0.148,0.425 -0.06,0.146 -0.113,0.296 -0.17,0.446 -0.06,0.15 -0.113,0.293 -0.17,0.424 l -2.641,6.385 -2.6,-6.385 c -0.06,-0.122 -0.113,-0.262 -0.168,-0.417 -0.06,-0.155 -0.111,-0.307 -0.164,-0.453 -0.05,-0.146 -0.1,-0.288 -0.141,-0.425 -0.04,-0.137 -0.08,-0.252 -0.105,-0.347 l 0,1.062 0,6.71 -1.076,0 0,-9.909 1.234,0 2.338,5.932 c 0.06,0.151 0.121,0.316 0.191,0.495 0.07,0.18 0.141,0.359 0.207,0.538 0.06,0.18 0.127,0.347 0.184,0.503 0.06,0.155 0.1,0.285 0.127,0.389 0.03,-0.104 0.07,-0.235 0.129,-0.396 0.06,-0.16 0.117,-0.33 0.184,-0.509 0.07,-0.18 0.135,-0.359 0.205,-0.538 0.07,-0.18 0.135,-0.34 0.191,-0.481 l 2.369,-5.932 1.205,0 0,9.909 -1.076,0 z m -15.797,0 0,-9.909 5.988,0 0,1.006 -4.885,0 0,3.113 2.832,0 0,1.006 -2.832,0 0,3.779 5.096,0 0,1.005 -6.199,0 z m -4.912,-8.904 0,8.903 -1.104,0 0,-8.903 -2.916,0 0,-1.006 6.936,0 0,1.006 -2.916,0 z m -5.627,7.389 c -0.146,0.34 -0.361,0.633 -0.645,0.878 -0.284,0.245 -0.627,0.438 -1.033,0.58 -0.406,0.142 -0.867,0.212 -1.387,0.212 -0.68,0 -1.305,-0.13 -1.875,-0.389 -0.572,-0.26 -1.055,-0.588 -1.451,-0.984 l 0.736,-0.82 c 0.377,0.358 0.783,0.646 1.217,0.863 0.434,0.217 0.906,0.325 1.416,0.325 0.66,0 1.182,-0.15 1.564,-0.453 0.381,-0.302 0.572,-0.717 0.572,-1.245 0,-0.227 -0.04,-0.434 -0.113,-0.623 -0.08,-0.188 -0.205,-0.363 -0.389,-0.523 -0.184,-0.16 -0.428,-0.318 -0.729,-0.475 -0.303,-0.155 -0.68,-0.313 -1.133,-0.474 -0.539,-0.189 -0.988,-0.38 -1.352,-0.574 -0.363,-0.193 -0.656,-0.4 -0.879,-0.622 -0.221,-0.222 -0.381,-0.47 -0.48,-0.743 -0.1,-0.274 -0.148,-0.59 -0.148,-0.948 0,-0.396 0.07,-0.75 0.227,-1.062 0.15,-0.311 0.361,-0.578 0.629,-0.799 0.27,-0.223 0.596,-0.39 0.977,-0.503 0.383,-0.113 0.805,-0.17 1.268,-0.17 0.66,0 1.225,0.1 1.691,0.283 0.466,0.188 0.908,0.448 1.324,0.778 l -0.709,0.863 c -0.357,-0.302 -0.719,-0.53 -1.082,-0.686 -0.363,-0.156 -0.795,-0.234 -1.295,-0.234 -0.34,0 -0.633,0.04 -0.879,0.121 -0.244,0.08 -0.445,0.186 -0.602,0.318 -0.154,0.132 -0.268,0.285 -0.34,0.459 -0.07,0.176 -0.105,0.361 -0.105,0.56 0,0.208 0.03,0.395 0.09,0.56 0.06,0.165 0.17,0.325 0.34,0.48 0.17,0.156 0.406,0.31 0.715,0.461 0.305,0.15 0.709,0.316 1.209,0.495 0.547,0.198 1.006,0.396 1.373,0.595 0.369,0.198 0.664,0.415 0.885,0.651 0.223,0.235 0.381,0.495 0.475,0.778 0.09,0.283 0.141,0.608 0.141,0.977 0,0.387 -0.07,0.75 -0.219,1.09 z m -10.666,-2.421 0,3.936 -1.104,0 0,-3.921 -3.398,-5.988 1.26,0 1.586,2.846 c 0.199,0.359 0.398,0.729 0.602,1.111 0.203,0.382 0.375,0.72 0.518,1.012 0.141,-0.292 0.312,-0.63 0.516,-1.012 0.203,-0.383 0.404,-0.752 0.602,-1.111 l 1.586,-2.846 1.23,0 -3.398,5.973 z m -5.641,2.421 c -0.146,0.34 -0.361,0.633 -0.645,0.878 -0.284,0.245 -0.627,0.438 -1.033,0.58 -0.406,0.142 -0.867,0.212 -1.387,0.212 -0.68,0 -1.305,-0.13 -1.875,-0.389 -0.572,-0.26 -1.055,-0.588 -1.451,-0.984 l 0.736,-0.82 c 0.377,0.358 0.783,0.646 1.217,0.863 0.434,0.217 0.906,0.325 1.416,0.325 0.66,0 1.182,-0.15 1.564,-0.453 0.381,-0.302 0.572,-0.717 0.572,-1.245 0,-0.227 -0.04,-0.434 -0.113,-0.623 -0.08,-0.188 -0.205,-0.363 -0.389,-0.523 -0.184,-0.16 -0.428,-0.318 -0.729,-0.475 -0.303,-0.155 -0.68,-0.313 -1.133,-0.474 -0.539,-0.189 -0.988,-0.38 -1.352,-0.574 -0.363,-0.193 -0.656,-0.4 -0.879,-0.622 -0.221,-0.222 -0.381,-0.47 -0.48,-0.743 -0.1,-0.274 -0.148,-0.59 -0.148,-0.948 0,-0.396 0.07,-0.75 0.227,-1.062 0.15,-0.311 0.361,-0.578 0.629,-0.799 0.27,-0.223 0.596,-0.39 0.977,-0.503 0.383,-0.113 0.805,-0.17 1.268,-0.17 0.66,0 1.225,0.1 1.691,0.283 0.466,0.188 0.908,0.448 1.324,0.778 l -0.709,0.863 c -0.357,-0.302 -0.719,-0.53 -1.082,-0.686 -0.363,-0.156 -0.795,-0.234 -1.295,-0.234 -0.34,0 -0.633,0.04 -0.879,0.121 -0.244,0.08 -0.445,0.186 -0.602,0.318 -0.154,0.132 -0.268,0.285 -0.34,0.459 -0.07,0.176 -0.105,0.361 -0.105,0.56 0,0.208 0.03,0.395 0.09,0.56 0.06,0.165 0.17,0.325 0.34,0.48 0.17,0.156 0.406,0.31 0.715,0.461 0.305,0.15 0.709,0.316 1.209,0.495 0.547,0.198 1.006,0.396 1.373,0.595 0.369,0.198 0.664,0.415 0.885,0.651 0.223,0.235 0.381,0.495 0.475,0.778 0.09,0.283 0.141,0.608 0.141,0.977 0,0.387 -0.07,0.75 -0.219,1.09 z m -17.855,1.515 0,-9.909 5.986,0 0,1.006 -4.883,0 0,3.113 2.83,0 0,1.006 -2.83,0 0,3.779 5.096,0 0,1.005 -6.199,0 z m -4.913,-8.904 0,8.903 -1.105,0 0,-8.903 -2.916,0 0,-1.006 6.937,0 0,1.006 -2.916,0 z m -5.549,8.904 -0.85,-2.52 -4.091,0 -0.863,2.52 -1.132,0 3.44,-9.909 1.217,0 3.439,9.909 -1.16,0 z m -2.279,-6.781 c -0.06,-0.16 -0.115,-0.335 -0.177,-0.523 -0.06,-0.189 -0.12,-0.371 -0.177,-0.545 -0.06,-0.175 -0.106,-0.34 -0.148,-0.496 -0.04,-0.156 -0.08,-0.285 -0.106,-0.389 -0.03,0.104 -0.06,0.23 -0.106,0.382 -0.04,0.152 -0.09,0.316 -0.148,0.495 -0.06,0.18 -0.118,0.366 -0.184,0.56 -0.07,0.193 -0.128,0.375 -0.185,0.545 l -1.09,3.228 3.411,0 -1.09,-3.257 z m -7.304,6.484 c -0.538,0.302 -1.17,0.452 -1.896,0.452 -0.604,0 -1.154,-0.13 -1.649,-0.389 -0.495,-0.26 -0.918,-0.616 -1.267,-1.069 -0.35,-0.452 -0.618,-0.99 -0.807,-1.613 -0.189,-0.623 -0.283,-1.298 -0.283,-2.024 0,-0.736 0.099,-1.418 0.297,-2.045 0.198,-0.628 0.474,-1.168 0.828,-1.621 0.354,-0.453 0.781,-0.809 1.281,-1.068 0.5,-0.26 1.047,-0.39 1.642,-0.39 1.34,0 2.392,0.528 3.156,1.585 l -0.877,0.666 c -0.321,-0.434 -0.651,-0.75 -0.991,-0.949 -0.34,-0.197 -0.779,-0.297 -1.316,-0.297 -0.425,0 -0.816,0.102 -1.175,0.305 -0.358,0.203 -0.665,0.483 -0.92,0.842 -0.255,0.359 -0.456,0.789 -0.602,1.289 -0.146,0.5 -0.219,1.052 -0.219,1.655 0,0.604 0.073,1.159 0.219,1.663 0.146,0.505 0.352,0.939 0.616,1.303 0.264,0.364 0.576,0.646 0.934,0.85 0.359,0.203 0.746,0.304 1.161,0.304 0.538,0 1,-0.113 1.387,-0.34 0.387,-0.227 0.741,-0.547 1.062,-0.962 l 0.764,0.665 c -0.359,0.49 -0.807,0.885 -1.345,1.188 z m -9.258,0.297 0,-9.909 1.104,0 0,9.909 -1.104,0 z m -6.723,-8.904 0,3.283 2.718,0 0,1.006 -2.718,0 0,4.614 -1.104,0 0,-9.909 5.818,0 0,1.006 -4.714,0 z m -4.884,8.904 0,-9.909 1.104,0 0,9.909 -1.104,0 z m -4.982,-8.904 0,8.903 -1.104,0 0,-8.903 -2.916,0 0,-1.006 6.936,0 0,1.006 -2.916,0 z m -5.974,3.665 c -0.425,0.472 -0.991,0.783 -1.699,0.934 l 2.18,4.305 -1.274,0 -2.123,-4.219 -2.35,0 0,4.219 -1.104,0 0,-9.909 3.921,0 c 0.434,0 0.84,0.06 1.217,0.17 0.377,0.113 0.703,0.286 0.977,0.518 0.273,0.23 0.49,0.521 0.651,0.869 0.161,0.35 0.241,0.765 0.241,1.246 0,0.773 -0.212,1.396 -0.637,1.867 z m -0.984,-3.207 c -0.345,-0.306 -0.847,-0.458 -1.508,-0.458 l -2.774,0 0,3.681 2.633,0 c 0.736,0 1.281,-0.153 1.635,-0.459 0.354,-0.306 0.531,-0.769 0.531,-1.39 0,-0.61 -0.172,-1.068 -0.517,-1.374 z m -13.695,8.446 0,-9.909 5.988,0 0,1.006 -4.884,0 0,3.113 2.831,0 0,1.006 -2.831,0 0,3.779 5.096,0 0,1.005 -6.2,0 z m -3.411,-0.297 c -0.538,0.302 -1.17,0.452 -1.896,0.452 -0.604,0 -1.154,-0.13 -1.649,-0.389 -0.495,-0.26 -0.918,-0.616 -1.267,-1.069 -0.35,-0.452 -0.618,-0.99 -0.807,-1.613 C 9.094,25.8437 9,25.1687 9,24.4427 c 0,-0.736 0.099,-1.418 0.297,-2.045 0.198,-0.628 0.474,-1.168 0.828,-1.621 0.354,-0.453 0.781,-0.809 1.281,-1.068 0.5,-0.26 1.047,-0.39 1.642,-0.39 1.34,0 2.392,0.528 3.156,1.585 l -0.877,0.666 c -0.321,-0.434 -0.651,-0.75 -0.991,-0.949 -0.34,-0.197 -0.779,-0.297 -1.316,-0.297 -0.425,0 -0.816,0.102 -1.175,0.305 -0.358,0.203 -0.665,0.483 -0.92,0.842 -0.255,0.359 -0.456,0.789 -0.602,1.289 -0.146,0.5 -0.219,1.052 -0.219,1.655 0,0.604 0.073,1.159 0.219,1.663 0.146,0.505 0.352,0.939 0.616,1.303 0.264,0.364 0.576,0.646 0.934,0.85 0.359,0.203 0.746,0.304 1.161,0.304 0.538,0 1,-0.113 1.387,-0.34 0.387,-0.227 0.741,-0.547 1.062,-0.962 l 0.764,0.665 c -0.359,0.49 -0.807,0.885 -1.345,1.188 z m 38.356,-18.16 c -0.042,0.1 -0.099,0.186 -0.172,0.259 -0.073,0.07 -0.16,0.13 -0.259,0.172 -0.1,0.04 -0.208,0.06 -0.324,0.06 -0.116,0 -0.224,-0.02 -0.323,-0.06 -0.099,-0.04 -0.186,-0.1 -0.259,-0.172 -0.073,-0.07 -0.13,-0.16 -0.172,-0.259 -0.042,-0.1 -0.062,-0.208 -0.062,-0.324 0,-0.116 0.021,-0.224 0.062,-0.323 0.042,-0.1 0.099,-0.186 0.172,-0.259 0.073,-0.07 0.16,-0.13 0.259,-0.172 0.1,-0.04 0.208,-0.06 0.323,-0.06 0.116,0 0.224,0.02 0.324,0.06 0.099,0.04 0.186,0.1 0.259,0.172 0.073,0.07 0.13,0.16 0.172,0.259 0.042,0.1 0.062,0.208 0.062,0.323 0,0.116 -0.021,0.224 -0.062,0.324 z m -0.121,-0.594 c -0.035,-0.08 -0.083,-0.156 -0.145,-0.218 -0.062,-0.06 -0.135,-0.11 -0.218,-0.145 -0.084,-0.03 -0.174,-0.05 -0.271,-0.05 -0.098,0 -0.188,0.02 -0.271,0.05 -0.083,0.03 -0.155,0.08 -0.217,0.145 -0.062,0.06 -0.11,0.135 -0.145,0.218 -0.035,0.08 -0.052,0.174 -0.052,0.27 0,0.1 0.018,0.188 0.052,0.271 0.034,0.08 0.083,0.155 0.145,0.217 0.062,0.06 0.134,0.11 0.217,0.145 0.083,0.03 0.173,0.05 0.271,0.05 0.097,0 0.187,-0.02 0.271,-0.05 0.083,-0.04 0.156,-0.08 0.218,-0.145 0.062,-0.06 0.11,-0.134 0.145,-0.217 0.035,-0.08 0.052,-0.173 0.052,-0.271 0,-0.1 -0.018,-0.187 -0.052,-0.27 z m -0.315,0.25 c -0.034,0.04 -0.081,0.07 -0.138,0.09 l 0.183,0.359 -0.177,0 -0.173,-0.344 -0.171,0 0,0.344 -0.151,0 0,-0.891 0.39,0 c 0.04,0 0.077,0 0.112,0.02 0.035,0.01 0.066,0.03 0.092,0.05 0.026,0.02 0.047,0.05 0.063,0.08 0.016,0.03 0.024,0.07 0.024,0.121 0,0.07 -0.019,0.129 -0.054,0.173 z m -0.14,-0.262 c -0.027,-0.02 -0.061,-0.03 -0.102,-0.03 l -0.235,0 0,0.253 0.235,0 c 0.041,0 0.075,-0.01 0.102,-0.03 0.027,-0.02 0.041,-0.05 0.041,-0.1 0,-0.04 -0.013,-0.07 -0.041,-0.09 z m -3.747,1.076 0,5.011 -1.831,0 0,-5.011 -1.85,0 0,-1.595 5.53,0 0,1.595 -1.849,0 z m -5.435,5.011 -0.359,-1.161 -1.981,0 -0.359,1.161 -1.963,0 2.397,-6.606 1.85,0 2.397,6.606 -1.982,0 z m -0.925,-3.049 c -0.057,-0.213 -0.107,-0.399 -0.151,-0.557 -0.044,-0.157 -0.083,-0.299 -0.118,-0.424 -0.035,-0.126 -0.064,-0.241 -0.09,-0.345 -0.025,-0.104 -0.047,-0.212 -0.066,-0.326 -0.019,0.113 -0.041,0.224 -0.066,0.331 -0.025,0.107 -0.055,0.223 -0.09,0.349 -0.035,0.126 -0.074,0.268 -0.118,0.425 -0.044,0.157 -0.095,0.339 -0.151,0.547 l -0.123,0.435 1.095,0 -0.122,-0.435 z m -6.55,3.049 0,-2.604 -2.057,0 0,2.604 -1.868,0 0,-6.606 1.869,0 0,2.407 2.057,0 0,-2.407 1.869,0 0,6.606 -1.87,0 z m -8.37,-1.77 c -0.151,0.425 -0.377,0.768 -0.68,1.029 -0.302,0.261 -0.674,0.45 -1.118,0.566 -0.443,0.117 -0.958,0.175 -1.543,0.175 l -2.142,0 0,-6.606 2.312,0 c 0.516,0 0.985,0.05 1.406,0.161 0.421,0.107 0.778,0.288 1.071,0.542 0.293,0.255 0.519,0.59 0.68,1.005 0.161,0.416 0.241,0.935 0.241,1.557 0,0.623 -0.076,1.147 -0.227,1.571 z m -1.731,-2.326 c -0.054,-0.22 -0.14,-0.399 -0.26,-0.538 -0.12,-0.139 -0.277,-0.241 -0.472,-0.307 -0.195,-0.07 -0.434,-0.1 -0.717,-0.1 l -0.453,0 0,3.473 0.396,0 c 0.283,0 0.525,-0.03 0.727,-0.09 0.201,-0.06 0.367,-0.157 0.496,-0.292 0.129,-0.135 0.222,-0.314 0.278,-0.538 0.057,-0.223 0.085,-0.499 0.085,-0.826 0,-0.302 -0.027,-0.563 -0.08,-0.783 z m -10.046,4.096 0,-6.606 5.058,0 0,1.539 -3.246,0 0,0.887 1.954,0 0,1.51 -1.954,0 0,1.132 3.312,0 0,1.538 -5.124,0 z m -3.147,0 -1.078,-2.227 -0.738,0 0,2.227 -1.793,0 0,-6.606 2.954,0 c 0.384,0 0.735,0.04 1.052,0.118 0.318,0.08 0.59,0.203 0.816,0.373 0.226,0.17 0.401,0.392 0.524,0.666 0.123,0.273 0.184,0.605 0.184,0.996 0,0.497 -0.107,0.903 -0.322,1.217 -0.215,0.314 -0.505,0.554 -0.871,0.717 l 1.324,2.52 -2.052,0 z m -0.085,-4.917 c -0.124,-0.132 -0.331,-0.198 -0.621,-0.198 l -1.11,0 0,1.444 1.081,0 c 0.304,0 0.519,-0.06 0.645,-0.189 0.126,-0.125 0.19,-0.308 0.19,-0.547 0,-0.208 -0.062,-0.378 -0.185,-0.51 z
"  />

</svg>