<svg width="180" height="60" viewbox="0 0 180 60" class="product">

<path
  d="
m 71.212,29.3827 0,-9.909 5.988,0 0,1.006 -4.885,0 0,3.113 2.832,0 0,1.006 -2.832,0 0,3.779 5.096,0 0,1.005 -6.199,0 z m -4.912,-8.904 0,8.903 -1.104,0 0,-8.903 -2.916,0 0,-1.006 6.936,0 0,1.006 -2.916,0 z m -7.191,8.904 0,-9.909 1.104,0 0,9.909 -1.104,0 z m -8.21,0 0,-9.909 1.104,0 0,8.904 4.898,0 0,1.005 -6.002,0 z m -8.139,0 0,-9.909 1.104,0 0,8.904 4.898,0 0,1.005 -6.002,0 z m -8.309,0 0,-9.909 5.988,0 0,1.006 -4.884,0 0,3.113 2.831,0 0,1.006 -2.831,0 0,3.779 5.096,0 0,1.005 -6.2,0 z m -4.912,-8.904 0,8.903 -1.104,0 0,-8.903 -2.916,0 0,-1.006 6.936,0 0,1.006 -2.916,0 z m -5.549,8.904 -0.85,-2.52 -4.091,0 -0.863,2.52 -1.133,0 3.44,-9.91 1.217,0 3.44,9.909 -1.16,0 z m -2.279,-6.781 c -0.057,-0.16 -0.116,-0.335 -0.177,-0.523 -0.062,-0.189 -0.121,-0.371 -0.177,-0.545 -0.057,-0.175 -0.106,-0.34 -0.148,-0.496 -0.042,-0.156 -0.078,-0.285 -0.106,-0.389 -0.028,0.104 -0.064,0.23 -0.106,0.382 -0.042,0.152 -0.092,0.316 -0.148,0.495 -0.057,0.18 -0.118,0.366 -0.184,0.56 -0.066,0.193 -0.127,0.375 -0.184,0.545 l -1.09,3.228 3.411,0 -1.091,-3.257 z m -6.321,5.266 c -0.146,0.34 -0.361,0.633 -0.644,0.878 -0.283,0.245 -0.627,0.438 -1.033,0.58 -0.406,0.142 -0.868,0.212 -1.387,0.212 -0.679,0 -1.305,-0.13 -1.875,-0.389 C 9.88,28.8887 9.396,28.5607 9,28.1647 l 0.736,-0.82 c 0.377,0.358 0.783,0.646 1.217,0.863 0.434,0.217 0.906,0.325 1.416,0.325 0.661,0 1.182,-0.15 1.564,-0.453 0.382,-0.302 0.574,-0.717 0.574,-1.245 0,-0.227 -0.038,-0.434 -0.113,-0.623 -0.076,-0.188 -0.206,-0.363 -0.39,-0.523 -0.184,-0.16 -0.427,-0.318 -0.729,-0.475 -0.302,-0.155 -0.679,-0.313 -1.132,-0.474 -0.538,-0.189 -0.989,-0.38 -1.352,-0.574 -0.364,-0.193 -0.656,-0.4 -0.878,-0.622 -0.222,-0.222 -0.382,-0.47 -0.481,-0.743 -0.099,-0.274 -0.149,-0.59 -0.149,-0.948 0,-0.396 0.076,-0.75 0.227,-1.062 0.151,-0.311 0.361,-0.578 0.63,-0.799 0.269,-0.223 0.595,-0.39 0.977,-0.503 0.382,-0.113 0.805,-0.17 1.267,-0.17 0.661,0 1.225,0.1 1.691,0.283 0.467,0.188 0.908,0.448 1.324,0.778 l -0.708,0.863 c -0.358,-0.302 -0.72,-0.53 -1.083,-0.686 -0.364,-0.156 -0.795,-0.234 -1.295,-0.234 -0.34,0 -0.632,0.04 -0.877,0.121 -0.246,0.08 -0.446,0.186 -0.602,0.318 -0.156,0.132 -0.269,0.285 -0.34,0.459 -0.071,0.176 -0.106,0.361 -0.106,0.56 0,0.208 0.028,0.395 0.085,0.56 0.057,0.165 0.17,0.325 0.34,0.48 0.17,0.156 0.408,0.31 0.715,0.461 0.307,0.15 0.71,0.316 1.21,0.495 0.547,0.198 1.005,0.396 1.373,0.595 0.368,0.199 0.663,0.415 0.885,0.651 0.222,0.235 0.379,0.495 0.474,0.778 0.094,0.283 0.142,0.608 0.142,0.977 0,0.387 -0.075,0.75 -0.222,1.09 z m 37.967,-16.942 c -0.04,0.1 -0.1,0.186 -0.172,0.259 -0.07,0.07 -0.159,0.13 -0.259,0.172 -0.1,0.04 -0.207,0.06 -0.324,0.06 -0.115,0 -0.223,-0.02 -0.322,-0.06 -0.1,-0.04 -0.186,-0.1 -0.26,-0.172 -0.07,-0.07 -0.13,-0.16 -0.172,-0.259 -0.04,-0.1 -0.06,-0.208 -0.06,-0.324 0,-0.116 0.02,-0.224 0.06,-0.323 0.04,-0.1 0.1,-0.186 0.172,-0.259 0.07,-0.07 0.16,-0.13 0.26,-0.172 0.1,-0.04 0.207,-0.06 0.322,-0.06 0.117,0 0.225,0.02 0.324,0.06 0.1,0.04 0.186,0.1 0.259,0.172 0.07,0.07 0.13,0.16 0.172,0.259 0.04,0.1 0.06,0.208 0.06,0.323 0,0.116 -0.02,0.224 -0.06,0.324 z m -0.121,-0.594 c -0.03,-0.08 -0.08,-0.156 -0.145,-0.218 -0.06,-0.06 -0.135,-0.11 -0.218,-0.145 -0.08,-0.03 -0.174,-0.05 -0.271,-0.05 -0.1,0 -0.188,0.02 -0.271,0.05 -0.08,0.03 -0.155,0.08 -0.218,0.145 -0.06,0.06 -0.109,0.135 -0.145,0.218 -0.03,0.08 -0.05,0.174 -0.05,0.27 0,0.1 0.02,0.188 0.05,0.271 0.04,0.08 0.08,0.155 0.145,0.217 0.06,0.06 0.135,0.11 0.218,0.145 0.08,0.03 0.173,0.05 0.271,0.05 0.1,0 0.188,-0.02 0.271,-0.05 0.08,-0.04 0.156,-0.08 0.218,-0.145 0.06,-0.06 0.11,-0.134 0.145,-0.217 0.04,-0.08 0.05,-0.173 0.05,-0.271 0,-0.1 -0.02,-0.187 -0.05,-0.27 z m -0.314,0.25 c -0.03,0.04 -0.08,0.07 -0.138,0.09 l 0.184,0.359 -0.178,0 -0.174,-0.344 -0.172,0 0,0.344 -0.15,0 0,-0.891 0.389,0 c 0.04,0 0.08,0 0.112,0.02 0.03,0.01 0.06,0.03 0.09,0.05 0.03,0.02 0.05,0.05 0.06,0.08 0.02,0.03 0.02,0.07 0.02,0.121 0,0.07 -0.02,0.129 -0.05,0.173 z m -0.14,-0.262 c -0.03,-0.02 -0.06,-0.03 -0.102,-0.03 l -0.236,0 0,0.253 0.236,0 c 0.04,0 0.07,-0.01 0.102,-0.03 0.03,-0.02 0.04,-0.05 0.04,-0.1 0,-0.04 -0.01,-0.07 -0.04,-0.09 z m -3.748,1.076 0,5.011 -1.83,0 0,-5.011 -1.85,0 0,-1.595 5.529,0 0,1.595 -1.849,0 z m -5.435,5.011 -0.359,-1.161 -1.981,0 -0.359,1.161 -1.963,0 2.397,-6.606 1.85,0 2.397,6.606 -1.982,0 z m -0.925,-3.049 c -0.06,-0.213 -0.107,-0.399 -0.151,-0.557 -0.04,-0.157 -0.08,-0.299 -0.118,-0.424 -0.04,-0.126 -0.06,-0.241 -0.09,-0.345 -0.03,-0.104 -0.05,-0.212 -0.07,-0.326 -0.02,0.113 -0.04,0.224 -0.07,0.331 -0.02,0.107 -0.05,0.223 -0.09,0.349 -0.03,0.126 -0.07,0.268 -0.118,0.425 -0.04,0.157 -0.09,0.339 -0.151,0.547 l -0.123,0.435 1.095,0 -0.122,-0.435 z m -6.549,3.049 0,-2.604 -2.057,0 0,2.604 -1.869,0 0,-6.606 1.869,0 0,2.407 2.057,0 0,-2.407 1.869,0 0,6.606 -1.869,0 z m -8.37,-1.77 c -0.151,0.425 -0.377,0.768 -0.68,1.029 -0.302,0.261 -0.674,0.45 -1.118,0.566 -0.443,0.117 -0.958,0.175 -1.543,0.175 l -2.142,0 0,-6.606 2.312,0 c 0.516,0 0.985,0.05 1.406,0.161 0.421,0.107 0.778,0.288 1.071,0.542 0.293,0.255 0.519,0.59 0.68,1.005 0.161,0.416 0.241,0.935 0.241,1.557 0,0.623 -0.076,1.147 -0.227,1.571 z m -1.732,-2.326 c -0.054,-0.22 -0.14,-0.399 -0.26,-0.538 -0.12,-0.139 -0.277,-0.241 -0.472,-0.307 -0.195,-0.07 -0.434,-0.1 -0.717,-0.1 l -0.453,0 0,3.473 0.396,0 c 0.283,0 0.525,-0.03 0.727,-0.09 0.201,-0.06 0.367,-0.157 0.496,-0.292 0.129,-0.135 0.222,-0.314 0.278,-0.538 0.057,-0.223 0.085,-0.499 0.085,-0.826 0,-0.302 -0.027,-0.563 -0.08,-0.783 z m -10.045,4.096 0,-6.606 5.058,0 0,1.539 -3.246,0 0,0.887 1.954,0 0,1.51 -1.954,0 0,1.132 3.312,0 0,1.538 -5.124,0 z m -3.148,0 -1.078,-2.227 -0.738,0 0,2.227 -1.793,0 0,-6.606 2.954,0 c 0.384,0 0.735,0.04 1.052,0.118 0.318,0.08 0.59,0.203 0.816,0.373 0.226,0.17 0.401,0.392 0.524,0.666 0.123,0.273 0.184,0.605 0.184,0.996 0,0.497 -0.107,0.903 -0.322,1.217 -0.215,0.314 -0.505,0.554 -0.871,0.717 l 1.324,2.52 -2.052,0 z m -0.085,-4.917 c -0.124,-0.132 -0.331,-0.198 -0.621,-0.198 l -1.11,0 0,1.444 1.081,0 c 0.304,0 0.519,-0.06 0.645,-0.189 0.126,-0.125 0.19,-0.308 0.19,-0.547 0,-0.208 -0.062,-0.378 -0.185,-0.51 z

"  />

</svg>