<svg width="180" height="60" viewbox="0 0 180 60" class="product">

<path
  d="

m 72.84,42.4477 -2.93,-5.28 -1.883,2.436 0,2.845 -1.104,0 0,-9.909 1.104,0 0,4.317 0,1.331 c 0.06,-0.09 0.158,-0.224 0.275,-0.39 0.118,-0.165 0.248,-0.342 0.39,-0.53 0.142,-0.188 0.28,-0.373 0.417,-0.552 0.137,-0.18 0.258,-0.335 0.361,-0.468 l 2.873,-3.709 1.203,0 -2.901,3.724 3.454,6.186 -1.259,0 z m -8.748,-5.238 c -0.424,0.472 -0.99,0.783 -1.698,0.934 l 2.18,4.305 -1.274,0 -2.123,-4.219 -2.35,0 0,4.219 -1.104,0 0,-9.909 3.92,0 c 0.435,0 0.84,0.06 1.218,0.17 0.378,0.113 0.703,0.286 0.978,0.518 0.273,0.23 0.49,0.521 0.65,0.87 0.16,0.349 0.24,0.764 0.24,1.245 0,0.772 -0.212,1.395 -0.637,1.867 z m -0.983,-3.207 c -0.345,-0.306 -0.847,-0.458 -1.508,-0.458 l -2.774,0 0,3.68 2.633,0 c 0.736,0 1.281,-0.152 1.635,-0.458 0.354,-0.306 0.531,-0.769 0.531,-1.389 0,-0.611 -0.172,-1.069 -0.517,-1.375 z m -7.863,5.536 c -0.198,0.628 -0.479,1.168 -0.843,1.621 -0.364,0.453 -0.799,0.807 -1.309,1.062 -0.509,0.255 -1.071,0.382 -1.685,0.382 -0.613,0 -1.172,-0.125 -1.677,-0.375 -0.505,-0.25 -0.937,-0.602 -1.295,-1.055 -0.359,-0.452 -0.635,-0.99 -0.828,-1.613 -0.194,-0.623 -0.291,-1.307 -0.291,-2.053 0,-0.745 0.1,-1.432 0.297,-2.06 0.198,-0.627 0.477,-1.168 0.835,-1.62 0.358,-0.453 0.792,-0.808 1.302,-1.062 0.509,-0.254 1.071,-0.382 1.684,-0.382 0.614,0 1.173,0.125 1.678,0.375 0.504,0.25 0.936,0.602 1.295,1.055 0.358,0.453 0.637,0.991 0.835,1.613 0.198,0.623 0.298,1.308 0.298,2.053 0,0.746 -0.1,1.432 -0.296,2.059 z m -1.041,-3.723 c -0.156,-0.505 -0.371,-0.938 -0.645,-1.302 -0.274,-0.363 -0.595,-0.642 -0.962,-0.836 -0.368,-0.193 -0.77,-0.29 -1.203,-0.29 -0.425,0 -0.819,0.1 -1.182,0.29 -0.363,0.194 -0.677,0.468 -0.941,0.821 -0.264,0.353 -0.472,0.783 -0.623,1.288 -0.151,0.505 -0.226,1.068 -0.226,1.691 0,0.623 0.08,1.188 0.233,1.691 0.156,0.505 0.368,0.939 0.637,1.303 0.269,0.363 0.588,0.642 0.956,0.835 0.368,0.193 0.769,0.29 1.203,0.29 0.425,0 0.821,-0.1 1.189,-0.29 0.368,-0.193 0.684,-0.467 0.948,-0.821 0.265,-0.354 0.472,-0.783 0.623,-1.288 0.15,-0.504 0.226,-1.068 0.226,-1.691 0,-0.623 -0.08,-1.186 -0.233,-1.691 z m -10.383,6.632 -1.246,0 -1.557,-6.342 c -0.038,-0.16 -0.08,-0.34 -0.127,-0.538 -0.047,-0.198 -0.092,-0.396 -0.134,-0.594 -0.042,-0.198 -0.083,-0.395 -0.12,-0.588 -0.038,-0.193 -0.071,-0.365 -0.099,-0.517 -0.028,0.151 -0.062,0.321 -0.099,0.51 -0.038,0.188 -0.078,0.382 -0.121,0.58 -0.043,0.198 -0.087,0.396 -0.134,0.595 -0.047,0.198 -0.09,0.382 -0.127,0.552 l -1.557,6.342 -1.218,0 -1.982,-9.909 1.104,0 1.161,6.37 c 0.028,0.161 0.059,0.345 0.092,0.553 0.033,0.207 0.066,0.412 0.099,0.615 0.033,0.203 0.066,0.396 0.099,0.58 0.033,0.185 0.059,0.338 0.078,0.46 0.019,-0.122 0.047,-0.273 0.085,-0.452 0.038,-0.18 0.078,-0.371 0.12,-0.573 0.042,-0.203 0.087,-0.406 0.134,-0.609 0.047,-0.202 0.09,-0.384 0.127,-0.545 l 1.571,-6.398 1.189,0 1.571,6.398 c 0.038,0.161 0.08,0.343 0.127,0.545 0.047,0.203 0.092,0.406 0.135,0.609 0.042,0.202 0.082,0.394 0.12,0.573 0.038,0.179 0.066,0.33 0.085,0.452 0.019,-0.122 0.044,-0.275 0.078,-0.46 0.033,-0.184 0.066,-0.377 0.099,-0.58 0.033,-0.203 0.066,-0.408 0.099,-0.615 0.033,-0.208 0.064,-0.392 0.092,-0.553 l 1.161,-6.37 1.076,0 -1.981,9.909 z m -12.937,-8.903 0,8.903 -1.104,0 0,-8.903 -2.916,0 0,-1.006 6.936,0 0,1.006 -2.916,0 z m -11.721,8.903 0,-9.909 5.988,0 0,1.006 -4.884,0 0,3.114 2.831,0 0,1.005 -2.831,0 0,3.779 5.096,0 0,1.005 -6.2,0 z m -3.638,0 -4.319,-6.78 c -0.057,-0.08 -0.118,-0.187 -0.184,-0.305 -0.066,-0.117 -0.132,-0.235 -0.198,-0.354 -0.066,-0.119 -0.129,-0.229 -0.19,-0.333 -0.062,-0.104 -0.106,-0.188 -0.134,-0.255 l 0,0.68 0,7.347 -1.076,0 0,-9.909 1.076,0 4.289,6.908 c 0.057,0.09 0.118,0.187 0.184,0.305 0.066,0.118 0.132,0.235 0.198,0.354 0.066,0.119 0.129,0.229 0.191,0.333 0.062,0.104 0.106,0.188 0.135,0.255 l 0,-0.68 0,-7.475 1.076,0 0,9.909 -1.048,0 z m 76.248,-14.49 c -0.146,0.34 -0.361,0.633 -0.645,0.878 -0.284,0.245 -0.629,0.438 -1.033,0.58 -0.406,0.142 -0.869,0.212 -1.387,0.212 -0.68,0 -1.305,-0.13 -1.877,-0.389 -0.57,-0.26 -1.055,-0.588 -1.451,-0.984 l 0.736,-0.82 c 0.377,0.358 0.783,0.646 1.219,0.863 0.434,0.217 0.904,0.325 1.414,0.325 0.66,0 1.182,-0.15 1.564,-0.453 0.383,-0.302 0.574,-0.717 0.574,-1.245 0,-0.227 -0.04,-0.434 -0.113,-0.623 -0.08,-0.188 -0.205,-0.363 -0.391,-0.523 -0.184,-0.16 -0.426,-0.318 -0.729,-0.475 -0.303,-0.155 -0.68,-0.313 -1.133,-0.474 -0.537,-0.189 -0.988,-0.38 -1.352,-0.574 -0.363,-0.193 -0.656,-0.4 -0.877,-0.622 -0.223,-0.222 -0.383,-0.47 -0.482,-0.743 -0.1,-0.274 -0.148,-0.59 -0.148,-0.948 0,-0.396 0.08,-0.75 0.227,-1.062 0.152,-0.311 0.361,-0.578 0.631,-0.799 0.268,-0.223 0.594,-0.39 0.977,-0.503 0.383,-0.113 0.805,-0.17 1.268,-0.17 0.66,0 1.223,0.1 1.691,0.283 0.467,0.188 0.908,0.448 1.322,0.778 l -0.707,0.863 c -0.359,-0.302 -0.721,-0.53 -1.084,-0.686 -0.363,-0.156 -0.795,-0.234 -1.295,-0.234 -0.34,0 -0.631,0.04 -0.877,0.121 -0.246,0.08 -0.445,0.186 -0.602,0.318 -0.156,0.132 -0.27,0.285 -0.34,0.459 -0.07,0.176 -0.105,0.361 -0.105,0.56 0,0.208 0.03,0.395 0.08,0.56 0.06,0.165 0.17,0.325 0.34,0.48 0.17,0.156 0.408,0.31 0.715,0.461 0.307,0.15 0.711,0.316 1.211,0.495 0.547,0.198 1.004,0.396 1.373,0.595 0.367,0.198 0.662,0.415 0.885,0.651 0.221,0.235 0.379,0.495 0.473,0.778 0.1,0.283 0.143,0.608 0.143,0.977 0,0.387 -0.07,0.75 -0.219,1.09 z m -9.506,1.515 -4.32,-6.78 c -0.06,-0.08 -0.117,-0.187 -0.184,-0.305 -0.07,-0.117 -0.131,-0.235 -0.197,-0.354 -0.07,-0.119 -0.129,-0.229 -0.191,-0.333 -0.06,-0.104 -0.105,-0.188 -0.133,-0.255 l 0,0.68 0,7.347 -1.076,0 0,-9.909 1.076,0 4.289,6.908 c 0.06,0.09 0.117,0.187 0.184,0.305 0.07,0.118 0.133,0.235 0.199,0.354 0.06,0.118 0.129,0.229 0.189,0.333 0.06,0.104 0.107,0.188 0.135,0.255 l 0,-0.68 0,-7.475 1.076,0 0,9.909 -1.047,0 z m -8.578,-2.91 c -0.199,0.628 -0.48,1.168 -0.844,1.621 -0.364,0.453 -0.799,0.807 -1.309,1.062 -0.509,0.255 -1.07,0.382 -1.684,0.382 -0.614,0 -1.173,-0.125 -1.678,-0.375 -0.505,-0.25 -0.937,-0.602 -1.295,-1.055 -0.359,-0.452 -0.635,-0.99 -0.828,-1.613 -0.193,-0.623 -0.291,-1.307 -0.291,-2.053 0,-0.745 0.1,-1.432 0.298,-2.06 0.198,-0.628 0.477,-1.167 0.835,-1.62 0.359,-0.453 0.793,-0.807 1.303,-1.062 0.51,-0.254 1.07,-0.382 1.684,-0.382 0.614,0 1.174,0.125 1.678,0.375 0.504,0.251 0.936,0.602 1.295,1.055 0.359,0.453 0.637,0.991 0.836,1.614 0.197,0.623 0.297,1.307 0.297,2.052 0,0.746 -0.1,1.433 -0.297,2.059 z m -1.041,-3.722 c -0.156,-0.504 -0.371,-0.939 -0.645,-1.303 -0.274,-0.364 -0.594,-0.641 -0.961,-0.834 -0.369,-0.193 -0.77,-0.291 -1.203,-0.291 -0.426,0 -0.819,0.1 -1.183,0.291 -0.364,0.193 -0.677,0.467 -0.941,0.82 -0.264,0.353 -0.472,0.783 -0.623,1.288 -0.151,0.505 -0.226,1.069 -0.226,1.691 0,0.623 0.08,1.188 0.232,1.691 0.156,0.505 0.369,0.939 0.637,1.303 0.27,0.363 0.588,0.642 0.956,0.835 0.368,0.193 0.769,0.29 1.203,0.29 0.425,0 0.821,-0.1 1.188,-0.29 0.369,-0.193 0.686,-0.467 0.949,-0.821 0.264,-0.354 0.471,-0.783 0.623,-1.288 0.15,-0.504 0.227,-1.068 0.227,-1.691 0,-0.623 -0.08,-1.186 -0.233,-1.691 z m -10.24,6.632 0,-9.909 1.104,0 0,9.909 -1.104,0 z m -4.983,-8.904 0,8.903 -1.105,0 0,-8.903 -2.915,0 0,-1.006 6.937,0 0,1.006 -2.917,0 z m -5.549,8.904 -0.85,-2.52 -4.091,0 -0.863,2.52 -1.133,0 3.44,-9.909 1.217,0 3.44,9.909 -1.16,0 z m -2.279,-6.781 c -0.06,-0.16 -0.116,-0.335 -0.177,-0.523 -0.06,-0.189 -0.121,-0.371 -0.177,-0.545 -0.06,-0.175 -0.106,-0.34 -0.148,-0.496 -0.04,-0.156 -0.08,-0.285 -0.106,-0.389 -0.03,0.104 -0.06,0.23 -0.106,0.382 -0.04,0.152 -0.09,0.316 -0.148,0.495 -0.06,0.18 -0.118,0.366 -0.184,0.56 -0.07,0.193 -0.127,0.375 -0.184,0.545 l -1.09,3.228 3.411,0 -1.091,-3.257 z m -6.767,1.542 c -0.425,0.472 -0.991,0.783 -1.699,0.934 l 2.18,4.305 -1.274,0 -2.123,-4.219 -2.35,0 0,4.219 -1.104,0 0,-9.909 3.921,0 c 0.434,0 0.84,0.06 1.217,0.17 0.377,0.113 0.703,0.286 0.977,0.518 0.273,0.23 0.49,0.521 0.651,0.869 0.161,0.35 0.241,0.765 0.241,1.246 0,0.773 -0.212,1.396 -0.637,1.867 z m -0.983,-3.207 c -0.345,-0.306 -0.847,-0.458 -1.508,-0.458 l -2.774,0 0,3.681 2.633,0 c 0.736,0 1.281,-0.153 1.635,-0.459 0.354,-0.306 0.531,-0.769 0.531,-1.39 0,-0.61 -0.173,-1.068 -0.517,-1.374 z m -13.696,8.446 0,-9.909 5.988,0 0,1.006 -4.884,0 0,3.113 2.831,0 0,1.006 -2.831,0 0,3.779 5.096,0 0,1.005 -6.2,0 z m -2.13,-5.642 c -0.165,0.383 -0.394,0.704 -0.687,0.963 -0.292,0.26 -0.646,0.456 -1.062,0.588 -0.416,0.132 -0.869,0.198 -1.359,0.198 l -2.407,0 0,3.893 -1.104,0 0,-9.909 3.708,0 c 0.453,0 0.871,0.06 1.253,0.178 0.382,0.117 0.715,0.299 0.998,0.545 0.283,0.245 0.505,0.555 0.665,0.927 0.161,0.373 0.241,0.81 0.241,1.31 0,0.489 -0.081,0.926 -0.246,1.307 z m -1.394,-2.746 c -0.358,-0.344 -0.877,-0.516 -1.557,-0.516 l -2.562,0 0,4.006 2.421,0 c 1.491,0 2.236,-0.67 2.236,-2.01 0,-0.642 -0.179,-1.134 -0.538,-1.48 z m -7.7,5.478 c -0.198,0.628 -0.479,1.168 -0.842,1.621 -0.363,0.453 -0.8,0.807 -1.31,1.062 -0.509,0.255 -1.071,0.382 -1.685,0.382 -0.613,0 -1.172,-0.125 -1.677,-0.375 -0.505,-0.25 -0.937,-0.602 -1.295,-1.055 C 9.76,27.7457 9.484,27.2077 9.291,26.5847 9.097,25.9617 9,25.2777 9,24.5317 c 0,-0.745 0.099,-1.432 0.297,-2.06 0.198,-0.628 0.477,-1.167 0.835,-1.62 0.358,-0.453 0.792,-0.807 1.302,-1.062 0.509,-0.254 1.071,-0.382 1.684,-0.382 0.614,0 1.173,0.125 1.678,0.375 0.504,0.251 0.937,0.602 1.295,1.055 0.359,0.453 0.637,0.991 0.835,1.614 0.198,0.623 0.297,1.307 0.297,2.052 0,0.746 -0.097,1.433 -0.295,2.059 z m -1.041,-3.722 c -0.156,-0.504 -0.371,-0.939 -0.644,-1.303 -0.274,-0.363 -0.595,-0.641 -0.962,-0.834 -0.368,-0.193 -0.77,-0.291 -1.203,-0.291 -0.425,0 -0.819,0.1 -1.182,0.291 -0.363,0.193 -0.677,0.467 -0.941,0.82 -0.264,0.353 -0.472,0.783 -0.623,1.288 -0.151,0.505 -0.226,1.069 -0.226,1.691 0,0.623 0.078,1.188 0.233,1.691 0.156,0.505 0.368,0.939 0.637,1.303 0.269,0.363 0.588,0.642 0.956,0.835 0.368,0.193 0.769,0.29 1.203,0.29 0.425,0 0.821,-0.1 1.189,-0.29 0.368,-0.193 0.684,-0.467 0.948,-0.821 0.264,-0.354 0.472,-0.783 0.623,-1.288 0.15,-0.504 0.226,-1.068 0.226,-1.691 0,-0.623 -0.078,-1.186 -0.234,-1.691 z m 75.065,-11.825 c -0.04,0.1 -0.1,0.186 -0.172,0.259 -0.07,0.07 -0.158,0.13 -0.258,0.172 -0.1,0.04 -0.207,0.06 -0.324,0.06 -0.115,0 -0.223,-0.02 -0.322,-0.06 -0.1,-0.04 -0.188,-0.1 -0.26,-0.172 -0.07,-0.07 -0.131,-0.16 -0.172,-0.259 -0.04,-0.1 -0.06,-0.208 -0.06,-0.324 0,-0.116 0.02,-0.224 0.06,-0.323 0.04,-0.1 0.1,-0.186 0.172,-0.259 0.07,-0.07 0.16,-0.13 0.26,-0.172 0.1,-0.04 0.207,-0.06 0.322,-0.06 0.117,0 0.225,0.02 0.324,0.06 0.1,0.04 0.186,0.1 0.258,0.172 0.07,0.07 0.131,0.16 0.172,0.259 0.04,0.1 0.06,0.208 0.06,0.323 0,0.116 -0.02,0.224 -0.06,0.324 z m -0.121,-0.594 c -0.03,-0.08 -0.08,-0.156 -0.145,-0.218 -0.06,-0.06 -0.135,-0.11 -0.219,-0.145 -0.08,-0.03 -0.174,-0.05 -0.27,-0.05 -0.1,0 -0.188,0.02 -0.271,0.05 -0.08,0.03 -0.154,0.08 -0.217,0.145 -0.06,0.06 -0.109,0.135 -0.145,0.218 -0.04,0.08 -0.05,0.174 -0.05,0.27 0,0.1 0.02,0.188 0.05,0.271 0.03,0.08 0.08,0.155 0.145,0.217 0.06,0.06 0.135,0.11 0.217,0.145 0.08,0.03 0.174,0.05 0.271,0.05 0.1,0 0.188,-0.02 0.27,-0.05 0.08,-0.04 0.158,-0.08 0.219,-0.145 0.06,-0.06 0.109,-0.134 0.145,-0.217 0.04,-0.08 0.05,-0.173 0.05,-0.271 0,-0.1 -0.02,-0.187 -0.05,-0.27 z m -0.315,0.25 c -0.03,0.04 -0.08,0.07 -0.137,0.09 l 0.184,0.359 -0.18,0 -0.172,-0.344 -0.172,0 0,0.344 -0.15,0 0,-0.891 0.389,0 c 0.04,0 0.08,0 0.111,0.02 0.03,0.01 0.07,0.03 0.09,0.05 0.03,0.02 0.05,0.05 0.06,0.08 0.02,0.03 0.02,0.07 0.02,0.121 0,0.07 -0.02,0.129 -0.05,0.173 z m -0.139,-0.262 c -0.03,-0.02 -0.06,-0.03 -0.104,-0.03 l -0.234,0 0,0.253 0.234,0 c 0.04,0 0.08,-0.01 0.104,-0.03 0.02,-0.02 0.04,-0.05 0.04,-0.1 0,-0.04 -0.01,-0.07 -0.04,-0.09 z m -1.808,5.029 c -0.135,0.271 -0.324,0.491 -0.566,0.661 -0.242,0.17 -0.529,0.296 -0.863,0.377 -0.334,0.08 -0.697,0.123 -1.094,0.123 -0.535,0 -1.047,-0.08 -1.533,-0.231 -0.488,-0.154 -0.906,-0.344 -1.252,-0.571 l 0.889,-1.435 c 0.119,0.08 0.258,0.162 0.42,0.241 0.16,0.08 0.326,0.149 0.5,0.212 0.172,0.06 0.348,0.113 0.523,0.151 0.175,0.04 0.34,0.06 0.49,0.06 0.326,0 0.553,-0.03 0.674,-0.09 0.123,-0.06 0.186,-0.173 0.186,-0.331 0,-0.06 -0.02,-0.119 -0.05,-0.17 -0.04,-0.05 -0.09,-0.1 -0.18,-0.146 -0.08,-0.05 -0.199,-0.09 -0.344,-0.142 -0.145,-0.05 -0.328,-0.1 -0.547,-0.146 -0.396,-0.09 -0.742,-0.195 -1.039,-0.302 -0.295,-0.107 -0.541,-0.241 -0.736,-0.401 -0.195,-0.161 -0.34,-0.354 -0.438,-0.581 -0.1,-0.227 -0.146,-0.506 -0.146,-0.84 0,-0.308 0.06,-0.591 0.184,-0.849 0.123,-0.258 0.297,-0.478 0.523,-0.661 0.226,-0.183 0.5,-0.324 0.822,-0.425 0.32,-0.101 0.678,-0.151 1.074,-0.151 0.566,0 1.059,0.066 1.479,0.198 0.418,0.132 0.803,0.321 1.154,0.566 l -0.887,1.435 c -0.295,-0.201 -0.592,-0.355 -0.887,-0.462 -0.295,-0.107 -0.613,-0.161 -0.953,-0.161 -0.277,0 -0.459,0.04 -0.547,0.113 -0.09,0.08 -0.133,0.173 -0.133,0.292 0,0.06 0.02,0.118 0.05,0.166 0.03,0.05 0.09,0.09 0.174,0.132 0.08,0.04 0.191,0.08 0.33,0.123 0.139,0.04 0.314,0.09 0.529,0.137 0.414,0.101 0.773,0.21 1.076,0.33 0.301,0.12 0.549,0.261 0.744,0.425 0.195,0.164 0.34,0.358 0.436,0.585 0.09,0.227 0.141,0.494 0.141,0.802 0,0.379 -0.07,0.703 -0.203,0.973 z m -6.266,0 c -0.135,0.271 -0.324,0.491 -0.566,0.661 -0.242,0.17 -0.529,0.296 -0.863,0.377 -0.334,0.08 -0.697,0.123 -1.094,0.123 -0.535,0 -1.047,-0.08 -1.533,-0.231 -0.488,-0.154 -0.906,-0.344 -1.252,-0.571 l 0.889,-1.435 c 0.119,0.08 0.258,0.162 0.42,0.241 0.16,0.08 0.326,0.149 0.5,0.212 0.172,0.06 0.348,0.113 0.523,0.151 0.175,0.04 0.34,0.06 0.49,0.06 0.326,0 0.553,-0.03 0.674,-0.09 0.123,-0.06 0.186,-0.173 0.186,-0.331 0,-0.06 -0.02,-0.119 -0.05,-0.17 -0.03,-0.05 -0.09,-0.1 -0.18,-0.146 -0.08,-0.05 -0.199,-0.09 -0.344,-0.142 -0.145,-0.05 -0.328,-0.1 -0.547,-0.146 -0.396,-0.09 -0.742,-0.195 -1.039,-0.302 -0.295,-0.107 -0.541,-0.241 -0.736,-0.401 -0.195,-0.161 -0.34,-0.354 -0.438,-0.581 -0.1,-0.227 -0.146,-0.506 -0.146,-0.84 0,-0.308 0.06,-0.591 0.184,-0.849 0.123,-0.258 0.297,-0.478 0.523,-0.661 0.226,-0.183 0.5,-0.324 0.822,-0.425 0.32,-0.101 0.678,-0.151 1.074,-0.151 0.566,0 1.059,0.066 1.479,0.198 0.418,0.132 0.803,0.321 1.154,0.566 l -0.887,1.435 c -0.295,-0.201 -0.592,-0.355 -0.887,-0.462 -0.295,-0.107 -0.613,-0.161 -0.953,-0.161 -0.277,0 -0.459,0.04 -0.547,0.113 -0.09,0.08 -0.133,0.173 -0.133,0.292 0,0.06 0.02,0.118 0.05,0.166 0.03,0.05 0.09,0.09 0.174,0.132 0.08,0.04 0.191,0.08 0.33,0.123 0.139,0.04 0.314,0.09 0.529,0.137 0.414,0.101 0.773,0.21 1.076,0.33 0.301,0.12 0.549,0.261 0.744,0.425 0.195,0.164 0.34,0.358 0.436,0.585 0.09,0.227 0.141,0.494 0.141,0.802 0,0.379 -0.07,0.703 -0.203,0.973 z m -6.205,-0.797 c -0.15,0.425 -0.361,0.782 -0.633,1.071 -0.27,0.29 -0.594,0.51 -0.971,0.661 -0.379,0.151 -0.791,0.227 -1.236,0.227 -0.447,0 -0.857,-0.07 -1.232,-0.222 -0.375,-0.147 -0.697,-0.365 -0.967,-0.651 -0.271,-0.286 -0.48,-0.642 -0.627,-1.066 -0.148,-0.425 -0.223,-0.911 -0.223,-1.458 0,-0.547 0.08,-1.033 0.227,-1.458 0.151,-0.425 0.361,-0.782 0.633,-1.071 0.27,-0.289 0.594,-0.509 0.973,-0.66 0.377,-0.151 0.789,-0.227 1.234,-0.227 0.447,0 0.857,0.074 1.232,0.222 0.375,0.148 0.695,0.365 0.963,0.651 0.268,0.287 0.477,0.642 0.627,1.066 0.15,0.425 0.227,0.911 0.227,1.458 0,0.547 -0.08,1.033 -0.227,1.457 z m -1.976,-2.798 c -0.205,-0.308 -0.492,-0.462 -0.863,-0.462 -0.371,0 -0.656,0.151 -0.854,0.453 -0.199,0.302 -0.299,0.751 -0.299,1.349 0,0.598 0.104,1.051 0.307,1.359 0.205,0.309 0.492,0.462 0.863,0.462 0.371,0 0.656,-0.151 0.855,-0.453 0.197,-0.302 0.297,-0.752 0.297,-1.35 0,-0.598 -0.101,-1.05 -0.306,-1.358 z m -5.299,4.097 c -0.409,0.371 -1.032,0.556 -1.869,0.556 l -3.17,0 0,-6.606 3.189,0 c 0.817,0 1.407,0.148 1.77,0.444 0.361,0.296 0.543,0.722 0.543,1.277 0,0.359 -0.08,0.633 -0.232,0.822 -0.154,0.189 -0.341,0.347 -0.561,0.473 0.302,0.125 0.534,0.306 0.697,0.542 0.164,0.236 0.246,0.542 0.246,0.918 0,0.679 -0.205,1.203 -0.613,1.574 z m -1.453,-4.454 c -0.08,-0.102 -0.232,-0.153 -0.453,-0.153 l -1.378,0 0,1.048 1.378,0 c 0.214,0 0.363,-0.05 0.448,-0.143 0.09,-0.09 0.128,-0.222 0.128,-0.381 0,-0.146 -0.04,-0.269 -0.123,-0.371 z m 0.113,2.452 c -0.107,-0.113 -0.271,-0.169 -0.491,-0.169 l -1.453,0 0,1.283 1.444,0 c 0.227,0 0.393,-0.06 0.5,-0.184 0.106,-0.123 0.16,-0.278 0.16,-0.467 0,-0.195 -0.05,-0.35 -0.16,-0.463 z m -5.182,1.034 c -0.113,0.343 -0.284,0.635 -0.514,0.877 -0.23,0.242 -0.52,0.428 -0.868,0.557 -0.348,0.129 -0.757,0.194 -1.222,0.194 -0.441,0 -0.821,-0.05 -1.143,-0.161 -0.32,-0.107 -0.596,-0.259 -0.825,-0.458 -0.229,-0.199 -0.419,-0.439 -0.566,-0.722 -0.147,-0.283 -0.263,-0.598 -0.345,-0.943 l 1.793,-0.472 c 0.113,0.377 0.248,0.662 0.406,0.854 0.157,0.192 0.393,0.288 0.707,0.288 0.297,0 0.516,-0.09 0.661,-0.278 0.145,-0.186 0.218,-0.439 0.218,-0.76 l 0,-4.058 1.867,0 0,3.917 c 0,0.433 -0.06,0.822 -0.169,1.165 z m -9.042,-3.957 c -0.04,0.1 -0.1,0.186 -0.172,0.259 -0.07,0.07 -0.16,0.13 -0.259,0.172 -0.1,0.04 -0.208,0.06 -0.324,0.06 -0.116,0 -0.224,-0.02 -0.323,-0.06 -0.1,-0.04 -0.186,-0.1 -0.259,-0.172 -0.07,-0.07 -0.13,-0.16 -0.172,-0.259 -0.04,-0.1 -0.06,-0.208 -0.06,-0.324 0,-0.116 0.02,-0.224 0.06,-0.323 0.04,-0.1 0.1,-0.186 0.172,-0.259 0.07,-0.07 0.16,-0.13 0.259,-0.172 0.1,-0.04 0.208,-0.06 0.323,-0.06 0.116,0 0.224,0.02 0.324,0.06 0.1,0.04 0.186,0.1 0.259,0.172 0.07,0.07 0.13,0.16 0.172,0.259 0.04,0.1 0.06,0.208 0.06,0.323 0,0.116 -0.02,0.224 -0.06,0.324 z m -0.121,-0.594 c -0.04,-0.08 -0.08,-0.156 -0.145,-0.218 -0.06,-0.06 -0.135,-0.11 -0.218,-0.145 -0.08,-0.03 -0.174,-0.05 -0.271,-0.05 -0.1,0 -0.188,0.02 -0.271,0.05 -0.08,0.03 -0.155,0.08 -0.217,0.145 -0.06,0.06 -0.11,0.135 -0.145,0.218 -0.03,0.08 -0.05,0.174 -0.05,0.27 0,0.1 0.02,0.188 0.05,0.271 0.03,0.08 0.08,0.155 0.145,0.217 0.06,0.06 0.134,0.11 0.217,0.145 0.08,0.03 0.173,0.05 0.271,0.05 0.1,0 0.187,-0.02 0.271,-0.05 0.08,-0.04 0.156,-0.08 0.218,-0.145 0.06,-0.06 0.11,-0.134 0.145,-0.217 0.03,-0.08 0.05,-0.173 0.05,-0.271 0,-0.1 -0.02,-0.187 -0.05,-0.27 z m -0.314,0.25 c -0.03,0.04 -0.08,0.07 -0.138,0.09 l 0.183,0.359 -0.178,0 -0.173,-0.344 -0.171,0 0,0.344 -0.151,0 0,-0.891 0.39,0 c 0.04,0 0.08,0 0.112,0.02 0.03,0.01 0.07,0.03 0.09,0.05 0.03,0.02 0.05,0.05 0.06,0.08 0.02,0.03 0.02,0.07 0.02,0.121 0,0.07 -0.02,0.129 -0.05,0.173 z m -0.14,-0.262 c -0.03,-0.02 -0.06,-0.03 -0.102,-0.03 l -0.235,0 0,0.253 0.235,0 c 0.04,0 0.08,-0.01 0.102,-0.03 0.03,-0.02 0.04,-0.05 0.04,-0.1 0,-0.04 -0.01,-0.07 -0.04,-0.09 z m -3.748,1.076 0,5.011 -1.831,0 0,-5.011 -1.85,0 0,-1.595 5.53,0 0,1.595 -1.849,0 z m -5.435,5.011 -0.359,-1.161 -1.981,0 -0.359,1.161 -1.963,0 2.397,-6.606 1.85,0 2.397,6.606 -1.982,0 z m -0.925,-3.049 c -0.057,-0.213 -0.107,-0.399 -0.151,-0.557 -0.044,-0.157 -0.083,-0.299 -0.118,-0.424 -0.035,-0.126 -0.064,-0.241 -0.09,-0.345 -0.025,-0.104 -0.047,-0.212 -0.066,-0.326 -0.019,0.113 -0.041,0.224 -0.066,0.331 -0.025,0.107 -0.055,0.223 -0.09,0.349 -0.035,0.126 -0.074,0.268 -0.118,0.425 -0.044,0.157 -0.095,0.339 -0.151,0.547 l -0.123,0.435 1.095,0 -0.122,-0.435 z m -6.549,3.049 0,-2.604 -2.057,0 0,2.604 -1.869,0 0,-6.606 1.869,0 0,2.407 2.057,0 0,-2.407 1.869,0 0,6.606 -1.869,0 z m -8.37,-1.77 c -0.151,0.425 -0.377,0.768 -0.68,1.029 -0.302,0.261 -0.674,0.45 -1.118,0.566 -0.443,0.117 -0.958,0.175 -1.543,0.175 l -2.142,0 0,-6.606 2.312,0 c 0.516,0 0.985,0.05 1.406,0.161 0.421,0.107 0.778,0.288 1.071,0.542 0.293,0.255 0.519,0.59 0.68,1.005 0.161,0.416 0.241,0.935 0.241,1.557 0,0.623 -0.076,1.147 -0.227,1.571 z m -1.732,-2.326 c -0.054,-0.22 -0.14,-0.399 -0.26,-0.538 -0.12,-0.139 -0.277,-0.241 -0.472,-0.307 -0.195,-0.07 -0.434,-0.1 -0.717,-0.1 l -0.453,0 0,3.473 0.396,0 c 0.283,0 0.525,-0.03 0.727,-0.09 0.201,-0.06 0.367,-0.157 0.496,-0.292 0.129,-0.135 0.222,-0.314 0.278,-0.538 0.057,-0.223 0.085,-0.499 0.085,-0.826 0,-0.302 -0.027,-0.563 -0.08,-0.783 z m -10.045,4.096 0,-6.606 5.058,0 0,1.539 -3.246,0 0,0.887 1.954,0 0,1.51 -1.954,0 0,1.132 3.312,0 0,1.538 -5.124,0 z m -3.148,0 -1.078,-2.227 -0.738,0 0,2.227 -1.793,0 0,-6.606 2.954,0 c 0.384,0 0.735,0.04 1.052,0.118 0.318,0.08 0.59,0.203 0.816,0.373 0.226,0.17 0.401,0.392 0.524,0.666 0.123,0.273 0.184,0.605 0.184,0.996 0,0.497 -0.107,0.903 -0.322,1.217 -0.215,0.314 -0.505,0.554 -0.871,0.717 l 1.324,2.52 -2.052,0 z m -0.085,-4.917 c -0.124,-0.132 -0.331,-0.198 -0.621,-0.198 l -1.11,0 0,1.444 1.081,0 c 0.304,0 0.519,-0.06 0.645,-0.189 0.126,-0.125 0.19,-0.308 0.19,-0.547 0,-0.208 -0.062,-0.378 -0.185,-0.51 z
"  />

</svg>