<svg width="180" height="60" viewbox="0 0 180 60" class="product">

<path
  d="


m 63.199,29.3827 0,-9.908 5.987,0 0,1.005 -4.884,0 0,3.114 2.831,0 0,1.006 -2.831,0 0,3.779 5.096,0 0,1.004 -6.199,0 z m -2.357,-2.153 c -0.184,0.514 -0.441,0.941 -0.771,1.285 -0.33,0.344 -0.719,0.6 -1.168,0.77 -0.447,0.17 -0.932,0.254 -1.45,0.254 -0.604,0 -1.153,-0.131 -1.649,-0.389 -0.495,-0.26 -0.918,-0.617 -1.267,-1.07 -0.35,-0.451 -0.618,-0.99 -0.808,-1.613 -0.188,-0.623 -0.283,-1.297 -0.283,-2.023 0,-0.736 0.1,-1.418 0.298,-2.046 0.198,-0.628 0.474,-1.167 0.828,-1.62 0.354,-0.453 0.78,-0.81 1.281,-1.069 0.5,-0.259 1.048,-0.39 1.642,-0.39 1.34,0 2.393,0.529 3.156,1.586 l -0.877,0.666 c -0.32,-0.435 -0.651,-0.751 -0.99,-0.949 -0.34,-0.198 -0.779,-0.297 -1.316,-0.297 -0.426,0 -0.816,0.102 -1.176,0.305 -0.358,0.203 -0.665,0.482 -0.92,0.842 -0.255,0.358 -0.455,0.788 -0.602,1.288 -0.147,0.5 -0.219,1.052 -0.219,1.655 0,0.605 0.07,1.16 0.226,1.664 0.152,0.504 0.356,0.939 0.616,1.303 0.26,0.364 0.568,0.646 0.927,0.85 0.359,0.204 0.745,0.303 1.161,0.303 0.83,0 1.465,-0.25 1.904,-0.75 0.438,-0.5 0.658,-1.236 0.658,-2.207 l 0,-0.09 -1.784,0 0,-1.004 2.859,0 0,0.959 c 0,0.676 -0.09,1.272 -0.276,1.783 z m -9.915,2.153 -0.85,-2.52 -4.091,0 -0.863,2.52 -1.133,0 3.439,-9.908 1.218,0 3.44,9.908 -1.16,0 z m -2.279,-6.78 c -0.06,-0.161 -0.116,-0.336 -0.177,-0.524 -0.06,-0.188 -0.121,-0.37 -0.178,-0.545 -0.06,-0.175 -0.105,-0.34 -0.148,-0.495 -0.04,-0.156 -0.08,-0.285 -0.105,-0.39 -0.03,0.104 -0.06,0.231 -0.106,0.382 -0.04,0.151 -0.09,0.316 -0.148,0.496 -0.06,0.18 -0.118,0.365 -0.185,0.559 -0.07,0.194 -0.127,0.375 -0.184,0.545 l -1.09,3.229 3.411,0 -1.09,-3.257 z m -6.767,1.541 c -0.424,0.473 -0.99,0.783 -1.698,0.934 l 2.18,4.305 -1.274,0 -2.123,-4.219 -2.35,0 0,4.219 -1.104,0 0,-9.908 3.921,0 c 0.434,0 0.839,0.06 1.217,0.17 0.378,0.113 0.703,0.285 0.978,0.517 0.273,0.231 0.49,0.521 0.65,0.87 0.16,0.35 0.24,0.764 0.24,1.246 0,0.773 -0.212,1.396 -0.637,1.866 z m -0.983,-3.207 c -0.345,-0.305 -0.847,-0.458 -1.508,-0.458 l -2.774,0 0,3.681 2.633,0 c 0.736,0 1.281,-0.152 1.635,-0.459 0.354,-0.305 0.531,-0.768 0.531,-1.389 0,-0.611 -0.173,-1.068 -0.517,-1.375 z m -7.863,5.537 c -0.198,0.627 -0.479,1.168 -0.842,1.621 -0.363,0.453 -0.8,0.807 -1.31,1.061 -0.509,0.256 -1.071,0.383 -1.685,0.383 -0.613,0 -1.172,-0.125 -1.677,-0.375 -0.505,-0.25 -0.937,-0.602 -1.295,-1.055 -0.359,-0.453 -0.635,-0.99 -0.828,-1.613 -0.194,-0.623 -0.291,-1.307 -0.291,-2.053 0,-0.746 0.099,-1.432 0.297,-2.061 0.198,-0.627 0.477,-1.167 0.835,-1.62 0.358,-0.453 0.792,-0.807 1.302,-1.062 0.509,-0.255 1.071,-0.383 1.684,-0.383 0.614,0 1.173,0.125 1.678,0.375 0.504,0.251 0.937,0.602 1.295,1.055 0.359,0.453 0.637,0.991 0.835,1.614 0.198,0.623 0.297,1.308 0.297,2.052 0,0.747 -0.1,1.435 -0.295,2.061 z m -1.041,-3.722 c -0.156,-0.505 -0.371,-0.939 -0.644,-1.303 -0.274,-0.363 -0.595,-0.642 -0.962,-0.835 -0.368,-0.193 -0.77,-0.29 -1.203,-0.29 -0.425,0 -0.819,0.1 -1.182,0.29 -0.363,0.193 -0.677,0.467 -0.941,0.821 -0.264,0.354 -0.472,0.783 -0.623,1.287 -0.151,0.506 -0.226,1.069 -0.226,1.691 0,0.623 0.078,1.188 0.233,1.691 0.156,0.506 0.368,0.939 0.637,1.303 0.269,0.363 0.588,0.643 0.956,0.836 0.368,0.193 0.769,0.289 1.203,0.289 0.425,0 0.821,-0.1 1.189,-0.289 0.368,-0.193 0.684,-0.467 0.948,-0.822 0.264,-0.354 0.472,-0.783 0.623,-1.287 0.15,-0.504 0.226,-1.068 0.226,-1.691 0,-0.623 -0.08,-1.187 -0.234,-1.691 z m -10.977,-2.273 0,8.903 -1.104,0 0,-8.903 -2.916,0 0,-1.005 6.936,0 0,1.005 -2.916,0 z m -5.627,7.39 c -0.146,0.34 -0.361,0.633 -0.644,0.877 -0.283,0.246 -0.627,0.439 -1.033,0.58 -0.406,0.143 -0.868,0.213 -1.387,0.213 -0.679,0 -1.305,-0.131 -1.875,-0.389 C 9.88,28.8897 9.396,28.5617 9,28.1657 l 0.736,-0.82 c 0.377,0.357 0.783,0.646 1.217,0.863 0.434,0.217 0.906,0.324 1.416,0.324 0.661,0 1.182,-0.15 1.564,-0.453 0.382,-0.301 0.574,-0.717 0.574,-1.244 0,-0.227 -0.038,-0.434 -0.113,-0.623 -0.076,-0.189 -0.206,-0.363 -0.39,-0.523 -0.184,-0.16 -0.427,-0.318 -0.729,-0.475 -0.302,-0.156 -0.679,-0.314 -1.132,-0.475 -0.538,-0.189 -0.989,-0.379 -1.352,-0.574 -0.364,-0.193 -0.656,-0.4 -0.878,-0.621 -0.222,-0.223 -0.382,-0.471 -0.481,-0.744 -0.099,-0.273 -0.149,-0.59 -0.149,-0.948 0,-0.396 0.076,-0.75 0.227,-1.062 0.151,-0.312 0.361,-0.578 0.63,-0.8 0.269,-0.222 0.595,-0.39 0.977,-0.503 0.382,-0.113 0.805,-0.17 1.267,-0.17 0.661,0 1.225,0.1 1.691,0.283 0.467,0.189 0.908,0.449 1.324,0.779 l -0.708,0.863 c -0.358,-0.303 -0.72,-0.531 -1.083,-0.687 -0.364,-0.155 -0.795,-0.233 -1.295,-0.233 -0.34,0 -0.632,0.04 -0.877,0.12 -0.246,0.08 -0.446,0.187 -0.602,0.318 -0.156,0.131 -0.269,0.286 -0.34,0.46 -0.071,0.175 -0.106,0.361 -0.106,0.559 0,0.209 0.028,0.395 0.085,0.56 0.057,0.165 0.17,0.325 0.34,0.481 0.17,0.156 0.408,0.309 0.715,0.46 0.307,0.151 0.71,0.316 1.21,0.495 0.547,0.199 1.005,0.396 1.373,0.596 0.368,0.197 0.663,0.414 0.885,0.65 0.222,0.236 0.379,0.496 0.474,0.779 0.094,0.283 0.142,0.607 0.142,0.977 0,0.388 -0.076,0.751 -0.222,1.091 z m 37.967,-16.943 c -0.04,0.1 -0.1,0.186 -0.172,0.259 -0.07,0.07 -0.159,0.13 -0.259,0.172 -0.1,0.04 -0.207,0.06 -0.324,0.06 -0.115,0 -0.223,-0.02 -0.322,-0.06 -0.1,-0.04 -0.186,-0.1 -0.26,-0.172 -0.07,-0.07 -0.13,-0.16 -0.172,-0.259 -0.04,-0.1 -0.06,-0.208 -0.06,-0.324 0,-0.116 0.02,-0.224 0.06,-0.323 0.04,-0.1 0.1,-0.186 0.172,-0.259 0.07,-0.07 0.16,-0.13 0.26,-0.172 0.1,-0.04 0.207,-0.06 0.322,-0.06 0.117,0 0.225,0.02 0.324,0.06 0.1,0.04 0.186,0.1 0.259,0.172 0.07,0.07 0.13,0.16 0.172,0.259 0.04,0.1 0.06,0.208 0.06,0.323 0,0.117 -0.02,0.225 -0.06,0.324 z m -0.122,-0.594 c -0.03,-0.08 -0.08,-0.156 -0.145,-0.218 -0.06,-0.06 -0.135,-0.11 -0.218,-0.145 -0.08,-0.03 -0.174,-0.05 -0.271,-0.05 -0.1,0 -0.188,0.02 -0.271,0.05 -0.08,0.03 -0.155,0.08 -0.218,0.145 -0.06,0.06 -0.109,0.135 -0.145,0.218 -0.03,0.08 -0.05,0.174 -0.05,0.27 0,0.1 0.02,0.188 0.05,0.271 0.03,0.08 0.08,0.155 0.145,0.217 0.06,0.06 0.135,0.11 0.218,0.145 0.08,0.03 0.173,0.05 0.271,0.05 0.1,0 0.188,-0.02 0.271,-0.05 0.08,-0.03 0.156,-0.08 0.218,-0.145 0.06,-0.06 0.11,-0.134 0.145,-0.217 0.03,-0.08 0.05,-0.173 0.05,-0.271 0,-0.1 -0.02,-0.186 -0.05,-0.27 z m -0.314,0.25 c -0.03,0.04 -0.08,0.07 -0.138,0.09 l 0.184,0.359 -0.178,0 -0.174,-0.344 -0.172,0 0,0.344 -0.15,0 0,-0.891 0.389,0 c 0.04,0 0.08,0 0.112,0.02 0.03,0.01 0.06,0.03 0.09,0.05 0.02,0.02 0.05,0.05 0.06,0.08 0.02,0.03 0.02,0.07 0.02,0.121 0,0.07 -0.02,0.129 -0.05,0.173 z m -0.14,-0.262 c -0.03,-0.02 -0.06,-0.03 -0.102,-0.03 l -0.236,0 0,0.253 0.236,0 c 0.04,0 0.07,-0.01 0.102,-0.03 0.03,-0.02 0.04,-0.05 0.04,-0.1 0,-0.04 -0.01,-0.07 -0.04,-0.1 z m -3.748,1.076 0,5.011 -1.83,0 0,-5.011 -1.85,0 0,-1.595 5.529,0 0,1.595 -1.849,0 z m -5.435,5.011 -0.358,-1.161 -1.981,0 -0.359,1.161 -1.962,0 2.397,-6.606 1.85,0 2.397,6.606 -1.984,0 z m -0.924,-3.048 c -0.06,-0.213 -0.107,-0.399 -0.151,-0.557 -0.04,-0.158 -0.08,-0.299 -0.118,-0.424 -0.03,-0.126 -0.06,-0.241 -0.09,-0.345 -0.03,-0.104 -0.05,-0.212 -0.07,-0.326 -0.02,0.113 -0.04,0.224 -0.06,0.331 -0.03,0.107 -0.06,0.223 -0.09,0.349 -0.03,0.126 -0.07,0.268 -0.118,0.425 -0.04,0.157 -0.09,0.339 -0.15,0.547 l -0.123,0.435 1.095,0 -0.124,-0.435 z m -6.55,3.048 0,-2.604 -2.057,0 0,2.604 -1.869,0 0,-6.606 1.869,0 0,2.407 2.057,0 0,-2.407 1.869,0 0,6.606 -1.869,0 z m -8.37,-1.769 c -0.151,0.425 -0.377,0.768 -0.68,1.029 -0.302,0.261 -0.674,0.45 -1.118,0.566 -0.443,0.117 -0.958,0.175 -1.543,0.175 l -2.142,0 0,-6.606 2.312,0 c 0.516,0 0.985,0.05 1.406,0.161 0.421,0.107 0.778,0.288 1.071,0.542 0.293,0.255 0.519,0.59 0.68,1.005 0.161,0.416 0.241,0.935 0.241,1.557 0,0.622 -0.076,1.146 -0.227,1.571 z m -1.731,-2.327 c -0.054,-0.22 -0.14,-0.399 -0.26,-0.538 -0.12,-0.139 -0.277,-0.241 -0.472,-0.307 -0.195,-0.07 -0.434,-0.1 -0.717,-0.1 l -0.453,0 0,3.473 0.396,0 c 0.283,0 0.525,-0.03 0.727,-0.09 0.201,-0.06 0.367,-0.157 0.496,-0.292 0.129,-0.135 0.222,-0.314 0.278,-0.538 0.057,-0.223 0.085,-0.499 0.085,-0.826 0,-0.301 -0.027,-0.562 -0.08,-0.783 z m -10.046,4.096 0,-6.606 5.058,0 0,1.539 -3.246,0 0,0.887 1.954,0 0,1.51 -1.954,0 0,1.132 3.312,0 0,1.538 -5.124,0 z m -3.147,0 -1.078,-2.227 -0.739,0 0,2.227 -1.793,0 0,-6.606 2.954,0 c 0.384,0 0.735,0.04 1.052,0.118 0.318,0.08 0.59,0.203 0.816,0.373 0.226,0.17 0.401,0.392 0.524,0.666 0.123,0.273 0.184,0.605 0.184,0.996 0,0.497 -0.107,0.903 -0.322,1.217 -0.215,0.314 -0.505,0.554 -0.871,0.717 l 1.324,2.52 -2.051,0 z m -0.086,-4.916 c -0.124,-0.132 -0.331,-0.198 -0.621,-0.198 l -1.11,0 0,1.444 1.081,0 c 0.304,0 0.519,-0.06 0.645,-0.189 0.126,-0.125 0.19,-0.308 0.19,-0.547 0,-0.209 -0.062,-0.379 -0.185,-0.51 z

"  />

</svg>