<svg width="180" height="60" viewbox="0 0 180 60" class="product">

<path
  d="

  m 116.55,29.3827 -4.318,-6.78 c -0.06,-0.08 -0.119,-0.187 -0.184,-0.305 -0.07,-0.117 -0.133,-0.235 -0.197,-0.354 -0.07,-0.118 -0.131,-0.229 -0.191,-0.333 -0.06,-0.104 -0.105,-0.188 -0.135,-0.255 l 0,0.68 0,7.347 -1.074,0 0,-9.909 1.074,0 4.289,6.908 c 0.06,0.09 0.119,0.187 0.186,0.305 0.06,0.118 0.131,0.235 0.197,0.354 0.07,0.119 0.129,0.229 0.191,0.333 0.06,0.104 0.105,0.188 0.135,0.255 l 0,-0.68 0,-7.475 1.076,0 0,9.909 -1.049,0 z m -8.576,-2.91 c -0.199,0.628 -0.48,1.168 -0.844,1.621 -0.364,0.453 -0.799,0.807 -1.309,1.062 -0.51,0.255 -1.07,0.382 -1.684,0.382 -0.615,0 -1.174,-0.125 -1.678,-0.375 -0.506,-0.25 -0.938,-0.602 -1.295,-1.055 -0.359,-0.452 -0.635,-0.99 -0.828,-1.613 -0.193,-0.623 -0.291,-1.307 -0.291,-2.053 0,-0.745 0.1,-1.432 0.297,-2.06 0.199,-0.628 0.477,-1.167 0.836,-1.62 0.357,-0.453 0.793,-0.807 1.303,-1.062 0.51,-0.254 1.07,-0.382 1.684,-0.382 0.614,0 1.172,0.125 1.678,0.375 0.504,0.251 0.936,0.602 1.295,1.055 0.359,0.453 0.637,0.991 0.836,1.614 0.197,0.623 0.297,1.307 0.297,2.052 0,0.746 -0.1,1.433 -0.297,2.059 z m -1.041,-3.722 c -0.156,-0.504 -0.371,-0.939 -0.645,-1.303 -0.274,-0.364 -0.594,-0.641 -0.963,-0.834 -0.367,-0.193 -0.768,-0.291 -1.203,-0.291 -0.424,0 -0.818,0.1 -1.182,0.291 -0.364,0.193 -0.678,0.467 -0.941,0.82 -0.263,0.353 -0.471,0.783 -0.623,1.288 -0.15,0.505 -0.227,1.069 -0.227,1.691 0,0.623 0.08,1.188 0.234,1.691 0.156,0.505 0.367,0.939 0.637,1.303 0.27,0.364 0.588,0.642 0.955,0.835 0.369,0.193 0.77,0.29 1.203,0.29 0.426,0 0.822,-0.1 1.189,-0.29 0.369,-0.193 0.684,-0.467 0.949,-0.821 0.264,-0.354 0.471,-0.783 0.623,-1.288 0.15,-0.504 0.227,-1.068 0.227,-1.691 0,-0.623 -0.08,-1.186 -0.233,-1.691 z m -10.243,6.632 0,-9.909 1.105,0 0,9.909 -1.105,0 z m -4.982,-8.904 0,8.903 -1.104,0 0,-8.903 -2.916,0 0,-1.006 6.936,0 0,1.006 -2.916,0 z m -5.549,8.904 -0.85,-2.52 -4.09,0 -0.863,2.52 -1.133,0 3.439,-9.909 1.217,0 3.439,9.909 -1.159,0 z m -2.279,-6.781 c -0.06,-0.16 -0.115,-0.335 -0.176,-0.523 -0.06,-0.189 -0.121,-0.371 -0.178,-0.545 -0.06,-0.175 -0.105,-0.34 -0.148,-0.496 -0.04,-0.156 -0.08,-0.285 -0.105,-0.389 -0.03,0.104 -0.06,0.23 -0.107,0.382 -0.04,0.151 -0.09,0.316 -0.148,0.495 -0.06,0.18 -0.117,0.366 -0.184,0.56 -0.07,0.194 -0.127,0.375 -0.184,0.545 l -1.09,3.228 3.41,0 -1.09,-3.257 z m -13.32,6.781 0,-0.963 4.685,-6.384 c 0.199,-0.273 0.402,-0.547 0.609,-0.82 0.207,-0.274 0.406,-0.533 0.594,-0.779 l -1.117,0 -4.488,0 0,-0.963 6.794,0 0,0.963 -4.685,6.384 c -0.198,0.274 -0.401,0.548 -0.608,0.821 -0.208,0.274 -0.406,0.533 -0.595,0.778 l 1.118,0 4.77,0 0,0.963 -7.077,0 z m -3.34,0 0,-9.909 1.104,0 0,9.909 -1.104,0 z m -8.21,0 0,-9.909 1.104,0 0,8.904 4.898,0 0,1.005 -6.002,0 z m -3.213,0 -0.85,-2.52 -4.091,0 -0.863,2.52 -1.133,0 3.44,-9.909 1.217,0 3.44,9.909 -1.16,0 z m -2.279,-6.781 c -0.057,-0.16 -0.116,-0.335 -0.177,-0.523 -0.062,-0.189 -0.121,-0.371 -0.177,-0.545 -0.057,-0.175 -0.106,-0.34 -0.148,-0.496 -0.042,-0.156 -0.078,-0.285 -0.106,-0.389 -0.028,0.104 -0.064,0.23 -0.106,0.382 -0.042,0.152 -0.092,0.316 -0.148,0.495 -0.057,0.18 -0.118,0.366 -0.184,0.56 -0.066,0.193 -0.127,0.375 -0.184,0.545 l -1.09,3.228 3.411,0 -1.091,-3.257 z m -7.219,5.868 c -0.585,0.713 -1.477,1.068 -2.675,1.068 -1.189,0 -2.083,-0.351 -2.683,-1.054 -0.6,-0.703 -0.899,-1.744 -0.899,-3.122 l 0,-5.889 1.104,0 0,5.86 c 0,2.133 0.845,3.199 2.534,3.199 0.858,0 1.472,-0.259 1.84,-0.778 0.368,-0.519 0.552,-1.316 0.552,-2.393 l 0,-5.889 1.104,0 0,5.86 c 0,1.38 -0.292,2.426 -0.877,3.138 z m -11.098,-7.991 0,8.903 -1.104,0 0,-8.903 -2.916,0 0,-1.006 6.936,0 0,1.006 -2.916,0 z m -5.973,3.665 c -0.425,0.472 -0.991,0.783 -1.699,0.934 l 2.18,4.305 -1.274,0 -2.123,-4.219 -2.35,0 0,4.219 -1.104,0 0,-9.909 3.921,0 c 0.434,0 0.84,0.06 1.217,0.17 0.377,0.113 0.703,0.286 0.977,0.518 0.273,0.23 0.49,0.521 0.651,0.869 0.161,0.35 0.241,0.765 0.241,1.246 0,0.773 -0.213,1.396 -0.637,1.867 z m -0.984,-3.207 c -0.345,-0.306 -0.847,-0.458 -1.508,-0.458 l -2.774,0 0,3.681 2.633,0 c 0.736,0 1.281,-0.153 1.635,-0.459 0.354,-0.306 0.531,-0.769 0.531,-1.39 -10e-4,-0.61 -0.173,-1.068 -0.517,-1.374 z m -9.166,8.446 0,-9.909 1.104,0 0,9.909 -1.104,0 z m -5.492,0 -1.217,0 -3.369,-9.909 1.161,0 2.208,6.781 c 0.047,0.15 0.102,0.32 0.163,0.509 0.062,0.189 0.121,0.376 0.177,0.56 0.056,0.184 0.108,0.356 0.156,0.517 0.047,0.16 0.085,0.283 0.113,0.368 0.028,-0.08 0.066,-0.21 0.113,-0.375 0.047,-0.165 0.101,-0.342 0.163,-0.531 0.061,-0.188 0.123,-0.38 0.184,-0.573 0.061,-0.193 0.115,-0.36 0.163,-0.502 l 2.223,-6.753 1.132,0 -3.37,9.908 z m 39.8,-18.457 c -0.042,0.1 -0.099,0.186 -0.172,0.259 -0.073,0.07 -0.16,0.13 -0.259,0.172 -0.1,0.04 -0.208,0.06 -0.324,0.06 -0.116,0 -0.224,-0.02 -0.323,-0.06 -0.099,-0.04 -0.186,-0.1 -0.259,-0.172 -0.073,-0.07 -0.13,-0.16 -0.172,-0.259 -0.042,-0.1 -0.062,-0.208 -0.062,-0.324 0,-0.116 0.021,-0.224 0.062,-0.323 0.042,-0.1 0.099,-0.186 0.172,-0.259 0.073,-0.07 0.16,-0.13 0.259,-0.172 0.1,-0.04 0.208,-0.06 0.323,-0.06 0.116,0 0.224,0.02 0.324,0.06 0.099,0.04 0.186,0.1 0.259,0.172 0.073,0.07 0.13,0.16 0.172,0.259 0.042,0.1 0.062,0.208 0.062,0.323 0,0.116 -0.021,0.224 -0.062,0.324 z m -0.121,-0.594 c -0.035,-0.08 -0.083,-0.156 -0.145,-0.218 -0.062,-0.06 -0.135,-0.11 -0.218,-0.145 -0.084,-0.03 -0.174,-0.05 -0.271,-0.05 -0.098,0 -0.188,0.02 -0.271,0.05 -0.083,0.03 -0.155,0.08 -0.217,0.145 -0.062,0.06 -0.11,0.135 -0.145,0.218 -0.035,0.08 -0.052,0.174 -0.052,0.27 0,0.1 0.018,0.188 0.052,0.271 0.034,0.08 0.083,0.155 0.145,0.217 0.062,0.06 0.134,0.11 0.217,0.145 0.083,0.03 0.173,0.05 0.271,0.05 0.097,0 0.187,-0.02 0.271,-0.05 0.083,-0.04 0.156,-0.08 0.218,-0.145 0.062,-0.06 0.11,-0.134 0.145,-0.217 0.035,-0.08 0.052,-0.173 0.052,-0.271 0,-0.1 -0.018,-0.187 -0.052,-0.27 z m -0.315,0.25 c -0.034,0.04 -0.081,0.07 -0.138,0.09 l 0.183,0.359 -0.178,0 -0.173,-0.344 -0.171,0 0,0.344 -0.151,0 0,-0.891 0.39,0 c 0.04,0 0.077,0 0.112,0.02 0.035,0.01 0.066,0.03 0.092,0.05 0.026,0.02 0.047,0.05 0.063,0.08 0.016,0.03 0.024,0.07 0.024,0.121 0,0.07 -0.018,0.129 -0.053,0.173 z m -0.14,-0.262 c -0.027,-0.02 -0.061,-0.03 -0.102,-0.03 l -0.235,0 0,0.253 0.235,0 c 0.041,0 0.075,-0.01 0.102,-0.03 0.027,-0.02 0.041,-0.05 0.041,-0.1 0,-0.04 -0.014,-0.07 -0.041,-0.09 z m -3.747,1.076 0,5.011 -1.831,0 0,-5.011 -1.85,0 0,-1.595 5.53,0 0,1.595 -1.849,0 z m -5.436,5.011 -0.359,-1.161 -1.981,0 -0.359,1.161 -1.963,0 2.397,-6.606 1.85,0 2.397,6.606 -1.982,0 z m -0.924,-3.049 c -0.057,-0.213 -0.107,-0.399 -0.151,-0.557 -0.044,-0.157 -0.083,-0.299 -0.118,-0.424 -0.035,-0.126 -0.064,-0.241 -0.09,-0.345 -0.025,-0.104 -0.047,-0.212 -0.066,-0.326 -0.019,0.113 -0.041,0.224 -0.066,0.331 -0.025,0.107 -0.055,0.223 -0.09,0.349 -0.035,0.126 -0.074,0.268 -0.118,0.425 -0.044,0.157 -0.095,0.339 -0.151,0.547 l -0.123,0.435 1.095,0 -0.122,-0.435 z m -6.55,3.049 0,-2.604 -2.057,0 0,2.604 -1.869,0 0,-6.606 1.869,0 0,2.407 2.057,0 0,-2.407 1.869,0 0,6.606 -1.869,0 z m -8.37,-1.77 c -0.151,0.425 -0.377,0.768 -0.68,1.029 -0.302,0.261 -0.674,0.45 -1.118,0.566 -0.443,0.117 -0.958,0.175 -1.543,0.175 l -2.142,0 0,-6.606 2.312,0 c 0.516,0 0.985,0.05 1.406,0.161 0.421,0.107 0.778,0.288 1.071,0.542 0.293,0.255 0.519,0.59 0.68,1.005 0.161,0.416 0.241,0.935 0.241,1.557 0,0.623 -0.076,1.147 -0.227,1.571 z m -1.731,-2.326 c -0.054,-0.22 -0.14,-0.399 -0.26,-0.538 -0.12,-0.139 -0.277,-0.241 -0.472,-0.307 -0.195,-0.07 -0.434,-0.1 -0.717,-0.1 l -0.453,0 0,3.473 0.396,0 c 0.283,0 0.525,-0.03 0.727,-0.09 0.201,-0.06 0.367,-0.157 0.496,-0.292 0.129,-0.135 0.222,-0.314 0.278,-0.538 0.057,-0.223 0.085,-0.499 0.085,-0.826 0,-0.302 -0.027,-0.563 -0.08,-0.783 z m -10.046,4.096 0,-6.606 5.058,0 0,1.539 -3.246,0 0,0.887 1.954,0 0,1.51 -1.954,0 0,1.132 3.312,0 0,1.538 -5.124,0 z m -3.147,0 -1.078,-2.227 -0.738,0 0,2.227 -1.794,0 0,-6.606 2.954,0 c 0.384,0 0.735,0.04 1.052,0.118 0.318,0.08 0.59,0.203 0.816,0.373 0.226,0.17 0.401,0.392 0.524,0.666 0.123,0.273 0.184,0.605 0.184,0.996 0,0.497 -0.107,0.903 -0.322,1.217 -0.215,0.314 -0.505,0.554 -0.871,0.717 l 1.324,2.52 -2.051,0 z m -0.086,-4.917 c -0.124,-0.132 -0.331,-0.198 -0.621,-0.198 l -1.11,0 0,1.444 1.081,0 c 0.304,0 0.519,-0.06 0.645,-0.189 0.126,-0.125 0.19,-0.308 0.19,-0.547 0,-0.208 -0.062,-0.378 -0.185,-0.51 z

"  />

</svg>