<?xml version="1.0" encoding="UTF-8" standalone="no"?>
<!-- Created with Inkscape (http://www.inkscape.org/) -->

<svg
   xmlns:dc="http://purl.org/dc/elements/1.1/"
   xmlns:cc="http://creativecommons.org/ns#"
   xmlns:rdf="http://www.w3.org/1999/02/22-rdf-syntax-ns#"
   xmlns:svg="http://www.w3.org/2000/svg"
   xmlns="http://www.w3.org/2000/svg"
   version="1.1"
   width="100%"
   height="100%"
   viewBox="0 0 26 36"
   id="svg24360">
  <defs
     id="defs24362">
    <linearGradient
       x1="12.9944"
       y1="252.0032"
       x2="12.9944"
       y2="288.0032"
       id="SVGID_92_"
       gradientUnits="userSpaceOnUse">
      <stop
         id="stop13035"
         style="stop-color:#202020;stop-opacity:1"
         offset="0" />
      <stop
         id="stop13037"
         style="stop-color:#30302f;stop-opacity:1"
         offset="0.05" />
      <stop
         id="stop13039"
         style="stop-color:#202020;stop-opacity:1"
         offset="0.94999999" />
      <stop
         id="stop13041"
         style="stop-color:#9e9f9f;stop-opacity:1"
         offset="1" />
    </linearGradient>
    <linearGradient
       x1="12.9969"
       y1="269.86292"
       x2="12.9969"
       y2="252.91479"
       id="SVGID_93_"
       gradientUnits="userSpaceOnUse">
      <stop
         id="stop13050"
         style="stop-color:#202020;stop-opacity:1"
         offset="0" />
      <stop
         id="stop13052"
         style="stop-color:#1a1a1a;stop-opacity:1"
         offset="0.00993739" />
      <stop
         id="stop13054"
         style="stop-color:#111111;stop-opacity:1"
         offset="0.018" />
      <stop
         id="stop13056"
         style="stop-color:#111111;stop-opacity:1"
         offset="0.1688" />
      <stop
         id="stop13058"
         style="stop-color:#414141;stop-opacity:1"
         offset="0.198" />
      <stop
         id="stop13060"
         style="stop-color:#616161;stop-opacity:1"
         offset="0.214" />
      <stop
         id="stop13062"
         style="stop-color:#5d5d5d;stop-opacity:1"
         offset="0.2176" />
      <stop
         id="stop13064"
         style="stop-color:#515150;stop-opacity:1"
         offset="0.22139999" />
      <stop
         id="stop13066"
         style="stop-color:#3d3d3c;stop-opacity:1"
         offset="0.2252" />
      <stop
         id="stop13068"
         style="stop-color:#30302f;stop-opacity:1"
         offset="0.227" />
      <stop
         id="stop13070"
         style="stop-color:#202020;stop-opacity:1"
         offset="0.94999999" />
      <stop
         id="stop13072"
         style="stop-color:#bfbebe;stop-opacity:1"
         offset="1" />
    </linearGradient>
    <linearGradient
       x1="12.9953"
       y1="269.72131"
       x2="12.9953"
       y2="253.0567"
       id="SVGID_94_"
       gradientUnits="userSpaceOnUse">
      <stop
         id="stop13079"
         style="stop-color:#383939;stop-opacity:1"
         offset="0" />
      <stop
         id="stop13081"
         style="stop-color:#30302f;stop-opacity:1"
         offset="1" />
    </linearGradient>
    <linearGradient
       x1="12.9969"
       y1="270.146"
       x2="12.9969"
       y2="287.09409"
       id="SVGID_95_"
       gradientUnits="userSpaceOnUse">
      <stop
         id="stop13090"
         style="stop-color:#717171;stop-opacity:1"
         offset="0" />
      <stop
         id="stop13092"
         style="stop-color:#6b6b6b;stop-opacity:1"
         offset="0.0031376" />
      <stop
         id="stop13094"
         style="stop-color:#5b5b5b;stop-opacity:1"
         offset="0.00724404" />
      <stop
         id="stop13096"
         style="stop-color:#404040;stop-opacity:1"
         offset="0.01188656" />
      <stop
         id="stop13098"
         style="stop-color:#1a1a1a;stop-opacity:1"
         offset="0.01689165" />
      <stop
         id="stop13100"
         style="stop-color:#111111;stop-opacity:1"
         offset="0.018" />
      <stop
         id="stop13102"
         style="stop-color:#111111;stop-opacity:1"
         offset="0.198" />
      <stop
         id="stop13104"
         style="stop-color:#8e8f8e;stop-opacity:1"
         offset="0.214" />
      <stop
         id="stop13106"
         style="stop-color:#8a8b8a;stop-opacity:1"
         offset="0.2164" />
      <stop
         id="stop13108"
         style="stop-color:#7e7e7e;stop-opacity:1"
         offset="0.2189" />
      <stop
         id="stop13110"
         style="stop-color:#696a69;stop-opacity:1"
         offset="0.22139999" />
      <stop
         id="stop13112"
         style="stop-color:#4c4d4c;stop-opacity:1"
         offset="0.22400001" />
      <stop
         id="stop13114"
         style="stop-color:#282828;stop-opacity:1"
         offset="0.2265" />
      <stop
         id="stop13116"
         style="stop-color:#202020;stop-opacity:1"
         offset="0.227" />
      <stop
         id="stop13118"
         style="stop-color:#30302f;stop-opacity:1"
         offset="0.94999999" />
      <stop
         id="stop13120"
         style="stop-color:#111111;stop-opacity:1"
         offset="1" />
    </linearGradient>
    <linearGradient
       x1="12.9953"
       y1="270.28711"
       x2="12.9953"
       y2="286.94958"
       id="SVGID_96_"
       gradientUnits="userSpaceOnUse">
      <stop
         id="stop13125"
         style="stop-color:#414141;stop-opacity:1"
         offset="0" />
      <stop
         id="stop13127"
         style="stop-color:#383939;stop-opacity:1"
         offset="1" />
    </linearGradient>
    <linearGradient
       x1="1.2939"
       y1="273.56519"
       x2="1.2939"
       y2="266.4433"
       id="SVGID_97_"
       gradientUnits="userSpaceOnUse">
      <stop
         id="stop13134"
         style="stop-color:#000000;stop-opacity:1"
         offset="0" />
      <stop
         id="stop13136"
         style="stop-color:#202020;stop-opacity:1"
         offset="0.0875" />
      <stop
         id="stop13138"
         style="stop-color:#383939;stop-opacity:1"
         offset="0.16249999" />
      <stop
         id="stop13140"
         style="stop-color:#2d2d2d;stop-opacity:1"
         offset="0.2156" />
      <stop
         id="stop13142"
         style="stop-color:#232323;stop-opacity:1"
         offset="0.29319999" />
      <stop
         id="stop13144"
         style="stop-color:#202020;stop-opacity:1"
         offset="0.38999999" />
      <stop
         id="stop13146"
         style="stop-color:#414141;stop-opacity:1"
         offset="0.625" />
      <stop
         id="stop13148"
         style="stop-color:#dfdfde;stop-opacity:1"
         offset="0.875" />
      <stop
         id="stop13150"
         style="stop-color:#dddddc;stop-opacity:1"
         offset="0.88300002" />
      <stop
         id="stop13152"
         style="stop-color:#d6d6d5;stop-opacity:1"
         offset="0.88590002" />
      <stop
         id="stop13154"
         style="stop-color:#cacac9;stop-opacity:1"
         offset="0.88800001" />
      <stop
         id="stop13156"
         style="stop-color:#babab9;stop-opacity:1"
         offset="0.88959998" />
      <stop
         id="stop13158"
         style="stop-color:#a4a4a3;stop-opacity:1"
         offset="0.89109999" />
      <stop
         id="stop13160"
         style="stop-color:#888887;stop-opacity:1"
         offset="0.89240003" />
      <stop
         id="stop13162"
         style="stop-color:#686867;stop-opacity:1"
         offset="0.89349997" />
      <stop
         id="stop13164"
         style="stop-color:#434342;stop-opacity:1"
         offset="0.89450002" />
      <stop
         id="stop13166"
         style="stop-color:#30302f;stop-opacity:1"
         offset="0.89499998" />
      <stop
         id="stop13168"
         style="stop-color:#000000;stop-opacity:1"
         offset="1" />
    </linearGradient>
    <linearGradient
       x1="24.6975"
       y1="273.56519"
       x2="24.6975"
       y2="266.4433"
       id="SVGID_98_"
       gradientUnits="userSpaceOnUse">
      <stop
         id="stop13175"
         style="stop-color:#000000;stop-opacity:1"
         offset="0" />
      <stop
         id="stop13177"
         style="stop-color:#202020;stop-opacity:1"
         offset="0.0875" />
      <stop
         id="stop13179"
         style="stop-color:#383939;stop-opacity:1"
         offset="0.16249999" />
      <stop
         id="stop13181"
         style="stop-color:#2d2d2d;stop-opacity:1"
         offset="0.2156" />
      <stop
         id="stop13183"
         style="stop-color:#232323;stop-opacity:1"
         offset="0.29319999" />
      <stop
         id="stop13185"
         style="stop-color:#202020;stop-opacity:1"
         offset="0.38999999" />
      <stop
         id="stop13187"
         style="stop-color:#414141;stop-opacity:1"
         offset="0.625" />
      <stop
         id="stop13189"
         style="stop-color:#dfdfde;stop-opacity:1"
         offset="0.875" />
      <stop
         id="stop13191"
         style="stop-color:#dddddc;stop-opacity:1"
         offset="0.88300002" />
      <stop
         id="stop13193"
         style="stop-color:#d6d6d5;stop-opacity:1"
         offset="0.88590002" />
      <stop
         id="stop13195"
         style="stop-color:#cacac9;stop-opacity:1"
         offset="0.88800001" />
      <stop
         id="stop13197"
         style="stop-color:#babab9;stop-opacity:1"
         offset="0.88959998" />
      <stop
         id="stop13199"
         style="stop-color:#a4a4a3;stop-opacity:1"
         offset="0.89109999" />
      <stop
         id="stop13201"
         style="stop-color:#888887;stop-opacity:1"
         offset="0.89240003" />
      <stop
         id="stop13203"
         style="stop-color:#686867;stop-opacity:1"
         offset="0.89349997" />
      <stop
         id="stop13205"
         style="stop-color:#434342;stop-opacity:1"
         offset="0.89450002" />
      <stop
         id="stop13207"
         style="stop-color:#30302f;stop-opacity:1"
         offset="0.89499998" />
      <stop
         id="stop13209"
         style="stop-color:#000000;stop-opacity:1"
         offset="1" />
    </linearGradient>
  </defs>
  <metadata
     id="metadata24365">
    <rdf:RDF>
      <cc:Work
         rdf:about="">
        <dc:format>image/svg+xml</dc:format>
        <dc:type
           rdf:resource="http://purl.org/dc/dcmitype/StillImage" />
        <dc:title></dc:title>
      </cc:Work>
    </rdf:RDF>
  </metadata>
  <g
     transform="translate(0,-1016.2622)"
     id="layer1">
    <g
       transform="matrix(0.99616858,0,0,1,0,764.36218)"
       id="g13032">
      <linearGradient
         x1="12.9944"
         y1="252.0032"
         x2="12.9944"
         y2="288.0032"
         id="linearGradient24186"
         gradientUnits="userSpaceOnUse">
        <stop
           id="stop24188"
           style="stop-color:#202020;stop-opacity:1"
           offset="0" />
        <stop
           id="stop24190"
           style="stop-color:#30302f;stop-opacity:1"
           offset="0.05" />
        <stop
           id="stop24192"
           style="stop-color:#202020;stop-opacity:1"
           offset="0.94999999" />
        <stop
           id="stop24194"
           style="stop-color:#9e9f9f;stop-opacity:1"
           offset="1" />
      </linearGradient>
      <path
         d="M 24.2,288 H 1.8 C 0.8,288 0,287.2 0,286.2 v -32.5 c 0,-1 0.8,-1.8 1.8,-1.8 h 22.5 c 1,0 1.8,0.8 1.8,1.8 v 32.5 c -0.1,1 -0.9,1.8 -1.9,1.8 l 0,0 z"
         id="path13043"
         style="fill:url(#SVGID_92_)" />
      <path
         d="M 24.2,252.1 H 1.8 c -0.9,0 -1.6,0.7 -1.6,1.6 v 32.5 c 0,0.9 0.7,1.6 1.6,1.6 h 22.5 c 0.9,0 1.6,-0.7 1.6,-1.6 v -32.5 c -0.1,-0.8 -0.8,-1.6 -1.7,-1.6 z"
         id="path13045" />
      <g
         id="g13047">
        <linearGradient
           x1="12.9969"
           y1="269.86292"
           x2="12.9969"
           y2="252.91479"
           id="linearGradient24199"
           gradientUnits="userSpaceOnUse">
          <stop
             id="stop24201"
             style="stop-color:#202020;stop-opacity:1"
             offset="0" />
          <stop
             id="stop24203"
             style="stop-color:#1a1a1a;stop-opacity:1"
             offset="0.00993739" />
          <stop
             id="stop24205"
             style="stop-color:#111111;stop-opacity:1"
             offset="0.018" />
          <stop
             id="stop24207"
             style="stop-color:#111111;stop-opacity:1"
             offset="0.1688" />
          <stop
             id="stop24209"
             style="stop-color:#414141;stop-opacity:1"
             offset="0.198" />
          <stop
             id="stop24211"
             style="stop-color:#616161;stop-opacity:1"
             offset="0.214" />
          <stop
             id="stop24213"
             style="stop-color:#5d5d5d;stop-opacity:1"
             offset="0.2176" />
          <stop
             id="stop24215"
             style="stop-color:#515150;stop-opacity:1"
             offset="0.22139999" />
          <stop
             id="stop24217"
             style="stop-color:#3d3d3c;stop-opacity:1"
             offset="0.2252" />
          <stop
             id="stop24219"
             style="stop-color:#30302f;stop-opacity:1"
             offset="0.227" />
          <stop
             id="stop24221"
             style="stop-color:#202020;stop-opacity:1"
             offset="0.94999999" />
          <stop
             id="stop24223"
             style="stop-color:#bfbebe;stop-opacity:1"
             offset="1" />
        </linearGradient>
        <path
           d="m 24.2,266.4 c 0,-0.1 0.1,-0.1 0.1,-0.1 h 0.5 c 0.2,0 0.3,-0.1 0.3,-0.3 v -12.2 c 0,-0.5 -0.4,-0.9 -0.9,-0.9 H 1.8 c -0.5,0 -0.9,0.4 -0.9,0.9 V 266 c 0,0.2 0.1,0.3 0.3,0.3 h 0.5 c 0.1,0 0.1,0.1 0.1,0.1 v 3.1 c 0,0.1 0,0.1 0.1,0.2 0.1,0.1 0.1,0.1 0.2,0.1 h 21.8 c 0.1,0 0.1,0 0.2,-0.1 0.1,-0.1 0.1,-0.1 0.1,-0.2 v -3.1 z"
           id="path13074"
           style="fill:url(#SVGID_93_)" />
      </g>
      <g
         id="g13076">
        <linearGradient
           x1="12.9953"
           y1="269.72131"
           x2="12.9953"
           y2="253.0567"
           id="linearGradient24227"
           gradientUnits="userSpaceOnUse">
          <stop
             id="stop24229"
             style="stop-color:#383939;stop-opacity:1"
             offset="0" />
          <stop
             id="stop24231"
             style="stop-color:#30302f;stop-opacity:1"
             offset="1" />
        </linearGradient>
        <path
           d="m 24,266.4 c 0,-0.2 0.1,-0.3 0.3,-0.3 h 0.5 c 0.1,0 0.1,-0.1 0.1,-0.1 v -12.2 c 0,-0.4 -0.3,-0.7 -0.7,-0.7 H 1.8 c -0.4,0 -0.7,0.3 -0.7,0.7 V 266 c 0,0.1 0.1,0.1 0.1,0.1 h 0.5 c 0.2,0 0.3,0.1 0.3,0.3 v 3.1 c 0,0 0,0.1 0,0.1 0,0 0.1,0 0.1,0 h 21.8 c 0,0 0.1,0 0.1,0 0,0 0,-0.1 0,-0.1 v -3.1 z"
           id="path13083"
           style="fill:url(#SVGID_94_)" />
      </g>
      <g
         id="g13085">
        <g
           id="g13087">
          <linearGradient
             x1="12.9969"
             y1="270.146"
             x2="12.9969"
             y2="287.09409"
             id="linearGradient24236"
             gradientUnits="userSpaceOnUse">
            <stop
               id="stop24238"
               style="stop-color:#717171;stop-opacity:1"
               offset="0" />
            <stop
               id="stop24240"
               style="stop-color:#6b6b6b;stop-opacity:1"
               offset="0.0031376" />
            <stop
               id="stop24242"
               style="stop-color:#5b5b5b;stop-opacity:1"
               offset="0.00724404" />
            <stop
               id="stop24244"
               style="stop-color:#404040;stop-opacity:1"
               offset="0.01188656" />
            <stop
               id="stop24246"
               style="stop-color:#1a1a1a;stop-opacity:1"
               offset="0.01689165" />
            <stop
               id="stop24248"
               style="stop-color:#111111;stop-opacity:1"
               offset="0.018" />
            <stop
               id="stop24250"
               style="stop-color:#111111;stop-opacity:1"
               offset="0.198" />
            <stop
               id="stop24252"
               style="stop-color:#8e8f8e;stop-opacity:1"
               offset="0.214" />
            <stop
               id="stop24254"
               style="stop-color:#8a8b8a;stop-opacity:1"
               offset="0.2164" />
            <stop
               id="stop24256"
               style="stop-color:#7e7e7e;stop-opacity:1"
               offset="0.2189" />
            <stop
               id="stop24258"
               style="stop-color:#696a69;stop-opacity:1"
               offset="0.22139999" />
            <stop
               id="stop24260"
               style="stop-color:#4c4d4c;stop-opacity:1"
               offset="0.22400001" />
            <stop
               id="stop24262"
               style="stop-color:#282828;stop-opacity:1"
               offset="0.2265" />
            <stop
               id="stop24264"
               style="stop-color:#202020;stop-opacity:1"
               offset="0.227" />
            <stop
               id="stop24266"
               style="stop-color:#30302f;stop-opacity:1"
               offset="0.94999999" />
            <stop
               id="stop24268"
               style="stop-color:#111111;stop-opacity:1"
               offset="1" />
          </linearGradient>
          <path
             d="m 24.2,273.6 c 0,0.1 0.1,0.1 0.1,0.1 h 0.5 c 0.2,0 0.3,0.1 0.3,0.3 v 12.2 c 0,0.5 -0.4,0.9 -0.9,0.9 H 1.8 c -0.5,0 -0.9,-0.4 -0.9,-0.9 V 274 c 0,-0.2 0.1,-0.3 0.3,-0.3 h 0.5 c 0.1,0 0.1,-0.1 0.1,-0.1 v -3.1 c 0,-0.1 0,-0.1 0.1,-0.2 0.1,-0.1 0.1,-0.1 0.2,-0.1 h 21.8 c 0.1,0 0.1,0 0.2,0.1 0.1,0.1 0.1,0.1 0.1,0.2 v 3.1 z"
             id="path13122"
             style="fill:url(#SVGID_95_)" />
        </g>
        <linearGradient
           x1="12.9953"
           y1="270.28711"
           x2="12.9953"
           y2="286.94958"
           id="linearGradient24271"
           gradientUnits="userSpaceOnUse">
          <stop
             id="stop24273"
             style="stop-color:#414141;stop-opacity:1"
             offset="0" />
          <stop
             id="stop24275"
             style="stop-color:#383939;stop-opacity:1"
             offset="1" />
        </linearGradient>
        <path
           d="m 24.8,273.8 h -0.5 c -0.2,0 -0.3,-0.1 -0.3,-0.3 v -3.1 c 0,0 0,-0.1 0,-0.1 0,0 -0.1,0 -0.1,0 H 2.1 c 0,0 -0.1,0 -0.1,0 0,0 0,0.1 0,0.1 v 3.1 c 0,0.2 -0.1,0.3 -0.3,0.3 H 1.2 c -0.1,0 -0.1,0.1 -0.1,0.1 v 12.2 c 0,0.4 0.3,0.7 0.7,0.7 h 22.5 c 0.4,0 0.7,-0.3 0.7,-0.7 V 274 c -0.1,-0.1 -0.1,-0.2 -0.2,-0.2 z"
           id="path13129"
           style="fill:url(#SVGID_96_)" />
      </g>
      <g
         id="g13131">
        <linearGradient
           x1="1.2939"
           y1="273.56519"
           x2="1.2939"
           y2="266.4433"
           id="linearGradient24279"
           gradientUnits="userSpaceOnUse">
          <stop
             id="stop24281"
             style="stop-color:#000000;stop-opacity:1"
             offset="0" />
          <stop
             id="stop24283"
             style="stop-color:#202020;stop-opacity:1"
             offset="0.0875" />
          <stop
             id="stop24285"
             style="stop-color:#383939;stop-opacity:1"
             offset="0.16249999" />
          <stop
             id="stop24287"
             style="stop-color:#2d2d2d;stop-opacity:1"
             offset="0.2156" />
          <stop
             id="stop24289"
             style="stop-color:#232323;stop-opacity:1"
             offset="0.29319999" />
          <stop
             id="stop24291"
             style="stop-color:#202020;stop-opacity:1"
             offset="0.38999999" />
          <stop
             id="stop24293"
             style="stop-color:#414141;stop-opacity:1"
             offset="0.625" />
          <stop
             id="stop24295"
             style="stop-color:#dfdfde;stop-opacity:1"
             offset="0.875" />
          <stop
             id="stop24297"
             style="stop-color:#dddddc;stop-opacity:1"
             offset="0.88300002" />
          <stop
             id="stop24299"
             style="stop-color:#d6d6d5;stop-opacity:1"
             offset="0.88590002" />
          <stop
             id="stop24301"
             style="stop-color:#cacac9;stop-opacity:1"
             offset="0.88800001" />
          <stop
             id="stop24303"
             style="stop-color:#babab9;stop-opacity:1"
             offset="0.88959998" />
          <stop
             id="stop24305"
             style="stop-color:#a4a4a3;stop-opacity:1"
             offset="0.89109999" />
          <stop
             id="stop24307"
             style="stop-color:#888887;stop-opacity:1"
             offset="0.89240003" />
          <stop
             id="stop24309"
             style="stop-color:#686867;stop-opacity:1"
             offset="0.89349997" />
          <stop
             id="stop24311"
             style="stop-color:#434342;stop-opacity:1"
             offset="0.89450002" />
          <stop
             id="stop24313"
             style="stop-color:#30302f;stop-opacity:1"
             offset="0.89499998" />
          <stop
             id="stop24315"
             style="stop-color:#000000;stop-opacity:1"
             offset="1" />
        </linearGradient>
        <rect
           width="0.80000001"
           height="7.0999999"
           x="0.89999998"
           y="266.39999"
           id="rect13170"
           style="fill:url(#SVGID_97_)" />
      </g>
      <g
         id="g13172">
        <linearGradient
           x1="24.6975"
           y1="273.56519"
           x2="24.6975"
           y2="266.4433"
           id="linearGradient24319"
           gradientUnits="userSpaceOnUse">
          <stop
             id="stop24321"
             style="stop-color:#000000;stop-opacity:1"
             offset="0" />
          <stop
             id="stop24323"
             style="stop-color:#202020;stop-opacity:1"
             offset="0.0875" />
          <stop
             id="stop24325"
             style="stop-color:#383939;stop-opacity:1"
             offset="0.16249999" />
          <stop
             id="stop24327"
             style="stop-color:#2d2d2d;stop-opacity:1"
             offset="0.2156" />
          <stop
             id="stop24329"
             style="stop-color:#232323;stop-opacity:1"
             offset="0.29319999" />
          <stop
             id="stop24331"
             style="stop-color:#202020;stop-opacity:1"
             offset="0.38999999" />
          <stop
             id="stop24333"
             style="stop-color:#414141;stop-opacity:1"
             offset="0.625" />
          <stop
             id="stop24335"
             style="stop-color:#dfdfde;stop-opacity:1"
             offset="0.875" />
          <stop
             id="stop24337"
             style="stop-color:#dddddc;stop-opacity:1"
             offset="0.88300002" />
          <stop
             id="stop24339"
             style="stop-color:#d6d6d5;stop-opacity:1"
             offset="0.88590002" />
          <stop
             id="stop24341"
             style="stop-color:#cacac9;stop-opacity:1"
             offset="0.88800001" />
          <stop
             id="stop24343"
             style="stop-color:#babab9;stop-opacity:1"
             offset="0.88959998" />
          <stop
             id="stop24345"
             style="stop-color:#a4a4a3;stop-opacity:1"
             offset="0.89109999" />
          <stop
             id="stop24347"
             style="stop-color:#888887;stop-opacity:1"
             offset="0.89240003" />
          <stop
             id="stop24349"
             style="stop-color:#686867;stop-opacity:1"
             offset="0.89349997" />
          <stop
             id="stop24351"
             style="stop-color:#434342;stop-opacity:1"
             offset="0.89450002" />
          <stop
             id="stop24353"
             style="stop-color:#30302f;stop-opacity:1"
             offset="0.89499998" />
          <stop
             id="stop24355"
             style="stop-color:#000000;stop-opacity:1"
             offset="1" />
        </linearGradient>
        <rect
           width="0.80000001"
           height="7.0999999"
           x="24.299999"
           y="266.39999"
           id="rect13211"
           style="fill:url(#SVGID_98_)" />
      </g>
    </g>
    <g
       transform="matrix(0.99616858,0,0,1,0,764.36218)"
       id="g18059">
      <path
         d="m 5.2,269.7 c 0,-0.7 0.1,-1.9 0.2,-2.4 0.2,-0.8 0.4,-1.6 0.7,-2.3 0.3,-0.8 0.7,-1.5 1.2,-2.1 0.5,-0.7 1,-1.2 1.7,-1.7 0.6,-0.5 1.4,-0.9 2.2,-1.1 0.8,-0.3 1.7,-0.4 2.7,-0.4 0.9,0 1.8,0.1 2.5,0.3 0.7,0.2 1.3,0.5 1.8,0.8 0.5,0.3 1,0.7 1.4,1.2 0.4,0.4 0.7,0.9 1,1.4 l -2.6,1.5 c -0.2,-0.3 -0.5,-0.6 -0.7,-0.9 -0.3,-0.3 -0.6,-0.5 -0.9,-0.8 -0.3,-0.2 -0.7,-0.4 -1.1,-0.5 -0.4,-0.1 -0.9,-0.2 -1.4,-0.2 -0.7,0 -1.3,0.1 -1.9,0.3 -0.6,0.2 -1,0.5 -1.4,0.9 -0.4,0.4 -0.8,0.8 -1,1.3 -0.2,0.5 -0.5,1 -0.7,1.5 -0.2,0.5 -0.3,1.1 -0.4,1.7 -0.1,0.4 -0.1,1.1 -0.1,1.7 l -3.2,-0.2 z m 15.7,0.6 v 2 c 0,1.2 -0.2,2.3 -0.5,3.3 -0.4,0.9 -0.9,1.7 -1.5,2.4 -0.6,0.6 -1.4,1.1 -2.3,1.5 -0.9,0.3 -1.8,0.5 -2.8,0.5 -1,0 -1.9,-0.1 -2.7,-0.4 C 10.3,279.3 9.6,279 8.9,278.5 8.2,278 7.7,277.5 7.3,276.8 6.8,276.2 6.5,275.5 6.2,274.7 5.9,274 5.7,273.2 5.5,272.3 5.4,271.7 5.3,271 5.3,270.4 l 3,0 c 0,0.7 0.1,1.4 0.3,2.1 0.2,0.9 0.5,1.7 1,2.3 0.4,0.7 1,1.2 1.7,1.6 0.7,0.4 1.5,0.6 2.5,0.6 0.6,0 1.2,-0.1 1.7,-0.3 0.5,-0.2 1,-0.5 1.3,-0.9 0.4,-0.4 0.6,-0.8 0.9,-1.3 0.2,-0.5 0.3,-1 0.3,-1.6 v -0.4 h -3.5 v -2.2 l 6.4,0 z"
         id="path18061"
         style="fill:#ffffff" />
    </g>
  </g>
</svg>
