<?xml version="1.0" encoding="utf-8"?>
<!-- Generator: Adobe Illustrator 15.1.0, SVG Export Plug-In . SVG Version: 6.00 Build 0)  -->
<!DOCTYPE svg PUBLIC "-//W3C//DTD SVG 1.1//EN" "http://www.w3.org/Graphics/SVG/1.1/DTD/svg11.dtd">
<svg version="1.1" id="Layer_1" xmlns="http://www.w3.org/2000/svg" xmlns:xlink="http://www.w3.org/1999/xlink" x="0px" y="0px"
	 width="1451.34px" height="698.646px" viewBox="0 0 1451.34 698.646" enable-background="new 0 0 1451.34 698.646"
	 xml:space="preserve">
<g>
	<path fill="#FFFFFF" d="M85.708,32.298c-3.653-2.786-8.698-4.183-15.135-4.183H32.795v36.761h37.778
		c13.711,0,20.6-6.158,20.6-18.582C91.174,39.784,89.347,35.079,85.708,32.298 M87.583,143.757L61.89,92.063H32.795v51.694H4.272V0
		h66.957c6.704,0,13.085,0.897,19.127,2.773c6.023,1.826,11.284,4.691,15.772,8.536c4.537,3.776,8.115,8.579,10.715,14.274
		c2.612,5.663,3.906,12.342,3.906,20.042c0,10.746-2.259,19.634-6.889,26.555c-4.611,6.934-11.471,12.169-20.65,15.71l27.54,55.866
		H87.583z"/>
	<polygon fill="#FFFFFF" points="157.134,143.757 157.134,0 256.775,0 256.775,28.115 185.695,28.115 185.695,52.787 
		226.932,52.787 226.932,80.94 185.695,80.94 185.695,115.665 259.869,115.665 259.869,143.757 	"/>
	<path fill="#FFFFFF" d="M373.653,39.078c-6.746-7.305-17.764-10.97-32.985-10.97h-15.265v87.551h14.2
		c7.564,0,14.107-1.015,19.684-3.156c5.589-2.13,10.17-5.089,13.705-8.927c3.603-3.819,6.252-8.417,8.078-13.779
		c1.759-5.427,2.649-11.333,2.649-17.914C383.718,57.288,380.382,46.388,373.653,39.078 M407.067,104.438
		c-4.208,9.105-9.723,16.607-16.657,22.365c-6.907,5.879-14.794,10.163-23.646,12.851c-8.821,2.778-17.809,4.159-27.012,4.159
		H296.83V0.006h45.001c10.294,0,19.777,1.238,28.462,3.763c8.684,2.539,16.21,6.667,22.611,12.472
		c6.339,5.733,11.321,13.135,14.961,22.291c3.64,9.113,5.441,20.216,5.441,33.352C413.308,84.487,411.215,95.375,407.067,104.438"/>
	<polygon fill="#FFFFFF" points="601.749,143.757 601.749,83.403 542.561,83.403 542.561,143.757 513.975,143.757 513.975,0 
		542.561,0 542.561,55.245 601.749,55.245 601.749,0 630.273,0 630.273,143.757 	"/>
	<path fill="#FFFFFF" d="M738.982,58.315c-1.486-4.221-2.93-8.344-4.21-12.312c-1.27-3.968-2.297-7.34-2.965-10.089
		c-0.675,2.749-1.728,6.121-2.983,10.089c-1.356,3.968-2.712,8.091-4.222,12.312l-9.255,26.129h32.888L738.982,58.315z
		 M769.431,143.757l-11.353-31.997h-52.603l-11.297,31.997h-30.833L718.443,0h27.924l54.644,143.757H769.431z"/>
	<polygon fill="#FFFFFF" points="874.995,28.115 874.995,143.757 846.446,143.757 846.446,28.115 805.196,28.115 805.196,0 
		916.293,0 916.293,28.115 	"/>
	<polygon fill="#FFFFFF" points="60.423,271.97 60.423,325.823 147.157,325.823 147.157,382.089 60.423,382.089 60.423,503.364 
		3.338,503.364 3.338,215.709 208.82,215.709 208.82,271.97 	"/>
	<path fill="#FFFFFF" d="M417.938,292.137c-12.597-15.884-29.032-23.77-49.286-23.77c-20.259,0-36.496,7.756-48.709,23.336
		c-12.168,15.648-18.291,38.124-18.291,67.447c0,29.266,6.277,51.872,18.917,67.804c12.572,15.834,29.019,23.819,49.285,23.819
		c20.297,0,36.502-7.849,48.758-23.447c12.132-15.6,18.255-38.032,18.255-67.366C436.867,330.613,430.552,308.045,417.938,292.137
		 M486.776,421.581c-6.159,18.36-14.844,33.873-26.091,46.611c-11.253,12.764-24.642,22.619-40.26,29.379
		c-15.63,6.858-32.745,10.299-51.358,10.299c-18.899,0-36.1-3.355-51.581-10.101c-15.494-6.686-28.765-16.442-39.845-29.168
		c-11.118-12.702-19.74-28.178-25.911-46.424c-6.123-18.15-9.255-38.925-9.255-62.217c0-23.237,3.132-44.128,9.255-62.5
		c6.171-18.267,14.844-33.86,26.14-46.624c11.203-12.732,24.618-22.543,40.211-29.376c15.636-6.872,32.85-10.264,51.772-10.264
		c18.651,0,35.703,3.343,51.203,10.102c15.444,6.692,28.754,16.416,39.846,29.143c11.105,12.738,19.716,28.245,25.875,46.449
		c6.171,18.23,9.279,38.959,9.279,62.26C496.055,382.448,492.948,403.26,486.776,421.581"/>
	<path fill="#FFFFFF" d="M729.22,280.4c-7.292-5.553-17.394-8.43-30.337-8.43h-75.407v73.604h75.407
		c27.495,0,41.262-12.41,41.262-37.195C740.145,295.305,736.455,285.989,729.22,280.4 M732.959,503.364l-51.471-103.546h-58.012
		v103.546h-57.158V215.709h133.969c13.389,0,26.141,1.838,38.175,5.589c12.088,3.653,22.636,9.372,31.648,16.999
		c9.062,7.713,16.181,17.22,21.405,28.592c5.212,11.396,7.786,24.716,7.786,40.054c0,21.654-4.604,39.405-13.79,53.223
		c-9.161,13.816-22.939,24.265-41.257,31.408l55.047,111.792H732.959z"/>
	<path fill="#FFFFFF" d="M1067.7,473.578c-20.55,22.865-49.099,34.292-85.743,34.292c-17.259,0-33.043-2.848-47.379-8.616
		c-14.349-5.794-26.579-14.187-36.73-25.281c-10.103-11.067-17.926-24.734-23.584-40.829c-5.607-16.217-8.369-34.837-8.369-55.907
		V215.714h57.085v160.68c0,23.301,5.224,41.672,15.673,55.068c10.473,13.395,24.883,20.154,43.305,20.154
		c18.397,0,32.906-6.624,43.54-19.771c10.561-13.147,15.847-31.383,15.847-54.608V215.714h57.072v160.68
		C1098.416,418.288,1088.189,450.749,1067.7,473.578"/>
	<path fill="#FFFFFF" d="M1394.731,503.364V397.775c0-3.813,0.048-8.778,0.223-14.807c0.05-5.992,0.21-12.182,0.21-18.497
		c0-6.312,0.024-12.156,0.161-17.641c0.101-5.516,0.198-9.612,0.198-12.324c-2.204,5.466-5.126,12.764-8.84,21.752
		c-3.714,9.024-7.454,17.696-11.34,25.904l-58.482,127.786l-58.212-127.786c-3.824-8.208-7.589-16.88-11.29-25.904
		c-3.676-8.988-6.611-16.287-8.813-21.752c0,2.711,0.048,6.808,0.197,12.324c0.161,5.485,0.247,11.329,0.247,17.641
		c0,6.315,0.05,12.505,0.199,18.497c0.123,6.029,0.223,10.993,0.223,14.807v105.588h-56.329V215.709h55.463l59.819,130.244
		c1.98,4.147,3.862,8.454,5.794,12.93c1.881,4.55,3.688,9.038,5.497,13.414c1.757,4.382,3.44,8.517,4.927,12.318
		c1.51,3.813,2.673,6.958,3.479,9.496c1.917-5.522,4.678-12.875,8.282-22.024c3.539-9.21,7.279-17.92,11.091-26.134l58.088-130.244
		h56.329v287.655H1394.731z"/>
	<path fill="#FFFFFF" d="M92.151,698.646l-8.325-22.284H42.322l-8.257,22.284H11.78l41.202-107.62h20.26l41.2,107.62H92.151z
		 M66.482,629.454c-0.544-1.301-1.127-2.86-1.764-4.656c-0.62-1.795-1.151-3.478-1.611-5.037c-0.402,1.559-0.921,3.242-1.584,5.037
		c-0.644,1.796-1.237,3.355-1.802,4.656l-10.646,27.989h27.991L66.482,629.454z"/>
	<path fill="#FFFFFF" d="M133.952,698.646V591.014h46.154c6.808,0,12.541,0.991,17.196,2.971c4.647,1.98,8.431,4.593,11.327,7.812
		c2.903,3.23,4.996,6.87,6.264,10.907c1.282,4.061,1.914,8.17,1.914,12.317c0,2.613-0.303,5.25-0.897,7.923
		c-0.595,2.675-1.523,5.288-2.773,7.813c-1.245,2.524-2.854,4.877-4.809,7.081c-1.95,2.204-4.283,4.135-7.008,5.82
		c-2.742,1.682-5.855,2.996-9.384,3.937c-3.535,0.964-7.478,1.436-11.829,1.436h-25.367v39.616H133.952z M181.009,639.283
		c2.649,0,4.878-0.421,6.679-1.275c1.801-0.842,3.275-1.943,4.402-3.293c1.113-1.35,1.924-2.883,2.432-4.58
		c0.495-1.708,0.749-3.417,0.749-5.114c0-1.546-0.215-3.156-0.63-4.827c-0.421-1.697-1.183-3.22-2.26-4.63
		c-1.077-1.4-2.537-2.551-4.389-3.455c-1.85-0.891-4.183-1.35-6.981-1.35h-26.271v28.523H181.009z"/>
	<path fill="#FFFFFF" d="M295.24,698.646l-8.326-22.284h-41.503l-8.258,22.284h-22.284l41.2-107.62h20.259l41.201,107.62H295.24z
		 M269.57,629.454c-0.546-1.301-1.127-2.86-1.765-4.656c-0.619-1.795-1.152-3.478-1.609-5.037c-0.402,1.559-0.923,3.242-1.584,5.037
		c-0.644,1.796-1.239,3.355-1.802,4.656l-10.66,27.989h28.004L269.57,629.454z"/>
	<path fill="#FFFFFF" d="M370.893,700.378c-5.602,0-10.609-0.742-15.01-2.254c-4.396-1.498-8.278-3.578-11.637-6.227
		c-3.35-2.649-6.197-5.758-8.555-9.297c-2.346-3.565-4.259-7.404-5.731-11.539c-1.486-4.123-2.563-8.416-3.233-12.862
		c-0.687-4.456-1.015-8.902-1.015-13.358c0-4.111,0.341-8.319,1.053-12.64c0.699-4.333,1.789-8.555,3.256-12.651
		c1.485-4.111,3.411-7.986,5.781-11.637c2.37-3.653,5.237-6.847,8.561-9.608c3.318-2.76,7.198-4.916,11.6-6.523
		c4.395-1.61,9.377-2.402,14.93-2.402c5.151,0,9.825,0.694,14.034,2.104c4.196,1.387,7.897,3.231,11.104,5.521
		c3.195,2.253,5.925,4.854,8.141,7.762c2.234,2.909,3.942,5.844,5.149,8.852l-18.612,8.48c-1.307-2.006-2.637-3.801-3.981-5.409
		c-1.344-1.61-2.803-2.935-4.346-4.012c-1.559-1.078-3.275-1.906-5.149-2.476c-1.876-0.57-3.981-0.868-6.339-0.868
		c-3.002,0-5.676,0.521-8.034,1.535c-2.345,1.041-4.401,2.415-6.153,4.186c-1.746,1.744-3.231,3.788-4.419,6.14
		c-1.208,2.353-2.185,4.853-2.928,7.464c-0.749,2.625-1.293,5.336-1.628,8.11c-0.328,2.785-0.476,5.473-0.476,8.071
		c0,4.209,0.439,8.407,1.355,12.616c0.884,4.197,2.291,7.997,4.196,11.4c1.9,3.405,4.346,6.167,7.311,8.285
		c2.984,2.127,6.569,3.192,10.777,3.192c2.191,0,4.223-0.335,6.072-1.015c1.851-0.667,3.578-1.608,5.15-2.81
		c1.567-1.213,3.04-2.651,4.42-4.36c1.388-1.682,2.662-3.563,3.869-5.619l19.065,7.205c-1.696,3.949-3.751,7.564-6.16,10.845
		c-2.395,3.267-5.187,6.066-8.368,8.407c-3.181,2.314-6.765,4.135-10.764,5.434C380.172,699.735,375.734,700.378,370.893,700.378"/>
</g>
</svg>
