<svg xmlns:svg="http://www.w3.org/2000/svg"
	 xmlns="http://www.w3.org/2000/svg" xmlns:xlink="http://www.w3.org/1999/xlink" viewBox="0 523.5 612 268.5" xml:space="preserve">
<polygon points="267.927,728.751 267.927,703.614 271.661,703.614 271.661,725.05 284.2,725.05 284.2,728.751 "/>
<path d="M300.639,720.704c-0.504-0.259-1.094-0.458-1.784-0.61c-0.684-0.14-1.519-0.219-2.524-0.219
	c-1.201,0-2.146,0.259-2.849,0.75c-0.688,0.511-1.035,1.193-1.035,2.05c0,0.941,0.292,1.698,0.896,2.275
	c0.597,0.567,1.52,0.854,2.733,0.854c1.002,0,1.907-0.245,2.71-0.749c0.806-0.498,1.423-1.056,1.848-1.649v-2.7L300.639,720.704
	L300.639,720.704z M300.639,728.751v-1.864c-0.649,0.646-1.406,1.188-2.302,1.605c-0.892,0.438-1.844,0.664-2.872,0.664
	c-0.771,0-1.546-0.119-2.329-0.348c-0.77-0.229-1.473-0.604-2.09-1.102c-0.616-0.498-1.127-1.161-1.525-1.979
	c-0.392-0.811-0.597-1.8-0.597-2.938c0-1.055,0.192-1.964,0.577-2.733c0.391-0.763,0.915-1.396,1.585-1.891
	c0.67-0.518,1.453-0.889,2.359-1.128c0.915-0.232,1.903-0.358,2.979-0.358c1.729,0,3.131,0.239,4.206,0.72v-1.399
	c0-1.021-0.309-1.812-0.924-2.369c-0.609-0.55-1.484-0.821-2.632-0.821c-0.982,0-1.864,0.102-2.644,0.284
	c-0.775,0.188-1.532,0.498-2.282,0.896l-1.433-2.8c0.908-0.544,1.884-0.971,2.905-1.263c1.025-0.271,2.223-0.418,3.556-0.418
	c2.106,0,3.813,0.523,5.122,1.562c1.293,1.048,1.957,2.627,1.957,4.764v12.923h-3.623L300.639,728.751L300.639,728.751z"/>
<path d="M319.686,728.28c-0.458,0.266-0.995,0.471-1.599,0.624c-0.61,0.156-1.287,0.235-2.03,0.235c-1.32,0-2.354-0.408-3.104-1.221
	c-0.757-0.822-1.135-2.069-1.135-3.772v-10.873h-2.7v-3.386h2.7v-5.394l3.629-1.938v7.324h4.664v3.384h-4.664v10.229
	c0,0.889,0.143,1.479,0.438,1.798c0.298,0.313,0.803,0.465,1.499,0.465c0.478,0,0.969-0.08,1.473-0.239
	c0.504-0.146,0.916-0.322,1.254-0.511L319.686,728.28z"/>
<path d="M326.387,709.896h3.731v18.854h-3.731V709.896z M329.929,706.746c-0.474,0.464-1.021,0.696-1.672,0.696
	c-0.68,0-1.24-0.232-1.705-0.696c-0.474-0.465-0.703-1.016-0.703-1.665c0-0.67,0.229-1.241,0.703-1.719
	c0.465-0.458,1.025-0.689,1.705-0.689c0.647,0,1.198,0.231,1.672,0.689c0.465,0.478,0.696,1.049,0.696,1.719
	C330.632,705.73,330.401,706.281,329.929,706.746"/>
<path d="M348.273,728.751V718.11c0-1.911-0.352-3.244-1.016-4.008c-0.689-0.771-1.625-1.153-2.854-1.153
	c-1.24,0-2.188,0.424-2.856,1.26c-0.68,0.836-1.001,2.018-1.001,3.543v10.999h-3.735v-18.854h3.735v1.814
	c0.478-0.703,1.146-1.247,1.987-1.632c0.855-0.398,1.768-0.584,2.746-0.584c2.209,0,3.881,0.703,5.022,2.116
	c1.134,1.42,1.696,3.51,1.696,6.319v10.811h-3.729v0.007L348.273,728.751L348.273,728.751z"/>
<path d="M380.986,713.626c-0.14-0.451-0.312-0.962-0.504-1.521c-0.187-0.544-0.379-1.09-0.558-1.646
	c-0.182-0.544-0.348-1.062-0.504-1.521c-0.143-0.456-0.262-0.828-0.342-1.096c-0.07,0.268-0.172,0.639-0.322,1.096
	c-0.142,0.459-0.301,0.97-0.474,1.514c-0.166,0.531-0.332,1.088-0.511,1.659c-0.179,0.584-0.358,1.101-0.518,1.552l-2.02,5.745
	h7.771L380.986,713.626z M386.266,728.751l-2.116-5.957h-10.063l-2.076,5.957h-3.921l9.049-25.137h3.993l9.162,25.137H386.266z"/>
<path d="M417.765,728.751V718.11c0-1.911-0.298-3.244-0.902-4.008c-0.597-0.771-1.512-1.153-2.727-1.153
	c-1.247,0-2.155,0.424-2.746,1.26c-0.584,0.836-0.889,2.018-0.889,3.543v10.999h-3.729V718.11c0-1.911-0.306-3.244-0.902-4.008
	c-0.598-0.771-1.513-1.153-2.727-1.153c-1.247,0-2.17,0.424-2.747,1.26c-0.59,0.836-0.882,2.02-0.882,3.543v10.999h-3.742v-18.854
	h3.742v1.814c0.471-0.703,1.101-1.247,1.87-1.632c0.764-0.398,1.639-0.584,2.628-0.584c1.287,0,2.354,0.232,3.178,0.703
	c0.842,0.472,1.506,1.175,2.01,2.083c0.332-0.424,0.69-0.815,1.063-1.16c0.371-0.346,0.773-0.631,1.247-0.869
	c0.458-0.246,0.969-0.432,1.523-0.563c0.577-0.143,1.224-0.199,1.973-0.199c2.209,0,3.848,0.703,4.906,2.116
	c1.042,1.42,1.572,3.51,1.572,6.32v10.81h-3.722L417.765,728.751L417.765,728.751z"/>
<path d="M439.008,715.748c-0.173-0.57-0.444-1.074-0.806-1.512c-0.362-0.428-0.803-0.767-1.341-1.019
	c-0.544-0.252-1.2-0.385-1.957-0.385c-1.254,0-2.242,0.418-2.965,1.247c-0.743,0.823-1.188,1.99-1.354,3.496h8.764
	C439.306,716.93,439.187,716.325,439.008,715.748 M443.038,719.901c-0.014,0.292-0.038,0.544-0.063,0.724h-12.466
	c0.1,0.922,0.285,1.698,0.577,2.348c0.282,0.65,0.644,1.185,1.072,1.603c0.428,0.418,0.915,0.729,1.436,0.936
	c0.531,0.198,1.088,0.308,1.659,0.308c0.796,0,1.519-0.143,2.176-0.404c0.656-0.259,1.287-0.624,1.917-1.115l2.193,2.369
	c-0.843,0.789-1.775,1.398-2.813,1.83c-1.021,0.432-2.255,0.657-3.701,0.657c-1.102,0-2.144-0.222-3.132-0.657
	c-1.002-0.432-1.87-1.063-2.62-1.903c-0.729-0.836-1.327-1.854-1.752-3.092c-0.438-1.221-0.663-2.606-0.663-4.159
	c0-1.604,0.206-3.019,0.63-4.238c0.398-1.229,0.956-2.24,1.682-3.07c0.724-0.829,1.593-1.459,2.601-1.894
	c1.016-0.425,2.137-0.637,3.363-0.637c1.348,0,2.515,0.239,3.497,0.743c1.001,0.504,1.821,1.188,2.479,2.057
	c0.657,0.855,1.154,1.857,1.476,3.005c0.332,1.154,0.481,2.362,0.481,3.63C443.078,719.277,443.073,719.597,443.038,719.901"/>
<path d="M459.03,713.813c-0.411-0.204-0.822-0.386-1.261-0.506c-0.424-0.116-0.948-0.179-1.579-0.179
	c-1.167,0-2.076,0.411-2.72,1.229c-0.646,0.813-0.969,2.027-0.969,3.62v10.779h-3.734v-18.857h3.734v1.798
	c0.425-0.624,1.021-1.145,1.765-1.556c0.764-0.418,1.6-0.637,2.548-0.637c0.756,0,1.396,0.073,1.878,0.192
	c0.49,0.14,0.938,0.338,1.319,0.597L459.03,713.813z"/>
<path d="M465.027,709.896h3.735v18.854h-3.735V709.896z M468.57,706.746c-0.465,0.464-1.015,0.696-1.665,0.696
	c-0.677,0-1.247-0.232-1.712-0.696c-0.464-0.465-0.696-1.016-0.696-1.665c0-0.67,0.232-1.241,0.696-1.719
	c0.465-0.458,1.035-0.689,1.712-0.689c0.65,0,1.2,0.231,1.665,0.689c0.458,0.478,0.696,1.049,0.696,1.719
	C469.266,705.73,469.028,706.281,468.57,706.746"/>
<path d="M487.298,715.311c-0.771-0.786-1.521-1.37-2.249-1.735c-0.73-0.378-1.516-0.56-2.355-0.56c-1.354,0-2.435,0.56-3.225,1.672
	c-0.789,1.114-1.188,2.643-1.188,4.57c0,0.942,0.103,1.798,0.299,2.574c0.183,0.77,0.458,1.446,0.855,2.01
	c0.385,0.564,0.856,1.002,1.413,1.313c0.571,0.313,1.221,0.465,1.964,0.465c0.883,0,1.632-0.199,2.242-0.597
	c0.607-0.398,1.287-0.972,2.03-1.745l2.365,2.342c-0.354,0.478-0.749,0.929-1.181,1.347c-0.431,0.418-0.922,0.789-1.466,1.114
	c-0.537,0.325-1.145,0.571-1.807,0.764c-0.678,0.188-1.438,0.298-2.31,0.298c-1.146,0-2.223-0.242-3.204-0.701
	c-0.995-0.466-1.852-1.128-2.581-1.979c-0.743-0.854-1.313-1.864-1.735-3.072c-0.411-1.197-0.623-2.54-0.623-4.02
	c0-1.546,0.212-2.946,0.644-4.167c0.431-1.222,1.015-2.255,1.765-3.099c0.736-0.854,1.625-1.508,2.62-1.957
	c1.012-0.438,2.083-0.649,3.237-0.649c1.387,0,2.627,0.259,3.722,0.796c1.088,0.544,2.07,1.341,2.959,2.389L487.298,715.311z"/>
<path d="M505.469,720.704c-0.505-0.259-1.098-0.458-1.785-0.61c-0.684-0.14-1.521-0.219-2.527-0.219
	c-1.201,0-2.143,0.259-2.846,0.75c-0.69,0.511-1.035,1.193-1.035,2.05c0,0.941,0.299,1.698,0.896,2.275
	c0.604,0.567,1.52,0.854,2.73,0.854c1.002,0,1.904-0.245,2.713-0.749c0.797-0.498,1.413-1.056,1.848-1.649v-2.7L505.469,720.704
	L505.469,720.704z M505.469,728.751v-1.864c-0.646,0.646-1.42,1.188-2.306,1.605c-0.889,0.438-1.844,0.664-2.879,0.664
	c-0.763,0-1.529-0.119-2.319-0.348c-0.771-0.229-1.476-0.604-2.099-1.102c-0.614-0.498-1.128-1.161-1.523-1.979
	c-0.386-0.811-0.59-1.8-0.59-2.938c0-1.055,0.195-1.964,0.567-2.733c0.397-0.763,0.922-1.396,1.585-1.891
	c0.68-0.518,1.47-0.889,2.369-1.128c0.915-0.232,1.903-0.358,2.979-0.358c1.729,0,3.131,0.239,4.205,0.72v-1.399
	c0-1.021-0.308-1.812-0.924-2.369c-0.607-0.55-1.483-0.821-2.634-0.821c-0.979,0-1.855,0.102-2.634,0.284
	c-0.783,0.188-1.54,0.498-2.282,0.896l-1.438-2.8c0.906-0.544,1.885-0.971,2.903-1.263c1.035-0.271,2.226-0.418,3.563-0.418
	c2.097,0,3.813,0.523,5.115,1.562c1.3,1.048,1.948,2.627,1.948,4.764v12.923h-3.613v-0.008H505.469L505.469,728.751z"/>
<path fill="#CC0000" d="M211.318,633.339c0-55.428-45.829-100.368-102.352-100.368c-56.523,0-102.332,44.939-102.332,100.368
	c0,69.446,101.403,154.317,101.403,154.317S211.318,699.939,211.318,633.339"/>
<path fill="#AA0000" d="M211.318,633.339c0-28.706-12.293-54.592-31.98-72.882l-71.297,227.2
	C108.037,787.656,211.318,699.939,211.318,633.339"/>
<path d="M285.533,574.541c-0.852-0.657-2.03-0.982-3.522-0.982h-8.797v8.571h8.797c3.191,0,4.797-1.438,4.797-4.332
	C286.801,576.271,286.383,575.178,285.533,574.541 M285.972,600.513l-5.991-12.065h-6.771v12.065h-6.647v-33.516h15.61
	c1.559,0,3.045,0.212,4.451,0.644c1.397,0.433,2.634,1.097,3.688,1.99c1.049,0.889,1.878,2.003,2.495,3.331
	c0.604,1.32,0.908,2.873,0.908,4.664c0,2.521-0.53,4.584-1.605,6.196c-1.064,1.61-2.68,2.839-4.81,3.662l6.415,13.027
	L285.972,600.513L285.972,600.513z"/>
<polygon points="302.185,600.513 302.185,566.998 325.408,566.998 325.408,573.552 308.839,573.552 308.839,579.297 
	318.455,579.297 318.455,585.858 308.839,585.858 308.839,593.959 326.134,593.959 326.134,600.513 "/>
<path d="M352.651,576.106c-1.578-1.705-4.14-2.556-7.695-2.556H341.4v20.407h3.313c1.765,0,3.29-0.252,4.598-0.743
	c1.287-0.491,2.348-1.188,3.184-2.068c0.836-0.896,1.453-1.972,1.878-3.226c0.411-1.254,0.624-2.641,0.624-4.167
	C354.996,580.359,354.217,577.813,352.651,576.106 M360.433,591.345c-0.979,2.117-2.271,3.861-3.881,5.215
	c-1.612,1.36-3.45,2.362-5.507,2.999c-2.063,0.632-4.159,0.955-6.305,0.955h-9.998v-33.516h10.482c2.388,0,4.604,0.292,6.634,0.876
	c2.023,0.597,3.774,1.559,5.271,2.906c1.483,1.34,2.65,3.063,3.496,5.192c0.85,2.116,1.261,4.719,1.261,7.782
	C361.893,586.694,361.402,589.222,360.433,591.345"/>
<polygon points="405.811,600.513 405.811,586.442 392.018,586.442 392.018,600.513 385.358,600.513 385.358,566.998 
	392.018,566.998 392.018,579.875 405.811,579.875 405.811,566.998 412.464,566.998 412.464,600.513 "/>
<path d="M437.8,580.591c-0.358-0.979-0.689-1.941-0.988-2.873c-0.299-0.929-0.53-1.705-0.689-2.342
	c-0.15,0.637-0.392,1.413-0.688,2.342c-0.305,0.931-0.63,1.893-0.981,2.873l-2.146,6.09h7.654L437.8,580.591z M444.886,600.513
	l-2.628-7.47h-12.272l-2.628,7.47h-7.185l12.831-33.516h6.515l12.737,33.516H444.886z"/>
<polygon points="469.495,573.559 469.495,600.52 462.844,600.52 462.844,573.559 453.211,573.559 453.211,566.998 479.121,566.998 
	479.121,573.559 "/>
<polygon points="280.346,630.4 280.346,642.952 300.553,642.952 300.553,656.074 280.346,656.074 280.346,684.316 267.037,684.316 
	267.037,617.278 314.923,617.278 314.923,630.4 "/>
<path d="M363.656,635.09c-2.933-3.702-6.771-5.553-11.481-5.553c-4.727,0-8.498,1.818-11.354,5.454
	c-2.84,3.642-4.266,8.883-4.266,15.716c0,6.826,1.473,12.093,4.411,15.809c2.926,3.702,6.768,5.548,11.481,5.548
	c4.736,0,8.505-1.816,11.354-5.452c2.846-3.646,4.266-8.871,4.266-15.709C368.069,644.06,366.61,638.799,363.656,635.09
	 M379.702,665.264c-1.434,4.271-3.457,7.896-6.084,10.872c-2.618,2.966-5.735,5.248-9.381,6.841c-3.642,1.588-7.629,2.4-11.968,2.4
	c-4.411,0-8.425-0.789-12.027-2.354c-3.613-1.556-6.707-3.828-9.288-6.803c-2.594-2.959-4.598-6.566-6.034-10.818
	c-1.429-4.239-2.156-9.083-2.156-14.51c0-5.42,0.729-10.274,2.156-14.562c1.438-4.272,3.463-7.896,6.09-10.867
	c2.611-2.965,5.746-5.248,9.381-6.846c3.643-1.601,7.656-2.39,12.062-2.39c4.348,0,8.325,0.775,11.938,2.343
	c3.603,1.564,6.707,3.828,9.281,6.8c2.594,2.965,4.598,6.574,6.027,10.82c1.439,4.252,2.163,9.082,2.163,14.516
	C381.871,656.134,381.145,660.983,379.702,665.264"/>
<path d="M436.215,632.351c-1.705-1.3-4.047-1.956-7.065-1.956h-17.581v17.148h17.581c6.408,0,9.612-2.893,9.612-8.671
	C438.762,635.827,437.906,633.651,436.215,632.351 M437.09,684.316l-11.994-24.13h-13.533v24.13H398.24v-67.04h31.229
	c3.124,0,6.097,0.431,8.9,1.293c2.813,0.861,5.273,2.188,7.377,3.974c2.104,1.785,3.765,4.007,4.982,6.661
	c1.221,2.646,1.813,5.758,1.813,9.334c0,5.042-1.063,9.182-3.196,12.399c-2.146,3.229-5.354,5.664-9.626,7.322l12.83,26.053H437.09
	V684.316z"/>
<path d="M515.108,677.377c-4.783,5.34-11.45,8.007-19.979,8.007c-4.021,0-7.696-0.677-11.049-2.021
	c-3.344-1.334-6.2-3.307-8.559-5.893c-2.354-2.588-4.186-5.76-5.493-9.535c-1.307-3.761-1.957-8.104-1.957-13.021v-37.636h13.312
	v37.449c0,5.428,1.214,9.705,3.652,12.83c2.438,3.133,5.8,4.689,10.094,4.689c4.282,0,7.659-1.521,10.13-4.59
	c2.468-3.065,3.709-7.318,3.709-12.738v-37.636h13.308v37.45C522.273,664.493,519.878,672.049,515.108,677.377"/>
<path d="M591.322,684.316V659.71c0-0.896,0.026-2.043,0.063-3.457c0.02-1.398,0.039-2.833,0.039-4.306
	c0-1.466,0.021-2.839,0.054-4.113c0.026-1.281,0.046-2.243,0.046-2.879c-0.518,1.28-1.2,2.972-2.063,5.075
	c-0.869,2.107-1.755,4.12-2.647,6.037l-13.633,29.779l-13.567-29.779c-0.896-1.917-1.765-3.93-2.627-6.037
	c-0.854-2.104-1.532-3.795-2.05-5.075c0,0.637,0.014,1.599,0.047,2.879c0.033,1.273,0.053,2.647,0.053,4.113
	c0,1.473,0.017,2.906,0.049,4.306c0.024,1.413,0.047,2.563,0.047,3.457v24.606H542.01v-67.04h12.923l13.945,30.356
	c0.448,0.962,0.896,1.964,1.34,3.021c0.441,1.055,0.876,2.096,1.287,3.118c0.411,1.021,0.796,1.977,1.151,2.864
	c0.348,0.896,0.617,1.625,0.813,2.209c0.431-1.279,1.081-2.984,1.924-5.128c0.829-2.143,1.691-4.167,2.587-6.083l13.541-30.356
	h13.122v67.039H591.322L591.322,684.316z"/>
<path fill="#FFFFFF" d="M91.446,572.491l-26.361,58.016l76.77-20.115L91.446,572.491z M62.049,635.422l-2.335-2.76l29.137-64.093
	l3.012-0.771l55.694,41.868l-0.688,3.523L62.049,635.422z"/>
<path fill="#FFFFFF" d="M65.446,634.533l58.487,57.412l19.656-77.887L65.446,634.533z M123.62,697.232l-63.481-62.314l0.896-3.35
	l84.814-22.231l2.428,2.415l-21.319,84.54L123.62,697.232z"/>
<path fill="#FFFFFF" d="M101.031,574.693l44.607,33.542l8.545-17.104L101.031,574.693z M145.149,612.859l-55.688-41.868l1.785-3.502
	l66.348,20.524l1.208,2.793l-10.661,21.351L145.149,612.859z"/>
<path fill="#FFFFFF" d="M50.022,618.233l10.936,11.722l22.41-49.318L50.022,618.233z M60.078,634.852l-14.21-15.225l-0.033-2.694
	l43.334-48.858l3.304,2.147L63.35,634.322L60.078,634.852z"/>
<path fill="#FFFFFF" d="M63.529,686.405l55.913,6.721l-55.913-54.871V686.405z M124.788,697.783l-63.489-7.623l-1.751-1.983v-54.678
	l3.39-1.42l63.489,62.313L124.788,697.783z"/>
<path fill="#FFFFFF" d="M147.185,616.13l-18.874,74.8l46.127-33.721L147.185,616.13z M126.201,697.412l-3.125-2.09l21.336-84.539
	l3.596-0.617l30.809,46.433l-0.488,2.707L126.201,697.412z"/>
<path fill="#FFFFFF" d="M148.645,611.128l22.795,34.354l-14.897-50.147L148.645,611.128z M175.493,658.801l-30.813-46.432
	l-0.119-1.99l10.647-21.349l3.702,0.316l20.146,67.781L175.493,658.801z"/>
<path fill="#FFFFFF" d="M50.692,624.794l8.856,43.546v-34.053L50.692,624.794z M59.581,688.575l-14.216-69.91l3.423-1.758
	l14.204,15.23l0.534,1.354v54.689L59.581,688.575z"/>
</svg>
