<svg xmlns="http://www.w3.org/2000/svg" xmlns:xlink="http://www.w3.org/1999/xlink" viewBox="1.002 307.499 130 177" xml:space="preserve">
<g>
  <g>
    <g>
      <g>
        <defs>
          <path id="SVGID_1_" d="M12.296,310.123c-4.638,0-8.404,3.72-8.404,8.404v154.944c0,4.638,3.767,8.404,8.404,8.404h107.366
						c4.662,0,8.451-3.767,8.451-8.404V318.529c0-4.684-3.789-8.404-8.451-8.404H12.296V310.123z"/>
        </defs>
        <clipPath id="SVGID_2_">
          <use xlink:href="#SVGID_1_"  overflow="visible"/>
        </clipPath>
        <linearGradient id="SVGID_3_" gradientUnits="userSpaceOnUse" x1="-1040.21" y1="222.7354" x2="-1037.3945" y2="222.7354" gradientTransform="matrix(0 60.9974 -60.9974 0 13652.3359 63760.25)">
          <stop  offset="0" style="stop-color:#212020"/>
          <stop  offset="0.05" style="stop-color:#313130"/>
          <stop  offset="0.95" style="stop-color:#212020"/>
          <stop  offset="1" style="stop-color:#9D9E9D"/>
        </linearGradient>
        <rect x="3.892" y="310.123" clip-path="url(#SVGID_2_)" fill="url(#SVGID_3_)" width="124.222" height="171.752"/>
      </g>
    </g>
    <g>
      <g>
        <defs>
          <path id="SVGID_4_" d="M12.296,314.439c-2.275,0-4.088,1.861-4.088,4.087v58.415c0,0.779,0.621,1.377,1.377,1.377h2.321
						c0.343,0,0.643,0.321,0.643,0.689v14.949c0,0.343,0.161,0.667,0.414,0.964c0.299,0.25,0.621,0.392,0.963,0.392h104.131
						c0.346,0,0.688-0.139,0.941-0.392c0.277-0.299,0.414-0.621,0.414-0.964v-14.949c0-0.365,0.299-0.689,0.666-0.689h2.318
						c0.76,0,1.378-0.596,1.378-1.377v-58.412c0-2.229-1.813-4.088-4.11-4.088H12.296V314.439z"/>
        </defs>
        <clipPath id="SVGID_5_">
          <use xlink:href="#SVGID_4_"  overflow="visible"/>
        </clipPath>
        <linearGradient id="SVGID_6_" gradientUnits="userSpaceOnUse" x1="-1050.2515" y1="347.5913" x2="-1047.4351" y2="347.5913" gradientTransform="matrix(0 -28.714 28.714 0 -9914.7207 -29761.5801)">
          <stop  offset="0" style="stop-color:#212020"/>
          <stop  offset="0.0109" style="stop-color:#1A1919"/>
          <stop  offset="0.018" style="stop-color:#121212"/>
          <stop  offset="0.1688" style="stop-color:#121212"/>
          <stop  offset="0.198" style="stop-color:#414141"/>
          <stop  offset="0.214" style="stop-color:#616161"/>
          <stop  offset="0.2176" style="stop-color:#5D5D5D"/>
          <stop  offset="0.2215" style="stop-color:#505050"/>
          <stop  offset="0.2254" style="stop-color:#3C3C3B"/>
          <stop  offset="0.227" style="stop-color:#313130"/>
          <stop  offset="0.95" style="stop-color:#212020"/>
          <stop  offset="1" style="stop-color:#BFBEBE"/>
        </linearGradient>
        <rect x="8.206" y="314.439" clip-path="url(#SVGID_5_)" fill="url(#SVGID_6_)" width="115.563" height="80.872"/>
      </g>
    </g>
    <g>
      <g>
        <defs>
          <path id="SVGID_7_" d="M12.296,315.106c-1.883,0-3.377,1.538-3.377,3.423v58.414c0,0.39,0.321,0.689,0.667,0.689h2.321
						c0.735,0,1.353,0.62,1.353,1.377v14.949c0,0.161,0.068,0.343,0.185,0.482c0.139,0.138,0.321,0.185,0.481,0.185h104.131
						c0.16,0,0.346-0.046,0.459-0.185c0.139-0.139,0.184-0.321,0.184-0.482v-14.949c0-0.757,0.645-1.377,1.379-1.377h2.318
						c0.393,0,0.689-0.299,0.689-0.689v-58.414c0-1.883-1.538-3.423-3.424-3.423H12.296z"/>
        </defs>
        <clipPath id="SVGID_8_">
          <use xlink:href="#SVGID_7_"  overflow="visible"/>
        </clipPath>
        <linearGradient id="SVGID_9_" gradientUnits="userSpaceOnUse" x1="-1050.3193" y1="348.9976" x2="-1047.5024" y2="348.9976" gradientTransform="matrix(0 -28.2304 28.2304 0 -9786.3418 -29256.3066)">
          <stop  offset="0" style="stop-color:#393939"/>
          <stop  offset="1" style="stop-color:#313130"/>
        </linearGradient>
        <rect x="8.919" y="315.106" clip-path="url(#SVGID_8_)" fill="url(#SVGID_9_)" width="114.167" height="79.517"/>
      </g>
    </g>
    <g>
      <g>
        <defs>
          <path id="SVGID_10_" d="M13.924,396.664c-0.343,0-0.667,0.139-0.963,0.414c-0.251,0.25-0.414,0.596-0.414,0.963v14.928
						c0,0.414-0.299,0.666-0.642,0.666H9.583c-0.757,0-1.377,0.643-1.377,1.377v58.459c0,2.229,1.813,4.065,4.087,4.065H119.66
						c2.297,0,4.109-1.837,4.109-4.065v-58.459c0-0.734-0.617-1.377-1.377-1.377h-2.316c-0.367,0-0.667-0.252-0.667-0.666v-14.928
						c0-0.365-0.138-0.71-0.413-0.963c-0.251-0.275-0.597-0.414-0.941-0.414H13.924z"/>
        </defs>
        <clipPath id="SVGID_11_">
          <use xlink:href="#SVGID_10_"  overflow="visible"/>
        </clipPath>
        <linearGradient id="SVGID_12_" gradientUnits="userSpaceOnUse" x1="-1035.3672" y1="177.8345" x2="-1032.5503" y2="177.8345" gradientTransform="matrix(0 28.714 -28.714 0 5172.2832 30126.1582)">
          <stop  offset="0" style="stop-color:#717171"/>
          <stop  offset="0.0032" style="stop-color:#6B6B6B"/>
          <stop  offset="0.0073" style="stop-color:#5B5B5B"/>
          <stop  offset="0.012" style="stop-color:#404040"/>
          <stop  offset="0.017" style="stop-color:#1A1A1A"/>
          <stop  offset="0.018" style="stop-color:#121212"/>
          <stop  offset="0.198" style="stop-color:#121212"/>
          <stop  offset="0.214" style="stop-color:#8E8E8E"/>
          <stop  offset="0.2164" style="stop-color:#8A8A8A"/>
          <stop  offset="0.2189" style="stop-color:#7E7D7D"/>
          <stop  offset="0.2215" style="stop-color:#696969"/>
          <stop  offset="0.224" style="stop-color:#4C4C4C"/>
          <stop  offset="0.2266" style="stop-color:#282727"/>
          <stop  offset="0.227" style="stop-color:#212020"/>
          <stop  offset="0.95" style="stop-color:#313130"/>
          <stop  offset="1" style="stop-color:#121212"/>
        </linearGradient>
        <rect x="8.206" y="396.664" clip-path="url(#SVGID_11_)" fill="url(#SVGID_12_)" width="115.563" height="80.872"/>
      </g>
    </g>
    <g>
      <g>
        <defs>
          <path id="SVGID_13_" d="M13.924,397.355c-0.158,0-0.343,0.092-0.482,0.185c-0.117,0.139-0.185,0.297-0.185,0.504v14.927
						c0,0.757-0.618,1.377-1.353,1.377H9.583c-0.343,0-0.667,0.321-0.667,0.667v58.458c0,1.861,1.494,3.399,3.377,3.399H119.66
						c1.883,0,3.424-1.538,3.424-3.399v-58.461c0-0.345-0.3-0.666-0.689-0.666h-2.318c-0.734,0-1.379-0.62-1.379-1.377v-14.928
						c0-0.206-0.047-0.365-0.184-0.504c-0.114-0.092-0.299-0.184-0.459-0.184H13.924V397.355z"/>
        </defs>
        <clipPath id="SVGID_14_">
          <use xlink:href="#SVGID_13_"  overflow="visible"/>
        </clipPath>
        <linearGradient id="SVGID_15_" gradientUnits="userSpaceOnUse" x1="-1035.2241" y1="176.375" x2="-1032.4072" y2="176.375" gradientTransform="matrix(0 28.2284 -28.2284 0 5044.791 29620.1055)">
          <stop  offset="0" style="stop-color:#414141"/>
          <stop  offset="1" style="stop-color:#393939"/>
        </linearGradient>
        <rect x="8.919" y="397.355" clip-path="url(#SVGID_14_)" fill="url(#SVGID_15_)" width="114.167" height="79.517"/>
      </g>
    </g>
    <g>
      <g>
        <defs>
          <rect id="SVGID_16_" x="8.206" y="379.031" width="3.698" height="33.939"/>
        </defs>
        <clipPath id="SVGID_17_">
          <use xlink:href="#SVGID_16_"  overflow="visible"/>
        </clipPath>
        <linearGradient id="SVGID_18_" gradientUnits="userSpaceOnUse" x1="-1061.3633" y1="461.7295" x2="-1058.5488" y2="461.7295" gradientTransform="matrix(0 -12.0591 12.0591 0 -5557.9775 -12386.0879)">
          <stop  offset="0" style="stop-color:#010101"/>
          <stop  offset="0.0875" style="stop-color:#212020"/>
          <stop  offset="0.1625" style="stop-color:#393939"/>
          <stop  offset="0.2164" style="stop-color:#2D2D2D"/>
          <stop  offset="0.2907" style="stop-color:#242323"/>
          <stop  offset="0.39" style="stop-color:#212020"/>
          <stop  offset="0.625" style="stop-color:#414141"/>
          <stop  offset="0.875" style="stop-color:#DFDFDE"/>
          <stop  offset="0.883" style="stop-color:#DDDDDC"/>
          <stop  offset="0.8859" style="stop-color:#D6D6D5"/>
          <stop  offset="0.888" style="stop-color:#CACAC9"/>
          <stop  offset="0.8897" style="stop-color:#BABAB9"/>
          <stop  offset="0.8911" style="stop-color:#A3A3A2"/>
          <stop  offset="0.8924" style="stop-color:#888887"/>
          <stop  offset="0.8935" style="stop-color:#686867"/>
          <stop  offset="0.8946" style="stop-color:#434342"/>
          <stop  offset="0.895" style="stop-color:#313130"/>
          <stop  offset="1" style="stop-color:#010101"/>
        </linearGradient>
        <rect x="8.206" y="379.031" clip-path="url(#SVGID_17_)" fill="url(#SVGID_18_)" width="3.698" height="33.939"/>
      </g>
    </g>
    <g>
      <g>
        <defs>
          <rect id="SVGID_19_" x="120.076" y="379.031" width="3.695" height="33.939"/>
        </defs>
        <clipPath id="SVGID_20_">
          <use xlink:href="#SVGID_19_"  overflow="visible"/>
        </clipPath>
        <linearGradient id="SVGID_21_" gradientUnits="userSpaceOnUse" x1="-1061.3633" y1="467.7129" x2="-1058.5488" y2="467.7129" gradientTransform="matrix(0 -12.0591 12.0591 0 -5518.2666 -12386.0879)">
          <stop  offset="0" style="stop-color:#010101"/>
          <stop  offset="0.0875" style="stop-color:#212020"/>
          <stop  offset="0.1625" style="stop-color:#393939"/>
          <stop  offset="0.2164" style="stop-color:#2D2D2D"/>
          <stop  offset="0.2907" style="stop-color:#242323"/>
          <stop  offset="0.39" style="stop-color:#212020"/>
          <stop  offset="0.625" style="stop-color:#414141"/>
          <stop  offset="0.875" style="stop-color:#DFDFDE"/>
          <stop  offset="0.883" style="stop-color:#DDDDDC"/>
          <stop  offset="0.8859" style="stop-color:#D6D6D5"/>
          <stop  offset="0.888" style="stop-color:#CACAC9"/>
          <stop  offset="0.8897" style="stop-color:#BABAB9"/>
          <stop  offset="0.8911" style="stop-color:#A3A3A2"/>
          <stop  offset="0.8924" style="stop-color:#888887"/>
          <stop  offset="0.8935" style="stop-color:#686867"/>
          <stop  offset="0.8946" style="stop-color:#434342"/>
          <stop  offset="0.895" style="stop-color:#313130"/>
          <stop  offset="1" style="stop-color:#010101"/>
        </linearGradient>
        <rect x="120.076" y="379.031" clip-path="url(#SVGID_20_)" fill="url(#SVGID_21_)" width="3.695" height="33.939"/>
      </g>
    </g>
  </g>
</g>
</svg> 