<?xml version="1.0" encoding="UTF-8" standalone="no"?>
<!-- Created with Inkscape (http://www.inkscape.org/) -->

<svg
   xmlns:dc="http://purl.org/dc/elements/1.1/"
   xmlns:cc="http://creativecommons.org/ns#"
   xmlns:rdf="http://www.w3.org/1999/02/22-rdf-syntax-ns#"
   xmlns:svg="http://www.w3.org/2000/svg"
   xmlns="http://www.w3.org/2000/svg"
   version="1.1"
   width="100%"
   
   viewBox="0 0 26 36"
   id="svg30846">
  <defs
     id="defs30848">
    <linearGradient
       x1="12.9987"
       y1="612.00592"
       x2="12.9987"
       y2="648.00592"
       id="SVGID_204_"
       gradientUnits="userSpaceOnUse">
      <stop
         id="stop16027"
         style="stop-color:#202020;stop-opacity:1"
         offset="0" />
      <stop
         id="stop16029"
         style="stop-color:#30302f;stop-opacity:1"
         offset="0.05" />
      <stop
         id="stop16031"
         style="stop-color:#202020;stop-opacity:1"
         offset="0.94999999" />
      <stop
         id="stop16033"
         style="stop-color:#9e9f9f;stop-opacity:1"
         offset="1" />
    </linearGradient>
    <linearGradient
       x1="12.999"
       y1="629.86151"
       x2="12.999"
       y2="612.91998"
       id="SVGID_205_"
       gradientUnits="userSpaceOnUse">
      <stop
         id="stop16042"
         style="stop-color:#202020;stop-opacity:1"
         offset="0" />
      <stop
         id="stop16044"
         style="stop-color:#1a1a1a;stop-opacity:1"
         offset="0.00993739" />
      <stop
         id="stop16046"
         style="stop-color:#111111;stop-opacity:1"
         offset="0.018" />
      <stop
         id="stop16048"
         style="stop-color:#111111;stop-opacity:1"
         offset="0.1688" />
      <stop
         id="stop16050"
         style="stop-color:#414141;stop-opacity:1"
         offset="0.198" />
      <stop
         id="stop16052"
         style="stop-color:#616161;stop-opacity:1"
         offset="0.214" />
      <stop
         id="stop16054"
         style="stop-color:#5d5d5d;stop-opacity:1"
         offset="0.2176" />
      <stop
         id="stop16056"
         style="stop-color:#515150;stop-opacity:1"
         offset="0.22139999" />
      <stop
         id="stop16058"
         style="stop-color:#3d3d3c;stop-opacity:1"
         offset="0.2252" />
      <stop
         id="stop16060"
         style="stop-color:#30302f;stop-opacity:1"
         offset="0.227" />
      <stop
         id="stop16062"
         style="stop-color:#202020;stop-opacity:1"
         offset="0.94999999" />
      <stop
         id="stop16064"
         style="stop-color:#bfbebe;stop-opacity:1"
         offset="1" />
    </linearGradient>
    <linearGradient
       x1="12.9977"
       y1="629.71948"
       x2="12.9977"
       y2="613.05939"
       id="SVGID_206_"
       gradientUnits="userSpaceOnUse">
      <stop
         id="stop16071"
         style="stop-color:#383939;stop-opacity:1"
         offset="0" />
      <stop
         id="stop16073"
         style="stop-color:#30302f;stop-opacity:1"
         offset="1" />
    </linearGradient>
    <linearGradient
       x1="12.999"
       y1="630.1496"
       x2="12.999"
       y2="647.09662"
       id="SVGID_207_"
       gradientUnits="userSpaceOnUse">
      <stop
         id="stop16082"
         style="stop-color:#717171;stop-opacity:1"
         offset="0" />
      <stop
         id="stop16084"
         style="stop-color:#6b6b6b;stop-opacity:1"
         offset="0.0031376" />
      <stop
         id="stop16086"
         style="stop-color:#5b5b5b;stop-opacity:1"
         offset="0.00724404" />
      <stop
         id="stop16088"
         style="stop-color:#404040;stop-opacity:1"
         offset="0.01188656" />
      <stop
         id="stop16090"
         style="stop-color:#1a1a1a;stop-opacity:1"
         offset="0.01689165" />
      <stop
         id="stop16092"
         style="stop-color:#111111;stop-opacity:1"
         offset="0.018" />
      <stop
         id="stop16094"
         style="stop-color:#111111;stop-opacity:1"
         offset="0.198" />
      <stop
         id="stop16096"
         style="stop-color:#8e8f8e;stop-opacity:1"
         offset="0.214" />
      <stop
         id="stop16098"
         style="stop-color:#8a8b8a;stop-opacity:1"
         offset="0.2164" />
      <stop
         id="stop16100"
         style="stop-color:#7e7e7e;stop-opacity:1"
         offset="0.2189" />
      <stop
         id="stop16102"
         style="stop-color:#696a69;stop-opacity:1"
         offset="0.22139999" />
      <stop
         id="stop16104"
         style="stop-color:#4c4d4c;stop-opacity:1"
         offset="0.22400001" />
      <stop
         id="stop16106"
         style="stop-color:#282828;stop-opacity:1"
         offset="0.2265" />
      <stop
         id="stop16108"
         style="stop-color:#202020;stop-opacity:1"
         offset="0.227" />
      <stop
         id="stop16110"
         style="stop-color:#30302f;stop-opacity:1"
         offset="0.94999999" />
      <stop
         id="stop16112"
         style="stop-color:#111111;stop-opacity:1"
         offset="1" />
    </linearGradient>
    <linearGradient
       x1="12.9977"
       y1="630.29108"
       x2="12.9977"
       y2="646.94952"
       id="SVGID_208_"
       gradientUnits="userSpaceOnUse">
      <stop
         id="stop16117"
         style="stop-color:#414141;stop-opacity:1"
         offset="0" />
      <stop
         id="stop16119"
         style="stop-color:#383939;stop-opacity:1"
         offset="1" />
    </linearGradient>
    <linearGradient
       x1="1.2907"
       y1="633.56598"
       x2="1.2907"
       y2="626.44757"
       id="SVGID_209_"
       gradientUnits="userSpaceOnUse">
      <stop
         id="stop16126"
         style="stop-color:#000000;stop-opacity:1"
         offset="0" />
      <stop
         id="stop16128"
         style="stop-color:#202020;stop-opacity:1"
         offset="0.0875" />
      <stop
         id="stop16130"
         style="stop-color:#383939;stop-opacity:1"
         offset="0.16249999" />
      <stop
         id="stop16132"
         style="stop-color:#2d2d2d;stop-opacity:1"
         offset="0.2156" />
      <stop
         id="stop16134"
         style="stop-color:#232323;stop-opacity:1"
         offset="0.29319999" />
      <stop
         id="stop16136"
         style="stop-color:#202020;stop-opacity:1"
         offset="0.38999999" />
      <stop
         id="stop16138"
         style="stop-color:#414141;stop-opacity:1"
         offset="0.625" />
      <stop
         id="stop16140"
         style="stop-color:#dfdfde;stop-opacity:1"
         offset="0.875" />
      <stop
         id="stop16142"
         style="stop-color:#dddddc;stop-opacity:1"
         offset="0.88300002" />
      <stop
         id="stop16144"
         style="stop-color:#d6d6d5;stop-opacity:1"
         offset="0.88590002" />
      <stop
         id="stop16146"
         style="stop-color:#cacac9;stop-opacity:1"
         offset="0.88800001" />
      <stop
         id="stop16148"
         style="stop-color:#babab9;stop-opacity:1"
         offset="0.88959998" />
      <stop
         id="stop16150"
         style="stop-color:#a4a4a3;stop-opacity:1"
         offset="0.89109999" />
      <stop
         id="stop16152"
         style="stop-color:#888887;stop-opacity:1"
         offset="0.89240003" />
      <stop
         id="stop16154"
         style="stop-color:#686867;stop-opacity:1"
         offset="0.89349997" />
      <stop
         id="stop16156"
         style="stop-color:#434342;stop-opacity:1"
         offset="0.89450002" />
      <stop
         id="stop16158"
         style="stop-color:#30302f;stop-opacity:1"
         offset="0.89499998" />
      <stop
         id="stop16160"
         style="stop-color:#000000;stop-opacity:1"
         offset="1" />
    </linearGradient>
    <linearGradient
       x1="24.7057"
       y1="633.56598"
       x2="24.7057"
       y2="626.44757"
       id="SVGID_210_"
       gradientUnits="userSpaceOnUse">
      <stop
         id="stop16167"
         style="stop-color:#000000;stop-opacity:1"
         offset="0" />
      <stop
         id="stop16169"
         style="stop-color:#202020;stop-opacity:1"
         offset="0.0875" />
      <stop
         id="stop16171"
         style="stop-color:#383939;stop-opacity:1"
         offset="0.16249999" />
      <stop
         id="stop16173"
         style="stop-color:#2d2d2d;stop-opacity:1"
         offset="0.2156" />
      <stop
         id="stop16175"
         style="stop-color:#232323;stop-opacity:1"
         offset="0.29319999" />
      <stop
         id="stop16177"
         style="stop-color:#202020;stop-opacity:1"
         offset="0.38999999" />
      <stop
         id="stop16179"
         style="stop-color:#414141;stop-opacity:1"
         offset="0.625" />
      <stop
         id="stop16181"
         style="stop-color:#dfdfde;stop-opacity:1"
         offset="0.875" />
      <stop
         id="stop16183"
         style="stop-color:#dddddc;stop-opacity:1"
         offset="0.88300002" />
      <stop
         id="stop16185"
         style="stop-color:#d6d6d5;stop-opacity:1"
         offset="0.88590002" />
      <stop
         id="stop16187"
         style="stop-color:#cacac9;stop-opacity:1"
         offset="0.88800001" />
      <stop
         id="stop16189"
         style="stop-color:#babab9;stop-opacity:1"
         offset="0.88959998" />
      <stop
         id="stop16191"
         style="stop-color:#a4a4a3;stop-opacity:1"
         offset="0.89109999" />
      <stop
         id="stop16193"
         style="stop-color:#888887;stop-opacity:1"
         offset="0.89240003" />
      <stop
         id="stop16195"
         style="stop-color:#686867;stop-opacity:1"
         offset="0.89349997" />
      <stop
         id="stop16197"
         style="stop-color:#434342;stop-opacity:1"
         offset="0.89450002" />
      <stop
         id="stop16199"
         style="stop-color:#30302f;stop-opacity:1"
         offset="0.89499998" />
      <stop
         id="stop16201"
         style="stop-color:#000000;stop-opacity:1"
         offset="1" />
    </linearGradient>
  </defs>
  <metadata
     id="metadata30851">
    <rdf:RDF>
      <cc:Work
         rdf:about="">
        <dc:format>image/svg+xml</dc:format>
        <dc:type
           rdf:resource="http://purl.org/dc/dcmitype/StillImage" />
        <dc:title></dc:title>
      </cc:Work>
    </rdf:RDF>
  </metadata>
  <g
     transform="translate(0,-1016.3622)"
     id="layer1">
    <g
       transform="matrix(0.99616858,0,0,0.99722992,0,406.15719)"
       id="g16024">
      <linearGradient
         x1="12.9987"
         y1="612.00592"
         x2="12.9987"
         y2="648.00592"
         id="linearGradient30673"
         gradientUnits="userSpaceOnUse">
        <stop
           id="stop30675"
           style="stop-color:#202020;stop-opacity:1"
           offset="0" />
        <stop
           id="stop30677"
           style="stop-color:#30302f;stop-opacity:1"
           offset="0.05" />
        <stop
           id="stop30679"
           style="stop-color:#202020;stop-opacity:1"
           offset="0.94999999" />
        <stop
           id="stop30681"
           style="stop-color:#9e9f9f;stop-opacity:1"
           offset="1" />
      </linearGradient>
      <path
         d="M 24.2,648 H 1.8 C 0.8,648 0,647.2 0,646.2 v -32.5 c 0,-1 0.8,-1.8 1.8,-1.8 h 22.5 c 1,0 1.8,0.8 1.8,1.8 v 32.5 c -0.1,1 -0.9,1.8 -1.9,1.8 l 0,0 z"
         id="path16035"
         style="fill:url(#SVGID_204_)" />
      <path
         d="M 24.2,612.1 H 1.8 c -0.9,0 -1.6,0.7 -1.6,1.6 v 32.5 c 0,0.9 0.7,1.6 1.6,1.6 h 22.5 c 0.9,0 1.6,-0.7 1.6,-1.6 v -32.5 c 0,-0.8 -0.8,-1.6 -1.7,-1.6 z"
         id="path16037" />
      <g
         id="g16039">
        <linearGradient
           x1="12.999"
           y1="629.86151"
           x2="12.999"
           y2="612.91998"
           id="linearGradient30686"
           gradientUnits="userSpaceOnUse">
          <stop
             id="stop30688"
             style="stop-color:#202020;stop-opacity:1"
             offset="0" />
          <stop
             id="stop30690"
             style="stop-color:#1a1a1a;stop-opacity:1"
             offset="0.00993739" />
          <stop
             id="stop30692"
             style="stop-color:#111111;stop-opacity:1"
             offset="0.018" />
          <stop
             id="stop30694"
             style="stop-color:#111111;stop-opacity:1"
             offset="0.1688" />
          <stop
             id="stop30696"
             style="stop-color:#414141;stop-opacity:1"
             offset="0.198" />
          <stop
             id="stop30698"
             style="stop-color:#616161;stop-opacity:1"
             offset="0.214" />
          <stop
             id="stop30700"
             style="stop-color:#5d5d5d;stop-opacity:1"
             offset="0.2176" />
          <stop
             id="stop30702"
             style="stop-color:#515150;stop-opacity:1"
             offset="0.22139999" />
          <stop
             id="stop30704"
             style="stop-color:#3d3d3c;stop-opacity:1"
             offset="0.2252" />
          <stop
             id="stop30706"
             style="stop-color:#30302f;stop-opacity:1"
             offset="0.227" />
          <stop
             id="stop30708"
             style="stop-color:#202020;stop-opacity:1"
             offset="0.94999999" />
          <stop
             id="stop30710"
             style="stop-color:#bfbebe;stop-opacity:1"
             offset="1" />
        </linearGradient>
        <path
           d="m 24.2,626.4 c 0,-0.1 0.1,-0.1 0.1,-0.1 h 0.5 c 0.2,0 0.3,-0.1 0.3,-0.3 v -12.2 c 0,-0.5 -0.4,-0.8 -0.9,-0.8 H 1.8 c -0.5,0 -0.9,0.4 -0.9,0.8 V 626 c 0,0.2 0.1,0.3 0.3,0.3 h 0.5 c 0.1,0 0.1,0.1 0.1,0.1 v 3.1 c 0,0.1 0,0.1 0.1,0.2 0.1,0.1 0.1,0.1 0.2,0.1 h 21.8 c 0.1,0 0.1,0 0.2,-0.1 0.1,-0.1 0.1,-0.1 0.1,-0.2 v -3.1 z"
           id="path16066"
           style="fill:url(#SVGID_205_)" />
      </g>
      <g
         id="g16068">
        <linearGradient
           x1="12.9977"
           y1="629.71948"
           x2="12.9977"
           y2="613.05939"
           id="linearGradient30714"
           gradientUnits="userSpaceOnUse">
          <stop
             id="stop30716"
             style="stop-color:#383939;stop-opacity:1"
             offset="0" />
          <stop
             id="stop30718"
             style="stop-color:#30302f;stop-opacity:1"
             offset="1" />
        </linearGradient>
        <path
           d="m 24,626.4 c 0,-0.2 0.1,-0.3 0.3,-0.3 h 0.5 c 0.1,0 0.1,-0.1 0.1,-0.1 v -12.2 c 0,-0.4 -0.3,-0.7 -0.7,-0.7 H 1.8 c -0.4,0 -0.7,0.3 -0.7,0.7 V 626 c 0,0.1 0.1,0.1 0.1,0.1 h 0.5 c 0.2,0 0.3,0.1 0.3,0.3 v 3.1 c 0,0 0,0.1 0,0.1 0,0 0.1,0 0.1,0 h 21.8 c 0,0 0.1,0 0.1,0 0,0 0,-0.1 0,-0.1 v -3.1 z"
           id="path16075"
           style="fill:url(#SVGID_206_)" />
      </g>
      <g
         id="g16077">
        <g
           id="g16079">
          <linearGradient
             x1="12.999"
             y1="630.1496"
             x2="12.999"
             y2="647.09662"
             id="linearGradient30723"
             gradientUnits="userSpaceOnUse">
            <stop
               id="stop30725"
               style="stop-color:#717171;stop-opacity:1"
               offset="0" />
            <stop
               id="stop30727"
               style="stop-color:#6b6b6b;stop-opacity:1"
               offset="0.0031376" />
            <stop
               id="stop30729"
               style="stop-color:#5b5b5b;stop-opacity:1"
               offset="0.00724404" />
            <stop
               id="stop30731"
               style="stop-color:#404040;stop-opacity:1"
               offset="0.01188656" />
            <stop
               id="stop30733"
               style="stop-color:#1a1a1a;stop-opacity:1"
               offset="0.01689165" />
            <stop
               id="stop30735"
               style="stop-color:#111111;stop-opacity:1"
               offset="0.018" />
            <stop
               id="stop30737"
               style="stop-color:#111111;stop-opacity:1"
               offset="0.198" />
            <stop
               id="stop30739"
               style="stop-color:#8e8f8e;stop-opacity:1"
               offset="0.214" />
            <stop
               id="stop30741"
               style="stop-color:#8a8b8a;stop-opacity:1"
               offset="0.2164" />
            <stop
               id="stop30743"
               style="stop-color:#7e7e7e;stop-opacity:1"
               offset="0.2189" />
            <stop
               id="stop30745"
               style="stop-color:#696a69;stop-opacity:1"
               offset="0.22139999" />
            <stop
               id="stop30747"
               style="stop-color:#4c4d4c;stop-opacity:1"
               offset="0.22400001" />
            <stop
               id="stop30749"
               style="stop-color:#282828;stop-opacity:1"
               offset="0.2265" />
            <stop
               id="stop30751"
               style="stop-color:#202020;stop-opacity:1"
               offset="0.227" />
            <stop
               id="stop30753"
               style="stop-color:#30302f;stop-opacity:1"
               offset="0.94999999" />
            <stop
               id="stop30755"
               style="stop-color:#111111;stop-opacity:1"
               offset="1" />
          </linearGradient>
          <path
             d="m 24.2,633.6 c 0,0.1 0.1,0.1 0.1,0.1 h 0.5 c 0.2,0 0.3,0.1 0.3,0.3 v 12.2 c 0,0.5 -0.4,0.9 -0.9,0.9 H 1.8 c -0.5,0 -0.9,-0.4 -0.9,-0.9 V 634 c 0,-0.2 0.1,-0.3 0.3,-0.3 h 0.5 c 0.1,0 0.1,-0.1 0.1,-0.1 v -3.1 c 0,-0.1 0,-0.1 0.1,-0.2 0.1,-0.1 0.1,-0.1 0.2,-0.1 h 21.8 c 0.1,0 0.1,0 0.2,0.1 0.1,0.1 0.1,0.1 0.1,0.2 v 3.1 z"
             id="path16114"
             style="fill:url(#SVGID_207_)" />
        </g>
        <linearGradient
           x1="12.9977"
           y1="630.29108"
           x2="12.9977"
           y2="646.94952"
           id="linearGradient30758"
           gradientUnits="userSpaceOnUse">
          <stop
             id="stop30760"
             style="stop-color:#414141;stop-opacity:1"
             offset="0" />
          <stop
             id="stop30762"
             style="stop-color:#383939;stop-opacity:1"
             offset="1" />
        </linearGradient>
        <path
           d="m 24.8,633.9 h -0.5 c -0.2,0 -0.3,-0.1 -0.3,-0.3 v -3.1 c 0,0 0,-0.1 0,-0.1 0,0 -0.1,0 -0.1,0 H 2.1 c 0,0 -0.1,0 -0.1,0 0,0 0,0.1 0,0.1 v 3.1 c 0,0.2 -0.1,0.3 -0.3,0.3 H 1.2 c -0.1,0 -0.1,0.1 -0.1,0.1 v 12.2 c 0,0.4 0.3,0.7 0.7,0.7 h 22.5 c 0.4,0 0.7,-0.3 0.7,-0.7 V 634 c -0.1,-0.1 -0.1,-0.1 -0.2,-0.1 z"
           id="path16121"
           style="fill:url(#SVGID_208_)" />
      </g>
      <g
         id="g16123">
        <linearGradient
           x1="1.2907"
           y1="633.56598"
           x2="1.2907"
           y2="626.44757"
           id="linearGradient30766"
           gradientUnits="userSpaceOnUse">
          <stop
             id="stop30768"
             style="stop-color:#000000;stop-opacity:1"
             offset="0" />
          <stop
             id="stop30770"
             style="stop-color:#202020;stop-opacity:1"
             offset="0.0875" />
          <stop
             id="stop30772"
             style="stop-color:#383939;stop-opacity:1"
             offset="0.16249999" />
          <stop
             id="stop30774"
             style="stop-color:#2d2d2d;stop-opacity:1"
             offset="0.2156" />
          <stop
             id="stop30776"
             style="stop-color:#232323;stop-opacity:1"
             offset="0.29319999" />
          <stop
             id="stop30778"
             style="stop-color:#202020;stop-opacity:1"
             offset="0.38999999" />
          <stop
             id="stop30780"
             style="stop-color:#414141;stop-opacity:1"
             offset="0.625" />
          <stop
             id="stop30782"
             style="stop-color:#dfdfde;stop-opacity:1"
             offset="0.875" />
          <stop
             id="stop30784"
             style="stop-color:#dddddc;stop-opacity:1"
             offset="0.88300002" />
          <stop
             id="stop30786"
             style="stop-color:#d6d6d5;stop-opacity:1"
             offset="0.88590002" />
          <stop
             id="stop30788"
             style="stop-color:#cacac9;stop-opacity:1"
             offset="0.88800001" />
          <stop
             id="stop30790"
             style="stop-color:#babab9;stop-opacity:1"
             offset="0.88959998" />
          <stop
             id="stop30792"
             style="stop-color:#a4a4a3;stop-opacity:1"
             offset="0.89109999" />
          <stop
             id="stop30794"
             style="stop-color:#888887;stop-opacity:1"
             offset="0.89240003" />
          <stop
             id="stop30796"
             style="stop-color:#686867;stop-opacity:1"
             offset="0.89349997" />
          <stop
             id="stop30798"
             style="stop-color:#434342;stop-opacity:1"
             offset="0.89450002" />
          <stop
             id="stop30800"
             style="stop-color:#30302f;stop-opacity:1"
             offset="0.89499998" />
          <stop
             id="stop30802"
             style="stop-color:#000000;stop-opacity:1"
             offset="1" />
        </linearGradient>
        <rect
           width="0.80000001"
           height="7.0999999"
           x="0.89999998"
           y="626.40002"
           id="rect16162"
           style="fill:url(#SVGID_209_)" />
      </g>
      <g
         id="g16164">
        <linearGradient
           x1="24.7057"
           y1="633.56598"
           x2="24.7057"
           y2="626.44757"
           id="linearGradient30806"
           gradientUnits="userSpaceOnUse">
          <stop
             id="stop30808"
             style="stop-color:#000000;stop-opacity:1"
             offset="0" />
          <stop
             id="stop30810"
             style="stop-color:#202020;stop-opacity:1"
             offset="0.0875" />
          <stop
             id="stop30812"
             style="stop-color:#383939;stop-opacity:1"
             offset="0.16249999" />
          <stop
             id="stop30814"
             style="stop-color:#2d2d2d;stop-opacity:1"
             offset="0.2156" />
          <stop
             id="stop30816"
             style="stop-color:#232323;stop-opacity:1"
             offset="0.29319999" />
          <stop
             id="stop30818"
             style="stop-color:#202020;stop-opacity:1"
             offset="0.38999999" />
          <stop
             id="stop30820"
             style="stop-color:#414141;stop-opacity:1"
             offset="0.625" />
          <stop
             id="stop30822"
             style="stop-color:#dfdfde;stop-opacity:1"
             offset="0.875" />
          <stop
             id="stop30824"
             style="stop-color:#dddddc;stop-opacity:1"
             offset="0.88300002" />
          <stop
             id="stop30826"
             style="stop-color:#d6d6d5;stop-opacity:1"
             offset="0.88590002" />
          <stop
             id="stop30828"
             style="stop-color:#cacac9;stop-opacity:1"
             offset="0.88800001" />
          <stop
             id="stop30830"
             style="stop-color:#babab9;stop-opacity:1"
             offset="0.88959998" />
          <stop
             id="stop30832"
             style="stop-color:#a4a4a3;stop-opacity:1"
             offset="0.89109999" />
          <stop
             id="stop30834"
             style="stop-color:#888887;stop-opacity:1"
             offset="0.89240003" />
          <stop
             id="stop30836"
             style="stop-color:#686867;stop-opacity:1"
             offset="0.89349997" />
          <stop
             id="stop30838"
             style="stop-color:#434342;stop-opacity:1"
             offset="0.89450002" />
          <stop
             id="stop30840"
             style="stop-color:#30302f;stop-opacity:1"
             offset="0.89499998" />
          <stop
             id="stop30842"
             style="stop-color:#000000;stop-opacity:1"
             offset="1" />
        </linearGradient>
        <rect
           width="0.80000001"
           height="7.0999999"
           x="24.299999"
           y="626.40002"
           id="rect16203"
           style="fill:url(#SVGID_210_)" />
      </g>
    </g>
    <path
       d="m 21.318008,1031.7195 c -0.09962,-0.7977 -0.298851,-1.5955 -0.597701,-2.3933 -0.298851,-0.7978 -0.597702,-1.4959 -1.095786,-2.0942 -0.398467,-0.6981 -0.996169,-1.1967 -1.59387,-1.6953 -0.597701,-0.4986 -1.394636,-0.8975 -2.191571,-1.0969 -0.796934,-0.2992 -1.793103,-0.3989 -2.789272,-0.3989 -1.095785,0 -1.992337,0.1 -2.789272,0.3989 -0.7969345,0.2991 -1.5938693,0.698 -2.1915705,1.0969 -0.5977011,0.4986 -1.1954023,0.9972 -1.5938697,1.6953 -0.3984674,0.6981 -0.7969349,1.3961 -1.0957855,2.0942 -0.2988505,0.698 -0.4980842,1.4958 -0.5977011,2.3933 -0.099617,0.7978 -0.1992337,1.5956 -0.1992337,2.3934 0,0 0,0 0,0 h 2.9885057 c 0,0 0,0 0,0 0,-0.4986 0,-1.097 0.099617,-1.5956 0.099617,-0.5983 0.1992337,-1.0969 0.3984674,-1.6953 0.1992337,-0.4986 0.3984675,-1.0969 0.697318,-1.4958 0.2988506,-0.4986 0.5977012,-0.8975 0.9961686,-1.2964 0.3984678,-0.3989 0.8965518,-0.6981 1.3946358,-0.8975 0.498084,-0.1995 1.195402,-0.2992 1.793104,-0.2992 0.697318,0 1.295019,0.1 1.793103,0.2992 0.498084,0.1994 0.996169,0.4986 1.394636,0.7978 0.398467,0.3989 0.796935,0.7978 0.996169,1.1966 0.29885,0.4987 0.498084,0.9973 0.697318,1.4959 0.199233,0.4986 0.29885,1.0969 0.398467,1.6953 0.09962,0.5983 0.09962,1.1967 0.09962,1.6953 0,0 0,0 0,0 h 2.888889 v 0.5983 h -2.888889 c 0,0.2992 0,0.5983 -0.09962,0.8975 -0.09962,0.4986 -0.199234,0.9972 -0.298851,1.4959 -0.09962,0.4986 -0.29885,0.9972 -0.597701,1.3961 -0.199233,0.4986 -0.498084,0.8975 -0.796935,1.1967 l -1.494252,-2.1939 -2.291188,1.4958 1.494253,2.1939 c -0.199234,0.1 -0.498085,0.1 -0.697318,0.1994 -0.298851,0 -0.498085,0 -0.796935,0 -0.996169,0 -1.89272,-0.1994 -2.590038,-0.698 -0.6973184,-0.3989 -1.2950195,-0.9972 -1.6934869,-1.6953 -0.3984675,-0.6981 -0.7969349,-1.4958 -0.8965518,-2.3934 -0.099617,-0.698 -0.1992337,-1.2964 -0.2988505,-1.9944 H 4.2835249 c 0,0.5983 0.099617,1.1967 0.1992337,1.8947 0.099617,0.7978 0.2988506,1.5956 0.5977012,2.3934 0.2988505,0.7978 0.5977011,1.4958 1.0957854,2.0942 0.3984674,0.698 0.9961686,1.1966 1.5938697,1.6952 0.5977012,0.4987 1.3946361,0.8976 2.1915709,1.097 0.7969352,0.2992 1.7931032,0.3989 2.7892722,0.3989 0.597701,0 1.195402,0 1.693486,-0.1 0.498085,-0.1 0.996169,-0.1995 1.494253,-0.3989 l 1.394636,2.0942 2.191571,-1.4959 -1.295019,-1.9944 c 0.498084,-0.4987 0.996169,-1.097 1.394636,-1.6953 0.398468,-0.5984 0.697318,-1.2964 0.896552,-1.9945 0.199234,-0.6981 0.398467,-1.4958 0.498084,-2.1939 0.09962,-0.7978 0.199234,-1.4958 0.199234,-2.2936 0.29885,-0.6981 0.199234,-1.4959 0.09962,-2.2937 z"
       id="path18117"
       style="fill:#ffffff" />
  </g>
</svg>
