<svg xmlns="http://www.w3.org/2000/svg" xmlns:xlink="http://www.w3.org/1999/xlink" viewBox="0 659.72 132 132.28" xml:space="preserve">
<path id="path4380" fill="#AA0000" d="M98.168,659.394H-0.606v98.788L98.168,659.394z"/>
<path id="path4384" fill="#CC0000" d="M109.433,659.394H97.449l-98.055,98.094v11.945L109.433,659.394z"/>
<path id="t-pattern" fill="none" stroke="#CC0000" stroke-width="0.625" stroke-linecap="square" stroke-miterlimit="10" d="
	M128.177,662.751h-2.798v2.798 M129.575,661.353h-5.548v5.595 M130.928,659.953h-8.3v8.393 M117.126,665.549v-2.798h-2.751
	 M118.525,666.947v-5.595h-5.549 M119.83,668.346v-8.393h-8.252 M121.229,659.487v10.258 M117.126,673.941h-2.751v2.798
	 M118.525,672.543h-5.549v5.595 M119.83,671.144h-8.252v8.393 M103.277,665.549h2.752v-2.798 M101.879,666.947h5.549v-5.595
	 M100.48,668.346h8.299v-8.393 M106.029,676.739v-2.798h-2.752 M107.428,678.138v-5.595h-5.549 M108.826,679.536v-8.393h-8.252
	 M114.328,662.751v2.798h2.705 M112.977,661.353v5.595h5.549 M111.578,659.953v8.393h8.252 M110.179,659.487v21.448 M99.082,669.745
	h22.147 M106.029,684.945h-2.752v2.704 M107.428,683.733h-5.549v5.315 M108.779,682.334h-8.299v8.066 M92.181,676.739h2.704v-2.798
	 M90.828,678.138h5.549v-5.595 M89.43,679.536h8.253v-8.393 M94.979,687.649v-2.704h-2.751 M96.377,689.049v-5.315h-5.549
	 M97.683,690.447v-8.113H89.43 M103.231,673.941v2.798h2.751 M101.879,672.543v5.595h5.549 M100.48,671.144v8.393h8.299
	 M99.082,669.745v22.101 M88.031,680.936h22.147 M94.885,696.042h-2.704v2.751 M96.284,694.644h-5.502v5.549 M97.683,693.245H89.43
	v8.299 M81.084,687.743h2.75v-2.751 M79.686,689.142h5.548v-5.408 M78.286,690.54h8.3v-8.206 M83.834,698.793v-2.751h-2.75
	 M85.233,700.192v-5.549h-5.548 M86.633,701.591v-8.253h-8.301 M92.181,684.992v2.797h2.704 M90.782,683.733v5.408h5.502
	 M89.383,682.334v8.113h8.254 M87.984,680.936v22.055 M76.934,691.846h22.148 M83.834,707.093h-2.75v2.704 M85.233,705.741h-5.548
	v5.548 M86.633,704.342h-8.301v8.253 M70.033,698.793h2.705v-2.751 M68.635,700.192h5.502v-5.549 M67.236,701.591h8.252v-8.253
	 M72.738,709.891v-2.751h-2.705 M74.137,711.289v-5.548h-5.502 M81.084,696.042v2.751h2.75 M79.686,694.644v5.549h5.548
	 M78.286,693.245v8.299h8.3 M58.936,709.891h2.751v-2.751 M57.537,711.289h5.549v-5.548 M56.139,712.688h8.299v-8.3 M61.687,720.941
	v-2.751h-2.751 M63.086,722.34v-5.549h-5.549 M64.485,723.738v-8.253h-8.3 M70.033,707.14v2.751h2.705 M68.635,705.741v5.548h5.502
	 M67.236,704.342v8.253h8.299v-8.253h-8.253 M65.837,702.99v22.147 M54.786,713.994h22.147 M61.547,729.334h-2.705v2.798
	 M62.946,727.981h-5.502v5.549 M64.345,726.583h-8.253v8.3 M47.746,721.081h2.751v-2.751 M46.347,722.479h5.549v-5.549
	 M44.995,723.785h8.3v-8.253 M50.543,732.132v-2.751h-2.751 M51.896,733.483v-5.549h-5.549 M53.294,734.883v-8.3h-8.3
	 M58.843,718.283v2.704h2.705 M57.444,716.931v5.549h5.502 M56.045,715.532v8.253h8.253 M54.693,714.134v22.147 M43.596,725.184
	h22.148 M50.543,740.431h-2.751v2.705 M51.896,739.032h-5.549v5.502 M53.294,737.68h-8.3v8.3 M36.695,732.132h2.704v-2.751
	 M35.296,733.483h5.502v-5.549 M33.944,734.883h8.253v-8.3 M39.493,743.229v-2.751h-2.751 M40.798,744.534v-5.502h-5.502
	 M42.197,745.979v-8.3h-8.253 M47.746,729.334v2.798h2.751 M46.347,727.981v5.549h5.549 M44.995,726.583v8.3h8.3 M43.596,725.184
	v22.194 M32.545,736.281h22.147 M39.399,751.481h-2.704v2.751 M40.798,750.176h-5.502v5.502 M42.197,748.777h-8.253v8.253
	 M25.598,743.229h2.751v-2.751 M24.199,744.627h5.548v-5.548 M22.847,745.979h8.299v-8.3 M28.396,754.279v-2.705h-2.751
	 M29.748,755.631v-5.548h-5.548 M31.146,757.03v-8.253h-8.299 M36.695,740.431v2.705h2.704 M35.296,739.079v5.548h5.502
	 M33.897,737.68v8.3h8.253 M32.545,736.281v22.147 M21.448,747.378h22.147 M28.302,762.672h-2.751v2.751 M29.608,761.273h-5.502
	v5.548 M31.007,759.968h-8.253v8.253 M14.408,754.419h2.751v-2.751 M13.056,755.771h5.548v-5.549 M11.657,757.17h8.299v-8.3
	 M17.205,765.423v-2.751h-2.751 M18.604,766.821v-5.548h-5.548 M19.956,768.221v-8.253h-8.299 M25.505,751.621v2.751h2.704
	 M24.153,750.223v5.549h5.548 M22.754,748.87v8.3h8.253 M21.355,747.472v22.147 M10.258,758.568h22.148 M17.205,773.769h-2.751
	v2.751 M18.604,772.37h-5.548v5.549 M19.956,770.972h-8.299v8.253 M3.357,765.423h2.705v-2.751 M2.005,766.821h5.549v-5.548
	 M0.606,768.221h8.253v-8.253 M6.155,776.52v-2.751H3.404 M7.554,777.919v-5.549H2.005 M8.859,779.317v-8.3H0.606 M14.408,762.672
	v2.751h2.751 M13.056,761.273v5.548h5.548 M11.657,759.968v8.253h8.299 M10.258,758.568v22.148 M-0.792,769.619h22.147
	 M6.155,784.819H3.404v2.751 M7.46,783.421H1.958v5.549 M8.859,782.115H0.606v8.253 M3.357,773.769v2.751h2.705 M1.958,772.37v5.549
	H7.46 M0.606,771.018v8.3h8.253 M-0.792,769.619v22.147 M-0.792,780.717h11.05 M76.934,691.846v22.147 M65.883,702.943h22.148
	 M72.738,718.19h-2.705v2.751 M74.137,716.791h-5.502v5.549 M75.535,715.393h-8.253v8.3"/>
</svg>
