<?xml version="1.0" encoding="UTF-8" standalone="no"?>
<svg
   xmlns="http://www.w3.org/2000/svg"
   viewBox="0 0 283.1 284.5"
   version="1.1"
   id="svg8021">
  <path
     d="m 71.46,285.1 211.84,0 0,-211.87 L 71.46,285.1 Z"
     style="fill:#aa0000;fill-opacity:1;fill-rule:nonzero;stroke:none"
     id="path4380" />
  <path
     id="path4384"
     style="fill:#cc0000;fill-opacity:1;fill-rule:nonzero;stroke:none"
     d="m 47.3,284.5 25.7,0 210.3,-210.38 0,-25.62 -236,236 z" />
  <path
     id="t-pattern"
     style="fill:none;stroke:#cc0000;stroke-width:0.625;stroke-linecap:square;stroke-linejoin:miter;stroke-miterlimit:10;stroke-dasharray:none"
     d="m 7.3,277.5 6,0 0,-6 m -9,9 11.9,0 0,-12 m -14.8,15 17.8,0 0,-18 m 11.8,6 0,6 5.9,0 m -8.9,-9 0,12 11.9,0 m -14.7,-15 0,18 17.7,0 m -20.7,1 0,-22 m 8.8,-9 5.9,0 0,-6 m -8.9,9 11.9,0 0,-12 m -14.7,15 17.7,0 0,-18 m 17.8,30 -5.9,0 0,6 m 8.9,-9 -11.9,0 0,12 m 14.9,-15 -17.8,0 0,18 m 5.9,-36 0,6 5.9,0 m -8.9,-9 0,12 11.9,0 m -14.9,-15 0,18 17.7,0 m -29.5,18 0,-6 -5.8,0 m 8.7,9 0,-12 -11.9,0 m 14.9,15 0,-18 -17.7,0 m 20.7,19 0,-46 m 23.8,24 -47.5,0 m 32.6,-32.6 5.9,0 0,-5.8 m -8.9,8.4 11.9,0 0,-11.4 m -14.8,14.4 17.8,0 0,-17.3 m 17.8,29.3 -5.8,0 0,6 m 8.7,-9 -11.9,0 0,12 m 14.9,-15 -17.7,0 0,18 m 5.8,-35.4 0,5.8 5.9,0 m -8.9,-8.8 0,11.4 11.9,0 m -14.7,-14.4 0,17.4 17.7,0 m -29.6,18 0,-6 -5.9,0 m 8.8,9 0,-12 -11.9,0 m 14.9,15 0,-18 -17.8,0 m 20.8,21 0,-47.4 m 23.7,23.4 -47.5,0 m 32.8,-32.4 5.8,0 0,-5.9 m -8.8,8.9 11.8,0 0,-11.9 m -14.8,14.9 17.7,0 0,-17.8 m 17.9,29.6 -5.9,0 0,5.9 m 8.9,-8.9 -11.9,0 0,11.6 m 14.9,-14.6 -17.8,0 0,17.6 m 5.9,-35.3 0,5.9 5.9,0 m -8.9,-8.9 0,11.9 11.9,0 m -14.9,-14.9 0,17.7 17.8,0 m -29.7,17.9 0,-6 -5.8,0 m 8.8,8.7 0,-11.6 -11.8,0 m 14.8,14.6 0,-17.4 -17.7,0 m 20.7,20.4 0,-47.3 m 23.7,23.9 -47.5,0 m 32.7,-32.7 5.9,0 0,-5.8 m -8.9,8.7 11.9,0 0,-11.9 m -14.9,14.9 17.8,0 0,-17.7 m 17.8,29.6 -5.8,0 0,5.9 m 8.8,-8.9 -11.8,0 0,11.9 m 14.8,-14.9 -17.7,0 0,17.7 m 5.9,-35.5 0,5.9 5.8,0 m -8.8,-8.9 0,11.9 11.8,0 m -26.7,20.8 0,-5.9 -5.9,0 m 8.9,8.9 0,-11.9 -11.9,0 m 14.9,14.9 0,-17.8 -17.8,0 m 59.3,-17.9 -5.9,0 0,5.9 m 8.9,-8.9 -11.9,0 0,11.9 m 14.9,-14.9 -17.8,0 0,17.8 m 5.9,-35.5 0,5.9 5.9,0 m -8.9,-8.9 0,11.9 11.9,0 m -14.9,-14.9 0,17.7 17.8,0 m -29.7,17.9 0,-5.9 -5.8,0 m 8.8,8.9 0,-11.9 -11.8,0 m 14.8,14.9 0,-17.7 -17.8,0 0,17.7 17.7,0 m 3.1,2.9 0,-47.5 m 23.7,23.9 -47.5,0 m 33,-32.9 5.8,0 0,-6 m -8.8,8.9 11.8,0 0,-11.9 m -14.8,14.9 17.7,0 0,-17.8 m 17.9,29.6 -5.9,0 0,5.9 m 8.9,-8.9 -11.9,0 0,11.9 m 14.8,-14.7 -17.8,0 0,17.7 m 5.9,-35.6 0,5.9 5.9,0 m -8.8,-8.8 0,11.9 11.9,0 m -14.9,-14.9 0,17.8 17.8,0 m -29.7,17.8 0,-5.8 -5.8,0 m 8.8,8.7 0,-11.9 -11.8,0 m 14.8,14.9 0,-17.7 -17.7,0 m 20.6,20.7 0,-47.5 m 23.8,23.8 -47.5,0 m 32.6,-32.7 5.9,0 0,-5.8 m -8.8,8.8 11.9,0 0,-11.8 m -14.9,14.7 17.8,0 0,-17.8 m 17.8,29.7 -5.8,0 0,5.9 m 8.8,-8.8 -11.8,0 0,11.9 m 14.7,-14.9 -17.7,0 0,17.8 m 5.8,-35.7 0,5.9 5.9,0 m -8.7,-8.7 0,11.8 11.8,0 M 191.7,99 l 0,17.8 17.7,0 m -29.6,17.9 0,-6 -5.9,0 m 8.9,8.9 0,-11.9 -11.9,0 m 14.8,14.9 0,-17.8 -17.8,0 m 20.8,20.8 0,-47.6 m 23.7,23.8 -47.5,0 m 32.8,-32.6 5.8,0 0,-5.9 m -8.8,8.7 11.8,0 0,-11.8 m -14.8,14.8 17.7,0 0,-17.7 m 17.9,29.6 -5.9,0 0,5.9 m 8.9,-8.9 -11.9,0 0,11.9 m 14.8,-14.8 -17.8,0 0,17.8 m 5.9,-35.6 0,5.8 5.9,0 m -8.8,-8.7 0,11.9 11.9,0 m -14.9,-14.9 0,17.7 17.8,0 m -29.7,17.9 0,-5.8 -5.8,0 m 8.8,8.7 0,-11.9 -11.8,0 m 14.8,14.9 0,-17.8 -17.7,0 m 20.6,20.8 0,-47.5 m 23.8,23.7 -47.5,0 m 32.8,-32.8 5.9,0 0,-5.9 m -8.7,8.9 11.8,0 0,-11.9 m -14.8,14.7 17.7,0 0,-17.7 m 17.9,29.6 -5.9,0 0,5.9 m 8.8,-8.8 -11.9,0 0,11.9 m 14.9,-14.9 -17.8,0 0,17.8 m 5.9,-35.5 0,5.9 5.9,0 m -8.9,-8.9 0,11.9 11.9,0 m -14.8,-14.9 0,17.7 17.8,0 m -29.7,17.9 0,-5.9 -5.8,0 m 8.7,8.9 0,-11.9 -11.9,0 m 14.9,14.8 0,-17.8 -17.7,0 m 20.7,20.8 0,-47.5 m 23.8,23.7 -47.5,0 m 32.6,-32.6 5.9,0 0,-5.9 m -8.9,8.9 11.9,0 0,-11.9 m -14.8,14.9 17.8,0 0,-17.7 m 17.8,29.6 -5.8,0 0,5.9 m 8.7,-8.9 -11.9,0 0,11.9 m 14.9,-14.9 -17.7,0 0,17.7 m 5.8,-35.5 0,5.9 5.9,0 m -8.9,-8.9 0,11.9 11.9,0 m -14.7,-14.9 0,17.8 17.7,0 m -29.6,17.9 0,-5.9 -5.9,0 m 8.8,8.9 0,-11.9 -11.9,0 m 14.9,14.7 0,-17.7 -17.8,0 m 20.8,20.7 0,-47.5 m 23.7,23.8 -47.5,0 m 32.6,-32.6 5.9,0 0,-5.9 m -8.7,8.9 11.8,0 0,-11.9 m -14.8,14.7 17.7,0 0,-17.7 m -5.9,35.6 0,-5.9 -5.8,0 m 8.8,8.9 0,-11.9 -11.8,0 m 14.7,14.8 0,-17.8 -17.7,0 m 20.7,20.8 0,-47.5 m 0,23.7 -23.7,0 m -143,190.6 0,-47.5 m 23.7,23.7 -47.5,0 m 32.8,-32.7 5.8,0 0,-5.9 m -8.8,8.9 11.8,0 0,-11.9 m -14.8,14.9 17.7,0 0,-17.8" />

</svg>
