<svg version="1.1" id="svg8021" xmlns="http://www.w3.org/2000/svg" xmlns:xlink="http://www.w3.org/1999/xlink" viewBox="0 659.721 132 132.279" xml:space="preserve">
<path id="path4380" fill="#AA0000" d="M33.319,792.279h98.774v-98.787L33.319,792.279z"/>
<path id="path4384" fill="#CC0000" d="M22.054,792h11.983l98.056-98.093v-11.946L22.054,792z"/>
<path id="t-pattern" fill="none" stroke="#CC0000" stroke-width="0.625" stroke-linecap="square" stroke-miterlimit="10" d="
	M3.404,788.736h2.797v-2.798 M2.005,790.135h5.549v-5.595 M0.653,791.534h8.299v-8.394 M14.454,785.938v2.798h2.751 M13.056,784.54
	v5.595h5.548 M11.75,783.141v8.394h8.253 M10.351,792v-10.258 M14.454,777.546h2.751v-2.798 M13.056,778.944h5.548v-5.595
	 M11.75,780.344h8.253v-8.394 M28.302,785.938h-2.751v2.798 M29.701,784.54h-5.548v5.595 M31.1,783.141h-8.3v8.394 M25.551,774.748
	v2.798h2.751 M24.153,773.35v5.595h5.548 M22.754,771.95v8.394h8.253 M17.252,788.736v-2.798h-2.705 M18.604,790.135v-5.595h-5.548
	 M20.003,791.534v-8.394H11.75 M21.402,792v-21.448 M32.499,781.742H10.351 M25.551,766.542h2.751v-2.704 M24.153,767.754h5.548
	v-5.315 M22.8,769.153h8.3v-8.066 M39.399,774.748h-2.704v2.798 M40.751,773.35h-5.548v5.595 M42.15,771.95h-8.253v8.394
	 M36.602,763.838v2.704h2.751 M35.203,762.438v5.315h5.548 M33.897,761.04v8.113h8.253 M28.349,777.546v-2.798h-2.751
	 M29.701,778.944v-5.595h-5.548 M31.1,780.344v-8.394h-8.3 M32.499,781.742v-22.101 M43.549,770.552H21.402 M36.695,755.444h2.704
	v-2.751 M35.296,756.844h5.502v-5.549 M33.897,758.242h8.253v-8.3 M50.497,763.744h-2.751v2.751 M51.896,762.346h-5.549v5.408
	 M53.294,760.946h-8.3v8.207 M47.746,752.693v2.751h2.751 M46.347,751.295v5.549h5.549 M44.948,749.896v8.253h8.299 M39.399,766.495
	v-2.798h-2.704 M40.798,767.754v-5.408h-5.502 M42.197,769.153v-8.113h-8.253 M43.596,770.552v-22.055 M54.646,759.641H32.499
	 M47.746,744.395h2.751v-2.705 M46.347,745.746h5.549v-5.548 M44.948,747.146h8.299v-8.253 M61.547,752.693h-2.705v2.751
	 M62.946,751.295h-5.502v5.549 M64.345,749.896h-8.253v8.253 M58.843,741.597v2.751h2.705 M57.444,740.198v5.548h5.502
	 M50.497,755.444v-2.751h-2.751 M51.896,756.844v-5.549h-5.549 M53.294,758.242v-8.3h-8.3 M72.645,741.597h-2.751v2.751
	 M74.043,740.198h-5.549v5.548 M75.441,738.799h-8.299v8.3 M69.894,730.546v2.751h2.751 M68.494,729.147v5.549h5.549
	 M67.096,727.748v8.253h8.299 M61.547,744.348v-2.751h-2.705 M62.946,745.746v-5.548h-5.502 M64.345,747.146v-8.253h-8.299v8.253
	h8.253 M65.744,748.497V726.35 M76.794,737.493H54.646 M70.033,722.153h2.705v-2.798 M68.635,723.506h5.502v-5.549 M67.236,724.904
	h8.252v-8.3 M83.834,730.406h-2.75v2.751 M85.233,729.008h-5.548v5.548 M86.586,727.702h-8.3v8.253 M81.037,719.355v2.751h2.751
	 M79.686,718.004v5.548h5.548 M78.286,716.604v8.3h8.3 M72.738,733.204v-2.705h-2.705 M74.137,734.556v-5.548h-5.502
	 M75.535,735.955v-8.253h-8.253 M76.887,737.354v-22.147 M87.984,726.303H65.837 M81.037,711.057h2.751v-2.705 M79.686,712.455
	h5.548v-5.502 M78.286,713.807h8.3v-8.299 M94.885,719.355h-2.704v2.751 M96.284,718.004h-5.502v5.548 M97.637,716.604h-8.254v8.3
	 M92.088,708.259v2.751h2.75 M90.782,706.953v5.502h5.502 M89.383,705.508v8.3h8.254 M83.834,722.153v-2.798h-2.75 M85.233,723.506
	v-5.549h-5.548 M86.586,724.904v-8.3h-8.3 M87.984,726.303v-22.194 M99.035,715.206H76.887 M92.181,700.006h2.704v-2.751
	 M90.782,701.312h5.502v-5.502 M89.383,702.71h8.254v-8.253 M105.982,708.259h-2.751v2.751 M107.381,706.859h-5.549v5.549
	 M108.733,705.508h-8.3v8.299 M103.185,697.208v2.704h2.751 M101.832,695.855v5.549h5.549 M100.434,694.457v8.253h8.3
	 M94.885,711.057v-2.705h-2.704 M96.284,712.408v-5.549h-5.502 M97.683,713.808v-8.3H89.43 M99.035,715.206v-22.147
	 M110.133,704.108H87.984 M103.277,688.815h2.752v-2.751 M101.973,690.214h5.502v-5.549 M100.574,691.52h8.252v-8.253
	 M117.173,697.068h-2.751v2.751 M118.525,695.716h-5.549v5.549 M119.924,694.317h-8.3v8.3 M114.375,686.064v2.751h2.751
	 M112.977,684.665v5.549h5.549 M111.624,683.267v8.253h8.3 M106.076,699.866v-2.751h-2.705 M107.428,701.265v-5.549h-5.549
	 M108.826,702.617v-8.3h-8.252 M110.226,704.016v-22.147 M121.322,692.918H99.175 M114.375,677.718h2.751v-2.751 M112.977,679.117
	h5.549v-5.549 M111.624,680.516h8.3v-8.253 M128.223,686.064h-2.703v2.751 M129.575,684.665h-5.548v5.549 M130.975,683.267h-8.254
	v8.253 M125.426,674.967v2.751h2.751 M124.027,673.568v5.549h5.548 M122.721,672.17v8.299h8.254 M117.173,688.815v-2.751h-2.751
	 M118.525,690.214v-5.549h-5.549 M119.924,691.52v-8.253h-8.3 M121.322,692.918v-22.147 M132.373,681.868h-22.147 M125.426,666.668
	h2.751v-2.751 M124.12,668.066h5.502v-5.549 M122.721,669.372h8.254v-8.253 M128.223,677.718v-2.751h-2.703 M129.622,679.117v-5.549
	h-5.502 M130.975,680.469v-8.299h-8.254 M132.373,681.868v-22.147 M132.373,670.771h-11.051 M54.646,759.641v-22.147
	 M65.697,748.544H43.549 M58.843,733.297h2.705v-2.751 M57.444,734.696h5.502v-5.549 M56.045,736.095h8.253v-8.3"/>
</svg>
