<?xml version="1.0" encoding="utf-8"?>
<!-- Generator: Adobe Illustrator 18.0.0, SVG Export Plug-In . SVG Version: 6.00 Build 0)  -->
<!DOCTYPE svg PUBLIC "-//W3C//DTD SVG 1.1//EN" "http://www.w3.org/Graphics/SVG/1.1/DTD/svg11.dtd">
<svg version="1.1" id="Layer_1" xmlns="http://www.w3.org/2000/svg" xmlns:xlink="http://www.w3.org/1999/xlink" x="0px" y="0px"
	 viewBox="16 16 112 112" enable-background="new 16 16 112 112" xml:space="preserve">
<line fill="none" stroke="#000000" stroke-miterlimit="10" x1="89.8" y1="62.2" x2="54.2" y2="62.2"/>
<polyline fill="none" stroke="#000000" stroke-width="2" stroke-miterlimit="10" points="64,39.9 64,34.3 80.1,34.3 80.1,39.9 "/>
<line fill="none" stroke="#000000" stroke-width="2" stroke-miterlimit="10" x1="83.4" y1="40.7" x2="83.4" y2="62.2"/>
<line fill="none" stroke="#000000" stroke-width="2" stroke-miterlimit="10" x1="60.8" y1="40.7" x2="60.8" y2="62.2"/>
<line fill="none" stroke="#000000" stroke-width="2" stroke-miterlimit="10" x1="87.9" y1="62.8" x2="87.9" y2="113.2"/>
<line fill="none" stroke="#000000" stroke-width="2" stroke-miterlimit="10" x1="56.2" y1="62.8" x2="56.2" y2="113.3"/>
<rect x="53.4" y="113.4" fill="none" stroke="#000000" stroke-width="2" stroke-miterlimit="10" width="37.2" height="9.4"/>
<line fill="none" stroke="#000000" stroke-miterlimit="10" x1="85.5" y1="40.9" x2="58.5" y2="40.9"/>
<line fill="none" stroke="#000000" stroke-miterlimit="10" x1="85.5" y1="40" x2="58.5" y2="40"/>
<line fill="none" stroke="#000000" stroke-miterlimit="10" x1="89.8" y1="63.2" x2="54.2" y2="63.2"/>
<line fill="none" stroke="#000000" stroke-miterlimit="10" x1="79.2" y1="40.9" x2="79.2" y2="58.7"/>
<line fill="none" stroke="#000000" stroke-miterlimit="10" x1="74.5" y1="40.9" x2="74.5" y2="62.1"/>
<line fill="none" stroke="#000000" stroke-miterlimit="10" x1="69.9" y1="40.9" x2="69.9" y2="62.1"/>
<line fill="none" stroke="#000000" stroke-miterlimit="10" x1="65.2" y1="44.3" x2="65.2" y2="62.2"/>
<line fill="none" stroke="#000000" stroke-miterlimit="10" x1="77.3" y1="63.5" x2="77.3" y2="108.3"/>
<line fill="none" stroke="#000000" stroke-miterlimit="10" x1="66.7" y1="63.5" x2="66.7" y2="113.3"/>
<line fill="none" stroke="#000000" stroke-miterlimit="10" x1="82.6" y1="62.8" x2="82.6" y2="106.1"/>
<line fill="none" stroke="#000000" stroke-miterlimit="10" x1="72" y1="66" x2="72" y2="113.3"/>
<line fill="none" stroke="#000000" stroke-miterlimit="10" x1="61.4" y1="69.9" x2="61.4" y2="113.3"/>
<path fill="none" stroke="#000000" stroke-miterlimit="10" d="M53.4,116.7h19.3 M56.5,92.4h23 M87.9,77.5H64.6 M60.8,53.9h15.8
	 M72.1,21.2v13"/>
</svg>
