<?xml version="1.0" encoding="utf-8"?>
<!-- Generator: Adobe Illustrator 18.0.0, SVG Export Plug-In . SVG Version: 6.00 Build 0)  -->
<!DOCTYPE svg PUBLIC "-//W3C//DTD SVG 1.1//EN" "http://www.w3.org/Graphics/SVG/1.1/DTD/svg11.dtd">
<svg version="1.1" id="Layer_1" xmlns="http://www.w3.org/2000/svg" xmlns:xlink="http://www.w3.org/1999/xlink" x="0px" y="0px"
	 viewBox="31 31 82 82" enable-background="new 31 31 82 82" xml:space="preserve">
<line fill="none" stroke="#000000" stroke-miterlimit="10" x1="41.3" y1="82.8" x2="47.4" y2="82.8"/>
<line fill="none" stroke="#000000" stroke-miterlimit="10" x1="41.3" y1="71.8" x2="76.7" y2="71.8"/>
<line fill="none" stroke="#000000" stroke-miterlimit="10" x1="41.3" y1="61.1" x2="102.7" y2="61.1"/>
<line fill="none" stroke="#000000" stroke-miterlimit="10" x1="41.3" y1="50.1" x2="102.7" y2="50.1"/>
<line fill="none" stroke="#000000" stroke-miterlimit="10" x1="94.4" y1="41.3" x2="94.4" y2="64.7"/>
<line fill="none" stroke="#000000" stroke-miterlimit="10" x1="72.1" y1="41.3" x2="72.1" y2="74.7"/>
<line fill="none" stroke="#000000" stroke-miterlimit="10" x1="49.6" y1="41.3" x2="49.6" y2="81"/>
<polyline fill="none" stroke="#000000" stroke-width="2" stroke-miterlimit="10" points="41.2,87 43.6,87.4 46.5,86.3 49.4,82.5 
	52.3,81 55.2,82.9 58.1,83.2 61,80.5 63.9,81.7 66.8,77.2 69.8,78.1 72.7,75.7 75.6,77 78.5,71.2 81.4,73.1 84.3,69.6 87.2,70.7 
	90.1,66.6 93,67.4 95.9,63.9 98.8,62.8 102.8,62.8 "/>
<path fill="none" stroke="#000000" stroke-width="2" stroke-miterlimit="10" d="M44.2,41.2h55.6c1.7,0,3,1.3,3,3v55.5
	c0,1.6-1.3,3-3,3H44.2c-1.7,0-3-1.4-3-3V44.2C41.2,42.6,42.5,41.2,44.2,41.2z"/>
<path fill="none" stroke="#000000" stroke-miterlimit="10" d="M99.8,94.4H44.1"/>
</svg>
